<?xml version="1.0" encoding="UTF-8"?>
<svg width="200px" height="200px" viewBox="0 0 200 200" version="1.1" xmlns="http://www.w3.org/2000/svg" xmlns:xlink="http://www.w3.org/1999/xlink">
    <title>Combined Shape</title>
    <g id="Page-1" stroke="none" stroke-width="1" fill="none" fill-rule="evenodd">
        <g id="Artboard" fill="#000000" fill-rule="nonzero">
            <path d="M100,-4.26325641e-14 C126.52173,-4.26325641e-14 151.957159,10.5356518 170.711291,29.2893228 C189.464697,48.0429938 200,73.4781696 200,99.9998629 C200,119.77778 194.135428,139.112458 183.147439,155.557361 C172.15945,172.002264 156.541421,184.819145 138.268313,192.387637 C119.995931,199.956855 99.889554,201.936899 80.4909071,198.078538 C61.0929868,194.220177 43.2746717,184.695619 29.2894367,170.71033 C15.3041291,156.725768 5.78004528,138.906824 1.92151875,119.50893 C-1.93700778,100.111036 0.0433297934,80.0039594 7.61210095,61.7316753 C15.1808939,43.4590279 27.9981555,27.8411657 44.443081,16.8530465 C60.8880065,5.86489826 80.2220567,-4.26325641e-14 100,-4.26325641e-14 Z M132.381216,21.8256097 C116.919411,15.4212384 99.9062663,13.745576 83.4925856,17.0105054 C67.0787595,20.2753622 52.0017012,28.3342512 40.1679962,40.1678675 C28.3342912,52.0015564 20.2754638,67.078594 17.0105299,83.4924704 C13.7456687,99.9061287 15.4213334,116.91925 21.8256408,132.381034 C28.2300208,147.842091 39.0753736,161.057161 52.9903441,170.355012 C66.9053146,179.652864 83.2651526,184.61569 100.000001,184.61569 C122.441744,184.61569 143.963582,175.700768 159.832296,159.832076 C175.701009,143.963384 184.615944,122.441575 184.615944,99.9998629 C184.615944,83.2643111 179.65311,66.9051494 170.355246,52.9901979 C161.057382,39.075319 147.842294,28.2299083 132.381216,21.8256097 Z M154.085345,108.090615 C156.134772,108.090615 158.100266,108.900861 159.549024,110.342024 C160.997782,111.783188 161.812298,113.738378 161.812298,115.777062 C161.812298,145.444701 134.07351,169.579288 99.9995986,169.579288 C65.9259065,169.579288 38.1877023,145.444701 38.1877023,115.777062 C38.1877023,113.738378 39.0017802,111.783188 40.4507571,110.342024 C41.8998069,108.900861 43.8650088,108.090615 45.9142167,108.090615 C47.9634246,108.090615 49.9286994,108.900861 51.3776763,110.342024 C52.8267262,111.783188 53.6407311,113.738378 53.6407311,115.777062 C53.6407311,136.990117 74.4248242,154.20712 99.9995986,154.20712 C125.574373,154.20712 146.359123,136.990117 146.359123,115.777062 C146.359123,113.738378 147.172909,111.783188 148.621667,110.342024 C150.071155,108.900861 152.035919,108.090615 154.085345,108.090615 Z M51.7796908,45.2434347 C56.5166369,44.0798821 61.5105112,44.6692357 65.8527058,46.9043204 C70.1882513,44.7991427 75.1220672,44.3045053 79.7836333,45.5076201 C84.4459221,46.710735 88.5365366,49.5344447 91.3356444,53.4808333 C94.1340295,57.4272948 95.4609497,62.2431056 95.0822426,67.0793169 C94.7035355,71.915601 92.6430511,76.4616891 89.2650418,79.9166462 L89.2650418,79.9166462 L71.2849118,98.0424204 C70.5736797,98.7651781 69.7274428,99.3393043 68.7951296,99.7305552 C67.8627441,100.122535 66.8627117,100.323625 65.8527058,100.323625 C64.8426998,100.323625 63.8426674,100.122535 62.9102819,99.7305552 C61.9779687,99.3393043 61.1317319,98.7651781 60.4204275,98.0424204 L60.4204275,98.0424204 L42.4405143,79.9166462 C38.9379075,76.4973899 36.7693036,71.9244169 36.3290928,67.0294087 C35.8889542,62.1344005 37.206479,57.2428167 40.0420843,53.2445527 C42.8776897,49.2462159 47.042817,46.4070601 51.7796908,45.2434347 Z M120.387908,45.2434347 C125.124643,44.0798821 130.118668,44.6692357 134.460795,46.9043204 C138.796418,44.7991427 143.730457,44.3045053 148.392029,45.5076201 C153.054323,46.710735 157.144943,49.5344447 159.944054,53.4808333 C162.742442,57.4272948 164.069364,62.2431056 163.690657,67.0793169 C163.311949,71.915601 161.251462,76.4616891 157.873449,79.9166462 L157.873449,79.9166462 L139.893514,98.0424204 C139.18163,98.7651781 138.336043,99.3393043 137.403729,99.7305552 C136.471414,100.122535 135.471164,100.323625 134.460795,100.323625 C133.451149,100.323625 132.450899,100.122535 131.518585,99.7305552 C130.58627,99.3393043 129.73996,98.7651781 129.0288,98.0424204 L129.0288,98.0424204 L111.048864,79.9166462 C107.546543,76.4973899 105.377647,71.9244169 104.937508,67.0294087 C104.497369,62.1344005 105.814895,57.2428167 108.650143,53.2445527 C111.486113,49.2462159 115.651173,46.4070601 120.387908,45.2434347 Z M56.8244448,59.9318108 C56.1522398,59.9318108 55.4870451,60.0691493 54.8689721,60.3356662 C54.250899,60.6021103 53.692812,60.9921227 53.2284622,61.4820971 L53.2284622,61.4820971 L53.2284622,61.9448952 C52.7424307,62.413012 52.3555568,62.9756265 52.0911846,63.5987136 C51.8268847,64.2218008 51.690579,64.8923917 51.690579,65.57005 C51.690579,66.2477083 51.8268847,66.9183721 52.0911846,67.5414593 C52.3555568,68.1645464 52.7424307,68.7271609 53.2284622,69.1952777 L53.2284622,69.1952777 L65.8527058,81.6907542 L78.4769493,68.7324796 C78.9626195,68.2643628 79.3499992,67.7017483 79.614516,67.0786612 C79.8783101,66.455574 80.0149048,65.784983 80.0149048,65.1073247 C80.0149048,64.4295936 79.8783101,63.7590026 79.614516,63.1359155 C79.3499992,62.5128283 78.9626195,61.9502139 78.4769493,61.4820971 C78.0071791,61.00174 77.4470685,60.6202521 76.8298627,60.3598553 C76.2126569,60.0994585 75.5499195,59.9653986 74.8806776,59.9653986 C74.2114357,59.9653986 73.5494211,60.0994585 72.9319262,60.3598553 C72.3145758,60.6202521 71.7547543,61.00174 71.2849118,61.4820971 C70.5736797,62.2050734 69.7274428,62.7789081 68.7951296,63.1704505 C67.8627441,63.5620657 66.8627117,63.7636656 65.8527058,63.7636656 C64.8426998,63.7636656 63.8426674,63.5620657 62.9102819,63.1704505 C61.9779687,62.7789081 61.1317319,62.2050734 60.4204275,61.4820971 C59.9560777,60.9921227 59.3980629,60.6021103 58.7799899,60.3356662 C58.1619168,60.0691493 57.4966499,59.9318108 56.8244448,59.9318108 Z M125.432523,59.9318108 C124.76039,59.9318108 124.095483,60.0691493 123.477554,60.3356662 C122.858902,60.6021103 122.300959,60.9921227 121.83697,61.4820971 L121.83697,61.4820971 L121.83697,61.9448952 C121.350577,62.413012 120.963919,62.9756265 120.699402,63.5987136 C120.434885,64.2218008 120.299013,64.8923917 120.299013,65.57005 C120.299013,66.2477083 120.434885,66.9183721 120.699402,67.5414593 C120.963919,68.1645464 121.350577,68.7271609 121.83697,69.1952777 L121.83697,69.1952777 L134.460795,81.6907542 L147.085343,68.7324796 C147.571014,68.2643628 147.958394,67.7017483 148.222189,67.0786612 C148.486706,66.455574 148.623301,65.784983 148.623301,65.1073247 C148.623301,64.4295936 148.486706,63.7590026 148.222189,63.1359155 C147.958394,62.5128283 147.571014,61.9502139 147.085343,61.4820971 C146.615573,61.00174 146.055461,60.6202521 145.438255,60.3598553 C144.821048,60.0994585 144.15831,59.9653986 143.489067,59.9653986 C142.819825,59.9653986 142.157809,60.0994585 141.53988,60.3598553 C140.922673,60.6202521 140.363285,61.00174 139.893514,61.4820971 C139.18163,62.2050734 138.336043,62.7789081 137.403729,63.1704505 C136.471414,63.5620657 135.471164,63.7636656 134.460795,63.7636656 C133.451149,63.7636656 132.450899,63.5620657 131.518585,63.1704505 C130.58627,62.7789081 129.73996,62.2050734 129.0288,61.4820971 C128.564088,60.9921227 128.006145,60.6021103 127.388215,60.3356662 C126.770286,60.0691493 126.104657,59.9318108 125.432523,59.9318108 Z" id="Combined-Shape"></path>
        </g>
    </g>
</svg>