<?xml version="1.0" encoding="UTF-8"?>
<svg width="361px" height="339px" viewBox="0 0 361 339" version="1.1" xmlns="http://www.w3.org/2000/svg" xmlns:xlink="http://www.w3.org/1999/xlink">
    <title>blue-blob</title>
    <g id="blue-blob" stroke="none" stroke-width="1" fill="none" fill-rule="evenodd">
        <circle id="Oval" fill="#234561" fill-rule="nonzero" cx="157" cy="157" r="157"></circle>
        <path d="M353.053518,130.04553 C349.440183,123.546024 346.217792,117.046518 344.264727,109.770919 C341.920719,100.845846 339.67486,91.9213239 336.354319,83.2875615 C333.327124,75.5266292 329.420995,68.0570067 325.026324,60.9754308 C318.873784,50.984055 311.061525,42.1562693 301.296202,35.3654536 C292.995402,29.6420408 284.694602,23.9186281 275.905259,18.9713086 C270.534056,15.9636725 264.382068,14.023989 258.522874,12.083756 C250.026326,9.36742967 241.432731,6.55436653 232.741539,4.71087029 C223.366608,2.77063722 213.894079,1.80052068 204.323401,0.92769062 C189.479668,-0.333186057 174.635936,-0.624495838 159.987951,2.09183046 C147.390078,4.42011015 135.08555,7.81524321 123.561807,13.7326793 C112.33141,19.456092 101.784751,26.1496213 92.3122219,34.395337 C85.8668881,40.0220129 79.8119466,46.2302091 73.1714166,51.6628617 C65.0658124,58.356391 57.7420958,65.7292767 51.5895562,74.1690157 C47.3900813,79.795142 43.2887558,85.6158412 39.4802247,91.5332773 C34.9879555,98.5175667 30.3004901,105.502406 26.7847532,112.972028 C22.976222,121.023721 19.8514289,129.46346 17.6050186,138.289596 C14.7730198,148.765756 13.1133008,159.247412 13.0151513,169.915945 C12.9175532,177.094258 13.308497,184.272571 13.6988894,191.450883 C13.9916836,196.881337 14.1874312,202.410727 15.3591597,207.654303 C19.1676909,224.62722 23.6599601,241.413259 32.1559566,256.737253 C34.9879555,261.881894 37.3319639,267.312348 40.8471494,271.868872 C44.9490262,277.205887 49.9292859,281.960283 55.007695,286.423369 C59.6951604,290.496209 64.8706162,293.98643 69.8514273,297.674522 C70.0466235,297.674522 70.3394177,297.773457 70.5346139,297.773457 C78.1516762,302.428917 85.5735424,307.276752 93.3863523,311.646399 C100.319677,315.526865 107.35115,319.308395 114.675418,322.413868 C128.640216,328.234567 142.995407,332.890027 157.936737,335.797628 C173.366609,338.804165 188.89408,339.875965 204.616746,338.227042 C208.913268,337.737861 213.210341,337.254177 217.409264,336.286809 C223.659402,334.83026 229.811942,333.181337 235.96393,331.334543 C245.827402,328.426941 255.104735,324.062791 263.795928,318.533401 C268.580991,315.526865 273.170859,312.229018 277.955922,309.02461 C282.155397,305.24308 286.354321,301.456053 290.651394,297.674522 C292.01887,296.509283 293.385794,295.442979 294.850868,294.27774 C295.338859,293.601681 295.827401,292.920126 296.315391,292.244068 C297.194325,291.271203 298.170858,290.397274 299.049792,289.429905 C300.612464,287.973356 302.272735,286.516808 303.834855,285.159194 C305.690322,282.735277 307.545789,280.410295 309.303657,277.980881 C309.889797,277.205887 310.475386,276.331958 310.963927,275.458029 C312.135656,274.100415 313.307384,272.649363 314.382066,271.291749 C314.870057,270.318884 315.358598,269.444955 315.846589,268.477587 C316.335131,268.279716 316.725523,267.988406 317.214065,267.796032 C317.702055,267.119973 318.190597,266.438418 318.678588,265.756863 C318.873784,265.273179 319.16713,264.88843 319.362326,264.39925 C321.412989,261.392713 323.561249,258.292737 325.612463,255.280704 C325.80766,254.604645 326.100454,253.923091 326.29565,253.247032 C326.588996,252.757851 326.784192,252.274167 327.076986,251.889418 C328.444462,249.075256 329.811387,246.261094 331.178863,243.446931 C333.52232,237.241483 335.963927,230.931603 338.209785,224.726155 C339.967654,219.872825 341.139382,214.634745 343.483391,210.07822 C346.412988,204.35096 350.221519,199.019441 352.858322,193.000871 C355.787918,186.405178 358.424721,179.809485 359.694048,172.730108 C362.721794,157.592992 360.475384,143.335302 353.053518,130.04553 Z M44.5580824,117.046518 C52.2732942,95.5104803 64.870617,76.9820789 79.8119466,59.811291 C81.6674131,57.6775843 83.8162253,55.834088 86.0620842,54.2819016 C90.1634097,51.3721016 94.6556789,52.0509083 99.1479481,53.311785 C100.808218,53.7971181 102.566087,54.1851647 104.323955,54.0878783 C105.300488,54.0878783 106.862608,53.1177617 106.960207,52.3416685 C107.058356,51.1780783 106.667412,49.5286054 105.788478,48.7525121 C104.03061,47.2976121 101.882349,46.2302091 99.9292842,45.0660693 C98.2690139,43.9992159 97.6828739,42.8350761 99.5388918,41.2828896 C112.526606,30.0300874 126.78475,21.1055649 143.190603,15.5756259 C156.277018,11.2103763 169.655676,9.36742967 183.32768,8.68807327 C205.495129,7.52448307 227.175139,10.434283 248.170859,16.8370522 C271.41299,23.9186281 292.311664,35.2687167 309.108461,53.0210249 C317.311663,61.6547872 323.463651,71.6467127 327.760724,82.6082051 C330.006583,88.5261908 331.86205,94.6376502 333.815114,100.74911 C334.10846,101.525203 334.010862,102.495319 334.303656,104.338266 C329.616191,100.651823 325.80766,97.25669 321.608185,94.4436269 C316.725523,91.1452307 311.451918,88.4289044 306.37406,85.3245314 C303.249267,83.3842984 299.831128,81.5413518 297.194325,79.0190488 C284.694602,66.6993932 269.557524,58.8417241 253.346867,53.0210249 C242.506862,49.1405587 231.178866,47.2976121 219.655675,47.2976121 C209.304212,47.2003257 198.854599,46.9095655 188.600734,48.1704422 C172.194881,50.1106753 155.886075,53.5058083 140.456754,59.811291 C129.616749,64.2738271 118.48395,68.5423398 108.620477,74.8478225 C94.6556789,83.6756082 79.2263581,90.271851 66.9212789,101.62194 C57.9372919,109.964942 49.6364916,118.889464 42.9959616,129.269436 C42.5074197,130.04553 41.9218312,130.91836 41.3356912,131.694453 C40.8471494,131.50043 40.3591589,131.306406 39.870617,131.112383 C41.5308874,126.359087 42.8983635,121.702527 44.5580824,117.046518 Z M272.291924,70.8706195 C252.272736,67.0868902 232.350595,63.400997 211.940463,63.1096872 C191.628481,62.8189271 171.413545,64.2738271 151.296207,66.9901534 C151.198609,66.4080834 151.101011,65.8260135 151.003413,65.2439436 C174.343142,57.2895376 198.366609,53.311785 223.17086,55.1552813 C240.651395,56.4161579 257.54579,60.3933609 272.291924,70.8706195 Z M47.683427,142.367933 C44.8514281,155.85063 42.0194293,169.5257 39.1874304,183.305202 C37.9175524,168.750706 39.4802247,154.784326 47.683427,142.367933 Z M58.3276843,279.245056 C56.8631615,277.887442 55.3004893,276.623268 53.9330132,275.166719 C52.1756962,273.226486 50.5154258,271.192814 48.8551555,269.153645 C48.3666136,268.477587 47.8786231,267.894967 47.4882308,267.213412 C47.3900813,266.537354 47.3900813,265.855799 47.2924832,265.17974 C47.097287,264.981869 46.9020908,264.69056 46.7068946,264.498185 C44.6556805,261.200339 42.6050178,258.001427 40.456757,254.698084 C37.0386182,246.453468 32.9372928,238.401226 30.4956863,229.8653 C27.6636874,219.97176 25.5154266,209.594536 24.3436981,199.40419 C23.0738201,187.861727 22.6834278,176.220329 22.976222,164.677866 C23.0738201,157.790863 25.1244829,150.997299 26.2967628,144.209231 C26.4919589,143.335302 26.9799494,142.560308 27.3708932,141.785314 C27.6636874,141.785314 27.9570331,141.878753 28.2498274,141.878753 C28.0546312,145.37447 27.6636874,148.765756 27.5660893,152.162538 C27.3708932,160.407154 26.9799494,168.657267 27.175697,176.901884 C27.3708932,183.788887 28.3474255,190.774825 29.1287616,197.661828 C30.3004901,208.231426 32.0583585,218.713082 35.7692916,228.798996 C38.4060943,235.977309 40.7495513,243.254557 43.2887558,250.43287 C43.483952,250.916554 43.7772977,251.400238 43.9724939,251.889418 C45.1442224,253.340471 46.2183528,254.79702 47.3900813,256.154633 C51.2967619,263.624256 55.2028912,271.192814 59.0114223,278.662436 C58.7186281,278.854811 58.5228805,279.047185 58.3276843,279.245056 Z M127.370338,309.02461 C116.433287,307.183313 105.300488,306.309383 95.5346131,300.389749 C91.5308858,297.965832 88.0151489,294.959295 84.2066177,292.244068 C83.2300854,291.469074 82.155955,290.886454 81.0818246,290.105964 C80.5932827,289.429905 80.1052923,288.74835 79.6167504,288.072292 C79.6167504,287.879917 79.6167504,287.588608 79.6167504,287.390737 C78.9330124,287.099427 78.2498257,286.808117 77.5660877,286.615743 C69.6556797,278.178752 62.9175516,268.961271 59.7927585,257.512247 C61.0620851,257.902492 61.9410193,258.677486 62.8199535,259.45248 C63.5036915,260.134035 64.1868782,260.810093 64.9682143,261.491648 C67.0194284,263.822127 69.1676892,266.147109 71.218352,268.477587 C73.8551546,271.000439 76.4919573,273.517796 79.12876,276.139584 C79.4215542,276.623268 79.6167504,277.304823 80.1052923,277.689572 C82.7415435,280.02005 85.4759443,282.251593 88.112747,284.483136 C88.3079431,284.483136 88.6012888,284.483136 88.8940831,284.3842 C92.0188762,286.230994 95.2418188,287.879917 98.0738177,290.012525 C107.839141,297.190838 118.581548,302.329982 129.811945,306.793068 C130.398085,306.985442 130.983673,307.474623 131.472215,308.639862 C130.104739,308.925675 128.737815,309.31592 127.370338,309.02461 Z M169.948471,329.493245 C170.339414,328.525877 170.729807,327.651947 171.413545,326.096463 C162.23381,323.771481 153.542618,321.441003 144.850873,319.20946 C144.850873,318.91815 144.948472,318.62684 144.948472,318.434466 C146.413546,318.143156 147.78047,317.659472 149.245545,317.560537 C162.624203,316.977917 176.003412,316.301859 189.479668,317.950782 C196.120198,318.824711 203.054074,318.044221 209.792202,317.368162 C219.362329,316.395298 229.030606,315.136619 238.503134,313.295322 C246.413542,311.646399 254.225801,308.925675 262.038059,306.699629 C263.405535,306.309383 264.674862,305.919138 266.627927,305.336519 C246.217795,324.64541 196.901534,336.770493 169.948471,329.493245 Z M318.58099,245.095854 C312.624198,256.737253 305.397528,267.603657 295.631653,276.529829 C285.475386,285.840749 273.756999,292.727752 261.061527,298.064767 C248.464205,303.302847 235.378341,306.501758 221.901534,308.249617 C215.651396,309.02461 209.304212,309.414856 202.858878,309.60723 C224.733533,301.071304 245.925001,291.177764 265.944189,279.047185 C285.963928,266.828663 303.834855,251.982857 320.8274,236.076244 C321.31539,236.367554 321.705783,236.559928 322.194325,236.851238 C320.924998,239.566465 319.948466,242.479563 318.58099,245.095854 Z M332.838582,203.966211 C332.155395,210.171659 327.760724,214.249996 324.049791,218.614146 C319.069532,224.242471 313.795926,229.480551 308.424723,234.718631 C297.389522,245.777409 285.28019,255.769885 272.096728,264.206875 C260.182593,271.868872 247.975663,279.14612 235.573537,285.939684 C227.077541,290.496209 218.093003,294.475611 208.913268,297.575586 C196.999133,301.456053 184.889801,304.852835 172.585273,307.183313 C166.432734,308.348552 159.597008,307.183313 153.249272,306.018074 C137.429007,303.104976 122.682873,296.707154 108.815673,288.74835 C104.61675,286.324433 100.71062,283.317896 96.6087435,280.602669 C96.023155,280.31136 95.3394169,280.02005 94.753277,279.72874 C94.753277,279.536366 94.753277,279.338495 94.6556789,279.14612 C94.6556789,278.953746 94.6556789,278.662436 94.6556789,278.470062 C93.7767447,277.980881 92.8978104,277.497197 92.1170257,277.013513 C89.8706154,275.458029 87.7223546,273.809105 85.4759443,272.259118 C85.4759443,271.775433 85.4759443,271.291749 85.4759443,270.901504 L85.3783462,270.901504 L85.18315,270.901504 L84.9879538,270.901504 C84.6951596,270.901504 84.4018139,270.901504 84.1090196,270.901504 C83.9138234,269.8352 83.8162253,268.768897 83.7180759,268.087342 C82.5463474,267.796032 81.1794227,267.796032 80.4956846,267.119973 C78.3474238,265.080805 76.4919573,262.656888 74.4412946,260.518784 C71.7068938,257.611182 68.874895,254.79702 66.1404942,251.982857 C66.1404942,251.790483 66.1404942,251.598109 66.0423447,251.400238 C65.5543543,250.531805 65.0658124,249.657876 64.577822,248.783946 L64.4802239,248.685011 C64.2850277,248.492636 64.0892801,248.300262 63.8940839,248.102391 C62.7223554,245.969784 61.5506269,243.930615 60.378347,241.798008 C59.9879547,241.699073 59.4994128,241.699073 59.1090204,241.605634 C58.6204786,240.924079 58.1324881,240.24802 57.5463482,239.6654 C57.5463482,238.983845 57.4487501,238.208852 57.4487501,237.532793 C57.0583577,237.334922 56.5698159,237.043612 56.1794235,236.851238 C56.1794235,236.658864 56.1794235,236.367554 56.0818254,236.169683 C55.8866292,235.977309 55.6908816,235.685999 55.4956855,235.493625 C51.1991638,228.700061 50.124482,221.038064 49.8316878,213.277131 C49.6364916,206.098819 49.4412954,198.920506 49.8316878,191.742193 C51.0034163,168.168087 55.6908816,145.37447 69.6556797,125.777017 C75.9058173,116.949231 83.6204778,108.994825 90.7495496,100.74911 C99.4407424,90.8539209 111.062083,86.294648 123.464209,83.0935382 C126.589554,82.317445 129.714347,81.1533052 132.741542,80.1831886 C146.120751,76.2059856 159.889802,74.4597759 173.757002,73.3929225 C187.136211,72.3255195 200.514869,71.355403 213.991677,71.4526894 C224.538336,71.5494263 235.084996,73.1016127 245.534608,74.6537992 C254.616193,76.0119623 263.600732,78.0489322 272.487672,80.2804751 C278.834856,81.8321119 284.987396,83.9663683 291.042337,86.3919345 C298.952194,89.4957577 303.346865,96.3833103 308.229527,102.786079 C316.627925,113.748122 322.878063,125.97104 327.076986,139.06459 C330.592723,150.222305 333.131928,161.572393 334.10846,173.312727 C334.694049,183.497577 333.913264,193.682426 332.838582,203.966211 Z M339.577262,146.534213 C332.740984,131.791739 325.905258,117.143255 318.776186,101.62194 C321.31539,103.465436 323.561249,104.920336 325.514865,106.666546 C328.444462,109.285585 331.178863,112.195935 334.010862,115.008998 C338.209785,119.277511 338.600729,124.8069 339.08872,130.142267 C339.577262,134.895563 339.67486,139.64721 339.870056,144.308167 C339.870056,145.176599 339.67486,145.858154 339.577262,146.534213 Z M348.170856,172.730108 C348.46365,165.353924 348.854594,157.983237 349.147388,150.61255 C352.95592,158.082172 352.076985,165.45286 348.170856,172.730108 Z" id="Shape" fill="#A4DBEB" fill-rule="nonzero"></path>
    </g>
</svg>