<?xml version="1.0" encoding="UTF-8"?>
<svg width="163px" height="158px" viewBox="0 0 163 158" version="1.1" xmlns="http://www.w3.org/2000/svg" xmlns:xlink="http://www.w3.org/1999/xlink">
    <title>Combined Shape</title>
    <g id="Page-1" stroke="none" stroke-width="1" fill="none" fill-rule="evenodd">
        <g id="2020-copy-2" transform="translate(-1187.000000, -19767.000000)" fill="#00A6EF">
            <g id="Group-33" transform="translate(90.000000, 19423.000000)">
                <path d="M1176.98332,344.058122 C1220.94546,344.058122 1256.58233,379.331447 1256.58233,422.847374 C1256.58233,440.390078 1250.7902,456.595247 1240.99643,469.681344 C1241.05972,470.051653 1241.12486,470.42012 1241.18814,470.779375 C1243.1871,481.896018 1251.8846,490.672897 1258.66132,495.991715 C1260.73286,497.616653 1259.71664,501.133669 1257.18723,501.133669 C1257.09789,501.133669 1257.00483,501.129984 1256.91177,501.120772 C1247.22782,500.192236 1231.90435,497.719824 1216.57158,491.22007 C1204.91287,497.846945 1191.39293,501.634783 1176.98332,501.634783 C1133.02305,501.634783 1097.38431,466.363301 1097.38431,422.847374 C1097.38431,379.331447 1133.02305,344.058122 1176.98332,344.058122 Z M1134.53622,407.091735 C1125.74566,407.091735 1118.61717,414.144189 1118.61717,422.847374 C1118.61717,431.548717 1125.74566,438.606698 1134.53622,438.606698 C1143.32679,438.606698 1150.45528,431.548717 1150.45528,422.847374 C1150.45528,414.144189 1143.32679,407.091735 1134.53622,407.091735 Z M1176.98891,407.091735 C1168.19462,407.091735 1161.06985,414.144189 1161.06985,422.847374 C1161.06985,431.548717 1168.19462,438.606698 1176.98891,438.606698 C1185.78133,438.606698 1192.9061,431.548717 1192.9061,422.847374 C1192.9061,414.144189 1185.78133,407.091735 1176.98891,407.091735 Z M1219.43973,407.091735 C1210.65102,407.091735 1203.52067,414.144189 1203.52067,422.847374 C1203.52067,431.548717 1210.65102,438.606698 1219.43973,438.606698 C1228.23401,438.606698 1235.35878,431.548717 1235.35878,422.847374 C1235.35878,414.144189 1228.23401,407.091735 1219.43973,407.091735 Z" id="Combined-Shape"></path>
            </g>
        </g>
    </g>
</svg>