<?xml version="1.0" encoding="UTF-8"?>
<svg width="205px" height="160px" viewBox="0 0 205 160" version="1.1" xmlns="http://www.w3.org/2000/svg" xmlns:xlink="http://www.w3.org/1999/xlink">
    <title>chicagocamps-logo</title>
    <g id="chicagocamps-logo" stroke="none" stroke-width="1" fill="none" fill-rule="evenodd">
        <path d="M100.648045,141.944134 C106.011173,141.944134 109.854749,145.96648 109.854749,150.882682 L109.854749,150.972067 C109.854749,155.977654 105.921788,160 100.558659,160 C95.1955307,160 91.3519553,155.977654 91.3519553,151.061453 L91.3519553,150.972067 C91.3519553,146.055866 95.2849162,141.944134 100.648045,141.944134 Z M9.11731844,141.944134 C12.424581,141.944134 14.3910615,143.01676 16,144.625698 L13.5865922,147.396648 C12.2458101,146.145251 10.9050279,145.430168 9.11731844,145.430168 C6.16759777,145.430168 4.11173184,147.843575 4.11173184,150.882682 L4.11173184,150.972067 C4.11173184,153.921788 6.16759777,156.424581 9.11731844,156.424581 C11.0837989,156.424581 12.3351955,155.620112 13.6759777,154.368715 L16.0893855,156.871508 C14.301676,158.837989 12.2458101,160 8.93854749,160 C3.84357542,160 1.84741111e-13,156.067039 1.84741111e-13,151.061453 L1.84741111e-13,150.972067 C1.84741111e-13,146.055866 3.75418994,141.944134 9.11731844,141.944134 Z M49.3407821,141.944134 C52.6480447,141.944134 54.6145251,143.01676 56.2234637,144.625698 L53.8100559,147.396648 C52.4692737,146.145251 51.1284916,145.430168 49.3407821,145.430168 C46.3910615,145.430168 44.3351955,147.843575 44.3351955,150.882682 L44.3351955,150.972067 C44.3351955,153.921788 46.3910615,156.424581 49.3407821,156.424581 C51.3072626,156.424581 52.5586592,155.620112 53.8994413,154.368715 L56.3128492,156.871508 C54.5251397,158.837989 52.4692737,160 49.1620112,160 C44.0670391,160 40.2234637,156.067039 40.2234637,151.061453 L40.2234637,150.972067 C40.2234637,146.055866 43.9776536,141.944134 49.3407821,141.944134 Z M132.022346,141.944134 C135.329609,141.944134 137.296089,143.01676 138.905028,144.625698 L136.49162,147.396648 C135.150838,146.145251 133.810056,145.430168 132.022346,145.430168 C129.072626,145.430168 127.01676,147.843575 127.01676,150.882682 L127.01676,150.972067 C127.01676,153.921788 129.072626,156.424581 132.022346,156.424581 C133.988827,156.424581 135.240223,155.620112 136.581006,154.368715 L138.994413,156.871508 C137.206704,158.837989 135.240223,160 131.843575,160 C126.748603,160 122.905028,156.067039 122.905028,151.061453 L122.905028,150.972067 C122.905028,146.055866 126.659218,141.944134 132.022346,141.944134 Z M82.6815642,141.944134 C85.8100559,141.944134 87.6871508,142.748603 89.5642458,144.357542 L87.150838,147.307263 C85.8100559,146.145251 84.6480447,145.519553 82.5921788,145.519553 C79.8212291,145.519553 77.5865922,148.022346 77.5865922,150.972067 L77.5865922,151.061453 C77.5865922,154.27933 79.7318436,156.603352 82.8603352,156.603352 C84.2905028,156.603352 85.452514,156.24581 86.4357542,155.530726 L86.4357542,153.027933 L82.5921788,153.027933 L82.5921788,149.72067 L90.1899441,149.72067 L90.1899441,157.318436 C88.3128492,158.748603 85.8994413,160 82.6815642,160 C77.2290503,160 73.5642458,156.156425 73.5642458,151.061453 L73.5642458,150.972067 C73.5642458,146.055866 77.4078212,141.944134 82.6815642,141.944134 Z M198.435754,141.944134 C200.938547,141.944134 203.173184,142.748603 204.871508,144.178771 L202.905028,147.039106 C201.385475,145.96648 199.865922,145.340782 198.346369,145.340782 C196.916201,145.340782 196.111732,146.055866 196.111732,146.860335 L196.111732,146.949721 C196.111732,148.111732 196.826816,148.469274 199.865922,149.273743 C203.441341,150.167598 205.407821,151.418994 205.407821,154.458101 L205.407821,154.547486 C205.586592,158.03352 202.994413,159.910615 199.150838,159.910615 C196.469274,159.910615 193.877095,159.01676 191.731844,157.139665 L193.96648,154.458101 C195.575419,155.709497 197.184358,156.603352 199.150838,156.603352 C200.759777,156.603352 201.653631,155.977654 201.653631,154.994413 L201.653631,154.905028 C201.653631,153.921788 201.027933,153.47486 198.167598,152.670391 C194.681564,151.776536 192.357542,150.793296 192.357542,147.307263 L192.357542,147.217877 C192.357542,144.089385 194.860335,141.944134 198.435754,141.944134 Z M38.4357542,142.301676 L38.4357542,159.731844 L34.5921788,159.731844 L34.5921788,142.301676 L38.4357542,142.301676 Z M149.72067,142.212291 L157.139665,159.731844 L153.206704,159.731844 L151.597765,155.798883 L144.268156,155.798883 L142.659218,159.731844 L138.726257,159.731844 L146.145251,142.212291 L149.72067,142.212291 Z M66.9497207,142.212291 L74.3687151,159.731844 L70.4357542,159.731844 L68.8268156,155.798883 L61.4972067,155.798883 L59.8882682,159.731844 L55.9553073,159.731844 L63.3743017,142.212291 L66.9497207,142.212291 Z M21.0055866,142.301676 L21.0055866,149.184358 L28.0670391,149.184358 L28.0670391,142.301676 L31.9106145,142.301676 L31.9106145,159.731844 L28.0670391,159.731844 L28.0670391,152.759777 L21.0055866,152.759777 L21.0055866,159.731844 L17.1620112,159.731844 L17.1620112,142.301676 L21.0055866,142.301676 Z M162.145251,142.212291 L166.703911,149.541899 L171.26257,142.212291 L175.374302,142.212291 L175.374302,159.642458 L171.620112,159.642458 L171.620112,148.379888 L166.703911,155.798883 L166.614525,155.798883 L161.787709,148.379888 L161.787709,159.642458 L158.03352,159.642458 L158.03352,142.212291 L162.145251,142.212291 Z M185.206704,142.212291 C189.318436,142.212291 191.910615,144.715084 191.910615,148.201117 L191.910615,148.290503 C191.821229,152.402235 188.692737,154.458101 184.849162,154.458101 L181.899441,154.458101 L181.899441,159.642458 L178.055866,159.642458 L178.055866,142.212291 L185.206704,142.212291 Z M100.558659,145.519553 C97.4301676,145.519553 95.3743017,147.932961 95.3743017,150.972067 L95.3743017,151.061453 C95.3743017,154.011173 97.5195531,156.513966 100.648045,156.513966 C103.687151,156.424581 105.832402,154.011173 105.832402,150.972067 C105.832402,148.022346 103.687151,145.519553 100.558659,145.519553 Z M116.379888,147.664804 L117.005587,150.435754 L119.687151,149.631285 L117.631285,151.50838 L119.687151,153.47486 L117.005587,152.670391 L116.379888,155.351955 L115.75419,152.670391 L113.072626,153.47486 L115.128492,151.50838 L113.072626,149.631285 L115.75419,150.435754 L116.379888,147.664804 Z M147.932961,146.77095 L145.608939,152.402235 L150.256983,152.402235 L147.932961,146.77095 Z M65.1620112,146.77095 L62.8379888,152.402235 L67.4860335,152.402235 L65.1620112,146.77095 Z M184.849162,145.787709 L181.899441,145.787709 L181.899441,151.150838 L184.938547,151.150838 C186.815642,151.061453 187.977654,149.899441 187.977654,148.379888 C187.977654,146.681564 186.815642,145.787709 184.849162,145.787709 Z M69.3631285,42.0111732 L79.1955307,51.8435754 C71.3296089,58.547486 66.4134078,68.4692737 66.4134078,79.5530726 C66.4134078,99.7541899 82.7709497,116.111732 102.972067,116.111732 C123.173184,116.111732 139.530726,99.6648045 139.530726,79.5530726 C139.530726,69.7239208 135.653317,60.84258 129.336666,54.2626185 L128.98324,53.8994413 L138.815642,44.0670391 C147.843575,53.1843575 153.47486,65.698324 153.47486,79.5530726 C153.47486,107.441341 130.860335,130.055866 102.972067,130.055866 C75.0837989,130.055866 52.4692737,107.351955 52.4692737,79.5530726 C52.4692737,64.6256983 58.9944134,51.2178771 69.3631285,42.0111732 Z M80.5363128,53.1843575 L90.726257,63.4636872 C85.8100559,67.2178771 82.6815642,73.027933 82.6815642,79.6424581 C82.6815642,90.8156425 91.7988827,99.9329609 102.972067,99.9329609 C114.145251,99.9329609 123.26257,90.8156425 123.26257,79.6424581 C123.26257,74.2545003 121.150355,69.373474 117.747343,65.7386544 L117.452514,65.4301676 L127.642458,55.2402235 C133.810056,61.4972067 137.653631,70.0782123 137.653631,79.5530726 C137.653631,98.6815642 122.100559,114.234637 102.972067,114.234637 C83.8435754,114.234637 68.2905028,98.6815642 68.2905028,79.5530726 C68.2905028,69.0055866 73.027933,59.6201117 80.5363128,53.1843575 Z M102.703911,68.5586592 L104.670391,76.603352 L112.625698,74.2793296 L106.547486,79.9106145 L112.625698,85.6312849 L104.670391,83.2178771 L102.703911,91.3519553 L100.826816,83.2178771 L92.8715084,85.6312849 L98.9497207,79.9106145 L92.8715084,74.2793296 L100.826816,76.603352 L102.703911,68.5586592 Z M103.240223,3.57541899 C112.178771,7.32960894 116.469274,17.7877095 112.625698,26.8156425 C112.625698,26.8156425 111.642458,29.0502793 110.212291,31.7318436 C112.446927,33.7877095 114.502793,36.2011173 116.201117,38.7932961 C117.810056,41.8324022 118.972067,45.1396648 119.061453,48.3575419 C119.061453,56.7597765 112.268156,63.5530726 103.865922,63.5530726 C95.4636872,63.5530726 88.6703911,56.7597765 88.6703911,48.3575419 C88.6703911,45.6043063 89.6322589,43.0113819 90.8850868,40.7934593 C90.0716957,40.4996945 89.4346336,39.7922962 89.2412539,38.9709368 L89.2067039,38.7932961 L89.1405844,38.574258 C88.4853364,36.0606516 90.9606974,32.4460259 92.0603696,30.8847894 L92.154,30.75 L92.1046474,30.827478 C91.4057594,31.9089641 90.3980132,34.1718325 92.9421355,36.2262217 L93.1396648,36.3798883 L93.2905028,36.498862 C93.421167,36.612216 93.5382686,36.7421464 93.6418078,36.8845864 C94.7506228,35.6223327 96.6270115,33.6767847 98.7709497,31.4636872 C96,27.0837989 94.122905,22.8826816 94.4804469,20.5586592 C95.3743017,14.7486034 99.2178771,13.2290503 99.2178771,13.2290503 C99.2178771,13.2290503 96.6256983,18.5027933 99.6648045,22.1675978 C100.558659,23.3296089 101.988827,24.5810056 103.687151,26.0111732 C106.189944,23.2402235 108.335196,20.5586592 109.318436,18.5921788 C111.910615,13.1396648 109.050279,6.07821229 103.240223,3.57541899 Z M104.402235,39.9553073 C101.631285,43.7988827 99.396648,48.8044693 103.687151,53.1843575 C108.156425,48.7150838 107.26257,44.603352 104.402235,39.9553073 Z M118.346369,22.8826816 C119.388348,24.3588188 122.032991,28.112425 121.445796,30.7019916 L121.385475,30.9273743 C121.206704,32.0893855 120.134078,33.0726257 118.882682,33.0726257 C117.452514,33.0726257 116.379888,31.9106145 116.379888,30.5698324 C116.379888,29.7447357 116.684539,29.0719646 117.223537,28.6218231 L117.363128,28.5139665 C120.223464,26.3687151 119.061453,23.9553073 118.346369,22.8826816 Z M98.9497207,-2.54907206e-13 C98.2516627,1.04708699 97.1277062,3.37186942 99.7354316,5.47761834 L99.9329609,5.63128492 L100.064173,5.74891281 C100.61977,6.27020864 100.999202,6.94014366 100.916201,7.68715084 C100.916201,9.02793296 99.7541899,10.1899441 98.4134078,10.1899441 C97.2188928,10.1899441 96.1872663,9.2940579 95.9404656,8.20196517 L95.9106145,8.04469274 L95.8502931,7.81931 C95.2630988,5.22974347 97.9077414,1.47613727 98.9497207,-2.54907206e-13 Z" id="Combined-Shape-Copy-2" fill="#1F2937" fill-rule="nonzero"></path>
    </g>
</svg>