<?xml version="1.0" encoding="UTF-8"?>
<svg width="360px" height="115px" viewBox="0 0 360 115" version="1.1" xmlns="http://www.w3.org/2000/svg" xmlns:xlink="http://www.w3.org/1999/xlink">
    <title>ixda-logo</title>
    <g id="ixda-logo" stroke="none" stroke-width="1" fill="none" fill-rule="evenodd">
        <g id="ixda-campinas-seeklogo.com-copy-2" transform="translate(0.000000, 0.000000)">
            <polygon id="Fill-9" fill="#1F2937" points="0.162441253 114.591645 17.1998564 114.591645 17.1998564 2.24865535 0.162441253 2.24865535"></polygon>
            <path d="M189.154883,98.5015535 L209.508081,98.5015535 C219.129347,98.5015535 225.915248,95.1896736 230.334491,88.7208486 C234.121684,83.042611 234.592794,79.8820627 234.592794,59.0553525 C234.592794,38.8567885 234.121684,33.9667363 229.544204,27.8119843 C224.336775,20.7048042 218.658238,18.345953 209.508081,18.345953 L189.154883,18.345953 L189.154883,98.5015535 Z M172.110862,2.24865535 L211.403329,2.24865535 C226.22812,2.24865535 238.38329,8.87721932 245.637598,21.1840209 C251.162402,30.6515535 251.630809,34.9134595 251.630809,58.4206005 C251.630809,83.6686554 250.369713,88.0906005 245.322324,95.977859 C238.698564,106.390914 227.018407,114.591645 210.296266,114.591645 L172.110862,114.591645 L172.110862,2.24865535 L172.110862,2.24865535 Z" id="Fill-10" fill="#1F2937"></path>
            <path d="M328.080287,74.3605614 L311.836162,25.2819843 L311.514883,25.2819843 L295.258747,74.3605614 L328.080287,74.3605614 Z M332.974543,89.5072324 L290.367493,89.5072324 L281.689948,114.591645 L263.698303,114.591645 L304.572846,2.24865535 L318.775196,2.24865535 L359.640731,114.591645 L341.655091,114.591645 L332.974543,89.5072324 L332.974543,89.5072324 Z" id="Fill-11" fill="#1F2937"></path>
            <path d="M96.5867885,24.712389 C95.6157441,25.6813316 94.0249608,25.6813316 93.0539164,24.712389 L82.9306136,14.5848825 C81.9595692,13.6153394 81.9595692,12.0263577 82.9306136,11.0553133 L93.0539164,0.930809399 C94.0249608,-0.0369321149 95.6157441,-0.0369321149 96.5867885,0.930809399 L106.712193,11.0553133 C107.680836,12.0263577 107.680836,13.6153394 106.712193,14.5848825 L96.5867885,24.712389" id="Fill-12" fill-opacity="0.5" fill="#1F2937"></path>
            <path d="M45.1088251,29.6477807 C45.1067232,29.8507572 45.1067232,30.0591384 45.1088251,30.2459008 L45.1088251,29.6477807" id="Fill-13" fill="#59BCB5"></path>
            <path d="M59.184765,114.603655 C59.5778068,114.603655 59.9333159,114.607859 60.2717102,114.603655 L59.184765,114.603655" id="Fill-14" fill="#59BCB5"></path>
            <path d="M127.744883,15.6081723 C127.784517,15.5829504 127.820248,15.5499217 127.861984,15.5277023 C127.824151,15.5487206 127.784517,15.5838512 127.744883,15.6081723" id="Fill-15" fill="#59BCB5"></path>
            <line x1="128.62705" y1="15.2730809" x2="128.62705" y2="15.2730809" id="Fill-16" fill="#59BCB5"></line>
            <path d="M61.2571671,114.47124 C61.09953,114.515379 60.941893,114.559517 60.7695431,114.57423 C60.9358877,114.555914 61.1019321,114.515379 61.2571671,114.47124" id="Fill-17" fill="#59BCB5"></path>
            <path d="M45.1679765,30.9794386 C45.1760836,31.0349869 45.1904961,31.0863316 45.1992037,31.1394778 C45.1904961,31.0863316 45.1739817,31.0349869 45.1679765,30.9794386" id="Fill-18" fill="#59BCB5"></path>
            <path d="M45.1088251,99.3509922 C45.1022193,99.6869843 45.1067232,100.043995 45.1088251,100.439439 L45.1088251,99.3509922" id="Fill-19" fill="#59BCB5"></path>
            <path d="M128.154439,114.423198 C128.410561,114.517781 128.683799,114.57423 128.969948,114.591645 C128.681697,114.584739 128.40906,114.52799 128.154439,114.423198" id="Fill-20" fill="#59BCB5"></path>
            <path d="M62.3248956,113.897441 C62.1336292,114.086606 61.9003264,114.231932 61.6544125,114.351736 C61.8817102,114.248747 62.1042037,114.09111 62.3248956,113.897441" id="Fill-21" fill="#59BCB5"></path>
            <path d="M144.525875,99.1912533 L144.525875,100.531619 C144.525875,100.02718 144.539987,99.5987076 144.525875,99.1912533" id="Fill-22" fill="#59BCB5"></path>
            <path d="M130.449334,114.603655 L129.20295,114.603655 C129.581279,114.612363 129.986932,114.603655 130.449334,114.603655" id="Fill-23" fill="#59BCB5"></path>
            <path d="M126.569661,112.149321 L126.569661,99.1005744 C126.569661,97.7515013 127.67312,96.6459399 129.026697,96.6459399 L142.07094,96.6459399 C143.079817,96.6459399 143.953877,97.2680809 144.330104,98.1466449 C144.210601,97.8589948 144.04846,97.572846 143.762611,97.2866971 L113.146789,66.6627676 C112.176345,65.6902219 112.176345,64.103342 113.146789,63.1322977 L143.525405,32.7365666 C143.60107,32.6615013 143.638303,32.5768277 143.705862,32.4969582 C143.268681,32.8930026 142.705392,33.1503264 142.073342,33.1503264 L129.026697,33.1503264 C127.67312,33.1503264 126.569661,32.044765 126.569661,30.6977937 L126.569661,17.6469452 C126.569661,16.9998825 126.834491,16.4143734 127.250352,15.9753916 C127.202611,16.018329 127.151867,16.0336423 127.105326,16.0831854 L96.5783812,46.5644909 C95.6118407,47.5355352 94.0204569,47.5355352 93.0518146,46.5644909 L62.511658,16.1030026 C62.4846345,16.0762794 62.4534073,16.0678721 62.4278851,16.0414491 C62.8104178,16.4774282 63.0626371,17.0290078 63.0644386,17.6469452 L63.0665405,30.6977937 C63.0665405,32.044765 61.9633812,33.1503264 60.6140078,33.1503264 L47.5652611,33.1503264 C46.9266057,33.1503264 46.3549086,32.8884987 45.9135248,32.4873499 C45.9345431,32.5071671 45.9432507,32.5302872 45.9642689,32.5513055 L76.4828068,63.1322977 C77.4562533,64.103342 77.4562533,65.6902219 76.4828068,66.6627676 L45.9030157,97.2494648 C45.6153655,97.532611 45.4496214,97.8208616 45.3271149,98.1106136 C45.7117493,97.2533681 46.569295,96.6459399 47.5652611,96.6459399 L60.6080026,96.6459399 C61.9594778,96.6459399 63.0626371,97.7515013 63.0644386,99.1005744 L63.0665405,112.149321 C63.0665405,112.821606 62.7918016,113.435039 62.3501175,113.878825 C62.389752,113.83859 62.4359922,113.828681 62.4780287,113.786044 L93.0518146,83.2317755 C94.0204569,82.2607311 95.6118407,82.2607311 96.5783812,83.2317755 L127.183094,113.822076 C127.473446,114.111828 127.758995,114.278473 128.051149,114.397977 C127.183094,114.015444 126.569661,113.151893 126.569661,112.149321" id="Fill-24" fill-opacity="0.5" fill="#1F2937"></path>
            <path d="M144.330104,98.1511488 C144.45201,98.434295 144.515366,98.7495692 144.519269,99.0753525 C144.502755,98.7519713 144.447507,98.4430026 144.330104,98.1511488" id="Fill-25" fill="#59BCB5"></path>
            <path d="M45.2724674,98.2952742 C45.1992037,98.5246736 45.1463577,98.7621802 45.1298433,99.0122977 C45.1358486,98.7600783 45.1925979,98.5225718 45.2724674,98.2952742" id="Fill-26" fill="#59BCB5"></path>
            <path d="M60.6080026,15.1932115 L47.5652611,15.1932115 C46.2143864,15.1932115 45.1088251,16.2987728 45.1088251,17.6469452 L45.1088251,30.6977937 C45.1088251,32.044765 46.2143864,33.1503264 47.5652611,33.1503264 L60.6140078,33.1503264 C61.9633812,33.1503264 63.0665405,32.044765 63.0665405,30.6977937 L63.0644386,17.6469452 C63.0626371,16.2987728 61.9594778,15.1932115 60.6080026,15.1932115" id="Fill-27" fill="#1F2937"></path>
            <path d="M142.07094,15.1932115 L129.026697,15.1932115 C127.67312,15.1932115 126.569661,16.2987728 126.569661,17.6469452 L126.569661,30.6977937 C126.569661,32.044765 127.67312,33.1503264 129.026697,33.1503264 L142.073342,33.1503264 C143.424217,33.1503264 144.525875,32.044765 144.525875,30.6977937 L144.525875,17.6469452 C144.519269,16.2987728 143.418211,15.1932115 142.07094,15.1932115" id="Fill-28" fill="#1F2937"></path>
            <path d="M60.6080026,96.6459399 L47.5652611,96.6459399 C46.2143864,96.6459399 45.1088251,97.7515013 45.1088251,99.1005744 L45.1088251,112.149321 C45.1088251,113.496292 46.2143864,114.603655 47.5652611,114.603655 L60.6140078,114.603655 C61.9633812,114.603655 63.0665405,113.496292 63.0665405,112.149321 L63.0644386,99.1005744 C63.0626371,97.7515013 61.9594778,96.6459399 60.6080026,96.6459399" id="Fill-29" fill="#1F2937"></path>
            <path d="M142.07094,96.6459399 L129.026697,96.6459399 C127.67312,96.6459399 126.569661,97.7515013 126.569661,99.1005744 L126.569661,112.149321 C126.569661,113.496292 127.67312,114.603655 129.026697,114.603655 L142.073342,114.603655 C143.424217,114.603655 144.525875,113.496292 144.525875,112.149321 L144.525875,99.1005744 C144.519269,97.7515013 143.418211,96.6459399 142.07094,96.6459399" id="Fill-30" fill="#1F2937"></path>
        </g>
    </g>
</svg>