<?xml version="1.0" encoding="UTF-8"?>
<svg width="121px" height="127px" viewBox="0 0 121 127" version="1.1" xmlns="http://www.w3.org/2000/svg" xmlns:xlink="http://www.w3.org/1999/xlink">
    <title>Artboard</title>
    <g id="Artboard" stroke="none" stroke-width="1" fill="none" fill-rule="evenodd">
        <g id="Group-68">
            <path d="M39.487514,78.1813418 C31.7588642,76.4362362 25.4497305,84.4953077 28.8839934,91.7268358 C29.2080981,92.4059267 29.5322028,93.0881761 29.8547492,93.7704255 C31.2290777,96.6620892 31.0857237,100.059123 29.4761077,102.822865 C29.0974662,103.473529 28.7172665,104.124192 28.338625,104.774856 C24.3122477,111.68579 29.924868,120.258128 37.7703826,119.181058 C38.5105254,119.081564 39.2506683,118.97891 39.989253,118.877836 C43.1274588,118.448272 46.2703392,119.634312 48.3661122,122.041136 C48.8600602,122.606519 49.3540082,123.17506 49.8479562,123.742022 C55.0881677,129.759083 64.8658447,126.99692 66.2806863,119.100515 C66.4146911,118.356674 66.5486959,117.612832 66.6811425,116.868991 C67.2467675,113.710429 69.3316331,111.047761 72.2376678,109.770122 C72.9232739,109.470059 73.6073217,109.169995 74.2913695,108.868353 C81.5556771,105.676626 81.9857391,95.3986643 75.0143723,91.5941762 C74.3568137,91.2356794 73.7008134,90.8771826 73.0432549,90.5186857 C70.2556431,88.9962588 68.4013904,86.1646078 68.1006587,82.9697221 C68.0305399,82.216405 67.9588629,81.463088 67.8887441,80.7113502 C67.139252,72.7201878 57.6264683,69.1304819 51.9032161,74.6753378 C51.3625222,75.1980799 50.8233866,75.7208219 50.2842509,76.2419847 C47.9937035,78.4608746 44.7635641,79.3721198 41.6721042,78.6740775 C40.9444269,78.5098323 40.2167496,78.3455871 39.487514,78.1813418" id="Fill-31-Copy" fill="#F4F8C7"></path>
            <path d="M66.9198311,9.73321526 C62.2983252,9.06565456 57.7033617,11.1075128 55.0897128,14.9890805 C52.4745025,18.8722154 52.3011961,23.9133956 54.6416141,27.9689053 C55.1209392,28.8010056 55.6018256,29.6346729 56.0842733,30.4667732 C58.1233567,34.0020243 58.2701207,38.3270655 56.4746032,41.9939483 C56.0499243,42.8589565 55.628368,43.7208306 55.2036891,44.5858389 C53.1443086,48.7917847 53.6579827,53.8078923 56.5292494,57.5029818 C59.4020774,61.1996384 64.1235077,62.9218197 68.6888061,61.9408502 C69.6255979,61.7402686 70.5655122,61.539687 71.5038653,61.3375383 C75.4836688,60.4834994 79.6274109,61.6791539 82.5470785,64.5264727 C83.2340591,65.1987345 83.9226011,65.8678622 84.6095817,66.5401241 C87.9586121,69.8058436 92.8705234,70.8651653 97.260954,69.2652134 C101.648262,67.6683957 104.742797,63.6928053 105.223684,59.0308497 C105.322047,58.0733858 105.42041,57.115922 105.520334,56.1584582 C105.938768,52.0935463 108.354129,48.5081498 111.954532,46.6010574 C112.80389,46.1528828 113.651687,45.7031412 114.501045,45.2549666 C118.629173,43.0673733 121.150705,38.7047231 120.993011,34.0223959 C120.833757,29.3385016 118.02182,25.1576285 113.754734,23.2583713 C112.878834,22.8681773 111.999811,22.4779834 111.12391,22.0877895 C107.403286,20.429857 104.750604,17.0168354 104.057378,12.9910996 C103.895001,12.043038 103.729501,11.0949764 103.567124,10.1469149 C102.770851,5.52726941 99.415575,1.7726322 94.9283426,0.476686882 C90.4411102,-0.817691389 85.6119488,0.57227656 82.4924323,4.05894926 C81.85073,4.77665537 81.210589,5.49279444 80.570448,6.20893351 C77.8506293,9.2489987 73.7974437,10.7251541 69.7676779,10.1437808 C68.8183957,10.0074479 67.8691134,9.86954808 66.9198311,9.73321526" id="Fill-9-Copy" fill="#F6F0C9"></path>
            <path d="M6.21863713,46.4435613 C2.12209335,48.7620578 -0.282262723,53.207673 0.0265536534,57.8885888 C0.33537003,62.567936 3.30221308,66.6637374 7.66818339,68.4284928 L10.3592975,69.5171509 C14.165932,71.0560177 16.9484306,74.3847387 17.7756174,78.3911257 C17.970991,79.3370347 18.164789,80.2798063 18.3601626,81.2241465 C19.3102457,85.8203541 22.8127906,89.4706528 27.3804369,90.6236263 C31.9465076,91.7765999 36.7757025,90.2330271 39.8087205,86.6454753 C40.4342312,85.9081997 41.0565907,85.1693554 41.6805259,84.4336485 C44.3275234,81.3057174 48.3689214,79.6993978 52.4512848,80.1543125 C53.412397,80.2609822 54.3750848,80.3676519 55.3377726,80.4743215 C60.0188616,80.9951205 64.5896591,78.8068237 67.1043068,74.8396534 C69.6173788,70.8709144 69.6331348,65.8229294 67.1436966,61.8400724 C66.6332042,61.0212259 66.1211363,60.2023793 65.6090683,59.3851015 C63.4379001,55.9120627 63.1542932,51.5903726 64.8496321,47.8647777 C65.2498329,46.9878903 65.6484581,46.1094343 66.0486589,45.2325469 C67.9929416,40.957917 67.3138607,35.9538548 64.2997499,32.3490476 C61.2872146,28.7426718 56.4706245,27.1677255 51.8951002,28.2940317 C50.9560463,28.5246264 50.0154169,28.7567898 49.076363,28.9873845 C45.0885352,29.9693729 40.8706707,28.9042449 37.8360771,26.148089 C37.1207575,25.4970904 36.405438,24.8476603 35.6901184,24.1982303 C32.2096318,21.0373572 27.2213019,20.1338024 22.8458781,21.8718904 C18.4688786,23.6099785 15.4752505,27.6853871 15.1380734,32.3647343 C15.0687473,33.32633 14.9994211,34.2879256 14.9285194,35.2495213 C14.635459,39.3280673 12.3130338,42.992484 8.74431392,45.0145016 L6.21863713,46.4435613 Z" id="Fill-3-Copy" fill="#EFE8A5"></path>
        </g>
    </g>
</svg>