<svg id="Layer_1" data-name="Layer 1" xmlns="http://www.w3.org/2000/svg" viewBox="0 0 217.71 299.42"><defs><style>.cls-1{fill:#f6f0ca;}.cls-2{fill:#efe8a4;}.cls-3{fill:#f3f5c9;}.cls-4{fill:#ce3938;}.cls-5{fill:#f2f9f9;}</style></defs><g id="PopCorn"><path class="cls-1" d="M46.65,18.62a6.77,6.77,0,0,0-2,12l1.3.92a6.76,6.76,0,0,1,2.85,5.72l-.05,1.6a6.78,6.78,0,0,0,10.81,5.64l1.29-1a6.78,6.78,0,0,1,6.32-.94l1.5.54a6.77,6.77,0,0,0,8.7-8.54l-.51-1.51a6.78,6.78,0,0,1,1.06-6.3l1-1.27a6.77,6.77,0,0,0-5.43-10.91h-1.6a6.76,6.76,0,0,1-5.67-3l-.9-1.32a6.78,6.78,0,0,0-12.06,1.79l-.48,1.53a6.76,6.76,0,0,1-4.56,4.48Z"/><path class="cls-2" d="M121.84,16.22a7.8,7.8,0,0,0,.92,14l1.71.7a7.79,7.79,0,0,1,4.7,5.66l.37,1.8a7.81,7.81,0,0,0,13.62,3.46l1.19-1.41a7.77,7.77,0,0,1,6.83-2.73l1.83.2A7.8,7.8,0,0,0,160.51,26l-1-1.57a7.78,7.78,0,0,1-.48-7.34l.76-1.68a7.8,7.8,0,0,0-9-10.8L149,5.09a7.78,7.78,0,0,1-7.13-1.81L140.54,2a7.8,7.8,0,0,0-13,5.21l-.13,1.83a7.82,7.82,0,0,1-3.93,6.23Z"/><path class="cls-1" d="M95.16,26.82A9.93,9.93,0,0,0,88,43.17L89.48,45a9.91,9.91,0,0,1,2,9.15c-.21.75-.42,1.5-.64,2.25a9.93,9.93,0,0,0,13.33,11.9l2.17-.89a9.92,9.92,0,0,1,9.31.93l2,1.31a9.92,9.92,0,0,0,15.43-9l-.18-2.33a9.92,9.92,0,0,1,3.77-8.57l1.85-1.45a9.93,9.93,0,0,0-3.79-17.46l-2.28-.55a9.93,9.93,0,0,1-7-6.23l-.81-2.21A9.92,9.92,0,0,0,106.82,20l-1.23,2a9.94,9.94,0,0,1-8.09,4.71Z"/><path class="cls-2" d="M63,35.09a7.81,7.81,0,0,0-8.73,11l.8,1.66a7.82,7.82,0,0,1-.31,7.35L53.8,56.7a7.81,7.81,0,0,0,7.77,11.7l1.82-.25a7.82,7.82,0,0,1,6.9,2.57l1.22,1.38A7.8,7.8,0,0,0,85,68.33l.33-1.81a7.82,7.82,0,0,1,4.57-5.77l1.7-.73a7.8,7.8,0,0,0,.59-14l-1.62-.87A7.81,7.81,0,0,1,86.54,39l-.18-1.83a7.8,7.8,0,0,0-13.16-4.9l-1.33,1.27a7.81,7.81,0,0,1-7.09,2Z"/><path class="cls-1" d="M159.38,14.65a7.81,7.81,0,0,0-7.87,11.64l.93,1.59a7.83,7.83,0,0,1,.25,7.36l-.82,1.65A7.81,7.81,0,0,0,160.51,48l1.8-.39a7.83,7.83,0,0,1,7.08,2l1.32,1.28a7.8,7.8,0,0,0,13.2-4.79l.19-1.83a7.8,7.8,0,0,1,4.12-6.1l1.63-.86a7.8,7.8,0,0,0-.48-14l-1.68-.75a7.81,7.81,0,0,1-4.53-5.8l-.31-1.82A7.8,7.8,0,0,0,169.35,11l-1.23,1.37a7.81,7.81,0,0,1-6.92,2.51Z"/><path class="cls-3" d="M118.26,60.44a11.11,11.11,0,0,0,3.89,19.62l2.54.67a11.12,11.12,0,0,1,7.7,7.12l.86,2.48a11.12,11.12,0,0,0,19.87,2.36l1.41-2.21a11.13,11.13,0,0,1,9.15-5.12l2.63,0a11.12,11.12,0,0,0,8.38-18.17l-1.66-2A11.12,11.12,0,0,1,171,54.82c.26-.83.51-1.67.77-2.51a11.12,11.12,0,0,0-14.69-13.58l-2.45,1a11.14,11.14,0,0,1-10.41-1.23l-2.15-1.51a11.12,11.12,0,0,0-17.46,9.77l.15,2.62a11.11,11.11,0,0,1-4.39,9.52Z"/><path class="cls-2" d="M169.71,46.06a9.92,9.92,0,0,0-6,16.84l1.65,1.67a10,10,0,0,1,2.66,9l-.48,2.29a9.94,9.94,0,0,0,14.18,10.88l2.1-1.06a9.93,9.93,0,0,1,9.35.25l2,1.16A9.93,9.93,0,0,0,210,76.94c-.12-.77-.23-1.54-.35-2.31a9.93,9.93,0,0,1,3.12-8.83l1.73-1.58a9.93,9.93,0,0,0-5.07-17.13l-2.32-.38a9.89,9.89,0,0,1-7.42-5.7c-.33-.71-.65-1.42-1-2.13a9.92,9.92,0,0,0-17.86-.46l-1.08,2.08A9.94,9.94,0,0,1,172,45.8Z"/><path class="cls-3" d="M8.43,43.07A11.88,11.88,0,0,0,5.08,64.18l2.3,1.6a11.86,11.86,0,0,1,5.08,10l-.06,2.8a11.88,11.88,0,0,0,19,9.71l2.23-1.69a11.88,11.88,0,0,1,11.07-1.74l2.64.92A11.88,11.88,0,0,0,62.5,70.65c-.3-.88-.61-1.76-.92-2.65a11.85,11.85,0,0,1,1.76-11L65,54.71a11.87,11.87,0,0,0-9.69-19l-2.8,0a11.87,11.87,0,0,1-10-5.09L41,28.33a11.88,11.88,0,0,0-21.11,3.33L19,34.35a11.87,11.87,0,0,1-7.92,7.91Z"/><polygon class="cls-4" points="61.08 299.42 36.46 299.42 7.05 65.56 41.48 65.56 61.08 299.42"/><polygon class="cls-5" points="85.71 299.42 61.08 299.42 41.48 65.56 75.9 65.56 85.71 299.42"/><polygon class="cls-4" points="110.33 65.56 110.33 299.42 85.71 299.42 75.9 65.56 110.33 65.56"/><polygon class="cls-5" points="144.75 65.56 134.95 299.42 110.33 299.42 110.33 65.56 144.75 65.56"/><polygon class="cls-4" points="179.18 65.56 159.57 299.42 134.95 299.42 144.75 65.56 179.18 65.56"/><polygon class="cls-5" points="213.6 65.56 184.19 299.42 159.57 299.42 179.18 65.56 213.6 65.56"/><path class="cls-3" d="M84,7.52a6.08,6.08,0,0,0-6.8,8.58l.62,1.29a6.09,6.09,0,0,1-.24,5.73l-.73,1.24a6.08,6.08,0,0,0,6.05,9.12l1.42-.19a6.09,6.09,0,0,1,5.38,2l1,1.08a6.09,6.09,0,0,0,10.55-2.94l.25-1.41a6.13,6.13,0,0,1,3.57-4.5l1.32-.57A6.08,6.08,0,0,0,106.83,16l-1.26-.68a6.06,6.06,0,0,1-3.17-4.78l-.14-1.43A6.08,6.08,0,0,0,92,5.3l-1,1a6.08,6.08,0,0,1-5.53,1.54Z"/></g></svg>