<?xml version="1.0" encoding="UTF-8"?>
<svg width="187px" height="166px" viewBox="0 0 187 166" version="1.1" xmlns="http://www.w3.org/2000/svg" xmlns:xlink="http://www.w3.org/1999/xlink">
    <title>Artboard</title>
    <g id="Artboard" stroke="none" stroke-width="1" fill="none" fill-rule="evenodd">
        <g id="Group-69">
            <path d="M66.5874327,123.477894 C58.1307601,125.960527 56.2587674,137.120669 63.4414882,142.235735 C64.1189565,142.717905 64.7964247,143.201636 65.4723356,143.682246 C68.344178,145.729521 70.0090367,149.076627 69.9062485,152.606303 C69.8813301,153.438009 69.8579691,154.269714 69.8330507,155.101419 C69.57608,163.92717 79.5932657,169.159267 86.668526,163.894401 C87.3335351,163.399747 88.0016589,162.903532 88.6682254,162.407318 C91.4980181,160.302308 95.1890519,159.751479 98.5078677,160.940521 C99.291239,161.219836 100.071496,161.500712 100.853309,161.780028 C109.152685,164.752633 117.213778,156.824126 114.404232,148.45714 C114.139474,147.667566 113.874716,146.879552 113.608401,146.089979 C112.485517,142.744432 113.103804,139.055593 115.257686,136.259316 C115.765398,135.602378 116.27311,134.94388 116.780822,134.285381 C122.166305,127.294688 117.131236,117.164424 108.319477,117.256489 C107.489383,117.264291 106.65929,117.272094 105.829197,117.281456 C102.304805,117.318906 98.9953333,115.589958 97.0065357,112.673528 C96.5377588,111.986942 96.0705394,111.298796 95.6017625,110.61221 C90.6321046,103.320355 79.4593294,104.986886 76.8242116,113.411608 C76.5750278,114.205863 76.3258441,114.998558 76.0782178,115.792813 C75.0238592,119.161765 72.3607081,121.783275 68.9780391,122.775704 C68.1806512,123.009768 67.3848207,123.243831 66.5874327,123.477894" id="Fill-1" fill="#F6F0C9"></path>
            <path d="M135.000678,60.8534875 C130.451746,59.8346885 125.720421,61.518058 122.823945,65.1904366 C119.925911,68.8612479 119.369376,73.8768738 121.391297,78.0994039 C121.807529,78.9677342 122.222202,79.834497 122.638434,80.7012599 C124.401573,84.3846102 124.217621,88.7074528 122.15205,92.2277953 L120.689782,94.7152323 C118.320222,98.7512438 118.451172,103.793515 121.029627,107.699434 C123.606524,111.605353 128.17728,113.686838 132.797922,113.058317 C133.747305,112.929791 134.695129,112.799699 135.644512,112.671173 C139.672764,112.122589 143.707252,113.633546 146.39795,116.69778 C147.030872,117.418777 147.665353,118.14134 148.298275,118.863904 C151.383379,122.37641 156.19421,123.808998 160.685461,122.550389 C165.175154,121.293348 168.556454,117.566111 169.390477,112.953302 C169.561958,112.006603 169.733439,111.058336 169.903362,110.111637 C170.629819,106.089732 173.306486,102.699482 177.035426,101.074106 C177.914657,100.691664 178.79233,100.309223 179.671561,99.9267812 C183.949241,98.0615953 186.791154,93.9033279 186.989137,89.2215545 C187.185561,84.5382138 184.705317,80.1526758 180.599119,77.9316939 C179.755743,77.4740181 178.913926,77.0179096 178.070549,76.5618011 C174.491266,74.6245156 172.110794,71.017967 171.72574,66.9506078 C171.635323,65.9913694 171.543347,65.0321309 171.452929,64.0744598 C171.011755,59.4083603 167.957828,55.4052638 163.588172,53.7689159 C159.220076,52.1341353 154.304797,53.1513669 150.935969,56.3895804 C150.242249,57.0541509 149.550088,57.7202887 148.857927,58.3864265 C145.919361,61.2092835 141.772631,62.3707144 137.805177,61.4820082 C136.871383,61.2735462 135.93603,61.0635169 135.000678,60.8534875" id="Fill-7" fill="#EFE8A5"></path>
            <path d="M13.25606,31.1733672 C6.41309264,33.2450084 1.35394884,39.0449752 0.231790195,46.1086746 C-0.890368448,53.1708022 2.12091441,60.2533633 7.98631505,64.3447762 C9.19177118,65.1856928 10.3956557,66.0250375 11.6011118,66.8659541 C16.7152634,70.4339554 19.7092581,76.3187997 19.583526,82.5525852 L19.4939419,86.9583594 C19.34935,94.1085082 23.3020517,100.711668 29.6719522,103.962164 C36.0418528,107.211089 43.7067935,106.535212 49.4087425,102.220603 C50.581194,101.335675 51.7536454,100.447605 52.9245252,99.5626775 C57.8972282,95.7997722 64.4180073,94.7702388 70.3085543,96.8167311 C71.6963219,97.2992758 73.0825179,97.7818205 74.4702855,98.2643651 C81.2252405,100.611073 88.7267296,98.891516 93.7858734,93.8365856 C98.8434455,88.783227 100.57069,81.2825654 98.2289301,74.5253683 C97.7480049,73.1374629 97.2686514,71.7479858 96.7861547,70.3616523 C94.746152,64.4689489 95.7818698,57.9475228 99.5491167,52.97747 C100.435528,51.8080458 101.32351,50.6370498 102.211493,49.4660538 C106.530389,43.7666826 107.212486,36.1009812 103.97017,29.727305 C100.726283,23.3536288 94.1284932,19.3942476 86.9790539,19.5325666 C85.5095605,19.5592873 84.0416386,19.5891517 82.5721452,19.6158724 C76.3389783,19.7384733 70.4578611,16.7363225 66.8949289,11.6200916 C66.0556673,10.4129441 65.2179775,9.20736831 64.3771443,8.00179255 C60.292424,2.13109446 53.213709,-0.886774437 46.1507105,0.229208333 C39.0877119,1.3436193 33.2836057,6.39697789 31.2043117,13.2406243 C30.7783944,14.6442477 30.3509054,16.0510148 29.9234164,17.45621 C28.1128747,23.4227883 23.440357,28.0894824 17.4743707,29.8970601 C16.0677433,30.3214479 14.6626875,30.7474076 13.25606,31.1733672" id="Fill-15" fill="#F4F8C7"></path>
        </g>
    </g>
</svg>