<?xml version="1.0" encoding="UTF-8"?>
<svg width="60px" height="63px" viewBox="0 0 60 63" version="1.1" xmlns="http://www.w3.org/2000/svg" xmlns:xlink="http://www.w3.org/1999/xlink">
    <title>Combined Shape</title>
    <g id="Page-1" stroke="none" stroke-width="1" fill="none" fill-rule="evenodd">
        <g id="2020-copy-2" transform="translate(-185.000000, -13431.000000)" fill="#BA3D53" fill-rule="nonzero">
            <g id="Group-14-Copy-7" transform="translate(115.000000, 13375.000000)">
                <path d="M89.5174959,109.206046 C91.2688804,109.241194 92.9667883,109.833972 94.3619769,110.902639 C95.9750382,112.113297 97.942852,112.757185 99.9595653,112.734226 L99.9595653,112.734226 L100.023832,112.734226 C102.037756,112.75858 104.003317,112.116949 105.614993,110.909065 C108.694808,108.645149 112.888468,108.645149 115.968283,110.909065 C117.587889,112.126001 119.565947,112.770283 121.591578,112.740653 C122.94498,112.77256 124.287204,112.488712 125.511818,111.911618 C125.946911,111.71272 126.421741,111.615995 126.899968,111.628847 C127.952015,111.62551 128.934148,112.155281 129.509177,113.036277 C129.990662,113.790404 130.125613,114.714809 129.879813,115.575109 C129.634013,116.43541 129.031067,117.148987 128.223852,117.534913 C123.125598,119.873519 117.1706,119.3406 112.568599,116.13391 C111.55962,115.452688 111.52106,115.452688 110.801278,115.452688 C110.081496,115.452688 110.062216,115.491247 109.040383,116.13391 C106.411851,118.03253 103.240256,119.03112 99.9981251,118.980904 C96.7610266,119.030668 93.5942943,118.034444 90.96872,116.140336 C89.9533136,115.452688 89.9147539,115.452688 89.1949721,115.452688 C88.4751904,115.452688 88.4366306,115.491247 87.4340775,116.13391 C84.8075245,118.031623 81.6382564,119.030191 78.3982458,118.980904 C76.1078776,119.014276 73.8406161,118.519481 71.7723977,117.534913 C70.9602459,117.141706 70.3562958,116.418371 70.114329,115.549087 C69.8528645,114.611411 70.0454565,113.605403 70.6347614,112.830599 C71.2240663,112.055796 72.1421153,111.60156 73.1155619,111.603141 C73.5892942,111.60126 74.0572972,111.706725 74.4844325,111.911618 C75.7075508,112.485745 77.04749,112.767375 78.3982458,112.734226 C80.4216846,112.762427 82.3972562,112.118219 84.0151141,110.902639 C85.4977431,109.767637 87.3217081,109.169467 89.1885455,109.20601 Z M98.8670395,80.4211667 C99.5818914,80.0772895 100.414359,80.0772895 101.129211,80.4211667 L101.129211,80.4211667 L122.555571,90.7037632 C123.993662,91.3949683 124.602645,93.1185037 123.918015,94.5597369 L123.918015,94.5597369 L118.339707,106.346163 C116.112125,104.829723 113.469961,104.039543 110.775572,104.083992 C107.911952,104.048173 105.113015,104.936081 102.793706,106.616081 C101.726887,107.310157 101.28345,107.605781 99.9981251,107.605781 L99.9981251,107.605781 L99.9595653,107.605781 C98.6935207,107.605781 98.2500837,107.310157 97.170411,106.609655 C94.8528721,104.930972 92.0564015,104.043132 89.1949721,104.077565 C86.4984578,104.032206 83.8539757,104.822408 81.6244105,106.339737 L81.6244105,106.339737 L76.078235,94.5597369 C75.3936053,93.1185037 76.0025877,91.3949683 77.440679,90.7037632 L77.440679,90.7037632 Z M100.73076,56 C101.841983,56.0005635 102.780105,56.8258909 102.922238,57.9279868 L102.922238,57.9279868 L103.854099,64.5795415 L106.482588,64.5795415 C107.538977,64.5777367 108.449037,65.3235549 108.654786,66.359716 L108.654786,66.359716 L109.586646,71.0061643 L112.632866,71.0061643 C113.709824,71.0063997 114.629911,71.782638 114.811491,72.8441784 L114.811491,72.8441784 L116.418146,82.1627815 L102.048218,75.2413087 C100.640706,74.564946 99.0020801,74.564946 97.5945681,75.2413087 L97.5945681,75.2413087 L83.5781038,81.9892627 L85.1783329,72.8441784 C85.362693,71.7851925 86.2820442,71.0122867 87.356958,71.0125909 L87.356958,71.0125909 L90.4031772,71.0125909 L91.3350375,66.3661426 C91.5407866,65.3299815 92.4508463,64.5841633 93.507236,64.5859681 L93.507236,64.5859681 L96.1421514,64.5859681 L97.0740117,57.9279868 C97.2161448,56.8258909 98.1542669,56.0005635 99.2654901,56 L99.2654901,56 Z" id="Combined-Shape"></path>
            </g>
        </g>
    </g>
</svg>