<?xml version="1.0" encoding="UTF-8"?>
<svg width="113px" height="84px" viewBox="0 0 113 84" version="1.1" xmlns="http://www.w3.org/2000/svg" xmlns:xlink="http://www.w3.org/1999/xlink">
    <title>Combined Shape</title>
    <g id="Page-1" stroke="none" stroke-width="1" fill="none" fill-rule="evenodd">
        <g id="2020-copy-2" transform="translate(-798.000000, -6293.000000)" fill="#FFFFFF" fill-rule="nonzero">
            <g id="Group-18" transform="translate(-18.000000, 4738.000000)">
                <g id="Group-15" transform="translate(136.000000, 624.000000)">
                    <g id="Group-13" transform="translate(630.000000, 737.000000)">
                        <path d="M140.152126,205.33099 C160.138922,220.100184 168.075489,246.160814 159.696649,269.507679 C158.750096,272.179892 157.586178,274.770637 156.216495,277.254094 L56.7835054,277.254094 C55.413822,274.770637 54.249904,272.179892 53.3033508,269.507679 C44.9245109,246.160814 52.8610779,220.100184 72.8478743,205.33099 C92.8346706,190.561796 120.165329,190.561796 140.152126,205.33099 Z M133.518879,219.954094 C132.401027,219.948436 131.32686,220.385611 130.53355,221.169148 L130.53355,221.169148 L128.452867,223.284145 L122.436977,229.224138 L111.174146,240.654123 L110.815027,240.507125 C109.489962,239.991663 108.075999,239.735504 106.650921,239.754124 C100.40565,239.754124 95.3428571,244.790914 95.3428571,251.004109 C95.3428571,257.217304 100.40565,262.254094 106.650921,262.254094 C112.896191,262.254094 117.958984,257.217304 117.958984,251.004109 C117.98495,249.456958 117.676438,247.922319 117.054339,246.504115 L117.054339,246.504115 L128.407635,235.16413 L128.827204,235.767606 C129.238942,236.376324 129.627087,237.000621 129.990763,237.639127 C130.472967,238.486034 130.910798,239.357197 131.302499,240.249123 C132.755762,243.603522 133.509767,247.216406 133.518879,250.869109 C133.351597,252.476199 134.119118,254.03772 135.496809,254.893202 C136.874499,255.748684 138.621691,255.748684 139.999381,254.893202 C141.377071,254.03772 142.144593,252.476199 141.977311,250.869109 C141.950664,244.951085 140.392923,239.13956 137.454085,233.994131 C137.137459,233.184132 136.639905,232.329133 136.097118,231.654134 C135.595561,230.86099 135.052008,230.094912 134.468756,229.359137 L134.468756,229.359137 L136.504208,227.15414 L136.669874,226.97988 C137.364252,226.206721 137.750987,225.20403 137.750987,224.161644 C137.750987,223.039075 137.302466,221.962543 136.504208,221.169148 C135.692988,220.412936 134.630255,219.980415 133.518879,219.954094 Z M106.609996,215.254094 C86.9557619,215.254094 71.0228569,230.911411 71.0228569,250.22569 C70.8543397,251.824852 71.6275267,253.378671 73.0153859,254.229933 C74.403245,255.081196 76.1633331,255.081196 77.5511923,254.229933 C78.9390515,253.378671 79.7122384,251.824852 79.5437212,250.22569 C79.6817117,241.32218 84.2997712,233.064289 91.8741218,228.176795 C99.4484725,223.289302 108.994953,222.407255 117.3636,225.821696 L117.3636,225.821696 L117.3636,225.956029 L123.742857,219.731891 L123.199558,219.436378 C118.106934,216.723718 112.408933,215.285677 106.609996,215.254094 Z" id="Combined-Shape"></path>
                    </g>
                </g>
            </g>
        </g>
    </g>
</svg>