<?xml version="1.0" encoding="UTF-8"?>
<svg width="121px" height="121px" viewBox="0 0 121 121" version="1.1" xmlns="http://www.w3.org/2000/svg" xmlns:xlink="http://www.w3.org/1999/xlink">
    <title>Artboard</title>
    <g id="Artboard" stroke="none" stroke-width="1" fill="none" fill-rule="evenodd">
        <circle id="Oval" fill="#8250DF" cx="60.5" cy="60.5" r="60.5"></circle>
        <path d="M83.6846221,60.5337266 L87.7089126,56.5092622 C89.382831,54.8355177 89.382831,52.1288337 87.7089126,50.4728265 L63.4915249,26.2554388 C61.853255,24.5815204 59.146745,24.5815204 57.4728265,26.2554388 L33.2554388,50.4728265 C31.5815204,52.1465711 31.5815204,54.853255 33.2554388,56.5092622 L37.2797293,60.5337266 C38.9536477,62.2074711 41.6603317,62.2074711 43.3163389,60.5337266 L60.4822627,43.3678028 L77.6480126,60.5337266 C79.321931,62.2074711 82.028615,62.2074711 83.6846221,60.5337266 Z M43.3340762,94.7407172 L60.5,77.5749673 L77.6836611,94.7229798 C79.3396683,96.3967244 82.0463523,96.3967244 83.7202707,94.7229798 L87.7445612,90.6985155 C89.4184796,89.0425083 89.4184796,86.3358243 87.7445612,84.6620798 L63.5271735,60.4446921 C61.853255,58.7707737 59.146745,58.7707737 57.4728265,60.4624294 L33.2554388,84.6798171 C31.5815204,86.3358243 31.5815204,89.0425083 33.2554388,90.7164267 L37.2976405,94.7407172 C38.9536477,96.4146356 41.6603317,96.4146356 43.3340762,94.7407172 Z" id="aangle-double-up" fill="#FFFFFF" fill-rule="nonzero"></path>
    </g>
</svg>