<?xml version="1.0" encoding="UTF-8"?>
<svg width="191px" height="150px" viewBox="0 0 191 150" version="1.1" xmlns="http://www.w3.org/2000/svg" xmlns:xlink="http://www.w3.org/1999/xlink">
    <title>view-conf-logo</title>
    <g id="view-conf-logo" stroke="none" stroke-width="1" fill="none" fill-rule="evenodd">
        <path d="M152.808381,135.782869 C156.776694,135.819106 160.064706,139.299243 159.925227,143.094575 C159.785748,146.915205 156.395862,150.149202 152.694884,149.994682 C148.178227,149.828537 145.54727,146.429763 145.61701,142.812882 C145.696322,138.702355 149.056807,135.749367 152.808381,135.782869 Z M11.2895381,123.524856 C16.7859665,123.483833 21.1139167,127.673672 21.1556236,133.354704 C21.1973306,139.126672 16.4714551,143.261129 11.3326125,143.181818 C5.98591894,143.363004 1.38995036,138.807375 1.43781079,133.408718 C1.48635494,127.912974 5.53671464,123.567931 11.2895381,123.524856 Z M136.819921,96.6797367 C140.224849,98.7979025 142.984345,101.589533 145.147636,104.990358 C146.936248,107.8025 148.021997,110.860098 148.558717,114.113923 C149.414735,119.304045 148.549145,124.242557 146.226547,128.949973 C144.090604,133.279974 140.896262,136.66986 136.839066,139.189369 C133.6625,141.161903 130.172792,142.351576 126.394553,142.726255 C119.689307,143.391515 113.691711,141.57487 108.506376,137.434943 C104.755485,134.440247 101.905055,130.655171 100.320191,125.998352 C99.4108429,123.329107 99.2009408,120.624993 99.3773406,117.682944 C99.0245409,114.546035 99.56468,111.364 100.908191,108.341272 C103.180194,103.229778 106.729386,99.2327487 111.529787,96.3371928 C113.90093,94.9061659 116.473769,94.0508317 119.154637,93.4676182 C119.417186,93.4108694 119.698195,93.4224927 119.970316,93.4224927 L120.856838,93.4275668 L122.630757,93.4538583 C123.517457,93.4635159 124.403217,93.4590717 125.285558,93.4006136 C129.536932,93.1175534 133.304915,94.4931988 136.819921,96.6797367 Z M132.358782,10.0233029 C134.708046,10.2133771 137.051156,10.7036047 139.345721,11.2697252 C142.75817,12.1107013 145.916274,13.6162536 148.920542,15.432215 C151.903614,17.2358695 154.587217,19.4278771 156.939215,21.9911449 C159.530515,24.8135427 161.760127,27.9107962 163.267047,31.4593051 C164.151098,33.5391826 164.929855,35.6648693 165.707245,37.7878212 C166.124315,38.925532 165.987571,39.0725318 164.806102,39.0732156 C161.745769,39.0752667 158.684753,39.0711644 155.62442,39.0752667 C154.136645,39.0773179 153.277208,39.8806894 153.201315,41.3766696 C153.16166,42.1670504 153.16166,42.962901 153.200632,43.7532818 C153.274473,45.2554155 154.224845,46.168866 155.721509,46.1914287 C157.698828,46.2221962 160.109626,48.0162785 159.947585,50.8783321 C159.814259,53.2289629 158.001033,55.1857707 155.655872,55.1611568 C152.944236,55.1324405 151.200066,53.3513488 151.162461,50.4065651 C151.12554,47.5110091 151.154256,44.6147695 151.152889,41.7185298 C151.152205,41.3363301 151.167247,40.9513955 151.128959,40.5719307 C151.006573,39.3562758 150.693429,39.0766342 149.460681,39.0759505 C145.553219,39.0718481 141.645757,39.0732156 137.738295,39.074583 C135.912761,39.074583 135.291259,39.5326757 135.066999,41.3226557 C134.947348,42.2825992 134.991106,43.2917705 135.144259,44.2489791 C135.332282,45.427713 136.323677,46.1463032 137.533862,46.1982659 C139.417512,46.2796287 140.929218,47.433065 141.560975,49.2709055 C142.123677,50.9077321 141.562343,52.9602608 140.229772,54.1342087 C138.936856,55.2732869 137.048421,55.4537891 135.400655,54.6634083 C133.576488,53.7882462 132.998061,52.2081683 132.967294,50.3703279 C132.917382,47.4200743 132.957038,44.469137 132.951568,41.5181997 C132.948149,39.9381219 132.098285,39.0814202 130.535984,39.0752667 C129.005818,39.069797 127.475651,39.062276 125.945485,39.0793691 C124.561635,39.0944109 123.672798,40.0140149 123.672115,41.4040184 C123.670747,51.8410105 123.655022,62.2773188 123.683738,72.7143108 C123.690575,75.210574 124.619067,77.4415537 125.93728,79.5378405 C127.600772,82.1831547 129.95824,83.9293767 132.829866,85.0493107 C132.921484,85.0848641 132.99601,85.1662269 133.282489,85.3747616 C132.591247,85.4821057 132.102387,85.6195335 131.61216,85.6243195 C128.471148,85.6564544 125.327402,85.5785103 122.189809,85.6899567 C117.661529,85.8513147 113.279564,86.787328 109.022037,88.3728756 C105.477631,89.6931397 102.246368,91.5480732 99.3398728,93.9246853 C95.8487964,96.779218 92.9942637,100.174574 90.8384932,104.185961 C89.7746243,106.165332 88.405816,108.010693 86.9823101,109.758966 C85.4548787,111.633728 83.7811312,113.408666 82.028072,115.07626 C79.1133719,117.848746 75.853393,120.178865 72.2939446,122.075506 C68.5437381,124.07402 64.636276,125.669824 60.4984001,126.670791 C55.8593571,127.793459 51.1519421,128.424533 46.3877783,128.055324 C43.5462363,127.835166 40.7211036,127.305283 37.9130639,126.784972 C34.0473087,126.068433 30.4140184,124.603904 26.9195234,122.859733 C23.3758005,121.091632 20.0802682,118.896206 17.0718984,116.298752 C11.3395865,111.3493 6.96651075,105.40777 3.97523397,98.442026 C2.15448652,94.2009083 0.904645616,89.8004838 0.352199526,85.2298129 C0.00555327896,82.3650244 -0.0867489761,79.4824591 0.0821299647,76.5745962 C0.30844142,72.6794411 1.01267344,68.8991509 2.07449123,65.1667212 C3.03580213,61.7898261 4.41486619,58.5736053 6.17339508,55.54951 C7.48682198,53.2904977 8.89186742,51.0492622 10.5368987,49.0281847 C12.3863624,46.7554981 14.4935887,44.6804066 16.5987639,42.632664 C17.8629629,41.4033347 19.3315943,40.3811727 20.7257002,39.2872201 C20.9896163,39.0793691 21.3314765,38.9706575 21.6377833,38.8161367 C21.7123088,39.1696201 21.8517878,39.5231036 21.8531552,39.8772708 C21.8668296,45.4509595 21.9290482,51.025332 21.8333273,56.5976533 C21.7888855,59.2019444 22.1943317,61.6647053 22.966252,64.1445592 C24.9052831,70.3705172 26.7000492,76.6416008 28.568657,82.8894379 C30.6410136,89.8175768 32.762598,96.7313576 34.7987174,103.669752 C35.5220936,106.134564 37.1739621,107.714642 39.2907605,108.934399 C42.2922931,110.663528 45.5577417,111.321951 48.9790787,111.10863 C52.0558205,110.917189 54.9746229,110.061171 57.4524257,108.179572 C59.0564338,106.961182 60.3083258,105.502123 60.8402603,103.34772 C62.325301,97.3350827 64.0585323,91.3832965 65.6905729,85.4068965 C66.9267394,80.8813511 68.1519663,76.3523871 69.3922352,71.8275254 C70.7480527,66.8787571 72.1264331,61.9361423 73.4637902,56.9825879 C73.6463435,56.3077559 73.7229202,55.5850634 73.7249714,54.8835663 C73.7434318,47.9444879 73.7359109,41.0047257 73.7365946,34.0649636 C73.7365946,32.9573365 73.7427481,33.0058807 74.8148217,32.9313551 C78.0652285,32.7050437 81.2445284,32.0767046 84.3575075,31.1201798 C89.9236753,29.4088276 95.0002993,26.7450529 99.5894307,23.17193 C100.98422,22.086182 102.281922,20.873262 103.599451,19.6904257 C107.14796,16.5049723 111.147724,14.07503 115.593274,12.3411151 C118.564723,11.182209 121.631209,10.3713166 124.782477,10.071847 C127.289679,9.8332286 129.848845,9.82023791 132.358782,10.0233029 Z M80.1012795,38.7628065 C78.6934992,38.7922065 77.2091422,39.8198383 77.2351236,41.7609205 C77.3226398,48.3957433 77.2686259,55.0333011 77.2686259,61.6694913 C77.2686259,68.3877281 77.2672585,75.1059648 77.2699933,81.8248852 C77.2706771,83.1943772 77.8593603,83.9416836 79.2021872,84.2691857 C79.3341219,84.3011139 79.468195,84.3297833 79.603267,84.3530718 C79.8178429,84.3900935 80.0352828,84.4135577 80.250399,84.4148181 C81.7254118,84.4234786 83.2004246,84.4251499 84.6754374,84.4238838 L86.8878883,84.4202879 C87.0384289,84.4199216 87.1889695,84.4098934 87.3377735,84.3898813 L87.4860028,84.3665291 C88.6656303,84.1528974 89.6970744,83.293419 89.6912352,81.6231877 C89.6426662,68.2961095 89.6659127,54.9683476 89.665229,41.6405857 C89.6650856,41.2872694 89.6189315,40.9575899 89.5302418,40.656782 C89.1963987,39.5232741 88.2577886,38.7997255 86.9015627,38.7662251 C84.636397,38.7094763 82.367129,38.7163135 80.1012795,38.7628065 Z M121.044,40.985 L121.041,40.959 L121.037056,40.9219956 L121.037056,40.9219956 C120.976067,40.4542772 120.858485,40.0720574 120.680969,39.765932 C120.291526,39.0936544 119.613037,38.7884051 118.610348,38.7506931 L118.390511,38.7466707 C111.014399,38.7456077 103.637739,38.7450298 96.2617635,38.7463972 C95.8820773,38.7465388 95.5413472,38.7863112 95.2397191,38.8656658 C95.0831829,38.906792 94.9374122,38.9585142 94.8021596,39.0208618 C94.7461127,39.0468073 94.691063,39.0749027 94.6378755,39.1048763 C94.4720014,39.1981947 94.3243652,39.3098278 94.1948586,39.4396919 C94.0799436,39.5549676 93.9786389,39.685457 93.8918341,39.8304784 C93.8030033,39.9787263 93.729267,40.1426178 93.6707971,40.3217656 C93.5591728,40.6634872 93.5031197,41.0610359 93.5029516,41.5140974 C93.5002168,48.2330179 93.5015842,54.952622 93.5015842,61.6722262 C93.5015842,68.4191792 93.499533,75.1661322 93.5029516,81.9130852 C93.5043191,83.5711072 94.3097417,84.4148181 95.9452009,84.4168693 L103.594665,84.4227189 L111.244266,84.4196498 L118.893729,84.4062033 C119.278664,84.4055196 119.693682,84.2598871 120.041696,84.0793849 C120.974291,83.5953109 121.112402,82.685279 121.122658,81.7643076 C121.144537,79.7705789 121.128128,77.7761665 121.130863,75.7824378 C121.133207,74.1204111 120.416221,73.1626444 118.984212,72.9224851 L118.801525,72.8961265 C118.615032,72.873527 118.417357,72.8621409 118.208505,72.8619944 L114.493168,72.8646786 L110.777968,72.8668767 L107.062632,72.8526958 C105.878975,72.8442177 104.899289,72.3995003 104.168723,71.6097071 L104.026016,71.4473824 C103.933082,71.3360152 103.844628,71.2186191 103.760758,71.0954086 L103.638275,70.9059902 C103.62379,70.8824207 103.60946,70.8586608 103.595286,70.8347119 L103.523011,70.7085486 C102.266288,68.4411985 103.016682,65.9974143 104.889884,64.8159831 C105.164287,64.6430073 105.462215,64.4973173 105.781381,64.3831258 L105.954133,64.3249261 L105.992921,64.3128937 L105.992921,64.3128937 C106.085635,64.2847406 106.179337,64.2591892 106.274601,64.236292 C106.407341,64.2041578 106.54381,64.1772562 106.683177,64.1558309 L106.874477,64.1303862 C107.067671,64.1080969 107.266089,64.0961828 107.469308,64.0953313 C109.655163,64.0857593 111.840333,64.0980662 114.026187,64.0905453 C114.205198,64.0899859 114.377521,64.0769288 114.541927,64.0515249 L114.703411,64.0222803 C115.551701,63.8429658 116.162856,63.3138165 116.350665,62.4574513 L116.380735,62.293375 C116.389121,62.2373296 116.395807,62.1800129 116.400748,62.1214305 C116.453896,61.4912475 116.482672,60.859006 116.498534,60.2257062 C116.518468,59.4310588 116.517987,58.6349606 116.519685,57.8393289 L116.525,56.798 L116.526011,56.7517175 C116.526394,56.7165417 116.526802,56.6813683 116.527236,56.6461975 C116.528604,56.4978302 116.423311,56.3419419 116.348102,56.1997281 C115.945591,55.4395919 115.370358,54.9833398 114.645968,54.7821548 L114.461622,54.737103 C114.211972,54.6840136 113.946007,54.6587751 113.664636,54.6595795 C111.478782,54.6664167 109.293611,54.6718864 107.107757,54.6609469 C106.85742,54.6596113 106.612502,54.6349944 106.374705,54.5893395 L106.197583,54.5511272 C105.773417,54.449703 105.374018,54.2810528 105.009501,54.058519 C103.462606,53.113516 102.54402,51.1988038 103.02663,49.3333975 C103.570588,47.2328198 105.089739,45.9965297 107.281303,45.9051504 L107.518673,45.8997536 L111.206701,45.8925669 L114.894851,45.89398 L118.58332,45.8936001 L118.768867,45.8891761 L118.947818,45.8771662 C119.000207,45.87233 119.051691,45.8664181 119.102261,45.8594192 C120.124978,45.7184652 120.773663,45.1319404 120.961163,44.006942 C120.994059,43.8105056 121.021455,43.6156192 121.043847,43.4193915 C121.059718,43.2790747 121.073124,43.1386168 121.083882,42.9977561 C121.126392,42.4427915 121.127689,41.8815463 121.08116,41.3319766 L121.052,41.057 L121.061,41.128 L121.053658,41.0572373 L121.053658,41.0572373 L121.048,41.017 L121.046,40.997 L121.044,40.98 L121.044,40.985 Z M50.8489172,30.3298674 C52.3961765,30.3879836 53.9352312,30.6457462 55.4804393,30.7818066 C56.1101458,30.8371879 56.3097921,31.1489644 56.3056898,31.7472198 C56.2892805,34.4239852 56.2988526,37.1014343 56.2988526,39.7781997 C56.2988526,42.3736024 56.363806,44.9703725 56.283127,47.5630402 C56.1778341,50.9447214 54.6880073,53.6050775 51.5770795,55.0422578 C47.0009388,57.1576887 41.3356315,55.2507925 39.6803444,50.1194709 C39.4499306,49.4042993 39.3371167,48.6207557 39.3330144,47.8686633 C39.3036144,42.6785417 39.3323307,37.48842 39.3021864,32.2982984 C39.2974609,31.504499 39.5757351,31.2077644 40.3449206,31.0737552 C43.82369,30.4672952 47.3250223,30.1972256 50.8489172,30.3298674 Z M177.641653,0.000303551295 C185.018997,-0.0482405977 191.371443,5.73056429 191.134192,13.7847907 C191.194359,20.4537996 185.552299,26.871883 177.796174,26.8773568 C170.388747,26.8828226 164.378161,21.3070826 164.276971,13.3991724 C164.184668,6.18045232 169.921766,0.0508988615 177.641653,0.000303551295 Z M81.7525327,3.5296683 C86.7956544,3.62265427 91.2658185,8.29109722 91.2241115,13.5557444 C91.1817209,18.7862055 86.6178871,23.2228672 81.2992261,23.2024264 C76.009965,23.1784254 71.4611731,18.9058566 71.4951677,13.3089213 C71.527494,7.90000915 75.9682581,3.42300791 81.7525327,3.5296683 Z" id="View-Conference-logo" fill="#1F2937"></path>
    </g>
</svg>