<svg viewBox="0 0 50 50" xmlns="http://www.w3.org/2000/svg"><path d="m44.8518456 30.2848623-17.4489656 17.4489656c-.6761488.6870517-1.5704079 1.0251261-2.4646671 1.0251261-.8942591 0-1.7863384-.3408001-2.4668469-1.0224003l-17.44896567-17.4489657c-1.36320044-1.3632004-1.36320044-3.5715851 0-4.9347856 1.36320044-1.3632004 3.57158515-1.3632004 4.93478559 0l11.49123388 11.4972312v-33.45839024c0-1.92920153 1.5627732-3.39164336 3.3916434-3.39164336 1.8288701 0 3.5879429 1.46244183 3.5879429 3.39164336v33.45839024l11.4945054-11.4945054c1.3632004-1.3632005 3.5715852-1.3632005 4.9347856 0 1.3632004 1.3632004 1.357749 3.5661337-.0054515 4.9293341z"/></svg>