<?xml version="1.0" encoding="UTF-8" standalone="no"?>
<!DOCTYPE svg PUBLIC "-//W3C//DTD SVG 1.1//EN" "http://www.w3.org/Graphics/SVG/1.1/DTD/svg11.dtd">
<svg width="100%" height="100%" viewBox="0 0 329 304" version="1.1" xmlns="http://www.w3.org/2000/svg" xmlns:xlink="http://www.w3.org/1999/xlink" xml:space="preserve" xmlns:serif="http://www.serif.com/" style="fill-rule:evenodd;clip-rule:evenodd;stroke-linejoin:round;stroke-miterlimit:2;">
    <g transform="matrix(0.864951,0,0,0.915568,0,0)">
        <rect id="Artboard1" x="0" y="0" width="380" height="331" style="fill:none;"/>
        <clipPath id="_clip1">
            <rect id="Artboard11" serif:id="Artboard1" x="0" y="0" width="380" height="331"/>
        </clipPath>
        <g clip-path="url(#_clip1)">
            <g transform="matrix(1.15613,0,0,1.09222,0,-44.7231)">
                <g id="Page-1">
                    <path id="Combined-Shape" d="M379.993,247.333C379.998,247.721 380,248.11 380,248.5C380,301.243 337.467,344 285,344C246.84,344 213.935,321.382 198.827,288.755C186.46,294.682 172.615,298 158,298C105.533,298 63,255.243 63,202.5C63,201.151 63.028,199.809 63.083,198.474C26.317,185.297 0,149.988 0,108.5C0,55.757 42.533,13 95,13C95.584,13 96.167,13.005 96.748,13.016L380,13.016L380,247.333L379.993,247.333Z" style="fill:white;"/>
                </g>
            </g>
        </g>
    </g>
</svg>
