<?xml version="1.0" encoding="UTF-8"?>
<svg width="380px" height="344px" viewBox="0 0 380 344" version="1.1" xmlns="http://www.w3.org/2000/svg" xmlns:xlink="http://www.w3.org/1999/xlink">
    <title>Combined Shape</title>
    <g id="Page-1" stroke="none" stroke-width="1" fill="none" fill-rule="evenodd">
        <path d="M256,0 C315.646753,0 364,48.5771046 364,108.5 C364,132.585513 356.188186,154.838033 342.971091,172.839885 C365.492425,190.299115 380,217.696428 380,248.5 C380,301.243194 337.467051,344 285,344 C246.83998,344 213.934957,321.382264 198.826968,288.754838 C186.459886,294.682188 172.615373,298 158,298 C105.532949,298 63,255.243194 63,202.5 C63,201.151296 63.0278116,199.809121 63.0828898,198.474025 C26.316818,185.296619 0,149.987796 0,108.5 C0,55.7568064 42.5329488,13 95,13 C123.95891,13 149.891467,26.0255593 167.316301,46.5664613 C186.823665,18.419771 219.270661,0 256,0 Z" id="Combined-Shape" fill="#E45252"></path>
    </g>
</svg>