<?xml version="1.0" encoding="UTF-8"?>
<svg width="324px" height="347px" viewBox="0 0 324 347" version="1.1" xmlns="http://www.w3.org/2000/svg" xmlns:xlink="http://www.w3.org/1999/xlink">
    <title>blick-blob</title>
    <g id="blick-blob" stroke="none" stroke-width="1" fill="none" fill-rule="evenodd">
        <circle id="Oval" fill="#8E2727" fill-rule="nonzero" cx="162.5" cy="178.5" r="147.5"></circle>
        <path d="M260.322068,38.1182908 C253.439915,35.5666275 246.847959,32.7642837 240.696893,28.5634068 C233.190585,23.3772897 225.756332,18.1281726 217.71306,13.7877722 C210.450887,9.91409931 202.724463,6.82347301 194.886172,4.33777825 C183.862619,0.799555371 172.358364,-0.798202775 160.720198,0.387251969 C150.859079,1.43120418 140.997961,2.47548624 131.27569,4.41529129 C125.344739,5.61295022 119.52332,8.11315805 113.919351,10.4250257 C105.856239,13.8497827 97.6579649,17.2646444 90.0139348,21.4698092 C81.7996964,26.0417592 74.1397022,31.4040123 66.4699032,36.901501 C54.6339617,45.4985217 43.42484,54.8228456 34.303692,66.2766341 C26.454543,76.1214499 19.5121787,86.5779589 14.7798552,98.4237985 C10.1393289,109.935771 6.63327039,121.735796 4.92794934,134.009243 C3.77768841,142.372274 3.29336801,150.920544 1.87298002,159.263585 C0.179503757,169.494317 -0.494991353,179.731646 0.390077841,190.016142 C0.907629455,196.935253 1.62292329,203.937154 2.61854388,210.82328 C3.79578462,218.949286 4.82825567,227.200631 7.04421887,235.062433 C9.41877068,243.549286 12.5513892,251.88738 16.5875021,259.951705 C21.2536922,269.62929 26.7904745,278.553515 33.6124168,286.618829 C38.1779261,292.065192 43.1060177,297.197545 48.0344383,302.329898 C51.7619286,306.215775 55.4795482,310.236887 59.7340989,313.411953 C73.5304522,323.69513 87.7089975,333.392836 103.920142,339.425659 C109.344794,341.460789 114.594899,344.027955 120.150995,345.187352 C126.643718,346.551582 133.412687,346.914738 140.06617,346.998344 C146.17907,347.038759 152.278151,346.330257 158.35782,345.893215 C158.502918,345.767545 158.783245,345.6521 158.928015,345.52643 C167.592151,344.12163 176.236547,342.987631 184.857581,341.239135 C192.512936,339.691842 200.177833,338.008985 207.621627,335.62851 C221.750819,331.015659 235.417735,325.279035 248.39173,317.856254 C261.790822,310.192359 274.009055,301.010527 284.617053,289.666246 C287.494021,286.539997 290.37099,283.414077 292.862015,279.987011 C296.562197,274.877748 300.064636,269.686023 303.441718,264.348508 C308.884729,255.825042 312.952428,246.587467 315.833016,236.853149 C317.44292,231.521571 318.719526,226.097307 320.204073,220.620599 C320.877581,215.083529 321.55076,209.546789 322.296653,203.947379 C322.559871,202.195255 322.885602,200.516025 323.220876,198.70156 C323.144872,197.878273 323.068539,197.054986 322.992206,196.232028 C323.018198,194.939374 323.17909,193.656946 323.204754,192.364292 C323.42487,190.268472 323.71737,188.109981 324,186.087055 C323.810483,183.075591 323.68381,180.136693 323.422237,177.187899 C323.355775,176.229376 323.226798,175.197628 323.025108,174.229209 C323.017869,172.457294 322.947788,170.612484 322.867835,168.903569 C322.603631,167.862255 322.40194,166.893507 322.137735,165.852194 C322.37496,165.392723 322.476957,164.923357 322.714182,164.463886 C322.637849,163.640928 322.561845,162.817641 322.485512,161.994353 C322.317052,161.505197 322.283821,161.025935 322.115691,160.536449 C321.695201,156.962932 321.284581,153.253521 320.86442,149.680005 C320.570604,149.045388 320.349501,148.34777 320.055684,147.712823 C319.959939,147.160732 319.79148,146.671411 319.758248,146.192083 C318.955764,143.203378 318.153279,140.214739 317.350465,137.226068 C315.079555,131.063319 312.818187,124.765038 310.474234,118.665059 C308.64553,113.897516 306.131144,109.215626 304.925607,104.289623 C303.402564,98.1139773 302.783345,91.6642656 300.854947,85.4586706 C298.76796,78.6282546 296.463819,71.9862117 292.830758,65.8593831 C285.300761,52.5640827 274.419674,43.3136435 260.322068,38.1182908 Z M22.8731385,226.692014 C14.686742,205.58175 12.0683817,183.587837 12.0683817,161.105757 C12.0683817,158.312319 12.4714368,155.548897 13.1360613,152.94116 C14.3011282,148.121729 18.0753396,145.743101 22.2252942,143.800954 C23.7713686,143.097466 25.3273137,142.258412 26.5697007,141.055608 C27.2948652,140.427818 27.8282099,138.695847 27.3991652,138.051037 C26.7197348,137.115273 25.3641641,136.129637 24.2099549,136.11265 C21.9647088,136.15144 19.680309,136.732359 17.4778357,137.114944 C15.5556891,137.381951 14.3685777,136.885637 14.7433338,134.528812 C17.1162405,117.740002 21.9360838,101.881078 30.5446156,87.1872444 C37.4402588,75.5010157 46.1827025,65.517666 55.895103,56.2193997 C71.6020542,41.0951214 89.5790006,29.3405163 109.304784,20.6442129 C131.136842,11.0134651 153.986762,6.09023263 177.928049,8.60528339 C189.596814,9.80657059 200.620696,13.3447935 210.893421,18.8033607 C216.38447,21.7970132 221.711007,25.1874666 227.1096,28.5152498 C227.828513,28.9087522 228.382915,29.6990553 229.791129,30.893086 C223.929273,31.1421172 218.907739,31.0441539 213.97208,31.6339127 C208.21584,32.2995353 202.545475,33.6525502 196.769494,34.5893035 C193.195657,35.1431094 189.467179,35.9581508 185.879852,35.7615645 C168.63877,34.5582983 152.323227,38.3963482 136.526223,44.4529203 C125.970868,48.5113051 116.369249,54.4118616 107.813394,61.8197993 C100.064958,68.4018108 92.1186395,74.9010318 85.3201661,82.4385977 C74.3924899,94.4406508 64.4775104,107.471219 57.0953753,122.119238 C51.9303879,132.434343 46.4222305,142.792295 43.1731382,153.861751 C38.5082642,169.459684 31.3141981,184.326025 29.5114865,200.748234 C28.2309328,212.780237 27.8341323,224.809601 29.6101931,236.863044 C29.7490404,237.758897 29.878017,238.790315 29.9444795,239.749168 C29.4565398,239.917388 28.9686002,240.085937 28.4809896,240.254157 C26.6424146,235.622176 24.6488703,231.25143 22.8731385,226.692014 Z M162.125451,45.659485 C144.816919,55.692311 127.643945,65.7350324 112.301747,78.63782 C97.0321979,91.4777066 82.9633815,105.564465 69.7818387,120.534179 C69.333283,120.160434 68.8846944,119.786722 68.4361058,119.41301 C80.6258117,98.4430284 95.8927947,80.0162327 115.500532,65.4523572 C129.29399,55.1606046 144.407616,47.2823111 162.125451,45.659485 Z M41.5520468,243.670998 C48.1614408,255.603718 54.8961922,267.682229 61.6938198,279.833305 C51.349664,269.737149 43.484064,258.256643 41.5520468,243.670998 Z M137.893309,339.478434 C135.928061,339.401911 133.953271,339.460623 131.997893,339.248204 C129.439418,338.923309 126.890484,338.462848 124.341617,338.002058 C123.540349,337.806791 122.801728,337.68442 122.072977,337.426153 C121.56171,336.979546 121.122992,336.470269 120.611757,336.023991 C120.341367,336.003871 120.008298,335.911185 119.737941,335.891395 C116.08425,334.736285 112.493238,333.653742 108.767064,332.561632 C100.901694,328.575153 92.6541785,325.173485 85.3258911,320.340959 C76.8300823,314.74122 68.5283965,308.337983 61.0771667,301.452516 C52.6759517,293.611495 44.8646403,285.132558 37.623524,276.286836 C33.2458862,271.058829 30.3810917,264.648005 26.8638464,258.801873 C26.4446724,258.021795 26.3058251,257.125942 26.094593,256.292759 C26.3120765,256.104419 26.5920742,255.988644 26.8095578,255.800304 C28.921221,258.544925 30.8246133,261.342322 32.9458182,263.951378 C38.1285728,270.260609 43.1662287,276.695511 48.6388517,282.753732 C53.2339731,287.793399 58.4716744,292.403941 63.5018286,297.066927 C71.2037731,304.243315 79.2780718,310.970128 88.5518202,316.150638 C95.1476454,319.838939 101.588626,323.788476 108.111948,327.539777 C108.570342,327.777923 109.101251,327.9534 109.559678,328.191546 C111.369924,328.529635 113.107654,328.930394 114.855221,329.195258 C122.581678,332.285884 130.370879,335.449405 138.024918,338.602702 C137.932463,338.936503 137.91305,339.207633 137.893309,339.478434 Z M208.397789,317.427459 C199.086138,323.076345 190.256174,329.578535 179.182281,331.419057 C174.642435,332.174067 170.089428,332.179015 165.506481,332.590329 C164.279887,332.636177 163.106265,332.890156 161.807286,332.999004 C161.006118,332.803407 160.204949,332.60814 159.403452,332.412873 C159.278094,332.267413 159.090223,332.049057 158.964865,331.903596 C158.269313,332.124921 157.57376,332.345915 156.940722,332.639805 C145.614798,331.395968 134.657378,328.816268 124.941029,322.240854 C126.134392,321.715744 127.288272,321.732566 128.442481,321.749718 C129.388748,321.819315 130.335016,321.889241 131.353668,321.896168 C134.38067,322.323974 137.480057,322.68878 140.50706,323.116256 C144.094387,323.312842 147.681714,323.509099 151.331555,323.77825 C151.862596,323.953727 152.446281,324.337664 153.059578,324.314575 C156.521548,324.3657 159.993388,324.280931 163.392515,324.259161 C163.537613,324.133491 163.755097,323.945151 163.910066,323.684245 C167.42106,323.057544 170.87941,322.222382 174.360792,322.002377 C186.249673,321.107844 197.547631,318.057788 208.768926,314.184775 C209.32958,313.953555 210.077776,313.940361 211.192502,314.499775 C210.365341,315.596832 209.601023,316.766784 208.397789,317.427459 Z M253.235921,305.405681 C252.899332,304.427038 252.625256,303.52096 252.130078,301.917594 C243.810099,306.072953 235.852702,309.914301 227.957819,313.828545 C227.769947,313.610189 227.65446,313.329163 227.529103,313.183702 C228.428649,312.023645 229.130124,310.781128 230.155028,309.766532 C239.712788,300.729171 249.207376,291.619245 260.278966,284.192176 C265.773634,280.578089 270.420083,275.538423 274.984276,270.697321 C281.463377,263.817461 287.826663,256.656576 293.669106,249.184649 C298.476447,242.862553 302.522102,235.803259 306.881314,229.107452 C307.645632,227.9375 308.337565,226.830548 309.411493,225.138455 C306.730293,252.736725 277.948764,293.534641 253.235921,305.405681 Z M309.06273,146.561441 C312.16113,159.121093 313.815453,171.914703 312.330906,184.885768 C310.807205,198.399095 306.556569,211.098039 300.577911,223.26066 C294.609122,235.287715 286.961335,246.100949 278.083663,256.074074 C273.944566,260.67406 269.48237,265.045796 264.822102,269.334741 C275.54822,248.869979 284.889154,227.826343 291.91838,205.862446 C298.885092,183.825983 302.564216,161.206359 304.90126,138.351689 C305.452043,138.256067 305.867268,138.150452 306.417722,138.054797 C307.230406,140.907937 308.385603,143.718263 309.06273,146.561441 Z M293.073577,106.549408 C296.577332,111.644884 295.946926,117.525499 296.012072,123.184927 C295.949558,130.606223 295.418845,137.924839 294.815419,145.306291 C293.767484,160.694113 291.232369,175.972098 286.896847,190.776759 C283.002213,204.183217 278.63971,217.486763 273.81888,230.552493 C270.456604,239.433508 266.355674,248.192152 261.545701,256.421398 C255.206763,266.990548 248.409497,277.321552 240.777832,286.978028 C236.962164,291.805936 231.134526,295.327666 225.669471,298.535387 C212.042695,306.523188 196.957694,311.201677 181.521956,314.150801 C176.837341,315.031481 171.993808,315.287439 167.193706,315.887423 C166.570538,316.045748 165.874986,316.267072 165.251818,316.425397 C165.12646,316.279936 165.001103,316.134475 164.803361,316.051685 C164.678003,315.906224 164.489803,315.687868 164.364446,315.542408 C163.398766,315.743612 162.432757,315.944816 161.539134,316.08335 C158.868791,316.363386 156.20799,316.507857 153.537647,316.787564 C153.224089,316.424077 152.91086,316.060261 152.660146,315.769339 L152.587432,315.832009 L152.442662,315.95768 L152.297563,316.08302 C152.08008,316.27136 151.862596,316.4597 151.645113,316.64804 C150.810384,315.973512 150.048369,315.235984 149.537398,314.789377 C148.479263,315.324711 147.463901,316.203412 146.517634,316.133816 C143.606447,315.987036 140.6617,315.361324 137.760384,315.078979 C133.849629,314.654471 129.929331,314.365199 126.081419,314.013257 C125.956062,313.867796 125.830704,313.722335 125.632962,313.639545 C124.706305,313.298817 123.779647,312.95776 122.853022,312.617032 L122.71786,312.607137 C122.44747,312.587017 122.177112,312.567226 121.906755,312.547436 C119.657758,311.70007 117.47144,310.925599 115.222443,310.078563 C114.869731,310.257008 114.507182,310.570688 114.15447,310.749133 C113.353203,310.553866 112.551903,310.358599 111.740831,310.298568 C111.30208,309.789291 110.728134,309.270118 110.289416,308.760841 C109.874025,308.866721 109.32344,308.962375 108.908083,309.067925 C108.782725,308.922464 108.594689,308.704108 108.396815,308.621318 C108.126458,308.601527 107.793422,308.508841 107.523032,308.488721 C99.9452929,306.158712 94.1961796,301.101893 88.9644599,295.470159 C84.1813222,290.212136 79.3981648,284.954443 75.0500403,279.319739 C60.689513,260.888128 49.4406784,240.778277 47.1483821,217.105135 C46.0849829,206.466718 46.6736033,195.541667 46.639056,184.774941 C46.699267,171.766934 52.3818061,160.876846 59.5217152,150.502963 C61.3405488,147.912114 62.9086348,145.030146 64.5295946,142.356441 C71.8933045,130.772794 80.9886572,120.611296 90.5952278,110.89624 C99.839282,101.495129 109.145998,92.166748 119.214664,83.5758624 C127.107968,76.8682138 135.94188,71.2519818 144.702749,65.6987497 C152.323556,60.8784282 160.310565,56.6307136 168.350218,52.5907999 C174.065988,49.6740007 180.012732,47.3195834 186.075292,45.2458622 C193.954052,42.4887069 201.666986,44.828941 209.428944,46.4913483 C222.747097,49.3131528 235.285139,54.4616678 246.86441,61.5833021 C256.682427,67.6896804 265.900965,74.56921 274.210087,82.744164 C281.226152,90.0062782 287.227185,98.1472914 293.073577,106.549408 Z M260.971558,59.1493926 C246.368903,52.4859099 231.829092,45.8953225 216.507524,38.8380076 C219.58388,38.5879868 222.191708,38.235385 224.769924,38.2894792 C228.637249,38.3702906 232.548005,38.7947982 236.468302,39.0840703 C242.343977,39.5854312 246.206695,43.4812036 250.016441,47.1685154 C253.450115,50.4194453 256.59392,53.9213855 259.747267,57.2877603 C260.311539,57.9424981 260.605027,58.5774453 260.971558,59.1493926 Z M284.27487,73.2673208 C279.729102,67.5498271 275.255719,61.7696632 270.709622,56.0524993 C278.363661,59.2057957 282.474462,65.2999698 284.27487,73.2673208 Z" id="Shape" fill="#F4AFBC" fill-rule="nonzero"></path>
    </g>
</svg>