<?xml version="1.0" encoding="UTF-8"?>
<svg width="168px" height="200px" viewBox="0 0 168 200" version="1.1" xmlns="http://www.w3.org/2000/svg" xmlns:xlink="http://www.w3.org/1999/xlink">
    <title>Combined Shape</title>
    <g id="Page-1" stroke="none" stroke-width="1" fill="none" fill-rule="evenodd">
        <g id="Artboard" transform="translate(-16.000000, 0.000000)" fill="#D50223">
            <path d="M154.886291,0 C163.622559,8.80175439 172.320187,17.6403509 181.130224,26.3666667 C182.628422,27.8508772 183.195734,29.3087719 183.193982,31.3964912 C183.136017,77.1315789 183.136017,122.868421 183.193982,168.605263 C183.195734,170.692982 182.628422,172.150877 181.130224,173.633333 C172.320187,182.361404 163.622559,191.2 154.886291,200 L44.3568659,200 C34.9039918,190.559649 25.4528741,181.117544 16,171.677193 L16,28.3245614 L16,28.3245614 L44.3568659,0 L44.3568659,0 L154.886291,0 Z M35.4695484,22.0964912 C38.5361998,27.7982456 41.2252281,33.4561404 44.5166971,38.7385965 C47.925844,44.2087719 53.0386861,47.1982456 59.7322765,47.1087719 C65.7092609,47.0298246 71.6880018,47.0859649 77.6667427,47.0982456 C78.5835766,47.1 79.5004106,47.1842105 80.4225137,47.2298246 L80.4225137,146.005263 C58.1041058,151.568421 49.8947536,158.822807 43.3557254,179.121053 C67.1705748,161.585965 91.3208942,166.82807 115.569571,176.989474 C126.336223,158.564912 142.491469,148.529825 163.501369,145.466667 C157.773791,134.32807 157.053672,122.422807 157.245119,110.285965 C157.459398,96.7105263 157.296054,83.1280702 157.294297,69.5491228 C157.292541,44.4210526 137.998631,25.1666667 112.819069,25.1631579 C94.6931569,25.1614035 76.5672445,25.2035088 58.4395757,25.1298246 C54.8881615,25.1157895 51.3121578,24.8438596 47.7923586,24.3649123 C43.7526688,23.8157895 39.7639142,22.9035088 35.4695484,22.0964912 Z M127.549424,121.024442 C130.127463,121.784243 132.594638,122.911633 135.156839,123.73475 C137.168237,124.381988 137.93549,125.560383 138.056913,127.71491 C138.343753,132.804872 139.015979,137.873728 139.353852,142.96193 C139.411923,143.836053 138.827685,145.065453 138.132583,145.622992 C134.611315,148.452898 130.880637,151.02426 127.389286,153.887584 C126.233128,154.835576 125.476434,154.986832 124.130222,154.395876 C112.579199,149.321744 100.540723,146.194601 87.551981,145.651132 C87.551981,138.253628 87.4657531,131.130496 87.6610857,124.016158 C87.6857223,123.135 89.0583302,121.854595 90.0649093,121.502836 C102.487011,117.160363 115.014698,117.330967 127.549424,121.024442 Z M74.3506843,54.3736842 C73.6937956,54.5070175 73.2283531,54.5473684 72.7980383,54.6929825 C61.4956889,58.5315789 54.9162637,67.4350877 55.1726962,79.3122807 C55.2692974,83.7333333 54.7476505,87.1842105 50.4796305,89.5982456 C48.3912865,90.7789474 46.7754106,92.9491228 45.2350593,94.9 C42.9429745,97.8052632 41.4307254,101.094737 41.5325958,105.084211 C42.7971943,104.510526 43.9107436,103.950877 45.0646898,103.496491 C46.2239051,103.038596 47.3989279,102.566667 48.6125912,102.303509 C53.3846943,101.268421 55.0690693,102.633333 55.0760949,107.498246 C55.090146,117.514035 55.2429516,127.535088 54.9935447,137.547368 C54.903969,141.135088 53.8220347,144.698246 53.1950046,148.27193 C53.1704151,148.507018 53.1458257,148.742105 53.1212363,148.975439 C53.3056569,148.85614 53.4900776,148.736842 53.6744982,148.617544 C61.1215785,143.152632 67.6518248,136.794737 72.03401,128.587719 C73.3073905,126.205263 74.2892108,123.333333 74.3102874,120.675439 C74.4789005,100.740351 74.3717609,80.8017544 74.3506843,60.8649123 C74.3496807,59.6639098 74.349824,58.4623344 74.3501313,57.2264692 L74.3506843,54.3736842 L74.3506843,54.3736842 Z M137.168059,79.562921 L137.168059,119.708906 C121.091041,112.345464 104.49723,112.171192 87.5330224,117.494417 L87.5330224,81.9728067 C104.267937,87.2203373 120.741809,87.1904118 137.168059,79.562921 Z M126.280394,53.8422123 C133.123316,57.8995717 136.731307,64.1742022 137.165667,72.1743561 C137.209454,72.9904105 136.645486,74.3369885 136.004455,74.624282 C121.907018,80.942976 107.397991,83.1849226 92.3197414,78.588227 C87.7679056,77.2003552 87.544451,77.0581187 87.5335728,72.8945476 L87.5330224,46.9365936 L87.5330224,46.9365936 C101.017452,46.2756424 114.254925,46.7092264 126.280394,53.8422123 Z" id="Combined-Shape"></path>
        </g>
    </g>
</svg>