<?xml version="1.0" encoding="UTF-8"?><svg id="Layer_1" xmlns="http://www.w3.org/2000/svg" viewBox="0 0 212 168"><defs><style>.cls-1{fill:#eb6b49;}.cls-2{fill:#e9714d;}.cls-3{fill:#ef9077;}.cls-4{fill:#f5a568;}.cls-5{fill:#f1ddc8;}.cls-6{fill:#edc2a6;}.cls-7{fill:#fdfcfb;}.cls-8{fill:#82416a;}.cls-9{fill:#98527d;}.cls-10{fill:#9d5c85;}.cls-11{fill:#904773;}.cls-12{fill:#ab4839;}.cls-13{fill:#d8876f;}.cls-14{fill:#d15c3b;}.cls-15{fill:#a96b96;}.cls-16{fill:#894c74;}.cls-17{fill:#6e3251;}.cls-18{fill:#5f2543;}.cls-19{fill:#7b395d;}.cls-20{fill:#512038;}.cls-21{fill:#7a4467;}</style></defs><path class="cls-7" d="M0,108.36C0,72.24,0,36.12,0,0c70.67,0,141.33,0,212,0,0,56,0,112,0,168-70.67,0-141.33,0-212,0C0,149.78,0,131.55,0,113.33c1.64,3.71,3.29,7.42,4.93,11.12,2.23,3.55,3.73,7.98,6.81,10.47,8.5,6.85,17.65,12.89,26.55,19.25,.49,.36,.99,.72,1.48,1.08,0,0-.11-.05-.11-.05,7.53,5.32,15.92,8.42,25.02,9.71,3.93,.39,7.98,1.55,11.78,1,8.76-1.29,17.39-3.41,26.08-5.19,6.96,1.07,13.93,2.15,20.89,3.22,10.28,.24,20.56,.47,30.84,.71,15.25-1.85,27.86-8.97,38.69-19.52,8.3-8.09,15.83-16.89,16.45-29.1,.41-8.02,.31-16.26-1.11-24.12-1.33-7.32-3.73-14.83-7.46-21.22-3.93-6.73-9.74-12.45-15.21-18.15-2.11-2.2-5.54-3.14-8.37-4.65-5.68-4.97-11.36-9.94-17.05-14.91-6.99-8.49-13.53-17.15-12.87-29.07,.05-.83-1.71-2.39-2.75-2.5-1.71-.18-3.52,.54-5.28,.88-.8,.14-1.64,.19-2.41,.43-6.71,2.09-6.42,2.36-4.86,9.22,.85,3.72-.26,7.88-.49,11.85-1.72,1.39-3.43,2.77-5.15,4.16-.61-.44-1.22-.89-1.84-1.33-.07-3.24-1.85-4.77-4.98-4.94-1.11-3.46-2.75-1.69-4.3-.41-7.23,5.98-14.18,12.4-23.73,14.63-1.99,.02-3.98,.04-5.97,.05-1.67,.27-3.33,.55-5,.82-1,.08-1.99,.15-2.99,.23-2.64,.25-5.28,.5-7.91,.76-10.19,.75-19.36,4.63-28.45,8.95C17.65,57.89,5.52,77.06,1.92,102.3,1.28,104.32,.64,106.34,0,108.36Z"/><path class="cls-18" d="M4.93,124.45C3.29,120.74,1.64,117.03,0,113.33,0,111.67,0,110.01,0,108.36c.64-2.02,1.28-4.03,1.92-6.05,.35,1.35,.7,2.69,1.04,4.04,.65,6.03,1.31,12.07,1.96,18.1Z"/><path class="cls-19" d="M4.93,124.45c-.65-6.03-1.31-12.07-1.96-18.1,.36-2.11,.58-4.25,1.1-6.32,3.21-12.56,6.75-25.47,16.03-34.71,16.29-16.24,36.22-25.6,59.68-26.66,3.96-.18,7.85-1.81,11.77-2.77,9.55-2.23,16.5-8.64,23.73-14.63,1.55-1.28,3.19-3.05,4.3,.41-.57,.59-1.21,1.12-1.7,1.76-6.68,8.84-15.2,14.09-26.44,15.85-10.89,1.71-21.85,4.06-32.25,7.67-24,8.32-41.16,24.23-49.32,48.72-4.32,12.97-1.52,24.51,8.7,33.88,4.38,4.02,8.84,8.01,13.62,11.54,17.18,12.68,40.8,16.48,60.7,.09,.67-.55,1.74-.6,2.62-.89-1.11,1.75-1.83,4.17-3.42,5.13-4.73,2.86-9.81,5.15-14.79,7.68,1.2,1.04,2.27,1.98,3.35,2.91-1.24,.6-2.48,1.21-3.72,1.81,2.02,1.17,4.09,1.7,5.72,1.08,7.66-2.91,16-4.96,22.64-9.48,19.12-13.01,32.07-39.13,20.85-66.7-4.38-10.75-5.35-22.33-4.31-33.99,.37,.87,.32,1.83,.6,2.68,2.15,6.43,4.37,12.83,6.57,19.24,.81,1.12,1.62,2.25,2.43,3.37,.32,1.65,.64,3.29,.96,4.94,1.35,3.34,2.69,6.67,4.04,10.01l.14,.03c.24,5.08,1,10.21,.6,15.24-1.12,14.01-5.94,26.82-15.19,37.47-15.1,17.38-34.35,24.45-57.25,21.35-8.36-2.63-16.73-5.26-25.09-7.88,0,0,.11,.05,.11,.05-.49-.36-.98-.72-1.48-1.08-8.9-6.36-18.05-12.4-26.55-19.25-3.08-2.49-4.59-6.92-6.81-10.47Zm69.3,35.37c.04-.69,.08-1.38,.12-2.07-8.8-.8-17.6-1.6-26.4-2.4,8.56,3.33,17.33,4.75,26.28,4.46Z"/><path class="cls-6" d="M95.52,140.3c-.88,.28-1.96,.34-2.62,.89-19.9,16.39-43.52,12.59-60.7-.09-4.78-3.53-9.23-7.52-13.62-11.54-10.22-9.37-13.02-20.91-8.7-33.88,8.16-24.49,25.32-40.39,49.32-48.72,10.4-3.61,21.35-5.96,32.25-7.67,11.24-1.76,19.76-7,26.44-15.85,.49-.65,1.13-1.18,1.7-1.76,3.13,.16,4.91,1.7,4.98,4.94-5.06,6.5-9.06,13.38-7.93,22.1-.42,14.59-.83,29.18-1.25,43.76-.25,.78-.61,1.54-.73,2.33-1.89,12.62-5.47,24.63-12.38,35.52-1.79,2.82-3.27,5.84-4.9,8.76-.62,.4-1.24,.81-1.87,1.21ZM119.27,27.5c-.31-.24-.61-.48-.92-.73-1.27,1.15-2.62,2.24-3.81,3.47-5.7,5.86-12.4,9.27-20.62,10.81-12.1,2.27-24.22,5.01-35.89,8.86-19.59,6.47-33.78,19.75-42.81,38.18-5.91,12.05-7.66,24.69,1.43,35.94,4.8,5.95,11.16,10.76,17.29,15.48,10.88,8.38,23.57,11.62,36.99,9.37,14.25-2.39,24.27-11.27,31.2-23.76,7.03-12.67,9.87-26.52,11.27-40.7,.74-7.54,1.59-15.24,.8-22.7-1.01-9.54-1.11-18.73,2.29-27.77,.82-2.19,1.86-4.3,2.8-6.44Z"/><path class="cls-17" d="M177.24,47.88c2.83,1.51,6.26,2.45,8.37,4.65,5.47,5.7,11.29,11.42,15.21,18.15,3.72,6.38,6.13,13.9,7.46,21.22,1.43,7.86,1.52,16.1,1.11,24.12-.62,12.21-8.15,21.01-16.45,29.1-10.82,10.55-23.44,17.67-38.69,19.52-.71-.55-1.33-1.39-2.13-1.61-3.91-1.08-7.86-1.99-11.79-2.97,.01-.31,.02-.62,0-.93,.32-.06,.63-.1,.95-.12,7.31-.31,14.62-.62,21.93-.94,6.28-5,12.57-9.99,18.85-14.99,1.04,.37,2.08,.75,3.12,1.12-.66,.64-1.32,1.29-1.99,1.93-.39,.63-.78,1.26-1.16,1.89l-4.67,5.14c.34,.38,.69,.76,1.03,1.15,4.63-3.96,9.61-7.57,13.83-11.92,18.79-19.39,19.65-41.41,8.34-64.08-5.83-11.68-14.46-21.14-23.35-30.43Z"/><path class="cls-20" d="M183.22,146.14c.66-.64,1.32-1.29,1.99-1.93,2.67-2.89,5.9-5.45,7.89-8.75,3.7-6.15,6.67-12.74,9.94-19.14,.07,1.34,.14,2.67,.21,4.01,.61,0,1.22,0,1.84,0v-14.96c-.32-2.34-.65-4.67-.97-7.01-.68-2.97-1.37-5.94-2.05-8.91-.29-.69-.58-1.38-.88-2.08-.64-1.68-1.28-3.36-1.93-5.03-.37-.97-.75-1.93-1.12-2.9-.31-.34-.63-.69-.94-1.03-.33-.66-.66-1.32-1-1.98-.35-.65-.69-1.29-1.03-1.94-.71-.58-1.41-1.17-2.12-1.75,0,0,.06-.2,.06-.2-1.39-2.26-2.78-4.52-4.18-6.78-1.57-1.32-3.28-2.5-4.68-3.97-3.44-3.62-6.73-7.38-10.08-11.08-4.66-4.94-9.32-9.88-13.99-14.82-.35-.35-.7-.69-1.05-1.04l1.05-1.86c5.68,4.97,11.36,9.94,17.05,14.91,8.89,9.29,17.52,18.74,23.35,30.43,11.32,22.68,10.46,44.69-8.34,64.08-4.22,4.35-9.2,7.97-13.83,11.92-.34-.38-.69-.76-1.03-1.15,1.56-1.71,3.12-3.43,4.68-5.14,.39-.63,.78-1.26,1.16-1.89Zm19.18-23.18c-.05,.12-.09,.24-.14,.37,.18,.02,.35,.03,.53,.05-.02-.13-.02-.28-.09-.38-.04-.06-.2-.03-.3-.04Z"/><path class="cls-20" d="M64.75,163.07c22.9,3.1,42.14-3.97,57.25-21.35,9.25-10.64,14.07-23.45,15.19-37.47,.4-5.03-.37-10.15-.6-15.23,1.05,4.22,2.1,8.44,3.15,12.66-.04,.73-.08,1.46-.13,2.19-.45,4.8-.9,9.6-1.34,14.4-2.35,5.63-4.7,11.25-7.05,16.88-1.98,3.3-3.97,6.6-5.95,9.9-.28,.02-.57,.05-.85,.1-1,.94-2,1.88-2.99,2.82-1.65,1.38-3.29,2.76-4.94,4.14-2.9,2.24-5.8,4.47-9.45,7.29-.68,.2-2.59,.76-4.49,1.32-8.68,1.78-17.32,3.91-26.08,5.19-3.79,.56-7.84-.61-11.78-1,.02-.61,.05-1.22,.07-1.83Z"/><path class="cls-20" d="M91.55,35.88c-3.92,.96-7.81,2.59-11.77,2.77-23.46,1.06-43.39,10.43-59.68,26.66-9.28,9.24-12.82,22.15-16.03,34.71-.53,2.07-.74,4.21-1.1,6.32-.35-1.35-.7-2.7-1.05-4.04,3.6-25.24,15.73-44.42,39.31-55.61,9.09-4.31,18.26-8.2,28.45-8.95,2.64-.25,5.28-.5,7.91-.76,1-.08,1.99-.15,2.99-.23,1.67-.27,3.33-.55,5-.82,1.99-.02,3.98-.04,5.97-.05Z"/><path class="cls-17" d="M160.19,32.98c-.35,.62-.7,1.24-1.04,1.86-1.95-1.34-4.08-2.48-5.82-4.05-3.13-2.83-6.03-5.92-9.02-8.9-1.67-6.53-3.34-13.07-5.01-19.6,1.77-.34,3.57-1.07,5.28-.88,1.04,.11,2.79,1.67,2.75,2.5-.66,11.93,5.88,20.58,12.87,29.07Z"/><path class="cls-8" d="M139.29,2.29c1.67,6.53,3.34,13.07,5.01,19.6-.99,1.98-1.98,3.95-2.97,5.93-4.57,1.81-7.1-1.33-9.79-4.04,.23-3.96,1.34-8.13,.49-11.85-1.56-6.86-1.85-7.13,4.86-9.22,.77-.24,1.6-.29,2.41-.43Zm-.9,6.24c-.67,.11-1.33,.23-2,.34,0,4.54-.15,9.09,.11,13.61,.06,1.11,1.49,2.13,2.29,3.2,.86-1.18,2.56-2.48,2.42-3.52-.65-4.58-1.83-9.09-2.82-13.63Z"/><path class="cls-17" d="M102.53,160.71c1.9-.56,3.81-1.12,4.49-1.32,3.65-2.81,6.55-5.05,9.45-7.29,2.98,2.65,5.96,5.3,8.93,7.96,3.39-.46,3.64-.92,2.61-3.81-1.3-3.67-2.42-7.39-3.62-11.09,.28-.05,.56-.09,.85-.1,.7,1.04,1.4,2.08,2.11,3.12,1.01,3.61,2.02,7.23,3.03,10.84-2.32,1.64-4.65,3.28-6.97,4.92-6.96-1.07-13.93-2.15-20.89-3.22Z"/><path class="cls-17" d="M131.54,23.78c2.7,2.71,5.22,5.85,9.79,4.04-1.69,1.84-3.37,3.7-5.08,5.53-3.27,3.49-6.55,6.96-9.83,10.44-.88,.44-1.76,.89-2.65,1.33-.76-2.76-1.52-5.52-2.28-8.28,.86-1.47,1.76-2.91,2.57-4.4,.81-1.48,1.55-3,2.32-4.5,1.72-1.39,3.43-2.77,5.15-4.16Z"/><path class="cls-18" d="M123.42,163.93c2.32-1.64,4.65-3.28,6.97-4.92,3.32,.35,6.63,.7,9.95,1.05,3.93,.97,7.89,1.89,11.79,2.97,.8,.22,1.42,1.06,2.13,1.61-10.28-.24-20.56-.47-30.84-.71Z"/><path class="cls-19" d="M126.39,27.94c-.77,1.5-1.51,3.02-2.32,4.5-.82,1.49-1.71,2.94-2.58,4.4-.7,3.96-1.39,7.92-2.08,11.88-.93,0-1.86-.01-2.79-.02-1.13-8.72,2.87-15.59,7.93-22.1,.61,.44,1.23,.89,1.84,1.33Z"/><path class="cls-17" d="M64.75,163.07c-.02,.61-.05,1.22-.07,1.83-9.1-1.3-17.49-4.39-25.02-9.71,8.36,2.63,16.73,5.26,25.09,7.89Z"/><path class="cls-18" d="M77.59,36.99c-2.64,.25-5.28,.5-7.91,.76,2.64-.25,5.28-.5,7.91-.76Z"/><path class="cls-18" d="M85.58,35.94c-1.67,.27-3.33,.55-5,.82,1.67-.27,3.33-.55,5-.82Z"/><path class="cls-17" d="M38.29,154.16c.49,.36,.98,.72,1.48,1.08-.49-.36-.98-.72-1.48-1.08Z"/><path class="cls-10" d="M132.4,78.98c-.32-1.65-.64-3.29-.96-4.94,.2-.43,.39-.86,.58-1.29,.99-2.18,2.14-4.3,2.94-6.55,2.2-6.13,4.26-12.32,6.37-18.49,3.95,1.01,7.9,2.02,11.86,3.03,2.68,8.46,5.93,16.79,7.92,25.41,3.12,13.51,4.03,27.28,2.09,41.12-.33,.34-.66,.67-.98,1.01-.64,0-1.29,0-1.93-.01-.09-1.32-.17-2.65-.33-5.11-.78,3.14-1.27,5.11-1.76,7.09-1.97,.01-3.93,.02-5.9,.03,.99-5.13,3.04-10.32,2.76-15.37-.65-11.6-2.35-23.16-3.85-34.7-.2-1.52-1.59-3.89-2.66-4.03-1.39-.18-3.62,1.12-4.43,2.43-2.13,3.43-3.7,7.22-5.26,10.4-1.2,.4-2.3,.77-3.39,1.13-1.02-.39-2.04-.79-3.05-1.18Z"/><path class="cls-15" d="M135.45,80.16c1.1-.37,2.19-.73,3.39-1.13,1.57-3.19,3.13-6.97,5.26-10.4,.82-1.31,3.04-2.61,4.43-2.43,1.08,.14,2.47,2.51,2.66,4.03,1.5,11.54,3.21,23.1,3.85,34.7,.28,5.06-1.77,10.25-2.76,15.37-5.42,4.43-9.7,.96-14.05-2.02,.45-4.8,.9-9.6,1.34-14.4,.04-.73,.09-1.46,.13-2.19-1.05-4.22-2.1-8.44-3.15-12.66,0,0-.14-.03-.14-.03-.33-2.94-.66-5.89-.99-8.83Z"/><path class="cls-18" d="M119.41,48.72c.69-3.96,1.39-7.92,2.08-11.88,.76,2.76,1.52,5.52,2.28,8.27,.6,2.83,1.21,5.67,1.81,8.5,.6,2.68,1.2,5.35,1.8,8.03,.7,1.31,1.4,2.62,2.1,3.94,.33,1.32,.67,2.65,1,3.97-.02,.34-.05,.67-.07,1.01-.47,.04-.95,.08-1.42,.11-2.2-6.41-4.42-12.82-6.57-19.24-.29-.85-.24-1.81-.6-2.68-1.03,11.65-.06,23.23,4.31,33.99,11.22,27.57-1.72,53.69-20.85,66.7-6.63,4.51-14.97,6.56-22.64,9.48-1.63,.62-3.71,.09-5.72-1.08,1.24-.6,2.48-1.21,3.72-1.81,0,0,.46,.01,.46,.01,0,0,.46-.02,.46-.02,9.93-.55,17.93-5.18,24.99-11.78,2.7-2.59,5.78-4.88,8.03-7.81,15.63-20.45,16.13-36.27,6.79-57.87-.06-.65-.12-1.29-.18-1.94-.6-9.3-1.19-18.59-1.79-27.89Z"/><path class="cls-16" d="M81.57,156.01l-.46,.02s-.46-.01-.46-.01c-1.08-.94-2.15-1.87-3.35-2.91,4.97-2.53,10.05-4.82,14.79-7.68,1.59-.96,2.31-3.38,3.42-5.13,.62-.4,1.24-.81,1.87-1.21,2.02-.66,4.04-1.33,6.06-1.99,.02,2.02,.04,4.05,.06,6.07-5.67,2.93-11.4,5.77-16.98,8.85-1.83,1.01-3.31,2.65-4.95,4Z"/><path class="cls-18" d="M74.22,159.82c-8.96,.29-17.72-1.14-26.28-4.46,8.8,.8,17.6,1.6,26.4,2.4-.04,.69-.08,1.38-.12,2.07Z"/><path class="cls-20" d="M135.45,80.16c.33,2.94,.66,5.89,.99,8.83-1.35-3.34-2.69-6.67-4.04-10.01,1.02,.39,2.04,.79,3.05,1.18Z"/><path class="cls-20" d="M129.01,70.67c.47-.04,.95-.08,1.42-.11,.53,.73,1.07,1.46,1.6,2.2-.2,.43-.39,.86-.59,1.29-.81-1.12-1.62-2.25-2.43-3.37Z"/><path class="cls-5" d="M119.27,27.5c-.94,2.15-1.97,4.25-2.8,6.44-3.4,9.04-3.3,18.23-2.29,27.77,.79,7.46-.06,15.17-.8,22.7-1.4,14.18-4.24,28.04-11.27,40.7-6.93,12.49-16.95,21.37-31.2,23.76-13.42,2.25-26.11-.99-36.99-9.37-6.13-4.72-12.49-9.54-17.29-15.48-9.08-11.25-7.33-23.89-1.43-35.94,9.03-18.43,23.23-31.71,42.81-38.18,11.67-3.85,23.79-6.59,35.89-8.86,8.23-1.54,14.92-4.95,20.62-10.81,1.19-1.23,2.54-2.31,3.81-3.47,.31,.24,.61,.48,.92,.73Zm-37.78,23.13s.1-.06,.1-.06c-1.35,.36-2.7,.71-4.05,1.07-.71,.12-1.42,.23-2.12,.35-.13-.67-.35-1.92-.39-1.92-8.38,1.14-16.23,3.61-22.74,9.33-1,.67-2.01,1.34-3.01,2.01-.75,.07-1.8-.15-2.21,.26-5.54,5.53-10.99,11.15-16.46,16.75-4.2,7.17-8.41,14.33-12.54,21.54-.17,.3,.45,1.04,.7,1.58-.29,4.28-1.25,8.66-.64,12.81,.43,2.89,3,5.47,4.62,8.19,.73,1.25,1.47,2.51,2.2,3.76,5.31,6.63,12.01,11.4,19.79,14.71,5.69,4.74,12.36,5,19.24,4.03,.62-.09,1.09-1.29,1.63-1.97,2.77-.95,5.64-1.71,8.3-2.9,10.81-4.82,20.1-11.35,24.69-22.9,2-4.9,4-9.81,5.99-14.71,.42-1.67,.84-3.35,1.26-5.02,.23-.68,.46-1.37,.7-2.05,.26-1.02,.52-2.04,.78-3.06,.08-.6,.16-1.21,.25-1.81,.19-.69,.39-1.37,.58-2.06,.12-1.04,.24-2.08,.36-3.12,.39-9.92,.87-19.85,1.07-29.77,.03-1.43-1.32-2.9-2.03-4.34-3.39-2.01-6.57-5.04-10.22-5.76-3.67-.72-7.79,.84-11.71,1.4-1.28,.94-2.56,1.88-3.84,2.82-.12,.27-.22,.54-.29,.83Z"/><path class="cls-19" d="M103.44,137.09c-2.02,.67-4.04,1.33-6.06,2,1.62-2.93,3.11-5.94,4.9-8.76,6.91-10.89,10.49-22.9,12.38-35.52,.12-.8,.48-1.56,.73-2.33,.35,0,.7,0,1.05,0,.3,16.22-2.36,31.58-12.99,44.63Z"/><path class="cls-8" d="M116.43,92.46c-.35,0-.7,0-1.05,0,.42-14.59,.83-29.18,1.25-43.76,.93,0,1.86,.01,2.79,.02,.6,9.3,1.19,18.59,1.79,27.89-3.62-.11-3.52,2.55-3.75,4.99-.34,3.62-.69,7.24-1.03,10.86Z"/><path class="cls-19" d="M126.43,43.79c3.28-3.48,6.56-6.95,9.83-10.44,1.71-1.83,3.39-3.68,5.08-5.53,.99-1.98,1.98-3.95,2.97-5.93,2.99,2.98,5.89,6.07,9.02,8.9,1.74,1.57,3.87,2.71,5.82,4.05,.35,.35,.7,.69,1.05,1.04,2.67,6.81,8.13,11.01,13.99,14.82,3.35,3.7,6.64,7.46,10.08,11.08,1.4,1.48,3.11,2.66,4.68,3.97,.39,2.88,.24,6.08,4.17,6.78,0,0-.06,.2-.06,.2,.03,.23,.03,.46,.02,.69,.68,1.05,1.35,2.09,2.03,3.14,0,0-.03-.03-.03-.03,.34,.68,.68,1.35,1.02,2.03,0,0-.03-.04-.03-.04,1,2.33,2.01,4.66,3.01,6.99,0,0-.02-.03-.02-.03,1.11,5.99,2.2,11.98,3.39,17.95,.08,.39,1.02,.61,1.55,.91,0,.34,.02,.68,.03,1.02-.33,3.66-.66,7.31-1,10.97-3.27,6.4-6.25,12.99-9.94,19.14-1.99,3.3-5.22,5.86-7.89,8.75-1.04-.37-2.08-.74-3.12-1.12,6.47-8.2,12.08-16.76,11.99-27.78h0c.5,1.98,1.01,3.97,1.51,5.96,.46,0,.93,.02,1.39,.02v-15.96c-1.59-17.65-9.22-32.58-20.77-45.72-2.74-5.74-8.82-12.11-12.91-13.25,1.05,2.24,2,4.26,2.95,6.29-2.68-.98-5.36-1.97-8.04-2.95-2.25-4.5-4.49-8.99-6.74-13.49-.32,.15-.65,.31-.97,.46,.93,3.34,1.86,6.67,2.79,10.01-.67-.32-1.34-.64-2.01-.96-1.63-2.77-3.25-5.54-4.99-8.5-1.07,.98-1.98,1.8-2.88,2.63-.7-.36-1.4-.72-2.1-1.08-.23-.89-.46-1.78-.81-3.18-.99,1.46-1.57,2.33-2.15,3.19-1.67,.02-3.34,.05-5.01,.07-2.31,1.65-4.61,3.3-6.92,4.95Z"/><path class="cls-11" d="M194.07,115.31c.09,11.02-5.52,19.59-11.99,27.78-6.29,5-12.57,9.99-18.85,14.99-.36-4.4,2.38-8.94,6.47-10.69-.16-1.74-.31-3.48-.47-5.22,.65-.34,1.31-.67,1.96-1.01,.43,.12,.86,.24,1.29,.36-.43-.12-.86-.24-1.29-.36,0-1,.02-2,.02-3,4.06-.76,7.74-1.86,6.27-7.74,5.08,.84,7.88-1.93,10.01-5.82,1.1-2,2.18-4.03,3.47-5.91,.86-1.25,2.06-2.27,3.11-3.39Z"/><path class="cls-19" d="M169.23,142.17c.15,1.74,.31,3.48,.47,5.22-4.09,1.75-6.83,6.29-6.47,10.69-7.31,.31-14.62,.63-21.93,.94,2.62-3.65,5.24-7.3,7.86-10.96,.38-.64,.76-1.29,1.13-1.93,2.51-.25,5.02-.61,7.54-.7,1.13-.04,2.27,.47,3.41,.74,.46,.33,.93,.67,1.39,1l2.61-5.03c1.33,.01,2.66,.02,3.99,.03Z"/><path class="cls-19" d="M140.34,160.07c-3.32-.35-6.63-.7-9.95-1.05-1.01-3.62-2.02-7.23-3.03-10.84,2.69,.3,5.38,.59,8.07,.89,.3,.02,.59,.05,.88,.08,1.34,3.33,2.69,6.67,4.03,10,0,.31,0,.62,0,.93Z"/><path class="cls-11" d="M140.35,159.14c-1.34-3.33-2.69-6.67-4.03-10,4.28-.36,8.56-.72,12.84-1.08-2.62,3.65-5.24,7.3-7.86,10.96-.32,.02-.64,.06-.95,.12Z"/><path class="cls-19" d="M183.22,146.14c-.39,.63-.77,1.26-1.16,1.89,.39-.63,.77-1.26,1.16-1.89Z"/><path class="cls-17" d="M174.18,50.7c-5.86-3.82-11.31-8.01-13.99-14.82,4.66,4.94,9.32,9.88,13.99,14.82Z"/><path class="cls-17" d="M203.04,116.31c.33-3.66,.66-7.31,1-10.97,.35,0,.7,.02,1.05,.02v14.96c-.61,0-1.22,0-1.84,0-.07-1.34-.14-2.67-.21-4.01Z"/><path class="cls-18" d="M193.11,72.52c-3.93-.7-3.79-3.9-4.17-6.78,1.39,2.26,2.78,4.52,4.17,6.78Z"/><path class="cls-21" d="M202.07,89.45c.68,2.97,1.37,5.94,2.05,8.91,0,0-.1,.06-.1,.06-.65-2.99-1.31-5.98-1.96-8.96v-.02Z"/><path class="cls-21" d="M205.09,105.37c-.35,0-.7-.02-1.05-.02,0-.34-.02-.68-.03-1.02,0-1.97,0-3.93,.01-5.9,0,0,.1-.06,.1-.06,.32,2.34,.65,4.67,.97,7.01Z"/><path class="cls-21" d="M199.27,82.34c.64,1.68,1.28,3.36,1.92,5.03l-.18,.14c-.65-.68-1.3-1.36-1.95-2.04,0,0,.02,.03,.02,.03-.03-.98-.06-1.97-.08-2.95l.27-.22Z"/><path class="cls-21" d="M198.15,79.44c.37,.97,.74,1.94,1.12,2.9,0,0-.27,.21-.27,.21-.32-1-.65-2-.97-2.99l.12-.12Z"/><path class="cls-21" d="M193.08,73.41c.01-.23,0-.46-.02-.69,.71,.59,1.41,1.17,2.12,1.75,0,0-.12,.1-.12,.1-.66-.39-1.32-.77-1.98-1.16Z"/><path class="cls-17" d="M202.4,122.96c.1,.01,.26-.02,.3,.04,.07,.1,.06,.25,.09,.38-.18-.02-.35-.03-.53-.05,.05-.12,.09-.24,.14-.37Z"/><path class="cls-21" d="M196.21,76.42c.33,.66,.66,1.32,1,1.99l-.17,.16c-.32-.02-.65-.04-.97-.06,0,0,.03,.04,.03,.04-.02-.66-.03-1.32-.05-1.97l.17-.16Z"/><path class="cls-21" d="M195.18,74.48c.34,.65,.69,1.3,1.03,1.94,0,0-.16,.15-.16,.15-.32-.01-.65-.03-.97-.05,0,0,.03,.03,.03,.03-.02-.66-.03-1.32-.05-1.98,0,0,.12-.1,.12-.1Z"/><path class="cls-21" d="M201.19,87.37c.29,.69,.58,1.38,.88,2.08,0,0-.01,.02-.01,.02-.35-.65-.7-1.3-1.04-1.95l.18-.14Z"/><path class="cls-21" d="M197.21,78.41c.31,.34,.62,.69,.94,1.03,0,0-.12,.12-.12,.12-.33-.33-.66-.66-.98-.99,0,0,.17-.16,.17-.16Z"/><path class="cls-9" d="M149.16,148.06c-4.28,.36-8.56,.72-12.84,1.08-.29-.03-.59-.06-.89-.08-1.41-4.63-2.82-9.27-4.22-13.91,2.35-5.63,4.7-11.25,7.05-16.88,4.35,2.98,8.63,6.44,14.05,2.02,1.97-.01,3.93-.02,5.9-.03-2.64,8.62-5.27,17.25-7.91,25.87-.38,.64-.76,1.29-1.13,1.93Z"/><path class="cls-8" d="M131.21,135.15c1.41,4.64,2.82,9.27,4.22,13.91-2.69-.3-5.38-.6-8.07-.89-.7-1.04-1.4-2.08-2.11-3.12,1.98-3.3,3.97-6.6,5.95-9.9Z"/><path class="cls-11" d="M125.41,160.06c-2.98-2.65-5.96-5.3-8.93-7.96,1.65-1.38,3.29-2.76,4.94-4.13,.69,1.95,1.42,3.89,2.07,5.85,.68,2.07,1.29,4.16,1.93,6.24Z"/><path class="cls-19" d="M125.41,160.06c-.64-2.08-1.25-4.17-1.93-6.24-.65-1.96-1.37-3.9-2.07-5.85,1-.94,2-1.88,2.99-2.82,1.2,3.7,2.32,7.43,3.62,11.1,1.02,2.89,.78,3.36-2.61,3.81Z"/><path class="cls-18" d="M139.72,101.69c-.04,.73-.09,1.46-.13,2.19,.04-.73,.09-1.46,.13-2.19Z"/><path class="cls-9" d="M138.39,8.53c.99,4.54,2.17,9.04,2.82,13.63,.15,1.04-1.56,2.34-2.42,3.52-.8-1.06-2.23-2.09-2.29-3.2-.26-4.52-.11-9.07-.11-13.61,.67-.11,1.33-.23,2-.34Z"/><path class="cls-9" d="M126.43,43.79c2.31-1.65,4.61-3.3,6.92-4.95-1.31,2.96-2.62,5.91-3.94,8.87-1.27,1.97-2.54,3.94-3.81,5.91-.61-2.84-1.21-5.67-1.81-8.5,.89-.44,1.77-.88,2.65-1.33Z"/><path class="cls-16" d="M151.29,45.72c.67,.32,1.34,.64,2.01,.96,1.64,2.68,3.28,5.36,4.91,8.04,.37,1.92,.65,3.87,1.13,5.77,2.99,11.9,6.02,23.79,8.68,34.27,1.12,1.96,2.05,2.85,2.08,3.78,.17,4.95,.12,9.9,.14,14.85-.99,5.29-1.99,10.58-2.98,15.88,.31-4.35,.63-8.7,.97-13.39-1.96,.55-3.5,.98-5.03,1.41,1.94-13.84,1.02-27.61-2.09-41.12-1.99-8.62-5.24-16.95-7.92-25.41-.63-1.68-1.26-3.35-1.9-5.03Z"/><path class="cls-8" d="M163.2,117.28c1.54-.43,3.07-.86,5.03-1.41-.34,4.69-.65,9.04-.97,13.39,0,0-.02,0-.02,0-.34,1.33-.67,2.65-1.01,3.98h0c-.37,1.95-.74,3.91-1.11,5.87,.02,.36,.04,.71,.06,1.07l.02-.03c-1.33,2.01-2.66,4.01-3.99,6.02-1.14-.26-2.28-.78-3.41-.74-2.52,.09-5.03,.45-7.54,.7,2.64-8.62,5.27-17.25,7.91-25.87,.49-1.98,.98-3.96,1.76-7.09,.16,2.46,.24,3.78,.33,5.11-1.21,5.67-2.43,11.35-3.64,17.02,.46,.11,.92,.22,1.38,.33,1.4-5.78,2.8-11.56,4.2-17.34,.33-.33,.66-.67,.98-1.01Zm-7.2,20.92c-.07-.13-.13-.26-.2-.39-.09,.11-.24,.22-.25,.34-.01,.12,.12,.26,.18,.39,.09-.11,.18-.22,.27-.34Z"/><path class="cls-8" d="M141.32,38.76c.7,.36,1.4,.72,2.1,1.08-.7,2.63-1.39,5.25-2.09,7.88-2.11,6.17-4.17,12.35-6.37,18.49-.81,2.25-1.96,4.37-2.94,6.55-.53-.73-1.06-1.46-1.59-2.2,.02-.34,.05-.67,.07-1.01,.45-.17,1.21-.23,1.31-.52,2.15-5.98,4.32-11.96,6.19-18.03,.26-.83-1.02-2.14-1.59-3.23,0-.31-.02-.63-.02-.94,1.64-2.69,3.29-5.38,4.94-8.06Z"/><path class="cls-9" d="M141.33,47.72c.69-2.63,1.39-5.25,2.09-7.88,.91-.82,1.81-1.65,2.88-2.63,1.74,2.96,3.36,5.73,4.99,8.5,.63,1.68,1.26,3.35,1.9,5.03-3.95-1.01-7.9-2.02-11.86-3.03Z"/><path class="cls-9" d="M162.22,118.29c-1.4,5.78-2.8,11.56-4.2,17.34-.46-.11-.92-.22-1.38-.33,1.21-5.67,2.43-11.35,3.64-17.02,.64,0,1.29,0,1.93,.01Z"/><path class="cls-11" d="M116.43,92.46c.34-3.62,.69-7.24,1.03-10.86,.23-2.43,.13-5.1,3.75-4.99,.06,.65,.12,1.29,.18,1.94,.18,3.3-.02,6.68,.61,9.9,2.94,15.21,2.69,29.89-6.75,43.07-2.94,4.1-6.48,7.78-9.74,11.65-.66,0-1.33,0-1.99,0-.02-2.02-.04-4.05-.06-6.07,10.63-13.05,13.28-28.41,12.99-44.63Z"/><path class="cls-8" d="M105.5,143.17c3.26-3.87,6.8-7.55,9.74-11.65,9.44-13.18,9.69-27.86,6.75-43.07-.62-3.22-.43-6.6-.61-9.9,9.34,21.6,8.83,37.42-6.79,57.87-2.24,2.93-5.33,5.22-8.03,7.81-.36-.35-.71-.71-1.07-1.06Z"/><path class="cls-19" d="M105.5,143.17c.36,.35,.71,.71,1.07,1.06-7.07,6.61-15.07,11.23-24.99,11.78,1.64-1.35,3.12-3,4.95-4,5.59-3.08,11.31-5.92,16.98-8.85,.66,0,1.33,0,1.99,0Z"/><path class="cls-16" d="M125.59,53.62c1.27-1.97,2.54-3.94,3.81-5.91,1.32,.34,2.65,.67,3.97,1.01-2,4.31-3.99,8.62-5.99,12.94-.6-2.68-1.2-5.35-1.8-8.03Z"/><path class="cls-21" d="M127.39,61.65c2-4.31,3.99-8.62,5.99-12.94,.61-.66,1.23-1.33,1.84-1.99,.39,.03,.78,.07,1.17,.1,0,.31,.01,.63,.02,.94-2.31,5.94-4.61,11.88-6.92,17.82-.7-1.31-1.4-2.62-2.1-3.94Z"/><path class="cls-16" d="M129.49,65.58c2.31-5.94,4.61-11.88,6.92-17.82,.57,1.09,1.85,2.4,1.59,3.23-1.88,6.07-4.05,12.05-6.19,18.03-.11,.29-.86,.35-1.31,.52-.33-1.32-.67-2.65-1-3.97Z"/><path class="cls-1" d="M104.59,102.58c-2,4.9-4,9.81-5.99,14.71,.13-2.76,.25-5.51,.38-8.27l-1.26-.11c-1,7.92-10.96,9.34-12.13,17.14-.03,.2-.52,.37-.82,.49-6.34,2.54-12.68,5.06-19.02,7.59-.19-.43-.37-.85-.56-1.28-.18,.43-.35,.86-.53,1.29-1.85-.14-4.22-1.08-5.46-.28-3.84,2.48-6.92,.31-10.25-.78,.89-.4,1.77-.79,2.66-1.19-.49-.5-.97-.99-1.46-1.49-.42,.88-.83,1.77-1.25,2.65-6.39,.97-11.54-2.21-15.89-5.94-3.03-2.61-5.07-3.39-8.07-.8-.73-1.25-1.47-2.51-2.2-3.76,.46-1.63,.91-3.26,1.51-5.38,2.22,1.17,4.65,2.41,7.04,3.71,3.94,2.14,6.39,1.47,7.02-1.75-1.26,.26-2.59,.54-3.93,.82-.04-1.06-.05-2.12-.14-3.17-.04-.43-.17-.89-.39-1.25-1.18-1.95-2.41-3.88-3.92-6.31-.5,1.92-1.13,4.3-1.75,6.68-.3,.03-.6,.06-.9,.08-1.53-6.56-3.06-13.11-4.59-19.67,0,0,.1,.02,.1,.02,.41-.08,.82-.16,1.23-.24-.41-.22-.82-.43-1.23-.65,2.41-7.76,8.41-12.75,13.98-18.07,0,1.66,0,3.31,0,4.97,0,1.42-.01,2.85-.02,4.27,.05,.59,.09,1.18,.14,1.77-.02,.37-.04,.75-.06,1.12-.6,1.26-1.21,2.52-1.81,3.78-2.79-.79-5.85-2.2-7.35,1.74-.83,2.19-2.5,4.92,1.3,6.3,0,0-.08,.02-.08,.02,.56,.34,1.12,.67,1.67,1.01,3.85,1.29,1.58-2.04,2.33-3.09l-.03-.4c.67-.81,1.33-1.62,2-2.44l-.02,.02c.74-.35,1.49-.7,2.23-1.04,1.23,.33,2.46,.66,3.69,1,.67,0,1.34,.01,2.01,.02,.32,.25,.63,.51,.95,.76,.03-1.27,.05-2.53,.08-3.8,1.65-.98,3.31-1.96,4.96-2.94,5.28-.44,10.68,.98,15.85-1.62,2.06-1.04,4.7-.92,7.07-1.32,1.21,2.11,2.85,4.09,3.54,6.36,1.1,3.67,2.82,4.45,6.54,2.1-.77,2.33-1.93,3.77-2.79,5.39-.65,1.21-.89,2.63-1.32,3.96-1.04,.09-2.08,.18-3.07,.27,2.82,4.89,7.48,4.99,12.13,6.06,4.72,1.09,4.82-1.88,5.92-4.41,1.36-3.14,.11-5.03-3.05-5.89,.38-.91,.69-1.86,1.15-2.73,2.83-5.37,1.03-9.58-4.76-10.97-.15-.04-.41,.36-1.26,1.16,1.21,.63,2.38,1.24,3.78,1.97-2.59,.99-4.38,1.68-5.21,2-1.94-1.43-3.53-2.39-4.8-3.67-.39-.39,.07-1.64,.14-2.5,.65,.28,1.3,.56,1.95,.85,.57,.43,1.14,.87,2.03,1.54v-2.54c1.29-.34,2.57-.67,3.86-1.01l1.14-.86c.98-.35,1.97-.7,2.95-1.05,.67,.35,1.34,.7,2.01,1.04,.33,.74,.67,1.48,1,2.22,1.72,3.55,3.44,7.1,5.06,10.47,1.73-2.51,3.01-4.22,4.08-6.04,.27-.46-.14-1.31-.23-1.98,1.83-2.01,3.65-4.02,6.06-6.67v2.92c-.12,1.04-.24,2.08-.36,3.12-.19,.68-.39,1.37-.58,2.06-.08,.6-.16,1.21-.25,1.81-.83,.18-1.65,.37-2.88,.64,.92,1.07,1.51,1.74,2.09,2.42-.23,.68-.46,1.37-.7,2.05-4.55,.64-.04,3.55-1.26,5.02Zm-67.77,4.99c-1.33-.03-2.66-.06-3.99-.09,1.27,2.69,2.6,2.77,3.99,.09Zm38.92,10.69c1.35,.18,2.69,.36,4.04,.54,.02-.49,.03-.98,.05-1.46h-4.15c-1.54,.02-3.2-.29-4.58,.19-.7,.24-.9,1.91-1.27,2.79,2.39-.83,4.15-1.44,5.91-2.05Zm-12.13-18.94c-.31,3-.62,6-.93,9,.68,.96,1.37,1.91,2.16,3.02,2.73-4.26,2.63-4.65-1.07-5.96,1.77-.89,3.53-1.77,5.3-2.66-.83-1.15-2.16-1.07-3.33-1.46-.77-.25-1.32-1.18-1.97-1.8,.65-1.36,1.31-2.71,1.96-4.07-.46-.14-.93-.27-1.39-.41-.24,1.45-.48,2.89-.73,4.34Zm32.34,1.91c.53-.23,1.07-.45,1.6-.68-.43-.84-.86-1.67-1.29-2.51-.4,.21-1.16,.49-1.14,.61,.19,.88,.53,1.72,.83,2.58Zm-28.86,11.9c-.32,.37-.64,.74-.95,1.11,.91,.62,1.82,1.24,2.73,1.87l.71-1c-.83-.66-1.66-1.32-2.48-1.97Zm-4.35,18.87c-.06-.25-.13-.5-.19-.76-.96,.08-1.91,.16-2.87,.24,0,.17,.02,.34,.03,.51h3.03Zm9.14-17.19l.58-.44c-.36-.48-.73-.96-1.09-1.44-.19,.15-.39,.29-.58,.44,.37,.48,.73,.96,1.1,1.44Zm30.18-15.58c-.25-.26-.5-.53-.75-.79-.4,.45-.8,.91-1.2,1.36,.17,.17,.35,.34,.52,.51,.48-.36,.95-.72,1.43-1.08Zm-44.1,11.82c0-.13,0-.27,0-.4h-1.49c0,.13,0,.27,0,.4h1.49Zm-5.77,3.73c-.16-.27-.27-.62-.5-.77-.14-.09-.48,.14-.73,.23,.13,.27,.19,.68,.4,.78,.19,.09,.54-.14,.84-.24Z"/><path class="cls-3" d="M36.76,82.34c0-1.66,0-3.31,0-4.97,.75-.93,1.49-1.87,2.24-2.8,2.25-2.01,4.5-4.03,6.75-6.04,4.26-2.69,8.53-5.39,12.79-8.08,5.62-2.82,11.24-5.63,16.87-8.45,.71-.12,1.42-.23,2.12-.35,.97,.09,1.94,.17,2.91,.26,.04,.22,.09,.43,.15,.64-.66,.72-1.32,1.43-1.98,2.15l-.21,.17c-.25,.6-.5,1.19-.75,1.79-.95,1.29-1.91,2.57-2.82,3.8,1.11,1.71,2.1,3.22,2.98,4.57,2.57-1.32,5.24-2.69,8.28-4.25,.05-.34,.24-1.6,.25-1.66,2.44-.22,3.83-.34,5.23-.47,.25,.44,.49,.89,.74,1.33,.19-.19,.39-.39,.58-.58-.44-.25-.89-.49-1.33-.74,0-.99,0-1.97,0-2.96,.35-.04,.7-.07,1.05-.11,.85,.46,1.65,1.12,2.56,1.35,6.43,1.6,11.55,9.08,9.47,15.13-1.17,3.39-4.02,6.21-6.11,9.28-2.66,.72-5.33,1.45-7.99,2.17-.98,.35-1.97,.7-2.95,1.05-.38,.29-.76,.57-1.14,.86-1.29,.34-2.57,.67-3.86,1.01-.68,.33-1.35,.66-2.03,.99-.65-.28-1.3-.56-1.95-.85-2.34,.1-5.16-3.4-6.93,.93-2.37,.41-5.01,.29-7.07,1.32-5.17,2.6-10.57,1.17-15.85,1.62l-.02-.02c-1.97-1.3-3.94-2.6-6.06-3.99v3.24c-.56-.04-1.13-.08-1.69-.13-.73-.04-1.46-.08-2.19-.13l-1.91-1.03c-.05-.59-.09-1.18-.14-1.77,.38-.39,.75-.77,1.13-1.16,1.01-.06,2.03-.11,4.53-.25-2.4-.93-3.4-1.31-4.4-1.7-.41-.39-.82-.78-1.23-1.16Zm53.81-1.82c-.51,.39-1.02,.77-1.53,1.16,.11,.11,.21,.22,.32,.32,.41-.49,.81-.98,1.22-1.48,.11-.06,.24-.09,.33-.17,.05-.05,.05-.17,.07-.25l-.41,.42Zm-32.9-12.77c-2.22,1.2-4.38,2.37-6.55,3.54,.19,.4,.37,.79,.56,1.19,2.12-.53,4.24-1.06,6.31-1.57,2.92,6.16,4.4,9.85,11.1,4.47-8.06,3.45-7.64-4.77-11.42-7.63Zm25.8,5.8c5.15-1.11,9.93-2.14,14.71-3.17l-.49-1.81c-1.3,.46-2.57,1.13-3.91,1.34-2.66,.42-5.4,.4-8.04,.91-1.44,.28-3.77,1.15-3.9,2.02-.36,2.46,.36,4.91,4.21,4.56-.96-1.43-1.7-2.53-2.58-3.85Zm12.55,2.61c-.29,0-.59,0-.88,0v2.78c.29,0,.59,0,.88,0v-2.78Zm-46.09,5.9c-.27-.14-.51-.31-.77-.39-.12-.04-.29,.09-.44,.14,.11,.19,.23,.53,.34,.53,.29,0,.57-.17,.87-.28Z"/><path class="cls-12" d="M48.94,133.08c3.33,1.09,6.41,3.26,10.25,.79,1.24-.8,3.61,.14,5.46,.28,.36,0,.72,0,1.08-.01,6.34-2.53,12.68-5.05,19.02-7.59,.3-.12,.79-.29,.82-.49,1.18-7.81,11.13-9.23,12.13-17.14l1.26,.11c-.13,2.76-.25,5.51-.38,8.27-4.59,11.54-13.88,18.07-24.69,22.9-2.67,1.19-5.53,1.94-8.3,2.9-6.96-.69-13.91-1.38-20.87-2.06-7.78-3.31-14.48-8.09-19.79-14.71,3-2.59,5.03-1.81,8.07,.8,4.35,3.73,9.5,6.91,15.89,5.94l.04,.03Z"/><path class="cls-1" d="M98.52,81.34c2.09-3.08,4.94-5.89,6.11-9.28,2.08-6.04-3.03-13.52-9.47-15.13-.91-.23-1.71-.89-2.56-1.35,.26-1.12,.52-2.24,.78-3.35-1.28,.79-2.55,1.58-3.83,2.37-.99,0-1.97-.01-2.96-.02-.33-2.53-.66-5.07-.99-7.6,3.92-.56,8.04-2.13,11.71-1.4,3.64,.72,6.83,3.74,10.22,5.76-.12,3.59-.29,7.17-.35,10.76-.08,4.56,.05,9.13-.16,13.69-.1,2.22-.35,4.61-1.29,6.55-.48,.99-2.79,1.83-3.98,1.54-1.06-.26-4.42,.99-3.25-2.53Z"/><path class="cls-2" d="M22.68,96.3c1.53,6.56,3.06,13.11,4.59,19.67,.3-.03,.6-.06,.9-.08,.62-2.38,1.25-4.76,1.75-6.68,1.52,2.43,2.74,4.36,3.92,6.31,.22,.36,.35,.82,.39,1.25,.09,1.05,.1,2.11,.14,3.17,1.34-.28,2.67-.56,3.93-.82-.63,3.22-3.08,3.89-7.02,1.75-2.4-1.3-4.82-2.54-7.04-3.71-.59,2.12-1.05,3.75-1.51,5.38-1.62-2.72-4.19-5.29-4.62-8.19-.61-4.15,.35-8.53,.64-12.81,1.31-1.75,2.61-3.5,3.92-5.25Z"/><path class="cls-14" d="M98.52,81.34c-1.17,3.53,2.19,2.27,3.25,2.53,1.19,.29,3.5-.55,3.98-1.54,.94-1.95,1.2-4.33,1.29-6.55,.2-4.56,.08-9.12,.16-13.69,.06-3.59,.23-7.17,.35-10.76,.71,1.45,2.06,2.91,2.03,4.34-.19,9.93-.68,19.85-1.07,29.77,0-.62,0-1.24,0-2.92-2.41,2.65-4.23,4.66-6.06,6.67-2.31-1.56-4.62-3.13-6.93-4.69-.99,.01-1.99,.02-2.98,.03-.67-.35-1.34-.7-2.01-1.04,2.66-.72,5.33-1.45,7.99-2.17Z"/><path class="cls-2" d="M75.42,52c-5.62,2.82-11.24,5.63-16.87,8.45-2.08-.35-4.17-.7-6.25-1.04,6.5-5.72,14.35-8.18,22.73-9.33,.04,0,.25,1.25,.39,1.92Z"/><path class="cls-2" d="M45.76,68.52c-2.25,2.01-4.5,4.03-6.75,6.04-1.34,.4-2.75,.65-4,1.24-1.54,.73-2.95,1.73-4.41,2.62,5.47-5.6,10.92-11.22,16.46-16.75,.41-.41,1.46-.19,2.22-.27-1.17,2.37-2.34,4.74-3.52,7.12Z"/><path class="cls-12" d="M30.6,78.43c1.46-.89,2.87-1.89,4.41-2.62,1.25-.59,2.66-.84,4-1.24-.75,.93-1.49,1.87-2.24,2.8-5.58,5.31-11.58,10.3-13.98,18.06-.07,.29-.07,.59,0,.88,0,0-.1-.02-.1-.02-1.31,1.75-2.61,3.5-3.92,5.25-.25-.54-.87-1.28-.7-1.58,4.13-7.21,8.34-14.37,12.54-21.54Z"/><path class="cls-2" d="M44.74,141.02c6.96,.69,13.91,1.38,20.87,2.06-.54,.68-1.01,1.88-1.63,1.97-6.87,.96-13.54,.71-19.24-4.03Z"/><path class="cls-12" d="M45.76,68.52c1.17-2.37,2.35-4.75,3.52-7.12,1-.66,2-1.33,3.02-2,2.09,.35,4.17,.7,6.25,1.04-4.26,2.69-8.53,5.38-12.79,8.08Z"/><path class="cls-2" d="M85.62,46.99c.33,2.53,.66,5.07,.99,7.6-1.94,0-3.87,.02-5.81,.02-.06-.69-.13-1.38-.19-2.07-.06-.21-.11-.43-.15-.64,.38-.44,.76-.89,1.14-1.33,0,0-.1,.06-.1,.06,.47-.08,.94-.15,1.42-.23l-1.13-.6c1.28-.94,2.56-1.88,3.84-2.82Z"/><path class="cls-2" d="M106.55,95.5c-.59-.68-1.17-1.35-2.09-2.42,1.23-.27,2.05-.46,2.88-.64-.26,1.02-.52,2.04-.78,3.06Z"/><path class="cls-2" d="M104.59,102.58c1.22-1.47-3.29-4.38,1.26-5.02-.42,1.67-.84,3.35-1.26,5.02Z"/><path class="cls-12" d="M81.59,50.57c-.38,.44-.76,.88-1.14,1.33-.97-.08-1.94-.17-2.91-.26,1.35-.36,2.7-.71,4.05-1.07Z"/><path class="cls-2" d="M107.58,90.63c.19-.69,.39-1.37,.58-2.06-.19,.69-.39,1.37-.58,2.06Z"/><path class="cls-12" d="M81.78,49.8l1.13,.6c-.47,.08-.94,.15-1.42,.23,.07-.29,.17-.56,.29-.83Z"/><path class="cls-9" d="M194.07,115.31c-1.05,1.12-2.25,2.14-3.11,3.39-1.29,1.88-2.37,3.91-3.47,5.91-2.13,3.89-4.94,6.66-10.01,5.82,1.47,5.88-2.21,6.98-6.27,7.74,1.99-9.61,3.98-19.22,5.97-28.83,.32-.99,.65-1.97,.97-2.96,6.79-5.55,5.54-12.77,3.04-19.99-.02-1.29-.04-2.59-.06-3.88v.02c-.29-2.08-.23-4.31-.97-6.22-2.18-5.62-4.68-11.11-7.05-16.65,1.04-.01,2.07-.02,3.11-.03,11.55,13.14,19.18,28.06,20.77,45.72-.96,1.23-2.43,2.34-2.77,3.73-.48,1.97-.13,4.15-.13,6.24h0Z"/><path class="cls-8" d="M158.22,49.7c2.68,.98,5.36,1.97,8.04,2.95,2.29,.78,4.85,1.4,2.52,4.7-.05,.06,.92,.84,1.42,1.29,0,.99,.01,1.98,.02,2.98-3-1.98-5.99-3.97-8.99-5.95-.64-.33-1.28-.66-1.91-.98-.36-1.66-.73-3.33-1.09-4.99Z"/><path class="cls-11" d="M170.19,58.64c-.49-.44-1.46-1.22-1.42-1.29,2.33-3.3-.23-3.92-2.52-4.7-.95-2.02-1.9-4.05-2.95-6.29,4.08,1.14,10.17,7.52,12.91,13.25-1.04,.01-2.07,.02-3.11,.03-.97-.34-1.94-.67-2.91-1.01Z"/><path class="cls-8" d="M135.22,46.72c-.61,.66-1.23,1.33-1.84,1.99-1.32-.34-2.65-.67-3.97-1.01,1.31-2.96,2.63-5.91,3.94-8.87,1.67-.02,3.34-.05,5.01-.07-1.04,2.65-2.09,5.3-3.13,7.95Z"/><path class="cls-17" d="M158.22,49.7c.36,1.66,.73,3.33,1.09,4.99-.36,.01-.73,.02-1.09,.04-1.64-2.68-3.28-5.36-4.91-8.04-.93-3.34-1.86-6.67-2.79-10.01,.32-.15,.65-.31,.97-.46,2.25,4.5,4.49,8.99,6.74,13.49Z"/><path class="cls-11" d="M194.08,115.3c0-2.09-.35-4.26,.13-6.24,.34-1.38,1.8-2.5,2.77-3.73,0,5.32,0,10.64,0,15.96-.46,0-.93-.02-1.39-.02-.5-1.99-1.01-3.98-1.51-5.97Z"/><path class="cls-18" d="M201.01,87.51c.35,.65,.7,1.3,1.04,1.95,.65,2.99,1.31,5.98,1.96,8.96,0,1.97,0,3.94-.01,5.9-.54-.3-1.48-.52-1.55-.91-1.2-5.97-2.28-11.96-3.39-17.95,.65,.68,1.3,1.36,1.95,2.04Z"/><path class="cls-17" d="M135.22,46.72c1.04-2.65,2.09-5.3,3.13-7.95,.58-.86,1.17-1.72,2.15-3.19,.36,1.4,.58,2.29,.81,3.18-1.65,2.69-3.29,5.37-4.94,8.06-.39-.03-.78-.07-1.17-.1Z"/><path class="cls-18" d="M197.04,78.57c.33,.33,.66,.66,.98,.99,.32,1,.65,2,.97,2.99,.03,.98,.06,1.97,.08,2.95-1-2.33-2.01-4.66-3.01-6.99,.32,.02,.65,.04,.97,.06Z"/><path class="cls-18" d="M195.05,74.58c.02,.66,.03,1.32,.05,1.98-.67-1.05-1.35-2.09-2.03-3.14,.66,.39,1.32,.77,1.98,1.16Z"/><path class="cls-18" d="M195.07,76.52c.32,.02,.65,.04,.97,.05,.02,.66,.03,1.32,.05,1.97-.34-.67-.68-1.35-1.02-2.03Z"/><path class="cls-8" d="M177.18,109.33c-1.99,9.61-3.98,19.22-5.97,28.83,0,1-.01,2-.02,3h0c-.65,.34-1.31,.67-1.96,1.01-1.33-.01-2.66-.02-3.99-.03,0-.66-.01-1.32-.02-1.99,0,0-.02,.03-.02,.03,1.18-2.06,2.97-4,3.43-6.21,1.44-6.81,2.38-13.73,3.52-20.61,.01-.68,.03-1.36,.04-2.04l4.98-1.99Z"/><path class="cls-8" d="M171.19,141.16c.43,.12,.86,.24,1.29,.36-.43-.12-.86-.24-1.29-.36h0Z"/><path class="cls-17" d="M165.23,140.15c0,.66,.01,1.33,.02,1.99-.87,1.68-1.74,3.36-2.61,5.03-.46-.33-.93-.67-1.39-1,1.33-2.01,2.66-4.01,3.99-6.02Z"/><path class="cls-21" d="M172.2,111.32c-.01,.68-.03,1.36-.04,2.04-.64,0-1.27,.02-1.91,.02-.02-4.95,.03-9.9-.14-14.85-.03-.92-.96-1.81-2.08-3.78-2.66-10.48-5.69-22.37-8.68-34.27-.48-1.9-.76-3.85-1.13-5.77,.36-.01,.73-.02,1.09-.04,.64,.33,1.28,.66,1.92,.98,2.32,7.71,5.32,15.28,6.79,23.15,2.01,10.72,2.85,21.66,4.19,32.51Z"/><path class="cls-17" d="M170.26,113.38c.64,0,1.27-.02,1.91-.02-1.14,6.88-2.08,13.8-3.52,20.61-.47,2.21-2.25,4.15-3.43,6.21-.02-.36-.04-.71-.06-1.07,.37-1.96,.74-3.92,1.11-5.89,0,0,0,.01,0,.01,.33-1.33,.67-2.65,1.01-3.98,0,0,.02,0,.02,0,1-5.29,1.99-10.58,2.98-15.88Z"/><path class="cls-16" d="M166.26,133.22c-.37,1.96-.74,3.92-1.11,5.89,.37-1.96,.74-3.92,1.11-5.89Z"/><path class="cls-16" d="M167.25,129.25c-.34,1.33-.67,2.65-1.01,3.98,.34-1.33,.67-2.65,1.01-3.98Z"/><path class="cls-9" d="M156.01,138.21c-.09,.11-.18,.22-.27,.34-.07-.13-.19-.26-.18-.39,.01-.12,.16-.23,.25-.34,.07,.13,.13,.26,.2,.39Z"/><path class="cls-2" d="M71.67,87.5c1.77-4.32,4.59-.83,6.93-.93-.07,.86-.54,2.11-.14,2.5,1.28,1.28,2.87,2.24,4.8,3.67,.83-.32,2.61-1,5.21-2-1.4-.73-2.57-1.34-3.78-1.97,.85-.8,1.11-1.2,1.26-1.16,5.79,1.39,7.59,5.6,4.76,10.97-.46,.87-.77,1.82-1.15,2.73-.7-.24-1.4-.48-2.1-.72,.04,.97,.65,1.25,.84,1.71,.74,1.73,1.34,3.52,2,5.29-1.67,.26-3.46,1.03-4.98,.67-2.65-.62-5.14-1.94-7.69-2.96,.43-1.33,.67-2.75,1.32-3.96,.86-1.61,2.03-3.06,2.79-5.39-3.72,2.35-5.44,1.58-6.54-2.1-.68-2.27-2.32-4.25-3.54-6.36Zm17.39,7.66c-.25-.54-.5-1.08-.75-1.62-1.51,.86-3.01,1.73-4.52,2.59l.92,1.64c1.45-.87,2.89-1.74,4.34-2.61Z"/><path class="cls-14" d="M77.64,105.3c2.55,1.03,5.04,2.34,7.69,2.96,1.52,.36,3.31-.41,4.98-.67-.66-1.77-1.26-3.56-2-5.29-.2-.46-.8-.74-.84-1.71,.7,.24,1.4,.48,2.1,.72,3.16,.86,4.41,2.76,3.05,5.89-1.1,2.53-1.19,5.5-5.92,4.41-4.65-1.07-9.31-1.16-12.13-6.06,.98-.09,2.03-.18,3.07-.27Z"/><path class="cls-2" d="M95.52,84.52c2.31,1.56,4.62,3.13,6.93,4.69,.1,.67,.5,1.52,.23,1.98-1.07,1.83-2.35,3.53-4.08,6.04-1.63-3.37-3.35-6.92-5.06-10.47,.66-.75,1.32-1.5,1.98-2.25Z"/><path class="cls-14" d="M28.96,101.33c-3.81-1.39-2.14-4.11-1.31-6.3,1.5-3.95,4.56-2.53,7.35-1.74,.62-.93,1.25-1.85,1.87-2.78,.56,0,1.13,.02,1.69,.03,.75,1.35,1.49,2.69,2.24,4.04-.02,.61-.03,1.22-.05,1.83-1.23-.33-2.46-.66-3.7-1-.71-.28-1.42-.55-2.12-.83-1.5-.24-3.01-.48-4.72-.75-.46,1.7-.87,3.19-1.28,4.68,0,.94,.02,1.88,.02,2.82Z"/><path class="cls-14" d="M62.68,108.32c.31-3,.62-6,.93-9l.17,.14c.65,.62,1.2,1.55,1.97,1.8,1.18,.38,2.5,.3,3.33,1.46-1.77,.89-3.53,1.77-5.3,2.66-.36,.98-.73,1.96-1.09,2.94Z"/><path class="cls-2" d="M62.68,108.32c.36-.98,.73-1.96,1.09-2.94,3.7,1.31,3.8,1.71,1.07,5.96-.79-1.11-1.48-2.06-2.16-3.02Z"/><path class="cls-2" d="M28.94,98.51c.41-1.49,.81-2.98,1.28-4.68,1.71,.27,3.22,.51,4.72,.75-.04,.62-.07,1.25-.11,1.87,0,0,.02-.02,.02-.02-.88-.17-1.75-.34-2.63-.51,.21,.98,.42,1.96,.63,2.94,0,0,.03,.4,.03,.4-1.32-.25-2.63-.5-3.95-.76Z"/><path class="cls-2" d="M75.74,118.26c-1.76,.61-3.53,1.22-5.91,2.05,.37-.88,.57-2.55,1.27-2.79,1.38-.48,3.04-.17,4.58-.19,0,.31,.02,.62,.06,.92Z"/><path class="cls-4" d="M28.94,98.51c1.32,.25,2.63,.51,3.95,.76-.75,1.05,1.52,4.37-2.33,3.09-.56-.34-1.12-.67-1.68-1.01,0,0,.08-.02,.08-.02,0-.94-.02-1.88-.02-2.82Z"/><path class="cls-6" d="M36.76,82.34c.41,.39,.82,.78,1.23,1.16-.04,.65-.08,1.3-.12,1.95-.38,.39-.75,.77-1.13,1.16,0-1.42,.01-2.85,.02-4.27Z"/><path class="cls-2" d="M40.75,96.4c.02-.61,.03-1.22,.05-1.83,.06-1.68,.12-3.35,.18-5.02,.56,.04,1.13,.08,1.69,.13,.08,.25,.13,.51,.15,.77-.33,.67-.67,1.34-1,2.01,.31,1.32,.63,2.65,.94,3.97-.67,0-1.34-.01-2.01-.02Z"/><path class="cls-2" d="M95.94,101.23c-.3-.85-.64-1.7-.83-2.58-.03-.12,.74-.4,1.14-.61,.43,.84,.86,1.67,1.29,2.51-.53,.23-1.07,.45-1.6,.68Z"/><path class="cls-4" d="M48.76,90.44c-1.65,.98-3.31,1.96-4.96,2.94-.06-.28-.11-.56-.14-.84,.38-.37,.76-.74,1.14-1.12,1.05-.32,2.1-.63,3.14-.95,.27,0,.54-.02,.81-.06l.02,.02Z"/><path class="cls-4" d="M48.9,133.05c.42-.88,.83-1.77,1.25-2.65,.49,.5,.97,.99,1.46,1.49-.89,.4-1.78,.8-2.66,1.19,0,0-.04-.03-.04-.03Z"/><path class="cls-4" d="M36.82,107.57c-1.39,2.68-2.72,2.6-3.99-.09,1.33,.03,2.66,.06,3.99,.09Z"/><path class="cls-14" d="M43.65,92.55c.03,.28,.08,.56,.15,.84-.03,1.27-.06,2.53-.08,3.8-.32-.25-.63-.51-.95-.76-.31-1.32-.63-2.65-.94-3.97,.61,.03,1.22,.07,1.83,.1Z"/><path class="cls-4" d="M32.86,98.86c-.21-.98-.42-1.96-.63-2.94,.88,.17,1.75,.34,2.63,.51-.67,.81-1.33,1.62-2,2.44Z"/><path class="cls-14" d="M75.74,118.26c-.04-.31-.06-.62-.06-.92,1.38,0,2.76,0,4.15,0-.02,.49-.03,.98-.05,1.46-1.35-.18-2.69-.36-4.04-.54Z"/><path class="cls-2" d="M67.09,113.13c.83,.66,1.66,1.32,2.48,1.97l-.71,1c-.91-.62-1.82-1.24-2.73-1.87,.32-.37,.64-.74,.95-1.11Z"/><path class="cls-14" d="M63.61,99.32c.24-1.45,.48-2.89,.73-4.34,.46,.14,.93,.27,1.39,.41-.65,1.36-1.31,2.71-1.96,4.07,0,0-.16-.14-.16-.14Z"/><path class="cls-4" d="M36.87,90.5c-.62,.93-1.25,1.85-1.87,2.78,.61-1.26,1.21-2.52,1.82-3.78,.02,.33,.04,.67,.05,1Z"/><path class="cls-2" d="M62.74,132h-3.03c0-.17-.02-.34-.03-.51,.96-.08,1.91-.16,2.87-.24,.06,.25,.13,.5,.19,.76Z"/><path class="cls-4" d="M95.52,84.52c-.66,.75-1.32,1.5-1.98,2.25-.33-.74-.67-1.48-1-2.21,.99,0,1.99-.02,2.98-.03Z"/><path class="cls-14" d="M36.82,107.57c-1.33-.03-2.66-.06-3.99-.09,1.33,.03,2.66,.06,3.99,.09Z"/><path class="cls-2" d="M71.88,114.81c-.37-.48-.73-.96-1.1-1.44,.19-.15,.39-.29,.58-.44,.36,.48,.73,.96,1.09,1.44l-.58,.44Z"/><path class="cls-2" d="M102.06,99.23c-.48,.36-.95,.72-1.43,1.08-.17-.17-.35-.34-.52-.51,.4-.45,.8-.91,1.2-1.36,.25,.26,.5,.53,.75,.79Z"/><path class="cls-2" d="M36.87,90.5c-.02-.33-.04-.67-.05-1,.02-.37,.04-.75,.06-1.12,.64,.34,1.28,.69,1.91,1.03-.08,.37-.15,.74-.23,1.12-.56,0-1.13-.02-1.69-.03Z"/><path class="cls-2" d="M80.55,87.42c.68-.33,1.35-.66,2.03-.99,0,.74,0,1.47,0,2.54-.89-.68-1.46-1.11-2.03-1.54Z"/><path class="cls-4" d="M34.83,96.44c.04-.62,.07-1.25,.11-1.87,.71,.28,1.41,.55,2.12,.83-.74,.35-1.49,.7-2.23,1.04Z"/><path class="cls-14" d="M57.96,111.05h-1.49c0-.13,0-.27,0-.4h1.49c0,.13,0,.27,0,.4Z"/><path class="cls-4" d="M52.18,114.78c-.3,.1-.65,.33-.84,.24-.21-.1-.27-.51-.4-.78,.25-.09,.59-.31,.73-.23,.23,.15,.34,.5,.5,.77Z"/><path class="cls-14" d="M65.74,134.13c-.36,0-.72,0-1.08,.01,.17-.43,.35-.86,.52-1.29,.19,.43,.37,.85,.56,1.28Z"/><path class="cls-2" d="M22.79,96.32c-.07-.29-.06-.59,0-.88,.41,.22,.82,.43,1.23,.65-.41,.08-.82,.16-1.23,.24Z"/><path class="cls-14" d="M28.88,101.34c.56,.34,1.12,.67,1.68,1.01-.56-.34-1.12-.67-1.68-1.01Z"/><path class="cls-2" d="M86.44,85.42c.38-.29,.76-.57,1.14-.86-.38,.29-.76,.57-1.14,.86Z"/><path class="cls-13" d="M80.79,54.61c1.94,0,3.87-.01,5.81-.02,.99,0,1.97,.01,2.96,.02,.67,.36,1.33,.73,2,1.09,0,.99,0,1.97,0,2.96h0c-1.39,.12-2.79,.24-5.23,.46,0,.06-.2,1.32-.25,1.66-3.03,1.56-5.7,2.93-8.28,4.25-.88-1.36-1.87-2.86-2.98-4.57,.91-1.23,1.87-2.52,2.82-3.8,.25-.6,.5-1.19,.75-1.79,0,0,.21-.17,.21-.17,.72-.03,1.45-.05,2.17-.08Z"/><path class="cls-13" d="M57.67,67.75c3.78,2.85,3.36,11.08,11.42,7.63-6.7,5.38-8.18,1.69-11.1-4.47-2.06,.51-4.19,1.04-6.31,1.57-.19-.4-.37-.79-.56-1.19,2.17-1.17,4.33-2.34,6.55-3.54Z"/><path class="cls-13" d="M83.47,73.55c.88,1.32,1.62,2.42,2.58,3.85-3.84,.35-4.57-2.09-4.21-4.56,.13-.87,2.46-1.73,3.9-2.02,2.64-.52,5.38-.5,8.04-.91,1.34-.21,2.61-.88,3.91-1.34l.49,1.81c-4.78,1.03-9.56,2.06-14.71,3.17Z"/><path class="cls-2" d="M91.56,55.7c-.67-.36-1.33-.73-2-1.09,1.28-.79,2.55-1.58,3.83-2.37-.26,1.12-.52,2.24-.78,3.35-.35,.04-.7,.07-1.05,.11Z"/><path class="cls-13" d="M48.74,90.43c-.27,.04-.54,.06-.81,.06-1.05,0-2.09,0-3.14,0-.66-.02-1.31-.03-1.97-.05-.02-.26-.07-.52-.15-.77,0-.94,0-1.89,0-3.23,2.12,1.4,4.09,2.7,6.06,3.99Z"/><path class="cls-4" d="M38.56,90.53c.08-.37,.15-.74,.23-1.12,.73,.04,1.46,.08,2.19,.13-.06,1.67-.12,3.35-.18,5.02-.75-1.34-1.49-2.69-2.24-4.03Z"/><path class="cls-6" d="M96.02,76.16v2.78c-.29,0-.59,0-.88,0v-2.78c.29,0,.59,0,.88,0Z"/><path class="cls-13" d="M37.87,85.45c.04-.65,.08-1.3,.12-1.95,1,.39,2.01,.77,4.4,1.7-2.5,.14-3.51,.19-4.53,.25Z"/><path class="cls-4" d="M80.79,54.61c-.72,.03-1.45,.05-2.17,.08,.66-.71,1.32-1.43,1.98-2.15,.06,.69,.13,1.38,.19,2.07Z"/><path class="cls-6" d="M90.58,80.52c-.41,.49-.81,.98-1.22,1.48-.11-.11-.21-.22-.32-.32,.51-.39,1.02-.77,1.53-1.16h0Z"/><path class="cls-6" d="M78.41,54.86c-.25,.6-.5,1.19-.75,1.79,.25-.6,.5-1.19,.75-1.79Z"/><path class="cls-6" d="M49.94,82.06c-.3,.11-.58,.27-.87,.28-.11,0-.23-.34-.34-.53,.15-.05,.32-.17,.44-.14,.26,.08,.5,.25,.77,.39Z"/><path class="cls-13" d="M91.56,58.66c.44,.25,.89,.49,1.33,.74-.19,.19-.39,.39-.58,.58-.25-.44-.49-.89-.74-1.33,0,0,0,0,0,0Z"/><path class="cls-6" d="M90.57,80.52l.41-.42c-.02,.09-.01,.2-.07,.25-.09,.08-.22,.12-.33,.17,0,0,0,0,0,0Z"/><path class="cls-16" d="M172.2,111.32c-1.34-10.85-2.18-21.79-4.19-32.51-1.47-7.86-4.47-15.44-6.79-23.15,3,1.98,5.99,3.97,8.99,5.95,.67,.99,1.34,1.98,2.01,2.96-.24,.4-.79,.93-.68,1.18,5.7,12.97,6.35,26.76,6.62,40.61-.32,.99-.65,1.97-.97,2.96-1.66,.66-3.32,1.33-4.98,1.99Z"/><path class="cls-10" d="M178.15,106.37c-.27-13.85-.91-27.64-6.62-40.61-.11-.25,.44-.78,.68-1.18,1.3,1.79,2.93,3.44,3.84,5.42,1.89,4.08,3.41,8.34,5.08,12.53,0,0-.01-.02-.01-.02,.02,1.29,.04,2.59,.06,3.88,2.51,7.22,3.75,14.43-3.04,19.99Z"/><path class="cls-21" d="M181.14,82.53c-1.67-4.19-3.19-8.44-5.08-12.53-.92-1.97-2.54-3.62-3.84-5.42-.67-.99-1.34-1.98-2.01-2.96,0-.99-.01-1.98-.02-2.98,.97,.34,1.94,.67,2.91,1.01,2.37,5.54,4.87,11.04,7.05,16.65,.74,1.91,.68,4.14,.99,6.22Z"/><path class="cls-21" d="M181.19,86.39c-.02-1.29-.04-2.59-.06-3.88,.02,1.29,.04,2.59,.06,3.88Z"/><path class="cls-1" d="M89.06,95.16c-1.45,.87-2.89,1.74-4.34,2.61l-.92-1.64c1.51-.86,3.01-1.73,4.52-2.59,.25,.54,.5,1.08,.75,1.62Z"/><path class="cls-1" d="M42.82,90.43c.66,.02,1.31,.03,1.97,.05,0,.32,0,.63,0,.95-.38,.37-.76,.74-1.14,1.12-.61-.03-1.22-.07-1.83-.1,.33-.67,.67-1.34,1-2.01Z"/><path class="cls-2" d="M44.78,91.43c0-.32,0-.63,0-.95,1.05,0,2.09,0,3.14,0-1.05,.32-2.09,.63-3.14,.95Z"/></svg>