<?xml version="1.0" encoding="UTF-8"?>
<svg width="98px" height="96px" viewBox="0 0 98 96" version="1.1" xmlns="http://www.w3.org/2000/svg" xmlns:xlink="http://www.w3.org/1999/xlink">
    <title>Fill 51 Copy</title>
    <g id="Page-1" stroke="none" stroke-width="1" fill="none" fill-rule="evenodd">
        <g id="Artboard-Copy-12" transform="translate(-189.000000, -498.000000)" fill="#FFFFFE">
            <g id="Group-33-Copy-4" transform="translate(130.000000, 439.000000)">
                <path d="M107.995488,59 C80.9408822,59 59,81.0340184 59,108.216257 C59,129.960235 73.0386752,148.405001 92.5099297,154.912786 C94.9615089,155.365974 95.8549065,153.846283 95.8549065,152.5411 C95.8549065,151.371874 95.8127935,148.278108 95.7887289,144.172222 C82.1591516,147.145137 79.2834341,137.573799 79.2834341,137.573799 C77.0544523,131.887796 73.8418306,130.374147 73.8418306,130.374147 C69.3928911,127.322678 74.1787348,127.383103 74.1787348,127.383103 C79.0969336,127.730548 81.6838761,132.455792 81.6838761,132.455792 C86.0546057,139.975697 93.1536573,137.803415 95.9451487,136.543551 C96.3903435,133.36519 97.6567421,131.195928 99.0554959,129.966277 C88.175297,128.724541 76.7355965,124.500825 76.7355965,105.642147 C76.7355965,100.270354 78.6457227,95.8744268 81.7801344,92.4362377 C81.2747782,91.1914803 79.5932656,86.1852595 82.2614261,79.411604 C82.2614261,79.411604 86.3734614,78.088294 95.7345836,84.4571012 C99.64207,83.3634066 103.835323,82.8195806 108.001504,82.7984318 C112.164677,82.8195806 116.354922,83.3634066 120.268424,84.4571012 C129.62353,78.088294 133.72955,79.411604 133.72955,79.411604 C136.403726,86.1852595 134.722214,91.1914803 134.219866,92.4362377 C137.360293,95.8744268 139.255379,100.270354 139.255379,105.642147 C139.255379,124.549165 127.79763,128.709435 116.884343,129.927001 C118.641057,131.446692 120.208263,134.449821 120.208263,139.039108 C120.208263,145.619403 120.148102,150.92775 120.148102,152.5411 C120.148102,153.858368 121.032475,155.390144 123.517143,154.909765 C142.973357,148.386874 157,129.954192 157,108.216257 C157,81.0340184 135.059118,59 107.995488,59" id="Fill-51-Copy"></path>
            </g>
        </g>
    </g>
</svg>