<?xml version="1.0" encoding="UTF-8"?>
<svg width="150px" height="160px" viewBox="0 0 150 160" version="1.1" xmlns="http://www.w3.org/2000/svg" xmlns:xlink="http://www.w3.org/1999/xlink">
    <title>leadership-design-logo</title>
    <g id="leadership-design-logo" stroke="none" stroke-width="1" fill="none" fill-rule="evenodd">
        <path d="M74.8371328,23.9680376 L96.4587544,42.2636898 C96.866745,36.5480611 97.2014101,31.8721504 97.586839,26.4385429 L119.810106,26.4385429 L119.810106,62.4846063 C130.353937,71.8909518 140.386369,80.8441833 150.418801,89.7992949 L148.850764,92.946651 L132.305523,94.6293772 L132.305523,159.917274 L17.8688602,159.917274 L17.8688602,94.7478261 C11.3410106,93.9544066 5.99012926,93.3076381 0.639247944,92.6589894 C0.426165296,91.4657266 0.213082648,90.2749706 -1.1937118e-12,89.0867215 L74.8371328,23.9680376 Z M61.0237368,138.882256 L58.639718,138.882256 L58.639718,145.797415 L61.0237368,145.797415 L61.0237368,145.297297 L59.2488837,145.297297 L59.2488837,139.382374 L61.0237368,139.382374 L61.0237368,138.882256 Z M91.0552291,138.882256 L88.6712103,138.882256 L88.6712103,139.382374 L90.453584,139.382374 L90.453584,145.297297 L88.6712103,145.297297 L88.6712103,145.797415 L91.0552291,145.797415 L91.0552291,138.882256 Z M82.7525264,140.683431 C82.2894572,140.66604 81.8392883,140.838059 81.5058169,141.159823 C81.1723454,141.481588 80.984356,141.925324 80.9851911,142.388719 C80.9851911,143.383314 81.7485311,144.084606 82.7675676,144.094007 C83.2217174,144.096976 83.6641577,143.960299 84.0359781,143.704909 L84.1908343,143.588249 L84.1908343,142.112338 L82.6867215,142.112338 L82.6867215,142.777908 L83.33349,142.777908 L83.33349,143.176498 C83.1757087,143.272118 82.9932791,143.319196 82.8089307,143.311868 C82.5674931,143.31896 82.3340478,143.224982 82.1648657,143.052588 C82.0238806,142.908926 81.9381811,142.721668 81.9202618,142.523621 L81.9177438,142.40376 C81.9070551,142.163086 81.9899465,141.93725 82.1477156,141.767808 C82.3054847,141.598365 82.524839,141.499591 82.7562867,141.493772 C83.0080628,141.49271 83.2520429,141.574083 83.4518009,141.723615 L83.5478261,141.803995 L84.0817861,141.162867 C83.7164709,140.838684 83.2406681,140.667072 82.7525264,140.683431 Z M77.666745,140.690952 C76.8808461,140.690952 76.3976498,141.132785 76.3976498,141.741951 C76.3976498,142.416921 76.9372503,142.614336 77.6347826,142.774148 C78.0358167,142.865523 78.1627262,142.935577 78.1840978,143.048729 L78.1875441,143.088132 C78.1875441,143.236663 78.0540541,143.321269 77.8115159,143.321269 C77.477773,143.317293 77.1539589,143.21476 76.8799975,143.028411 L76.7473561,142.92832 L76.2415981,143.531845 C76.6697905,143.894785 77.2165379,144.087519 77.7776733,144.073325 C78.5250294,144.073325 79.0360825,143.724655 79.0970448,143.128011 L79.1031727,143.005405 L79.1031727,142.996005 C79.1031727,142.383079 78.6331375,142.13866 77.8810811,141.975088 C77.4279671,141.87168 77.3170388,141.805875 77.3170388,141.657344 C77.3170388,141.538895 77.4242068,141.446769 77.6441833,141.446769 C77.9202548,141.456814 78.1883995,141.536326 78.4242512,141.676766 L78.5616921,141.768273 L79.0166863,141.127145 C78.6322077,140.827134 78.1540793,140.672641 77.666745,140.690952 Z M70.9847239,140.739835 L69.7212691,140.739835 L69.7212691,144.030082 L70.9659224,144.030082 C72.0876146,144.030082 72.7664348,143.388682 72.8315126,142.518549 L72.8366627,142.379318 L72.8366627,142.360517 C72.8366627,141.414806 72.1560517,140.739835 70.9847239,140.739835 Z M65.7710928,140.739835 L64.7351351,140.739835 L65.9816686,142.792949 L65.9816686,144.020682 L66.8954172,144.020682 L66.8954172,142.777908 L68.1400705,140.739835 L67.1247944,140.739835 L66.4441833,141.935605 L65.7710928,140.739835 Z M80.5038778,140.739835 L79.5901293,140.739835 L79.5901293,144.020682 L80.5038778,144.020682 L80.5038778,140.739835 Z M85.6141011,140.739835 L84.7661575,140.739835 L84.7661575,144.020682 L85.666745,144.020682 L85.666745,142.221387 L87.0674501,144.020682 L87.8627497,144.020682 L87.8627497,140.739835 L86.9640423,140.739835 L86.9640423,142.473325 L85.6141011,140.739835 Z M75.9445358,140.739835 L73.3123384,140.739835 L73.3123384,144.013161 L75.9652174,144.013161 L75.9652174,143.238543 L74.2035253,143.238543 L74.2035253,142.719624 L75.7772033,142.719624 L75.7772033,142.00329 L74.2054054,142.00329 L74.2054054,141.512573 L75.9445358,141.512573 L75.9445358,140.739835 Z M63.6523243,140.73655 L63.5130435,140.739835 L61.8321974,140.739835 L61.8303173,144.011281 L63.5224442,144.011281 C64.3045828,144.011281 64.7652174,143.670975 64.7652174,143.106933 C64.7652174,142.66134 64.5113984,142.435723 64.1128085,142.305993 C64.3884469,142.210576 64.5808073,141.966091 64.6138092,141.682558 L64.6185664,141.574618 C64.6245859,141.366991 64.5483731,141.175098 64.4079906,141.035018 C64.2321227,140.881297 64.0171833,140.783056 63.7899357,140.749123 L63.6523243,140.73655 Z M63.4096357,142.702703 C63.7142186,142.702703 63.8552291,142.821152 63.8552291,142.997885 C63.8552291,143.165687 63.7328731,143.270153 63.5171306,143.293647 L63.4190364,143.298707 L62.7177438,143.308108 L62.7177438,142.702703 L63.4096357,142.702703 Z M70.999765,141.555817 C71.5431257,141.555817 71.9041128,141.8604 71.9041128,142.384959 C71.9041128,142.872639 71.5965262,143.166475 71.1218372,143.208794 L70.999765,143.214101 L70.6237368,143.223502 L70.6237368,141.555817 L70.999765,141.555817 Z M63.3081081,141.480611 C63.5450059,141.480611 63.6825793,141.559783 63.7132712,141.697973 L63.719859,141.760752 L63.719859,141.770153 C63.719859,141.9396 63.6018214,142.031316 63.3871585,142.051597 L63.2893067,142.055934 L62.7177438,142.055934 L62.7177438,141.480611 L63.3081081,141.480611 Z M50.3219741,115.237603 C47.335773,115.237603 45.4762138,116.859257 45.372391,119.130486 L45.3678026,119.33255 L45.3678026,119.368273 C45.3678026,122.00047 47.4698002,122.769448 50.1941246,123.389894 C51.8540438,123.774751 52.3115401,124.059836 52.3481845,124.546259 L52.3506463,124.613866 L52.3506463,124.651469 C52.3506463,125.19859 51.8392479,125.527615 50.8878966,125.527615 C49.5068703,125.527615 48.188081,125.067389 46.9926734,124.188212 L46.7384254,123.99342 L44.7661575,126.351116 C46.3360752,127.757462 48.4944771,128.466275 50.760047,128.471915 C53.7779345,128.471915 55.8166181,127.002221 55.9275497,124.518965 L55.9323149,124.303643 L55.9323149,124.26792 C55.9323149,121.87262 54.1048179,120.923149 51.1623972,120.282021 C49.46651,119.898963 48.9919681,119.64664 48.9539094,119.1137 L48.9513514,119.039248 L48.9513514,119.003525 C48.9513514,118.546651 49.3706228,118.181904 50.2298472,118.181904 C51.2798337,118.181904 52.4467671,118.555173 53.5398847,119.258827 L53.8115159,119.441598 L55.586369,116.93913 C54.1969448,115.824207 52.4954172,115.237603 50.3219741,115.237603 Z M80.7106933,115.457579 L77.1478261,115.457579 L77.1478261,128.251939 L80.7106933,128.251939 L80.7106933,115.457579 Z M91.2883666,115.457579 L85.8058754,115.457579 L85.8058754,128.251939 L89.3518214,128.251939 L89.3518214,124.596945 L91.1059929,124.596945 C94.2037904,124.596945 96.4876463,123.079729 96.6027304,120.219217 L96.6072855,119.990599 L96.6072855,119.952996 C96.6072855,117.121504 94.5240893,115.457579 91.2883666,115.457579 Z M63.9323149,115.457579 L60.3807286,115.457579 L60.3807286,128.251939 L63.9323149,128.251939 L63.9323149,123.389894 L68.4784959,123.389894 L68.4784959,128.251939 L72.0169213,128.251939 L72.0169213,115.457579 L68.4841363,115.457579 L68.4841363,120.246298 L63.9323149,120.246298 L63.9323149,115.457579 Z M91.013866,118.437603 C92.2332718,118.437603 92.9871188,118.967965 93.0561487,119.965347 L93.0613396,120.118449 L93.0613396,120.154172 C93.0613396,121.112148 92.3655595,121.754636 91.2094992,121.813653 L91.0326675,121.818096 L89.3518214,121.821857 L89.3518214,118.437603 L91.013866,118.437603 Z M67.4895417,97.6996475 L61.4411281,97.6996475 L61.4411281,110.494007 L64.987074,110.494007 L64.987074,106.619036 L66.5400705,106.619036 L69.1177438,110.494007 L73.2051704,110.494007 L70.1537015,106.034313 C71.6762241,105.385664 72.6979958,104.167195 72.7805002,102.345812 L72.7858989,102.104818 L72.7858989,102.069095 C72.7858989,100.807521 72.4098707,99.8204465 71.6578143,99.0890717 C70.7985899,98.212926 69.4467685,97.6996475 67.4895417,97.6996475 Z M56.599765,97.6996475 L46.3135135,97.6996475 L46.3135135,110.478966 L56.7031727,110.478966 L56.7031727,107.47074 L49.8312573,107.47074 L49.8312573,105.442068 L55.9717979,105.442068 L55.9717979,102.646298 L49.8312573,102.646298 L49.8312573,100.707873 L56.599765,100.707873 L56.599765,97.6996475 Z M91.3842538,103.659694 C91.0176263,103.659694 90.7074031,103.947356 90.493067,104.223737 C90.5551116,103.885311 90.3971798,103.659694 90.0982374,103.659694 C89.7974148,103.654681 89.4832224,103.917065 89.2784649,104.169545 L89.2070505,104.26322 L89.3311398,103.817626 C89.3085781,103.654054 88.8347826,103.608931 88.7445358,103.73302 C88.6425508,104.12411 88.5489318,104.469606 88.4577767,104.802509 C88.4204904,104.78981 88.3849301,104.790657 88.3722679,104.815981 C88.1297297,105.385664 87.8025852,105.521034 87.5262045,105.492832 C87.9981199,104.703173 87.9774383,103.648414 86.9659224,103.659694 C86.2909518,103.670975 85.6968273,104.178613 85.5388954,104.956992 C85.3696827,105.814336 85.8152761,106.118931 86.3623972,106.118931 C86.7152567,106.120457 87.0539547,105.980236 87.3024677,105.72973 C87.6254911,105.796104 87.9901719,105.758336 88.3094383,105.349774 C88.2576873,105.541029 88.2056768,105.735052 88.1522914,105.938425 C88.1297297,106.13584 88.7276146,106.1302 88.7783784,106.00047 C88.879906,105.560517 88.9701528,105.176968 89.0998825,104.742656 C89.2916569,104.409871 89.5793184,104.12785 89.7428907,104.122209 C89.906463,104.116569 89.8951821,104.302703 89.8556992,104.449354 C89.7052879,105.032197 89.5924794,105.498472 89.479671,105.972268 C89.5022327,106.13584 90.0380729,106.118919 90.1001175,105.99483 C90.1847239,105.673325 90.3031727,105.135605 90.4047004,104.759577 C90.5287897,104.454994 90.8784959,104.110928 91.0589894,104.110928 C91.239483,104.110928 91.2056404,104.308343 91.1661575,104.471915 C91.1452073,104.557328 91.1191923,104.658395 91.091796,104.764461 L91.0091465,105.087001 C90.9694333,105.245114 90.9349001,105.390499 90.9179788,105.487192 C90.8446533,105.87074 90.9743831,106.1302 91.4011751,106.109518 C91.8155363,106.096703 92.1522524,105.708603 92.3913286,105.305087 C92.4557161,105.746875 92.7878799,106.097678 93.4336075,106.118919 C93.9750881,106.13584 94.6462985,105.949706 95.1031727,104.92879 C95.1313749,104.861105 94.93396,104.748296 94.9001175,104.815981 C94.5654524,105.560517 93.973208,105.757932 93.5840188,105.718449 C93.1948296,105.678966 92.986134,105.447709 93.0199765,105.086722 C93.666745,105.239013 94.2101058,105.041598 94.4188014,104.618566 C94.6331375,104.212456 94.4470035,103.693537 93.8171563,103.670975 C93.1675123,103.661042 92.6030689,104.097797 92.4411184,104.71492 L92.4248543,104.793606 L92.4032902,104.812221 C92.200235,105.291657 91.8505288,105.714689 91.6361927,105.714689 C91.3504113,105.714689 91.7283196,104.8047 91.8242068,104.39859 C91.9313749,103.936075 91.812926,103.659694 91.3842538,103.659694 Z M97.4251469,101.99577 C97.4127593,102.207545 97.4474322,102.419435 97.5266745,102.616216 C97.2390129,103.039248 97.3349001,103.755582 97.8707403,103.952996 C97.2749351,103.981427 96.7876383,104.437671 96.720094,105.030317 C96.6242068,105.763572 97.2728555,106.118919 97.8989424,106.118919 C98.587074,106.118919 99.2037603,105.791774 99.5797885,104.93443 C99.6079906,104.866745 99.4162162,104.748296 99.3823737,104.821622 C99.1677359,105.367059 98.6373088,105.722176 98.0512338,105.712808 C97.6846063,105.701528 97.2897767,105.504113 97.3574618,105.030317 C97.4307873,104.413631 98.1076381,104.227497 98.5588719,104.278261 C98.6829612,104.257579 98.7450059,103.964277 98.6434783,103.902233 C98.1358402,103.840188 97.8594595,103.456639 97.9271445,103.106933 C98.1174039,103.299783 98.3729332,103.414469 98.6434783,103.428437 C99.1511163,103.450999 99.4556992,103.189659 99.4726204,102.813631 C99.506463,102.086016 98.3163337,101.928085 97.7522914,102.39624 C97.7048069,102.268178 97.6818457,102.132324 97.6846063,101.99577 C97.6733255,101.8604 97.4251469,101.899882 97.4251469,101.99577 Z M101.892362,102.227027 C101.756992,102.593655 101.520094,103.293067 101.401645,103.721739 C100.856693,103.623895 100.302502,103.836878 99.9633373,104.274501 C99.3880141,104.985194 99.3259694,106.13584 100.166392,106.113278 C100.611986,106.107638 100.899647,105.746651 101.06886,105.402585 C101.012456,105.825617 101.19859,106.085076 101.497532,106.085076 C101.829799,106.081385 102.12582,105.843297 102.368195,105.511581 L102.456537,105.383073 L102.448884,105.408226 C102.347356,105.842538 102.448884,106.124559 102.917039,106.117039 C103.371912,106.108291 103.728429,105.709512 103.975597,105.294183 C103.971753,105.77184 104.137247,106.119479 104.678731,106.113278 C105.097811,106.109088 105.43282,105.849571 105.701107,105.426543 C105.606701,105.850448 105.71177,106.124373 106.164042,106.111398 C106.585687,106.10329 106.922821,105.760052 107.166066,105.379302 C107.199913,105.917029 107.578058,106.118931 108.023502,106.118931 C108.376361,106.120457 108.715059,105.980236 108.963572,105.72973 C109.278277,105.794395 109.627031,105.760212 109.940933,105.380088 C109.891764,105.564674 109.84318,105.751606 109.794595,105.945946 C109.805875,106.13208 110.364277,106.115159 110.426322,105.991069 C110.544771,105.492832 110.606816,105.20517 110.764747,104.674971 C110.973443,104.392949 111.278026,104.12785 111.4698,104.122209 C111.661575,104.116569 111.633373,104.302703 111.59389,104.471915 C111.539365,104.703173 111.385194,105.321739 111.351351,105.509753 C111.278026,105.876381 111.413396,106.124559 111.842068,106.113278 C112.389189,106.107638 112.812221,105.419506 113.037838,104.92879 C113.075441,104.861105 112.878026,104.748296 112.849824,104.815981 C112.641128,105.301058 112.308343,105.718449 112.077086,105.718449 C111.936075,105.718449 111.964277,105.504113 112.009401,105.295417 C112.063925,105.024677 112.189894,104.708813 112.251939,104.449354 C112.364747,103.992479 112.251939,103.665335 111.813866,103.650294 C111.441598,103.644653 111.058049,104.011281 110.854994,104.248179 C110.905758,104.084606 110.92832,103.99624 110.979083,103.808226 C110.922679,103.633373 110.482726,103.60517 110.392479,103.72926 C110.288119,104.116632 110.191247,104.46365 110.097715,104.798851 C110.064708,104.790286 110.035253,104.79342 110.023972,104.815981 C109.781434,105.385664 109.454289,105.521034 109.177908,105.492832 C109.657344,104.703173 109.629142,103.648414 108.627027,103.659694 C108.044374,103.669432 107.521964,104.049037 107.288372,104.653381 L107.239697,104.796768 L107.222562,104.814101 C107.030787,105.276616 106.658519,105.716569 106.39906,105.716569 C106.280611,105.716569 106.286251,105.566157 106.331375,105.340541 C106.423502,104.964512 106.53443,104.588484 106.754407,103.811986 C106.714924,103.676616 106.252409,103.608931 106.162162,103.73866 C106.041223,104.156763 105.94357,104.490193 105.8578,104.805313 C105.820235,104.790612 105.784064,104.790039 105.771093,104.815981 C105.534195,105.342421 105.133725,105.718449 104.80658,105.718449 C104.5302,105.712808 104.5302,105.32926 104.648649,104.810341 C104.686722,104.632667 104.743831,104.420094 104.805699,104.201175 L104.868625,103.981199 L105.398825,103.981199 C105.472855,103.953231 105.533931,103.746769 105.476249,103.642689 L105.443948,103.60517 L104.970153,103.60517 C105.092362,103.184019 105.222092,102.776028 105.346181,102.431962 C105.340541,102.26839 104.827262,102.206345 104.748296,102.319154 C104.651603,102.565721 104.509326,102.986335 104.378298,103.399846 L104.313984,103.60517 L104.088367,103.60517 C104.009401,103.638073 103.947709,103.85379 104.009092,103.94877 L104.043243,103.981199 L104.212456,103.981199 C104.141654,104.249528 104.070852,104.531017 104.024916,104.79814 C103.998229,104.793642 103.975696,104.799074 103.966157,104.819741 C103.774383,105.282256 103.402115,105.722209 103.142656,105.722209 C103.024207,105.722209 103.029847,105.571798 103.074971,105.346181 C103.159577,104.962632 103.278026,104.596005 103.498002,103.811986 C103.458519,103.676616 102.996005,103.608931 102.905758,103.73866 C102.881596,103.822193 102.858363,103.902346 102.835972,103.979646 L102.711026,104.413419 C102.672277,104.549405 102.636195,104.678192 102.602078,104.803992 C102.564791,104.790599 102.529231,104.790657 102.516569,104.815981 C102.330435,105.261575 101.99765,105.695887 101.777673,105.695887 C101.326439,105.707168 102.206345,103.180259 102.494007,102.345476 C102.499647,102.187544 101.975088,102.125499 101.892362,102.227027 Z M83.3128085,102.215746 C82.7882491,102.745946 82.3482961,102.294712 81.6376028,102.463925 C81.2747356,102.514689 80.9701528,102.678261 80.8855464,103.027967 C80.8367703,103.241902 80.8887355,103.466392 81.026557,103.637133 C81.1773744,103.799321 81.3888663,103.891457 81.6103408,103.891457 C81.8318152,103.891457 82.0433071,103.799321 82.1941246,103.637133 C82.2561692,103.524324 82.1151586,103.343831 82.0192714,103.377673 C81.7485311,103.578848 81.4552291,103.428437 81.46651,103.20282 C81.4777908,102.977203 81.6582844,102.898237 81.8782609,102.864395 C81.9541502,102.845593 82.033085,102.839844 82.1137093,102.840762 L82.2357433,102.846342 L82.4833456,102.86835 C82.73127,102.888013 82.9760923,102.881487 83.1811986,102.676381 C83.0176263,103.144536 82.8878966,103.612691 82.6848414,104.283901 C81.8218566,104.225617 81.212691,104.676851 81.0942421,105.223972 C81.0096357,105.630082 81.1393655,106.115159 81.8782609,106.115159 C82.6810811,106.120799 82.9292597,105.613161 83.1943596,104.716334 C83.3560517,104.738895 83.5277712,104.771485 83.7061757,104.797389 L83.9783784,104.829142 L83.8622274,105.235044 C83.7840971,105.501606 83.7076381,105.752291 83.6512338,105.940306 C83.6850764,106.115159 84.1927145,106.109518 84.2886016,105.974148 C84.373208,105.663925 84.5029377,105.222092 84.6101058,104.846063 C84.9807482,104.817683 85.3325769,104.671418 85.6141011,104.428672 C85.7325499,104.310223 85.6084606,104.107168 85.4956522,104.191774 C85.2718869,104.382294 84.9934079,104.496846 84.7003525,104.518919 C84.8627593,103.816983 85.0699998,103.126182 85.3207991,102.450764 C85.2700353,102.298472 84.8075206,102.242068 84.7285546,102.337955 C84.4578143,102.941481 84.2566392,103.776263 84.0686251,104.481316 C83.8016451,104.458754 83.5365452,104.391069 83.3165687,104.357227 C83.6042303,103.372033 83.7621622,102.813631 83.9370153,102.289072 C83.9088132,102.144301 83.4519389,102.074736 83.3128085,102.215746 Z M108.544301,104.062045 C108.967333,104.045123 108.905288,104.67121 108.685311,105.190129 C108.601683,105.182491 108.521196,105.223967 108.478882,105.296504 C108.436569,105.369042 108.440083,105.459518 108.487897,105.528555 C108.394248,105.64091 108.257942,105.709063 108.111868,105.716569 C107.762162,105.716569 107.779083,105.314219 107.846769,104.964512 C107.927615,104.5396 108.219036,104.077086 108.544301,104.062045 Z M86.8831962,104.062045 C87.306228,104.045123 87.2441833,104.67121 87.0242068,105.190129 C86.942247,105.18641 86.8652433,105.2294 86.8253991,105.301119 C86.7855549,105.372839 86.7897356,105.460931 86.8361927,105.528555 C86.7425443,105.64091 86.6062381,105.709063 86.4601645,105.716569 C86.1104583,105.716569 86.1273796,105.314219 86.1950646,104.964512 C86.279671,104.5396 86.5673325,104.077086 86.8831962,104.062045 Z M82.5889542,104.697532 C82.4310223,105.306698 82.2561692,105.712808 81.9346651,105.712808 C81.6977673,105.707168 81.6526439,105.475911 81.720329,105.255934 C81.8049354,104.945711 82.0869565,104.680611 82.5889542,104.697532 Z M101.205808,104.095586 L101.288837,104.105288 C101.218425,104.399458 101.126039,104.687929 101.012456,104.968273 C100.779318,105.526675 100.448414,105.808696 100.2604,105.667685 C100.063925,105.538425 100.183418,105.015785 100.349517,104.686281 L100.39577,104.601645 C100.598825,104.267732 100.877687,104.117922 101.117804,104.097346 L101.205808,104.095586 Z M93.7419506,104.078966 C93.9562867,104.084606 93.9619271,104.285781 93.8716804,104.473796 C93.7714062,104.694399 93.5374331,104.834783 93.1935298,104.81968 L93.0594595,104.80658 C93.1609871,104.40047 93.4768508,104.054524 93.7419506,104.078966 Z M67.307168,100.766157 C68.4328777,100.766157 69.1485396,101.225141 69.2207541,102.127122 L69.226792,102.281551 L69.226792,102.319154 C69.226792,103.202622 68.6041268,103.773914 67.5122646,103.831603 L67.3259694,103.836428 L64.987074,103.836428 L64.987074,100.766157 L67.307168,100.766157 Z M103.452879,102.650059 C103.251717,102.641629 103.077644,102.788733 103.052409,102.988484 C103.035048,103.074953 103.058313,103.164608 103.115527,103.231725 C103.172742,103.298843 103.257584,103.336005 103.345711,103.33255 C103.445211,103.34087 103.543934,103.309276 103.620116,103.244733 C103.696298,103.18019 103.743682,103.087999 103.751821,102.988484 C103.770732,102.901354 103.747039,102.810425 103.688012,102.743603 C103.628986,102.676781 103.541677,102.642046 103.452879,102.650059 Z M106.709283,102.650059 C106.508121,102.641629 106.334048,102.788733 106.308813,102.988484 C106.291452,103.074953 106.314717,103.164608 106.371932,103.231725 C106.429147,103.298843 106.513988,103.336005 106.602115,103.33255 C106.701615,103.34087 106.800338,103.309276 106.87652,103.244733 C106.952702,103.18019 107.000086,103.087999 107.008226,102.988484 C107.027136,102.901354 107.003443,102.810425 106.944417,102.743603 C106.88539,102.676781 106.798081,102.642046 106.709283,102.650059 Z M98.919859,102.807991 C98.9142186,102.949001 98.7976498,103.050529 98.6096357,103.039248 C98.3973081,103.033434 98.1970043,102.939414 98.0568743,102.779788 C98.2994125,102.447004 98.919859,102.486486 98.919859,102.807991 Z M83.5290247,79.8514689 L80.1109283,79.8514689 L74.6641598,92.7435958 L78.3924794,92.7435958 L79.306228,90.4517039 L84.2378378,90.4517039 L85.1779083,92.7360752 L88.9814336,92.7360752 L83.5290247,79.8514689 Z M50.5833137,79.9435958 L47.0430082,79.9435958 L47.0430082,92.7435958 L56.7877791,92.7435958 L56.7877791,89.6300823 L50.5833137,89.6300823 L50.5833137,79.9435958 Z M97.7109283,79.9435958 L92.7755582,79.9435958 L92.7755582,92.7360752 L97.6376028,92.7360752 C102.147983,92.7360752 104.81789,90.1078584 104.927178,86.5335301 L104.93067,86.3041128 L104.93067,86.26651 C104.93067,82.5757932 102.279671,79.9435958 97.7109283,79.9435958 Z M70.9884841,79.9435958 L60.6984724,79.9435958 L60.6984724,92.7210341 L71.0768508,92.7210341 L71.0768508,89.7128085 L64.2068155,89.7128085 L64.2068155,87.6841363 L70.3492362,87.6841363 L70.3492362,84.8883666 L64.2068155,84.8883666 L64.2068155,82.9518214 L70.9884841,82.9518214 L70.9884841,79.9435958 Z M97.7748531,83.0871915 C99.8231414,83.0871915 101.207326,84.1975443 101.297329,86.1193448 L101.301998,86.3210341 L101.301998,86.3586369 C101.301998,88.3542186 99.986089,89.5135219 97.9843502,89.5885914 L97.7748531,89.5924794 L96.3309048,89.5924794 L96.3309048,83.0871915 L97.7748531,83.0871915 Z M81.7936545,84.0554642 L83.2188014,87.6916569 L80.3497062,87.6916569 L81.7936545,84.0554642 Z M73.7146886,65.6056405 C72.9286401,65.6056405 72.2914219,66.2428587 72.2914219,67.0289072 C72.2914219,67.8149557 72.9286401,68.4521739 73.7146886,68.4521739 C74.5007371,68.4521739 75.1379553,67.8149557 75.1379553,67.0289072 C75.1379553,66.2428587 74.5007371,65.6056405 73.7146886,65.6056405 Z M70.7454833,65.6433819 L70.6011751,65.6432432 C70.2295171,65.6350932 69.8704092,65.777846 69.6057789,66.0389339 C69.3411485,66.3000217 69.1935691,66.6571731 69.1967098,67.0289072 C69.1820721,67.4041842 69.3255287,67.7683918 69.5921614,68.03288 C69.8587942,68.2973683 70.2241484,68.4378791 70.5992949,68.4202115 C70.9666811,68.4212231 71.3235108,68.3057823 71.6194596,68.0925954 L71.7424207,67.9952996 L71.7424207,66.8314924 L70.5804935,66.8314924 L70.5804935,67.3410106 L71.172738,67.3410106 L71.172738,67.7170388 C71.0094128,67.8278185 70.8153658,67.8843881 70.6180964,67.8787309 C70.3954725,67.8811992 70.1818205,67.7911091 70.0281795,67.6299821 C69.8745385,67.4688551 69.7947069,67.251162 69.8077556,67.0289072 C69.790782,66.5864815 70.1344042,66.2134539 70.5767333,66.1941246 C70.7933825,66.1899687 71.0040798,66.2573283 71.177105,66.3838392 L71.2761457,66.466745 L71.6521739,66.0192714 C71.4371138,65.8246303 71.1707486,65.6999055 70.8880386,65.6576053 L70.7454833,65.6433819 Z M80.8723854,65.6432432 C80.5009377,65.6334296 80.1416232,65.7758894 79.8778153,66.0375669 C79.6140075,66.2992444 79.4686391,66.6573921 79.4754407,67.0289072 C79.4687575,67.3955953 79.611349,67.7492616 79.8705024,68.0087695 C80.1296558,68.2682774 80.4831268,68.4113523 80.8498237,68.4051704 C81.223307,68.4203588 81.5846148,68.2824035 81.8520835,68.0269624 L81.9478261,67.9257344 L81.5717979,67.5497062 C81.3913038,67.7476467 81.1364934,67.8614257 80.8686251,67.8636898 C80.6527568,67.8584376 80.4482532,67.7658394 80.3018937,67.6070765 C80.1555342,67.4483137 80.0798404,67.236969 80.0921269,67.0213866 C80.0808816,66.8067958 80.1571581,66.5968209 80.3035128,66.4394806 C80.4498676,66.2821404 80.6537827,66.1908924 80.8686251,66.186604 C81.0844683,66.1925746 81.2911424,66.2690718 81.4579451,66.4025155 L81.5529965,66.4893067 L81.9290247,66.0568743 C81.6517287,65.7749037 81.2674141,65.6244602 80.8723854,65.6432432 Z M57.5895645,65.6438242 L57.4420682,65.6432432 C57.0709423,65.6339515 56.7121223,65.7766422 56.4487285,66.0382611 C56.1853347,66.29988 56.0402213,66.657727 56.0470035,67.0289072 C56.0403346,67.3952638 56.1826707,67.7486339 56.4414122,68.0080842 C56.7001537,68.2675345 57.053133,68.4108369 57.4195065,68.4051704 C57.7931316,68.4211164 58.1547373,68.2831221 58.4219076,68.0271738 L58.5175088,67.9257344 L58.1414806,67.5497062 C57.9602703,67.7477462 57.7048531,67.861492 57.4364277,67.8636898 C57.2205593,67.8584376 57.0160558,67.7658394 56.8696963,67.6070765 C56.7233368,67.4483137 56.647643,67.236969 56.6599295,67.0213866 C56.6486842,66.8067958 56.7249607,66.5968209 56.8713154,66.4394806 C57.0176702,66.2821404 57.2215853,66.1908924 57.4364277,66.186604 C57.6527807,66.1923344 57.8600192,66.2687961 58.0273303,66.4023977 L58.1226792,66.4893067 L58.4987074,66.0568743 C58.2910405,65.8449346 58.0227851,65.7072619 57.7349335,65.6599031 L57.5895645,65.6438242 Z M64.8713507,65.6438242 L64.7238543,65.6432432 C64.3525618,65.6339693 63.9935623,65.7766036 63.7298745,66.0381621 C63.4661867,66.2997205 63.3206463,66.6575517 63.3269095,67.0289072 C63.3207424,67.3957707 63.4637599,67.7494233 63.7232083,68.0088716 C63.9826566,68.26832 64.3363092,68.4113375 64.7031727,68.4051704 C65.0767032,68.4206105 65.4381098,68.2826423 65.7054795,68.0270326 L65.8011751,67.9257344 L65.4251469,67.5497062 C65.2439366,67.7477462 64.9885193,67.861492 64.720094,67.8636898 C64.5042256,67.8584376 64.2997221,67.7658394 64.1533626,67.6070765 C64.0070031,67.4483137 63.9313093,67.236969 63.9435958,67.0213866 C63.9323504,66.8067958 64.0086269,66.5968209 64.1549817,66.4394806 C64.3013364,66.2821404 64.5052516,66.1908924 64.720094,66.186604 C64.9360511,66.1920688 65.1428973,66.2685493 65.3095475,66.4022964 L65.4044653,66.4893067 L65.7804935,66.0568743 C65.5728267,65.8449346 65.3045712,65.7072619 65.0167197,65.6599031 L64.8713507,65.6438242 Z M92.5762632,65.6582844 C92.027262,65.6582844 91.6361927,65.9797885 91.6361927,66.466745 C91.6361927,66.9988249 91.9840188,67.1473561 92.5236193,67.2846063 C92.9710928,67.3992949 93.0632197,67.4763807 93.0632197,67.6249119 C93.0632197,67.7828437 92.9184489,67.8787309 92.6777908,67.8787309 C92.4298929,67.8718606 92.1910309,67.7904916 91.991562,67.6469521 L91.8768508,67.5534665 L91.5290247,67.9708578 C91.8462956,68.2398573 92.2506144,68.3842091 92.66651,68.3769683 C93.2437133,68.3769683 93.6498237,68.0780259 93.6498237,67.5459459 C93.6498237,67.079671 93.3433608,66.8841363 92.8,66.7431257 C92.3356052,66.6227967 92.2209166,66.5663925 92.2209166,66.3896592 C92.2209166,66.2599295 92.3412456,66.1565217 92.5668625,66.1565217 C92.7696212,66.168972 92.9654859,66.2306489 93.1378794,66.3352352 L93.2625147,66.4216216 L93.5708578,65.9985899 C93.2889647,65.7729875 92.9372736,65.6526547 92.5762632,65.6582844 Z M67.8166863,65.6695652 L67.2733255,65.6695652 L66.1320799,68.3675676 L66.7318449,68.3675676 L66.9762632,67.7678026 L68.1043478,67.7678026 L68.3487662,68.3675676 L68.9654524,68.3675676 L67.8166863,65.6695652 Z M83.9652174,65.6695652 L83.4218566,65.6695652 L82.2768508,68.3675676 L82.8784959,68.3675676 L83.1229142,67.7678026 L84.2509988,67.7678026 L84.4954172,68.3675676 L85.1121034,68.3675676 L83.9652174,65.6695652 Z M86.2383079,65.6827262 L85.6047004,65.6827262 L85.6009401,68.3638073 L86.1781434,68.3638073 L86.1781434,66.626557 L86.9301998,67.7546416 L86.9452409,67.7546416 L87.6972973,66.6096357 L87.6972973,68.360047 L88.2820212,68.360047 L88.2820212,65.6827262 L87.6465335,65.6827262 L86.9433608,66.8108108 L86.2383079,65.6827262 Z M62.6914219,65.6827262 L62.1029377,65.6827262 L62.1029377,68.360047 L62.6914219,68.360047 L62.6914219,65.6827262 Z M59.6474736,65.6827262 L59.0571093,65.6827262 L59.0589894,68.360047 L59.6493537,68.360047 L59.6493537,67.2846063 L60.7360752,67.2846063 L60.7360752,68.360047 L61.3245593,68.360047 L61.3245593,65.6827262 L60.7360752,65.6827262 L60.7360752,66.7412456 L59.6474736,66.7412456 L59.6474736,65.6827262 Z M90.147121,65.6827262 L89.052879,65.6827262 L89.052879,68.3506463 L89.6413631,68.3506463 L89.6413631,67.5478261 L90.0888367,67.5478261 C90.6904818,67.5478261 91.1717979,67.2282021 91.1717979,66.6077556 C91.1717979,66.0587544 90.786369,65.6827262 90.147121,65.6827262 Z M77.309,65.7970376 L77.1139835,66.6303173 L76.2942421,66.3840188 L76.9184489,66.9706228 L76.2942421,67.5572268 L77.1139835,67.3090482 L77.3095182,68.1438308 L77.5050529,67.3090482 L78.3266745,67.5572268 L77.7005875,66.9706228 L78.3266745,66.3840188 L77.5050529,66.6303173 L77.309,65.7970376 Z M73.7109283,66.1866 C73.9311645,66.187489 74.1416455,66.277567 74.2943369,66.4362809 C74.4470282,66.5949949 74.5289004,66.8088014 74.5212691,67.0289072 C74.530513,67.2474573 74.4499672,67.4602791 74.2983386,67.6179444 C74.14671,67.7756098 73.9371933,67.8643987 73.7184489,67.863694 C73.4978859,67.8633128 73.2869152,67.7734576 73.1338143,67.6146864 C72.9807135,67.4559152 72.8985869,67.2418175 72.906228,67.0213866 C72.8975118,66.8026565 72.9784905,66.5898525 73.130413,66.4322506 C73.2823356,66.2746487 73.4920257,66.1859177 73.7109283,66.1866 Z M83.6850764,66.3783784 L84.040423,67.2470035 L83.3297297,67.2470035 L83.6850764,66.3783784 Z M67.5365452,66.3783784 L67.893772,67.2470035 L67.1811986,67.2470035 L67.5365452,66.3783784 Z M90.0963572,66.2223267 C90.3877791,66.2223267 90.5757932,66.3633373 90.5757932,66.626557 C90.5740712,66.7448739 90.5219856,66.8568442 90.4326009,66.9343828 C90.3655624,66.9925367 90.2823131,67.0271849 90.1953611,67.0345443 L90.1076381,67.0326675 L89.6413631,67.040188 L89.6413631,66.2223267 L90.0963572,66.2223267 Z M48.2500588,21.0989424 C50.0587544,21.946886 51.1078731,22.719624 51.7207991,23.6690952 C52.2008617,23.8583627 52.8169213,23.7511947 53.5689777,23.3475911 C53.7344301,22.9546416 54.0108108,22.8324324 54.4018801,22.9546416 C54.4018801,22.9546416 54.9490012,22.6068155 54.9659224,22.7027027 C55.0430082,22.7609871 54.5560517,23.0317274 54.5560517,23.0317274 C54.4405218,23.3858307 54.0794895,23.5985818 53.7137485,23.5280846 C53.1459459,23.9166471 52.7993733,24.315237 52.6740306,24.7238543 C52.7059929,25.2596945 54.2044653,25.1280846 54.7929495,28.6232667 C53.4477495,27.2438972 51.8083944,26.7590341 51.3393021,26.1732024 L51.2827262,26.0925969 L50.2392479,25.5097532 L49.6940071,25.9797885 C49.495135,25.9028803 49.3365698,25.7505094 49.2510766,25.5582679 L49.2145711,25.4589894 L50.0155112,25.0829612 C49.8899322,24.8225302 49.8479051,24.5296538 49.8951821,24.2444183 C48.3628672,23.2385429 48.6411281,22.0258519 48.2500588,21.0989424 Z M58.600235,15.612691 C61.0218566,16.746416 62.426322,17.7823737 63.2441833,19.053349 C63.8834313,19.3077948 64.7088132,19.164904 65.720329,18.6246769 C65.9403055,18.1076381 66.3125734,17.932785 66.8333725,18.0963572 C66.8333725,18.0963572 67.5779083,17.6319624 67.60047,17.7579318 C67.7038778,17.8368978 67.0439483,18.2054054 67.0439483,18.2054054 C66.8120642,18.7230709 66.436036,18.9443008 65.9158637,18.8690952 C65.1587936,19.390521 64.6943987,19.9238543 64.5226792,20.4690952 C64.5678026,21.1779083 66.5720329,21.0124559 67.359812,25.6902468 C65.5493058,23.8362885 63.341293,23.1887978 62.7235652,22.3979568 L62.6594595,22.3059929 L61.2625147,21.5257344 L60.53302,22.1574618 C60.2039953,21.986369 59.9987662,21.7864865 59.9173325,21.5578143 L59.8900118,21.4580494 L60.9635723,20.9504113 C60.7942671,20.6001662 60.7377739,20.2060274 60.8018801,19.8223267 C58.7506463,18.4780259 59.1229142,16.8554642 58.600235,15.612691 Z M75.2921269,9.7786134 C78.5504113,11.3034078 80.439953,12.6984724 81.5435958,14.4075206 C82.4034469,14.7522131 83.5139835,14.559812 84.8752056,13.8303173 C85.1747748,13.137172 85.6761457,12.9002742 86.3793184,13.119624 C86.3793184,13.119624 87.3795535,12.4954172 87.4096357,12.66651 C87.5487662,12.7717979 86.6575793,13.2568743 86.6575793,13.2568743 C86.3467293,13.9550333 85.8403447,14.253349 85.1384254,14.1518214 C84.1156287,14.8524873 83.488915,15.5707011 83.2582844,16.306463 C83.3165687,17.2728555 86.0183314,17.0359577 87.0768508,23.3344301 C84.6252644,20.8172738 81.6355152,19.9551887 80.8254357,18.8781694 L80.7539365,18.773208 L78.8737955,17.7240893 L77.8904818,18.5720329 C77.4425904,18.339731 77.164051,18.0658339 77.058825,17.7516621 L77.0274971,17.6319624 L78.4714454,16.9475911 C78.246876,16.4802432 78.1713952,15.9551591 78.2552291,15.4434783 C75.493302,13.6347826 75.9934195,11.4500588 75.2921269,9.7786134 Z M113.270975,16.4361927 L113.270975,20.2509988 L104.750176,20.2509988 L104.750176,16.4361927 L113.270975,16.4361927 Z M108.978613,4.85452409 L109.894242,8.57156287 L113.73349,7.38519389 L110.809871,10.1941246 L113.73349,13.0049354 L109.894242,11.8166863 L108.978613,15.5356052 L108.062985,11.8166863 L104.221857,13.0049354 L107.147356,10.1941246 L104.221857,7.38519389 L108.062985,8.57156287 L108.978613,4.85452409 Z M113.239013,-6.66133815e-15 L113.239013,3.81480611 L104.718214,3.81480611 L104.718214,-6.66133815e-15 L113.239013,-6.66133815e-15 Z" id="Chicago-Camps" fill="#1F2937"></path>
    </g>
</svg>