<?xml version="1.0" encoding="UTF-8"?>
<svg width="146px" height="150px" viewBox="0 0 146 150" version="1.1" xmlns="http://www.w3.org/2000/svg" xmlns:xlink="http://www.w3.org/1999/xlink">
    <title>lightbox-logo</title>
    <g id="lightbox-logo" stroke="none" stroke-width="1" fill="none" fill-rule="evenodd">
        <path d="M43.8368683,136.778473 C43.0652023,137.51783 42.43849,138.118196 41.7350375,138.792392 C40.4443088,137.263758 38.7669476,136.575636 36.7112142,136.77532 C34.5955276,136.980785 32.6418481,138.572739 32.1142587,140.596905 C31.552829,142.750866 32.5088849,145.086644 34.4471097,146.29552 C36.2960707,147.448696 39.0240808,147.374865 40.5572875,146.011759 C40.9340609,145.676763 40.9988105,145.000727 41.2825897,144.2929 C39.978538,144.236147 38.9795821,144.192795 37.8921618,144.145238 L37.8921618,141.702262 L44.0191265,141.702262 C44.0191265,143.354384 44.0521674,144.919277 43.992747,146.481016 C43.979957,146.819954 43.6905822,147.197252 43.4345148,147.471029 C40.9607069,150.115529 36.6416684,150.769757 33.2597672,149.035921 C29.9242299,147.325733 28.2431383,143.740615 29.0601025,140.079829 C29.8275052,136.641059 33.1174779,134.006018 36.8590991,133.834972 C39.6435986,133.707542 41.9559323,134.641591 43.8368683,136.778473 Z M143.773781,134.094273 C144.379176,134.16679 145.000826,134.107147 145.615014,134.107147 C145.666974,134.210405 145.718667,134.313925 145.77036,134.417183 C144.578754,136.087172 143.399405,137.766095 142.192345,139.425312 C140.63116,141.57139 140.619169,141.566398 142.144116,143.713527 C143.262712,145.288666 144.392765,146.856186 145.510029,148.432114 C145.755438,148.778145 145.968606,149.145984 146.323529,149.702998 C145.064776,149.702998 144.013327,149.769997 142.979732,149.665163 C142.639197,149.630481 142.271483,149.200897 142.042062,148.86774 C140.948246,147.280252 139.897864,145.663862 138.691336,143.845949 C137.813353,145.159397 136.837046,146.262126 136.273751,147.54168 C135.292115,149.771048 133.549471,149.959171 131.508926,149.686445 C131.434851,149.676461 131.370101,149.598952 131.175852,149.46942 C131.708771,148.691177 132.233163,147.903739 132.779937,147.131803 C133.871088,145.591082 134.951047,144.041954 136.083233,142.530924 C136.579114,141.868814 136.584709,141.35778 136.073907,140.677278 C134.782645,138.956842 133.572121,137.177289 132.337348,135.415603 C132.096469,135.071674 131.892894,134.702258 131.538503,134.128429 C132.77221,134.128429 133.778893,134.060642 134.766924,134.165213 C135.111989,134.201734 135.486897,134.610298 135.717917,134.938463 C136.697155,136.329158 137.627364,137.75322 138.68281,139.324681 C139.6378,137.894838 140.560548,136.675452 141.29944,135.355698 C141.878989,134.320494 142.632802,133.957384 143.773781,134.094273 Z M93.4874252,134.109013 C94.6843603,134.113742 95.8820948,134.099817 97.0782305,134.134236 C98.8400592,134.184945 100.302654,134.843114 101.107628,136.453461 C101.914466,138.067224 101.824137,139.667061 100.668236,141.137629 C100.562452,141.272415 100.485445,141.42901 100.375131,141.607674 C100.511558,141.750081 100.618408,141.883554 100.747108,141.991541 C102.170001,143.183602 102.726368,144.673876 102.1708,146.447123 C101.574731,148.349902 100.152904,149.502026 98.1986917,149.654154 C95.9156686,149.831767 93.6073319,149.695667 91.1932108,149.695667 L91.1932108,134.108487 L92.7131537,134.107592 C92.9704646,134.10767 93.2289597,134.108049 93.4874252,134.109013 Z M126.044113,134.18216 L126.044113,149.656361 L110.432264,149.656361 L110.432264,134.18216 L126.044113,134.18216 Z M2.96968868,134.24464 L2.96968868,146.754584 L10.5397969,146.754584 L10.5397969,149.652104 L-1.85362836e-12,149.652104 L-1.85362836e-12,134.24464 L2.96968868,134.24464 Z M64.191453,134.228928 L64.191453,149.645588 L61.1271713,149.645588 L61.1271713,142.925694 L54.997542,142.925694 L54.997542,149.637969 L51.9820223,149.637969 L51.9820223,134.232606 L54.9346576,134.232606 L54.9346576,140.202372 L61.1165129,140.202372 L61.1165129,134.228928 L64.191453,134.228928 Z M20.8814279,134.215003 L20.8814279,149.640071 L17.9735578,149.640071 L17.9735578,134.215003 L20.8814279,134.215003 Z M83.5115894,134.212244 L83.5115894,136.870407 L79.2620968,136.870407 L79.2620968,149.617081 L76.0989587,149.617081 L76.0989587,136.869618 L71.8148264,136.869618 L71.8148264,134.212244 L83.5115894,134.212244 Z M94.2460348,142.993902 L94.2460348,147.048277 C95.3385178,147.048277 96.3547935,147.141813 97.3452227,147.023579 C98.4643516,146.889843 99.1419576,146.044076 99.1331644,145.067463 C99.1241048,144.063 98.4760759,143.161532 97.4142356,143.023067 C96.3883674,142.889068 95.3299911,142.993902 94.2460348,142.993902 Z M122.808231,137.211315 L113.510934,137.211315 L113.510934,146.912281 L122.808231,146.912281 L122.808231,137.211315 Z M94.2375081,136.707007 L94.2375081,140.539102 C96.2868464,140.933478 97.7230619,140.611882 98.2695699,139.626861 C98.6868451,138.874893 98.6319545,138.103745 98.1360738,137.40669 C97.4819163,136.487092 95.8407936,136.205432 94.2375081,136.707007 Z M113.451856,0 L113.761976,0.0740158417 C112.150739,8.93355235 110.539501,17.7930889 108.928264,26.6526254 L109.178016,26.8009233 C120.162317,19.0742552 131.146886,11.347587 142.131187,3.62091888 C142.216396,3.71756546 142.301339,3.8139458 142.386281,3.91032614 C133.131282,13.5949529 123.876017,23.2795797 114.621018,32.9639402 C114.670968,33.0464759 114.720919,33.1287453 114.770869,33.2110147 L143.313972,31.4346345 L143.382353,31.7064696 L115.123461,41.6578729 C120.577681,45.260421 125.779745,48.696034 130.981541,52.1319133 C130.943344,52.2360147 130.905146,52.3401161 130.866949,52.4442175 C125.647523,51.4042683 120.428364,50.3640529 115.016081,49.2852321 C115.2458,51.0049023 115.44293,52.5728134 115.666506,54.1367309 C116.835401,62.3035004 117.98907,70.4723999 119.212457,78.6309159 C119.358569,79.6067002 119.065276,80.210808 118.43809,80.8625734 C107.686981,92.0368355 96.9500282,103.224676 86.2098703,114.409588 C82.9168772,117.838811 79.6273566,121.270963 76.3295554,124.695394 C75.1083059,125.963514 74.8625601,126.003983 73.3405391,125.183419 C60.4249971,118.220073 47.5126604,111.251401 34.5981867,104.286191 C29.8627729,101.732112 25.1391121,99.1554023 20.3769868,96.6519096 C19.3304304,96.1018494 18.8058166,95.4186672 18.6327262,94.2394724 C16.6315009,80.5912707 14.5907427,66.9489263 12.544108,53.3073807 C12.3947907,52.3108293 12.616229,51.5560274 13.3363709,50.7921733 C27.4493893,35.8273948 41.5356962,20.8375894 55.6284139,5.85364136 C56.9476946,4.45106778 57.1499006,4.41166366 58.7969314,5.3853181 C70.8526305,12.5124047 82.9045899,19.6458811 94.9581521,26.7761626 C95.3369211,27.0003401 95.7229022,27.2125366 96.361574,27.5759597 C94.7789179,21.322686 93.2614379,15.3263379 91.7436907,9.32998972 C91.8529408,9.28046833 91.9624579,9.2306807 92.0717079,9.18089306 C95.3326472,14.6492793 98.5935865,20.1173993 102.017199,25.8586857 C105.907995,17.060119 109.679925,8.5299264 113.451856,0 Z M43.2943811,71.3350306 L36.7146058,78.2436743 L36.7146058,78.2436743 L21.3148274,94.4130635 C38.6989355,103.714831 55.9227746,112.930869 73.3691204,122.266183 C73.0368294,120.010564 72.7448728,118.008142 72.4465054,116.00652 C70.9829826,106.18531 69.506104,96.3659635 68.0735665,86.5399612 C67.9504265,85.6965001 67.6077181,85.2140659 66.8784943,84.8005889 L61.5119867,81.742293 L50.7957702,75.5965326 C48.3335046,74.1870367 45.8621571,72.7932491 43.2943811,71.3350306 Z M88.9536751,64.2372308 C88.6523694,64.6246159 88.4258559,64.9539598 88.1614121,65.2497569 C82.4830825,71.605002 76.8055543,77.9610459 71.1085266,84.2995176 C70.6346647,84.826947 70.5852484,85.3352069 70.6848823,85.9965571 C72.3765213,97.2147495 74.0438528,108.436936 75.7199991,119.657524 C75.8142907,120.289055 75.9366293,120.91606 76.0966312,121.835933 C89.4726794,107.775053 102.630228,93.9439415 115.904772,79.9898254 C106.8047,74.6708021 97.9589214,69.5008754 88.9536751,64.2372308 Z M66.0583178,88.2160206 C66.2156485,88.4141062 66.2776192,88.6872726 66.4354841,89.0448383 C66.1526094,89.4386132 65.88683,89.8893644 65.54519,90.2724895 C61.6202029,94.6748347 57.6831956,99.0667963 53.749928,103.461953 L52.4553702,104.921246 C52.2384432,105.163371 52.0198245,105.403937 51.7978519,105.641426 C51.0325676,106.460127 50.2857142,106.608425 49.7365259,106.036266 C49.0366847,105.307024 49.4280081,104.682149 49.9777307,104.069788 C53.0874829,100.604622 56.1894888,97.1322671 59.2925632,93.6609774 L62.4168584,90.1501849 C62.9389197,89.5662624 63.4629399,88.9841347 63.9908481,88.4055864 C64.6767993,87.6539795 65.5652236,87.5943408 66.0583178,88.2160206 Z M73.9876785,86.324623 C74.5259151,86.5772886 74.9436829,86.7290477 75.3163083,86.9548226 C81.1626532,90.495602 87.0028545,94.0459662 92.8443913,97.5944667 C92.9961126,97.6865872 93.1497037,97.7763114 93.2974183,97.8748217 C93.9398297,98.3034746 94.230985,98.8841529 93.7678077,99.5636076 C93.3300063,100.205522 92.6678283,100.271018 92.0019108,99.8833667 C90.966039,99.2805902 89.9424545,98.6565142 88.9180687,98.0345681 C84.0245228,95.0630185 79.1317782,92.0896051 74.239835,89.115393 C73.9366596,88.9308858 73.5381241,88.7977638 73.3674376,88.5259287 C73.1353147,88.1558495 72.8927743,87.6206989 73.0001545,87.2578083 C73.110473,86.8850667 73.6366895,86.6347973 73.9876785,86.324623 Z M15.3426713,54.6276849 C17.1395536,67.0298645 18.8846156,79.0752771 20.6299446,91.120956 C20.730647,91.1739386 20.8313493,91.2266549 20.9317845,91.2796375 C27.6433148,84.2412102 34.3545779,77.2030491 41.1721528,70.053598 C38.7006526,68.5776172 36.2459862,67.1116558 33.796553,65.6488024 L26.4523528,61.2626547 C22.7765022,59.0673313 19.0863255,56.8634501 15.3426713,54.6276849 Z M63.5937817,46.9409533 C57.3742772,54.4801857 51.2284964,61.92996 45.0349021,69.4380418 C45.3794804,69.6803239 45.5790152,69.8501876 45.803926,69.9745235 C53.1955309,74.0645644 60.5970191,78.1370332 67.9731313,82.2550297 C68.8022561,82.718028 69.2160172,82.451784 69.7577263,81.8508712 C73.4155984,77.7925134 77.1020519,73.759715 80.780759,69.7199942 C82.7785117,67.5266759 84.7792026,65.33602 86.9046363,63.0063847 C79.1035442,57.6298526 71.4028873,52.3228103 63.5937817,46.9409533 Z M59.1644816,8.41943512 C59.253698,9.21523854 59.295635,9.73334943 59.3717628,10.2464017 C59.9511351,14.149273 60.5353155,18.0513456 61.1210986,21.9531519 C62.2405774,29.4063874 63.3720763,36.8577592 64.4675147,44.3147222 C64.5807714,45.0854987 64.9023778,45.5655367 65.5546726,45.9931246 C71.9109399,50.159045 78.2458381,54.3574472 84.5863457,58.5470633 C85.9136398,59.4240712 87.2398656,60.302144 88.6232539,61.2172247 C90.5710561,59.1674119 92.4317789,57.2075896 94.2943714,55.2496309 C96.6204084,52.8039132 98.9448427,50.3563318 101.277558,47.9164715 C101.839835,47.3283384 102.561579,47.1142782 103.162588,47.7133273 C103.698153,48.2468803 103.495947,48.9449722 103.049064,49.5251179 C102.941149,49.6654285 102.815071,49.792427 102.692733,49.9210228 C100.734513,51.9822841 98.7728207,54.0400843 96.8178063,56.1037418 C94.8398201,58.1916275 92.8682447,60.2853706 90.7689883,62.5090408 C99.3238788,67.5045776 107.751355,72.4255661 116.179099,77.3468209 C116.283541,77.2972995 116.38825,77.2477781 116.492959,77.1982567 C115.051073,67.185351 113.609453,57.1724454 112.133376,46.923115 C116.052754,47.7561926 119.694599,48.530164 123.336444,49.3044016 L123.43688,49.0107345 C119.614999,46.4787537 115.793385,43.9465067 111.701451,41.2356099 C118.803771,38.7289223 125.595703,36.331661 132.387634,33.934666 L132.301623,33.6628308 L110.954331,34.9759464 C110.91827,34.8774361 110.882477,34.7789258 110.846416,34.6804155 C117.40676,27.8137156 123.96737,20.9470157 130.52798,14.0803158 L130.310549,13.8327088 C122.538839,19.294439 114.76713,24.7564354 106.99542,30.2184317 L106.747805,30.0232749 C107.723041,24.6390217 108.698278,19.2545024 109.673782,13.8702493 C109.634783,13.8603982 109.596051,13.8508134 109.55732,13.8412287 C107.149278,18.7635484 104.741504,23.6856018 102.199905,28.8813542 C99.9983441,25.2955795 97.9714758,21.9938872 95.9446076,18.6924612 L95.7052726,18.7877766 C96.8423809,23.1051899 97.9794893,27.4223369 99.1165976,31.7394839 L98.8484142,31.867281 C85.6983452,24.0974814 72.5482762,16.3274155 59.1644816,8.41943512 Z M56.1719928,9.04643982 C42.6800167,23.3123277 29.1883076,37.5782156 15.5889513,51.9577897 C24.8108278,57.4663788 33.7976432,62.8346573 42.943392,68.2979849 C43.1215577,68.0186949 43.2209244,67.8131545 43.3648994,67.6451545 C49.37552,60.6341503 55.3837366,53.6207499 61.4165277,46.6286491 C61.9229777,46.041581 61.9203065,45.4614352 61.8180015,44.7830454 C60.6800918,37.2435468 59.5536681,29.7024508 58.4235047,22.1618872 C57.7744154,17.8322267 57.1239905,13.5028325 56.4743669,9.17343823 C56.3733975,9.13110543 56.2726951,9.08877263 56.1719928,9.04643982 Z M40.9814327,32.3508335 C42.3124665,33.1508968 43.6376238,33.9610774 44.9657193,34.7667318 C49.4807633,37.5055842 54.0008825,40.2367155 58.5049748,42.9936725 C58.9983361,43.2958595 59.3995428,43.7471431 59.6784108,43.9872953 C59.7174095,45.0970004 58.9499883,45.7013744 58.1307467,45.4761319 C57.7554502,45.3728292 57.4092693,45.1406644 57.069499,44.9345915 C51.2642898,41.4132479 45.4612175,37.8881769 39.6602822,34.359911 C38.6604709,33.7518096 38.3706512,33.1210775 38.758235,32.4621235 C39.1589074,31.7810712 39.957314,31.7352773 40.9814327,32.3508335 Z M83.1776081,27.0006862 C83.040311,27.2091553 82.8442487,27.6042614 82.5608397,27.9221568 C78.071973,32.9536366 73.5721545,37.9752653 69.0739387,42.9982253 C68.8372749,43.2626056 68.6067547,43.5349733 68.3476532,43.7761904 C67.775493,44.3089447 67.1336157,44.3701808 66.5617226,43.8321016 C66.0125343,43.3147895 66.1175105,42.7192015 66.5937764,42.1797911 C67.8850101,40.7162477 69.1738397,39.2505743 70.4741553,37.7950181 C73.8133593,34.0564194 77.1552344,30.3202168 80.5059244,26.5917354 C80.7976139,26.2671839 81.1216243,25.9287877 81.5014618,25.7338971 C82.2907865,25.3289399 83.2032512,25.9325151 83.1776081,27.0006862 Z" id="Lightbox-Logo-Copy-2" fill="#1F2937"></path>
    </g>
</svg>