<svg viewBox="0 0 56 56" xmlns="http://www.w3.org/2000/svg" class="fa-lock"><path d="m8.72448281 20.9387588v-5.2346897c0-8.67322638 7.03411429-15.7040691 15.70406909-15.7040691s15.704069 7.03084272 15.704069 15.7040691v5.2346897h1.7448966c3.8496767 0 6.9795863 3.1299078 6.9795863 6.9795862v20.9387588c0 3.8496767-3.1299096 6.9795862-6.9795863 6.9795862h-34.89793125c-3.85513151 0-6.97958625-3.1299095-6.97958625-6.9795862v-20.9387588c0-3.8496784 3.12445474-6.9795862 6.97958625-6.9795862zm6.97958629 0h17.4489656v-5.2346897c0-4.8180949-3.9042047-8.72448285-8.7244828-8.72448285-4.8202764 0-8.7244828 3.90638795-8.7244828 8.72448285z" transform="translate(4 .1429)"/></svg>