<?xml version="1.0" encoding="UTF-8"?>
<svg width="40px" height="41px" viewBox="0 0 40 41" version="1.1" xmlns="http://www.w3.org/2000/svg" xmlns:xlink="http://www.w3.org/1999/xlink">
    <title>Group 21</title>
    <g id="Page-1" stroke="none" stroke-width="1" fill="none" fill-rule="evenodd">
        <g id="Artboard-Copy-12" transform="translate(-190.000000, -1827.000000)">
            <g id="Group-24-Copy-5" transform="translate(130.000000, 1435.000000)">
                <g id="Group-22-Copy" transform="translate(60.000000, 389.820802)">
                    <g id="Group-21" transform="translate(0.000000, 3.000000)">
                        <circle id="Oval" fill="#8250DF" cx="20" cy="20" r="20"></circle>
                        <path d="M13.9126214,10.1534036 C15.5212177,10.1534036 16.8252427,11.4574286 16.8252427,13.066025 C16.8252427,14.4818294 15.8150638,15.661694 14.4761516,15.9241729 L14.4761516,24.285547 C15.8150638,24.5480259 16.8252427,25.7278904 16.8252427,27.1436949 C16.8252427,28.7522912 15.5212177,30.0563162 13.9126214,30.0563162 C12.304025,30.0563162 11,28.7522912 11,27.1436949 C11,25.6837718 12.0741173,24.4747223 13.4751957,24.2637023 L13.4751957,15.9460175 C12.0741173,15.7349976 11,14.525948 11,13.066025 C11,11.4574286 12.304025,10.1534036 13.9126214,10.1534036 Z M22.4597606,15.3596681 C22.6443467,15.5442542 22.6492042,15.8405093 22.4743332,16.0309727 L22.4597606,16.0461795 C22.2751745,16.2307656 21.9789194,16.2356232 21.788456,16.0607521 L21.7732491,16.0461795 L19.1645057,13.4374361 C18.9799196,13.25285 18.9750621,12.9565949 19.1499331,12.7661315 L19.1645057,12.7509246 L21.7732491,10.1421812 C21.962824,9.95260628 22.2701857,9.95260628 22.4597606,10.1421812 C22.6443467,10.3267673 22.6492042,10.6230224 22.4743332,10.8134858 L22.4597606,10.8286926 L20.708,12.58 L25.223301,12.5805881 C27.0812298,12.5805881 28.5908964,14.0716755 28.620904,15.9224532 L28.6213592,15.9786463 L28.6218596,24.2800059 C29.9751828,24.5310025 31,25.7176693 31,27.1436949 C31,28.7522912 29.695975,30.0563162 28.0873786,30.0563162 C26.4787823,30.0563162 25.1747573,28.7522912 25.1747573,27.1436949 C25.1747573,25.6837718 26.2488745,24.4747223 27.649953,24.2637023 L27.6504854,15.9786463 C27.6504854,14.6515543 26.585423,13.573221 25.2634389,13.551787 L20.651,13.551 L22.4597606,15.3596681 Z M13.9126214,25.2019473 C12.8402238,25.2019473 11.9708738,26.0712973 11.9708738,27.1436949 C11.9708738,28.2160924 12.8402238,29.0854424 13.9126214,29.0854424 C14.9850189,29.0854424 15.8543689,28.2160924 15.8543689,27.1436949 C15.8543689,26.0712973 14.9850189,25.2019473 13.9126214,25.2019473 Z M28.0873786,25.2019473 C27.0149811,25.2019473 26.1456311,26.0712973 26.1456311,27.1436949 C26.1456311,28.2160924 27.0149811,29.0854424 28.0873786,29.0854424 C29.1597762,29.0854424 30.0291262,28.2160924 30.0291262,27.1436949 C30.0291262,26.0712973 29.1597762,25.2019473 28.0873786,25.2019473 Z M13.9126214,11.1242774 C12.8402238,11.1242774 11.9708738,11.9936274 11.9708738,13.066025 C11.9708738,14.1384225 12.8402238,15.0077725 13.9126214,15.0077725 C14.9850189,15.0077725 15.8543689,14.1384225 15.8543689,13.066025 C15.8543689,11.9936274 14.9850189,11.1242774 13.9126214,11.1242774 Z" id="Combined-Shape-Copy-22" stroke="#FFFFFF" fill="#FFFFFF" fill-rule="nonzero"></path>
                    </g>
                </g>
            </g>
        </g>
    </g>
</svg>