<?xml version="1.0" encoding="UTF-8"?>
<svg width="324px" height="171px" viewBox="0 0 324 171" version="1.1" xmlns="http://www.w3.org/2000/svg" xmlns:xlink="http://www.w3.org/1999/xlink">
    <title>movie-ticket-expand</title>
    <g id="movie-ticket-expand" stroke="none" stroke-width="1" fill="none" fill-rule="evenodd">
        <path d="M304,0 C304,11.045695 312.954305,20 324,20 L324,20 L324,51 C318.477153,51 314,55.4771525 314,61 C314,66.5228475 318.477153,71 324,71 L324,71 L324,76 C318.477153,76 314,80.4771525 314,86 C314,91.5228475 318.477153,96 324,96 L324,96 L324,101 C318.477153,101 314,105.477153 314,111 C314,116.522847 318.477153,121 324,121 L324,121 L324,151 C312.954305,151 304,159.954305 304,171 L304,171 L20,171 C20,159.954305 11.045695,151 0,151 L0,151 L0,121 C5.5228475,121 10,116.522847 10,111 C10,105.477153 5.5228475,101 0,101 L0,101 L0,96 C5.5228475,96 10,91.5228475 10,86 C10,80.4771525 5.5228475,76 0,76 L0,76 L0,71 C5.5228475,71 10,66.5228475 10,61 C10,55.4771525 5.5228475,51 0,51 L0,51 L0,20 C11.045695,20 20,11.045695 20,0 L20,0 Z" id="Combined-Shape" fill="#016A92"></path>
        <path d="M292,17.5 C298.800521,17.5 304.332651,22.9306294 304.496274,29.6917732 L304.5,30 L304.5,142 C304.5,148.800521 299.069371,154.332651 292.308227,154.496274 L292,154.5 L33,154.5 C26.1994788,154.5 20.6673491,149.069371 20.5037258,142.308227 L20.5,142 L20.5,30 C20.5,23.1994788 25.9306294,17.6673491 32.6917732,17.5037258 L33,17.5 L292,17.5 Z M60,20.5 L33,20.5 C27.8437553,20.5 23.6469606,24.6078939 23.5037764,29.7295213 L23.5,30 L23.5,142 C23.5,147.156245 27.6078939,151.353039 32.7295213,151.496224 L33,151.5 L60,151.5 L60,20.5 Z M262,20.5 L63,20.5 L63,151.5 L262,151.5 L262,20.5 Z M292,20.5 L265,20.5 L265,151.5 L292,151.5 C297.156245,151.5 301.353039,147.392106 301.496224,142.270479 L301.5,142 L301.5,30 C301.5,24.7532949 297.246705,20.5 292,20.5 Z" id="Combined-Shape" fill="#003F57" fill-rule="nonzero"></path>
        <path d="M84.308,102 L85.022,94.986 L89.894,94.986 L90.608,102 L97.076,102 L92.414,68.4 L82.502,68.4 L77.84,102 L84.308,102 Z M89.306,89.442 L85.61,89.442 L86.366,82.008 L86.87,73.944 L88.046,73.944 L88.55,82.008 L89.306,89.442 Z M107.282,102 C110.446,102 112.728,101.328 114.128,99.984 C115.528,98.64 116.256,96.428 116.312,93.348 C116.368,91.388 116.403,89.533 116.417,87.783 C116.431,86.033 116.431,84.283 116.417,82.533 C116.403,80.783 116.368,78.942 116.312,77.01 C116.256,73.93 115.528,71.725 114.128,70.395 C112.728,69.065 110.446,68.4 107.282,68.4 L107.282,68.4 L98.756,68.4 L98.756,102 L107.282,102 Z M107.282,96.456 L105.056,96.456 L105.056,73.944 L107.282,73.944 C109.046,73.944 109.956,74.714 110.012,76.254 C110.18,82.19 110.18,88.14 110.012,94.104 C109.956,95.672 109.046,96.456 107.282,96.456 L107.282,96.456 Z M125.216,102 L125.216,91.668 L124.04,73.944 L125.132,73.944 L126.938,92.088 L129.5,102 L136.262,102 L138.866,92.088 L140.63,73.944 L141.764,73.944 L140.546,91.668 L140.546,102 L146.846,102 L146.846,68.4 L136.766,68.4 L133.952,81.126 L133.448,96.456 L132.356,96.456 L131.81,81.126 L129.038,68.4 L118.916,68.4 L118.916,102 L125.216,102 Z M156.506,102 L156.506,68.4 L150.206,68.4 L150.206,102 L156.506,102 Z M170.324,102 L170.324,73.944 L175.7,73.944 L175.7,68.4 L158.606,68.4 L158.606,73.944 L164.024,73.944 L164.024,102 L170.324,102 Z M196.406,102.42 C199.486,102.42 201.698,101.769 203.042,100.467 C204.386,99.165 205.114,97.002 205.226,93.978 C205.338,91.234 205.394,88.315 205.394,85.221 C205.394,82.127 205.338,79.18 205.226,76.38 C205.114,73.384 204.386,71.235 203.042,69.933 C201.698,68.631 199.486,67.98 196.406,67.98 C193.326,67.98 191.093,68.631 189.707,69.933 C188.321,71.235 187.6,73.384 187.544,76.38 C187.488,79.124 187.46,82.057 187.46,85.179 C187.46,88.301 187.488,91.234 187.544,93.978 C187.6,97.002 188.321,99.165 189.707,100.467 C191.093,101.769 193.326,102.42 196.406,102.42 Z M196.406,97.296 C194.754,97.296 193.9,96.582 193.844,95.154 C193.788,93.726 193.746,92.158 193.718,90.45 C193.69,88.742 193.676,86.985 193.676,85.179 C193.676,83.373 193.69,81.616 193.718,79.908 C193.746,78.2 193.788,76.632 193.844,75.204 C193.9,73.804 194.754,73.104 196.406,73.104 C198.03,73.104 198.87,73.804 198.926,75.204 C198.982,76.632 199.031,78.2 199.073,79.908 C199.115,81.616 199.136,83.373 199.136,85.179 C199.136,86.985 199.115,88.742 199.073,90.45 C199.031,92.158 198.982,93.726 198.926,95.154 C198.87,96.582 198.03,97.296 196.406,97.296 Z M214.004,102 L213.458,89.106 L212.366,73.902 L213.542,73.902 L215.264,90.996 L217.784,102 L227.36,102 L227.36,68.4 L221.27,68.4 L221.774,82.806 L222.95,96.456 L221.858,96.456 L219.548,79.11 L217.028,68.4 L207.914,68.4 L207.914,102 L214.004,102 Z M245.252,102 L245.252,96.456 L237.02,96.456 L237.02,87.678 L244.832,87.678 L244.832,82.134 L237.02,82.134 L237.02,73.944 L245.252,73.944 L245.252,68.4 L230.72,68.4 L230.72,102 L245.252,102 Z" id="ADMITONE" fill="#003F57" fill-rule="nonzero"></path>
        <path d="M109.608,127 C110.2,127 110.628,126.872 110.892,126.616 C111.156,126.36 111.296,125.936 111.312,125.344 C111.32,125.024 111.324,124.726 111.324,124.45 C111.324,124.174 111.32,123.872 111.312,123.544 C111.304,123.192 111.238,122.916 111.114,122.716 C110.99,122.516 110.8,122.372 110.544,122.284 L110.544,122.284 L110.544,122.056 C110.792,121.968 110.976,121.824 111.096,121.624 C111.216,121.424 111.284,121.152 111.3,120.808 C111.308,120.552 111.314,120.286 111.318,120.01 C111.322,119.734 111.32,119.416 111.312,119.056 C111.304,118.464 111.164,118.04 110.892,117.784 C110.62,117.528 110.188,117.4 109.596,117.4 L109.596,117.4 L108.072,117.4 L108.072,127 L109.608,127 Z M109.596,121.744 L108.996,121.744 L108.996,118.228 L109.596,118.228 C110.108,118.228 110.372,118.488 110.388,119.008 C110.404,119.6 110.404,120.192 110.388,120.784 C110.372,121.424 110.108,121.744 109.596,121.744 L109.596,121.744 Z M109.608,126.172 L108.996,126.172 L108.996,122.572 L109.572,122.572 C109.852,122.572 110.058,122.65 110.19,122.806 C110.322,122.962 110.388,123.22 110.388,123.58 C110.412,124.164 110.412,124.748 110.388,125.332 C110.38,125.892 110.12,126.172 109.608,126.172 L109.608,126.172 Z M113.256,127 L113.256,123.388 L113.928,123.388 L114.804,127 L115.788,127 L114.804,123.232 C115.316,123.024 115.584,122.524 115.608,121.732 C115.632,121.308 115.644,120.884 115.644,120.46 C115.644,120.036 115.632,119.568 115.608,119.056 C115.584,118.464 115.44,118.04 115.176,117.784 C114.912,117.528 114.488,117.4 113.904,117.4 L113.904,117.4 L112.332,117.4 L112.332,127 L113.256,127 Z M113.892,122.56 L113.256,122.56 L113.256,118.228 L113.904,118.228 C114.168,118.228 114.362,118.292 114.486,118.42 C114.61,118.548 114.676,118.744 114.684,119.008 C114.724,119.936 114.724,120.86 114.684,121.78 C114.676,122.044 114.61,122.24 114.486,122.368 C114.362,122.496 114.164,122.56 113.892,122.56 L113.892,122.56 Z M118.344,127.084 C118.936,127.084 119.362,126.956 119.622,126.7 C119.882,126.444 120.02,126.02 120.036,125.428 C120.052,124.324 120.06,123.25 120.06,122.206 C120.06,121.162 120.052,120.084 120.036,118.972 C120.02,118.38 119.882,117.956 119.622,117.7 C119.362,117.444 118.936,117.316 118.344,117.316 C117.744,117.316 117.312,117.444 117.048,117.7 C116.784,117.956 116.648,118.38 116.64,118.972 C116.616,120.076 116.604,121.152 116.604,122.2 C116.604,123.248 116.616,124.324 116.64,125.428 C116.648,126.02 116.784,126.444 117.048,126.7 C117.312,126.956 117.744,127.084 118.344,127.084 Z M118.344,126.316 C118.072,126.316 117.874,126.258 117.75,126.142 C117.626,126.026 117.564,125.836 117.564,125.572 C117.532,124.444 117.516,123.314 117.516,122.182 C117.516,121.05 117.532,119.932 117.564,118.828 C117.564,118.564 117.626,118.374 117.75,118.258 C117.874,118.142 118.072,118.084 118.344,118.084 C118.608,118.084 118.8,118.142 118.92,118.258 C119.04,118.374 119.104,118.564 119.112,118.828 C119.136,119.932 119.15,121.05 119.154,122.182 C119.158,123.314 119.144,124.444 119.112,125.572 C119.104,125.836 119.042,126.026 118.926,126.142 C118.81,126.258 118.616,126.316 118.344,126.316 Z M122.892,127.084 C123.492,127.084 123.922,126.956 124.182,126.7 C124.442,126.444 124.576,126.02 124.584,125.428 C124.608,122.748 124.608,120.072 124.584,117.4 L124.584,117.4 L123.66,117.4 C123.676,118.736 123.682,120.098 123.678,121.486 C123.674,122.874 123.668,124.236 123.66,125.572 C123.66,126.068 123.404,126.316 122.892,126.316 C122.38,126.316 122.124,126.068 122.124,125.572 C122.116,124.236 122.11,122.874 122.106,121.486 C122.102,120.098 122.112,118.736 122.136,117.4 L122.136,117.4 L121.212,117.4 C121.18,120.072 121.18,122.748 121.212,125.428 C121.22,126.02 121.354,126.444 121.614,126.7 C121.874,126.956 122.3,127.084 122.892,127.084 Z M127.5,127.084 C128.084,127.084 128.508,126.954 128.772,126.694 C129.036,126.434 129.18,126.004 129.204,125.404 C129.212,124.868 129.218,124.392 129.222,123.976 C129.226,123.56 129.22,123.192 129.204,122.872 L129.204,122.872 L127.524,122.872 L127.524,123.688 L128.304,123.688 C128.32,124.312 128.32,124.932 128.304,125.548 C128.28,126.06 128.012,126.316 127.5,126.316 C126.996,126.316 126.74,126.06 126.732,125.548 C126.676,123.316 126.676,121.08 126.732,118.84 C126.748,118.336 127,118.084 127.488,118.084 C127.968,118.084 128.22,118.336 128.244,118.84 C128.268,119.48 128.268,120.12 128.244,120.76 L128.244,120.76 L129.168,120.76 C129.192,120.168 129.192,119.58 129.168,118.996 C129.136,118.396 128.99,117.966 128.73,117.706 C128.47,117.446 128.056,117.316 127.488,117.316 C126.904,117.316 126.482,117.448 126.222,117.712 C125.962,117.976 125.824,118.42 125.808,119.044 C125.76,121.148 125.76,123.268 125.808,125.404 C125.824,126.004 125.96,126.434 126.216,126.694 C126.472,126.954 126.9,127.084 127.5,127.084 Z M131.028,127 L131.028,122.572 L132.528,122.572 L132.528,127 L133.452,127 L133.452,117.4 L132.528,117.4 L132.528,121.744 L131.028,121.744 L131.028,117.4 L130.104,117.4 L130.104,127 L131.028,127 Z M136.44,127 L136.44,118.228 L137.7,118.228 L137.7,117.4 L134.256,117.4 L134.256,118.228 L135.516,118.228 L135.516,127 L136.44,127 Z M105.732,138 L105.732,129.228 L106.992,129.228 L106.992,128.4 L103.548,128.4 L103.548,129.228 L104.808,129.228 L104.808,138 L105.732,138 Z M109.356,138.084 C109.948,138.084 110.374,137.956 110.634,137.7 C110.894,137.444 111.032,137.02 111.048,136.428 C111.064,135.324 111.072,134.25 111.072,133.206 C111.072,132.162 111.064,131.084 111.048,129.972 C111.032,129.38 110.894,128.956 110.634,128.7 C110.374,128.444 109.948,128.316 109.356,128.316 C108.756,128.316 108.324,128.444 108.06,128.7 C107.796,128.956 107.66,129.38 107.652,129.972 C107.628,131.076 107.616,132.152 107.616,133.2 C107.616,134.248 107.628,135.324 107.652,136.428 C107.66,137.02 107.796,137.444 108.06,137.7 C108.324,137.956 108.756,138.084 109.356,138.084 Z M109.356,137.316 C109.084,137.316 108.886,137.258 108.762,137.142 C108.638,137.026 108.576,136.836 108.576,136.572 C108.544,135.444 108.528,134.314 108.528,133.182 C108.528,132.05 108.544,130.932 108.576,129.828 C108.576,129.564 108.638,129.374 108.762,129.258 C108.886,129.142 109.084,129.084 109.356,129.084 C109.62,129.084 109.812,129.142 109.932,129.258 C110.052,129.374 110.116,129.564 110.124,129.828 C110.148,130.932 110.162,132.05 110.166,133.182 C110.17,134.314 110.156,135.444 110.124,136.572 C110.116,136.836 110.054,137.026 109.938,137.142 C109.822,137.258 109.628,137.316 109.356,137.316 Z M116.592,138 L116.592,135.516 L116.688,135.06 L117.96,128.4 L117.024,128.4 L116.58,131.064 L116.244,133.812 L116.016,133.812 L115.68,131.064 L115.248,128.4 L114.3,128.4 L115.572,135.072 L115.668,135.516 L115.668,138 L116.592,138 Z M120.3,138.084 C120.892,138.084 121.318,137.956 121.578,137.7 C121.838,137.444 121.976,137.02 121.992,136.428 C122.008,135.324 122.016,134.25 122.016,133.206 C122.016,132.162 122.008,131.084 121.992,129.972 C121.976,129.38 121.838,128.956 121.578,128.7 C121.318,128.444 120.892,128.316 120.3,128.316 C119.7,128.316 119.268,128.444 119.004,128.7 C118.74,128.956 118.604,129.38 118.596,129.972 C118.572,131.076 118.56,132.152 118.56,133.2 C118.56,134.248 118.572,135.324 118.596,136.428 C118.604,137.02 118.74,137.444 119.004,137.7 C119.268,137.956 119.7,138.084 120.3,138.084 Z M120.3,137.316 C120.028,137.316 119.83,137.258 119.706,137.142 C119.582,137.026 119.52,136.836 119.52,136.572 C119.488,135.444 119.472,134.314 119.472,133.182 C119.472,132.05 119.488,130.932 119.52,129.828 C119.52,129.564 119.582,129.374 119.706,129.258 C119.83,129.142 120.028,129.084 120.3,129.084 C120.564,129.084 120.756,129.142 120.876,129.258 C120.996,129.374 121.06,129.564 121.068,129.828 C121.092,130.932 121.106,132.05 121.11,133.182 C121.114,134.314 121.1,135.444 121.068,136.572 C121.06,136.836 120.998,137.026 120.882,137.142 C120.766,137.258 120.572,137.316 120.3,137.316 Z M124.848,138.084 C125.448,138.084 125.878,137.956 126.138,137.7 C126.398,137.444 126.532,137.02 126.54,136.428 C126.564,133.748 126.564,131.072 126.54,128.4 L126.54,128.4 L125.616,128.4 C125.632,129.736 125.638,131.098 125.634,132.486 C125.63,133.874 125.624,135.236 125.616,136.572 C125.616,137.068 125.36,137.316 124.848,137.316 C124.336,137.316 124.08,137.068 124.08,136.572 C124.072,135.236 124.066,133.874 124.062,132.486 C124.058,131.098 124.068,129.736 124.092,128.4 L124.092,128.4 L123.168,128.4 C123.136,131.072 123.136,133.748 123.168,136.428 C123.176,137.02 123.31,137.444 123.57,137.7 C123.83,137.956 124.256,138.084 124.848,138.084 Z M131.82,138 C132.412,138 132.84,137.872 133.104,137.616 C133.368,137.36 133.508,136.936 133.524,136.344 C133.532,136.024 133.536,135.726 133.536,135.45 C133.536,135.174 133.532,134.872 133.524,134.544 C133.516,134.192 133.45,133.916 133.326,133.716 C133.202,133.516 133.012,133.372 132.756,133.284 L132.756,133.284 L132.756,133.056 C133.004,132.968 133.188,132.824 133.308,132.624 C133.428,132.424 133.496,132.152 133.512,131.808 C133.52,131.552 133.526,131.286 133.53,131.01 C133.534,130.734 133.532,130.416 133.524,130.056 C133.516,129.464 133.376,129.04 133.104,128.784 C132.832,128.528 132.4,128.4 131.808,128.4 L131.808,128.4 L130.284,128.4 L130.284,138 L131.82,138 Z M131.808,132.744 L131.208,132.744 L131.208,129.228 L131.808,129.228 C132.32,129.228 132.584,129.488 132.6,130.008 C132.616,130.6 132.616,131.192 132.6,131.784 C132.584,132.424 132.32,132.744 131.808,132.744 L131.808,132.744 Z M131.82,137.172 L131.208,137.172 L131.208,133.572 L131.784,133.572 C132.064,133.572 132.27,133.65 132.402,133.806 C132.534,133.962 132.6,134.22 132.6,134.58 C132.624,135.164 132.624,135.748 132.6,136.332 C132.592,136.892 132.332,137.172 131.82,137.172 L131.82,137.172 Z M136.32,138 L136.32,135.516 L136.416,135.06 L137.688,128.4 L136.752,128.4 L136.308,131.064 L135.972,133.812 L135.744,133.812 L135.408,131.064 L134.976,128.4 L134.028,128.4 L135.3,135.072 L135.396,135.516 L135.396,138 L136.32,138 Z" id="BROUGHTTOYOUBY" fill="#003F57" fill-rule="nonzero"></path>
        <path d="M148.032,137 L148.032,135.344 L144.072,135.344 L144.072,117.8 L142.224,117.8 L142.224,137 L148.032,137 Z M155.256,137 L155.256,135.344 L151.32,135.344 L151.32,128.144 L155.016,128.144 L155.016,126.488 L151.32,126.488 L151.32,119.456 L155.256,119.456 L155.256,117.8 L149.472,117.8 L149.472,137 L155.256,137 Z M160.896,137 L160.896,119.456 L163.416,119.456 L163.416,117.8 L156.528,117.8 L156.528,119.456 L159.048,119.456 L159.048,137 L160.896,137 Z M167.856,137 L167.856,119.456 L170.376,119.456 L170.376,117.8 L163.488,117.8 L163.488,119.456 L166.008,119.456 L166.008,137 L167.856,137 Z M177.648,137 L177.648,135.344 L173.712,135.344 L173.712,128.144 L177.408,128.144 L177.408,126.488 L173.712,126.488 L173.712,119.456 L177.648,119.456 L177.648,117.8 L171.864,117.8 L171.864,137 L177.648,137 Z M181.224,137 L181.224,129.776 L182.568,129.776 L184.32,137 L186.288,137 L184.32,129.464 C185.344,129.048 185.88,128.048 185.928,126.464 C185.976,125.616 186,124.768 186,123.92 C186,123.072 185.976,122.136 185.928,121.112 C185.88,119.928 185.592,119.08 185.064,118.568 C184.536,118.056 183.688,117.8 182.52,117.8 L182.52,117.8 L179.376,117.8 L179.376,137 L181.224,137 Z M182.496,128.12 L181.224,128.12 L181.224,119.456 L182.52,119.456 C183.048,119.456 183.436,119.584 183.684,119.84 C183.932,120.096 184.064,120.488 184.08,121.016 C184.16,122.872 184.16,124.72 184.08,126.56 C184.064,127.088 183.932,127.48 183.684,127.736 C183.436,127.992 183.04,128.12 182.496,128.12 L182.496,128.12 Z M191.064,137 C192.248,137 193.104,136.744 193.632,136.232 C194.16,135.72 194.44,134.872 194.472,133.688 C194.488,133.048 194.496,132.452 194.496,131.9 C194.496,131.348 194.488,130.744 194.472,130.088 C194.456,129.384 194.324,128.832 194.076,128.432 C193.828,128.032 193.448,127.744 192.936,127.568 L192.936,127.568 L192.936,127.112 C193.432,126.936 193.8,126.648 194.04,126.248 C194.28,125.848 194.416,125.304 194.448,124.616 C194.464,124.104 194.476,123.572 194.484,123.02 C194.492,122.468 194.488,121.832 194.472,121.112 C194.456,119.928 194.176,119.08 193.632,118.568 C193.088,118.056 192.224,117.8 191.04,117.8 L191.04,117.8 L187.992,117.8 L187.992,137 L191.064,137 Z M191.04,126.488 L189.84,126.488 L189.84,119.456 L191.04,119.456 C192.064,119.456 192.592,119.976 192.624,121.016 C192.656,122.2 192.656,123.384 192.624,124.568 C192.592,125.848 192.064,126.488 191.04,126.488 L191.04,126.488 Z M191.064,135.344 L189.84,135.344 L189.84,128.144 L190.992,128.144 C191.552,128.144 191.964,128.3 192.228,128.612 C192.492,128.924 192.624,129.44 192.624,130.16 C192.672,131.328 192.672,132.496 192.624,133.664 C192.608,134.784 192.088,135.344 191.064,135.344 L191.064,135.344 Z M199.872,137.168 C201.056,137.168 201.908,136.912 202.428,136.4 C202.948,135.888 203.224,135.04 203.256,133.856 C203.288,131.648 203.304,129.5 203.304,127.412 C203.304,125.324 203.288,123.168 203.256,120.944 C203.224,119.76 202.948,118.912 202.428,118.4 C201.908,117.888 201.056,117.632 199.872,117.632 C198.672,117.632 197.808,117.888 197.28,118.4 C196.752,118.912 196.48,119.76 196.464,120.944 C196.416,123.152 196.392,125.304 196.392,127.4 C196.392,129.496 196.416,131.648 196.464,133.856 C196.48,135.04 196.752,135.888 197.28,136.4 C197.808,136.912 198.672,137.168 199.872,137.168 Z M199.872,135.632 C199.328,135.632 198.932,135.516 198.684,135.284 C198.436,135.052 198.312,134.672 198.312,134.144 C198.248,131.888 198.216,129.628 198.216,127.364 C198.216,125.1 198.248,122.864 198.312,120.656 C198.312,120.128 198.436,119.748 198.684,119.516 C198.932,119.284 199.328,119.168 199.872,119.168 C200.4,119.168 200.784,119.284 201.024,119.516 C201.264,119.748 201.392,120.128 201.408,120.656 C201.456,122.864 201.484,125.1 201.492,127.364 C201.5,129.628 201.472,131.888 201.408,134.144 C201.392,134.672 201.268,135.052 201.036,135.284 C200.804,135.516 200.416,135.632 199.872,135.632 Z M206.64,137 L207.72,132.248 L208.344,128.096 L208.632,128.096 L209.28,132.248 L210.336,137 L212.136,137 L209.832,127.232 L212.04,117.8 L210.24,117.8 L209.28,122.216 L208.632,126.44 L208.344,126.44 L207.72,122.216 L206.736,117.8 L204.936,117.8 L207.192,127.184 L204.84,137 L206.64,137 Z M217.248,137 C218.448,137 219.312,136.736 219.84,136.208 C220.368,135.68 220.648,134.808 220.68,133.592 C220.696,132.12 220.708,130.72 220.716,129.392 C220.724,128.064 220.724,126.736 220.716,125.408 C220.708,124.08 220.696,122.68 220.68,121.208 C220.648,119.992 220.368,119.12 219.84,118.592 C219.312,118.064 218.448,117.8 217.248,117.8 L217.248,117.8 L213.96,117.8 L213.96,137 L217.248,137 Z M217.248,135.344 L215.808,135.344 L215.808,119.456 L217.248,119.456 C218.288,119.456 218.816,119.976 218.832,121.016 C218.896,125.272 218.896,129.52 218.832,133.76 C218.816,134.304 218.684,134.704 218.436,134.96 C218.188,135.216 217.792,135.344 217.248,135.344 L217.248,135.344 Z" id="LETTERBOXD" fill="#003F57" fill-rule="nonzero"></path>
        <path d="M105.072,54 L105.072,48.384 L104.784,36.456 L105.312,36.456 L106.608,48.48 L107.472,53.928 L110.112,53.928 L110.976,48.48 L112.296,36.456 L112.8,36.456 L112.512,48.288 L112.512,54 L114.36,54 L114.36,34.8 L110.952,34.8 L109.848,42.6 L109.032,52.272 L108.576,52.272 L107.736,42.6 L106.656,34.8 L103.224,34.8 L103.224,54 L105.072,54 Z M120.192,54.168 C121.376,54.168 122.228,53.912 122.748,53.4 C123.268,52.888 123.544,52.04 123.576,50.856 C123.608,48.648 123.624,46.5 123.624,44.412 C123.624,42.324 123.608,40.168 123.576,37.944 C123.544,36.76 123.268,35.912 122.748,35.4 C122.228,34.888 121.376,34.632 120.192,34.632 C118.992,34.632 118.128,34.888 117.6,35.4 C117.072,35.912 116.8,36.76 116.784,37.944 C116.736,40.152 116.712,42.304 116.712,44.4 C116.712,46.496 116.736,48.648 116.784,50.856 C116.8,52.04 117.072,52.888 117.6,53.4 C118.128,53.912 118.992,54.168 120.192,54.168 Z M120.192,52.632 C119.648,52.632 119.252,52.516 119.004,52.284 C118.756,52.052 118.632,51.672 118.632,51.144 C118.568,48.888 118.536,46.628 118.536,44.364 C118.536,42.1 118.568,39.864 118.632,37.656 C118.632,37.128 118.756,36.748 119.004,36.516 C119.252,36.284 119.648,36.168 120.192,36.168 C120.72,36.168 121.104,36.284 121.344,36.516 C121.584,36.748 121.712,37.128 121.728,37.656 C121.776,39.864 121.804,42.1 121.812,44.364 C121.82,46.628 121.792,48.888 121.728,51.144 C121.712,51.672 121.588,52.052 121.356,52.284 C121.124,52.516 120.736,52.632 120.192,52.632 Z M130.536,54 L132.744,34.8 L130.824,34.8 L129.696,45.336 L129.168,52.344 L128.712,52.344 L128.208,45.336 L127.08,34.8 L125.16,34.8 L127.368,54 L130.536,54 Z M136.296,54 L136.296,34.8 L134.448,34.8 L134.448,54 L136.296,54 Z M144.528,54 L144.528,52.344 L140.592,52.344 L140.592,45.144 L144.288,45.144 L144.288,43.488 L140.592,43.488 L140.592,36.456 L144.528,36.456 L144.528,34.8 L138.744,34.8 L138.744,54 L144.528,54 Z M152.592,54 L153.096,48.624 L155.904,48.624 L156.384,54 L158.28,54 L156.144,34.8 L152.832,34.8 L150.72,54 L152.592,54 Z M155.736,46.968 L153.264,46.968 L153.648,42.768 L154.152,36.456 L154.824,36.456 L155.328,42.768 L155.736,46.968 Z M161.568,54 L161.424,46.728 L161.16,36.456 L161.688,36.456 L163.224,47.184 L164.4,54 L167.64,54 L167.64,34.8 L165.84,34.8 L165.984,41.712 L166.272,52.344 L165.744,52.344 L164.016,40.896 L162.936,34.8 L159.768,34.8 L159.768,54 L161.568,54 Z M171.144,54 L171.648,48.624 L174.456,48.624 L174.936,54 L176.832,54 L174.696,34.8 L171.384,34.8 L169.272,54 L171.144,54 Z M174.288,46.968 L171.816,46.968 L172.2,42.768 L172.704,36.456 L173.376,36.456 L173.88,42.768 L174.288,46.968 Z M184.128,54 L184.128,52.344 L180.168,52.344 L180.168,34.8 L178.32,34.8 L178.32,54 L184.128,54 Z M188.088,54 L188.088,49.032 L188.28,48.12 L190.824,34.8 L188.952,34.8 L188.064,40.128 L187.392,45.624 L186.936,45.624 L186.264,40.128 L185.4,34.8 L183.504,34.8 L186.048,48.144 L186.24,49.032 L186.24,54 L188.088,54 Z M196.224,54 L196.224,36.456 L198.744,36.456 L198.744,34.8 L191.856,34.8 L191.856,36.456 L194.376,36.456 L194.376,54 L196.224,54 Z M202.08,54 L202.08,34.8 L200.232,34.8 L200.232,54 L202.08,54 Z M207.84,54.192 C209.04,54.192 209.908,53.932 210.444,53.412 C210.98,52.892 211.264,52.024 211.296,50.808 C211.328,50.168 211.34,49.54 211.332,48.924 C211.324,48.308 211.312,47.68 211.296,47.04 L211.296,47.04 L209.448,47.04 C209.464,47.664 209.472,48.344 209.472,49.08 L209.472,49.08 L209.472,51.12 C209.456,51.648 209.32,52.032 209.064,52.272 C208.808,52.512 208.4,52.632 207.84,52.632 C207.328,52.632 206.952,52.512 206.712,52.272 C206.472,52.032 206.344,51.648 206.328,51.12 C206.28,48.832 206.256,46.596 206.256,44.412 C206.256,42.228 206.28,39.992 206.328,37.704 C206.344,37.16 206.472,36.772 206.712,36.54 C206.952,36.308 207.32,36.192 207.816,36.192 C208.36,36.192 208.752,36.308 208.992,36.54 C209.232,36.772 209.36,37.16 209.376,37.704 L209.376,37.704 L209.376,39.624 C209.376,40.312 209.368,40.952 209.352,41.544 L209.352,41.544 L211.2,41.544 C211.216,41.24 211.224,40.868 211.224,40.428 L211.224,40.428 L211.224,39.108 C211.224,38.668 211.216,38.296 211.2,37.992 C211.168,36.792 210.888,35.932 210.36,35.412 C209.832,34.892 208.984,34.632 207.816,34.632 C206.664,34.632 205.824,34.916 205.296,35.484 C204.768,36.052 204.496,36.888 204.48,37.992 C204.416,42.264 204.416,46.536 204.48,50.808 C204.512,52.024 204.784,52.892 205.296,53.412 C205.808,53.932 206.656,54.192 207.84,54.192 Z M216.696,54.168 C217.864,54.168 218.704,53.908 219.216,53.388 C219.728,52.868 220.008,52.008 220.056,50.808 C220.072,50.408 220.08,50.056 220.08,49.752 L220.08,49.752 L220.08,48.804 C220.08,48.476 220.072,48.088 220.056,47.64 C220.024,46.552 219.848,45.692 219.528,45.06 C219.208,44.428 218.552,43.992 217.56,43.752 L217.56,43.752 L216.312,43.464 C215.832,43.336 215.516,43.1 215.364,42.756 C215.212,42.412 215.128,41.904 215.112,41.232 C215.08,40.64 215.064,40.048 215.064,39.456 C215.064,38.864 215.08,38.272 215.112,37.68 C215.144,37.168 215.276,36.788 215.508,36.54 C215.74,36.292 216.128,36.168 216.672,36.168 C217.648,36.168 218.152,36.672 218.184,37.68 C218.216,38.32 218.228,38.96 218.22,39.6 C218.212,40.24 218.2,40.88 218.184,41.52 L218.184,41.52 L219.96,41.52 C219.976,40.848 219.988,40.196 219.996,39.564 C220.004,38.932 220,38.408 219.984,37.992 C219.936,36.792 219.656,35.932 219.144,35.412 C218.632,34.892 217.808,34.632 216.672,34.632 C215.456,34.632 214.592,34.888 214.08,35.4 C213.568,35.912 213.296,36.768 213.264,37.968 C213.248,38.512 213.24,39.068 213.24,39.636 L213.24,39.636 L213.24,41.232 C213.272,42.352 213.448,43.22 213.768,43.836 C214.088,44.452 214.728,44.88 215.688,45.12 L215.688,45.12 L217.032,45.456 C217.496,45.568 217.804,45.82 217.956,46.212 C218.108,46.604 218.192,47.08 218.208,47.64 C218.24,48.344 218.256,48.936 218.256,49.416 C218.256,49.896 218.24,50.456 218.208,51.096 C218.176,51.624 218.044,52.012 217.812,52.26 C217.58,52.508 217.2,52.632 216.672,52.632 C216.128,52.632 215.736,52.508 215.496,52.26 C215.256,52.012 215.12,51.624 215.088,51.096 C215.056,50.456 215.04,49.792 215.04,49.104 C215.04,48.416 215.056,47.728 215.088,47.04 L215.088,47.04 L213.336,47.04 C213.288,47.728 213.264,48.356 213.264,48.924 C213.264,49.492 213.272,50.12 213.288,50.808 C213.336,52.008 213.616,52.868 214.128,53.388 C214.64,53.908 215.496,54.168 216.696,54.168 Z" id="MOVIEANALYTICS" fill="#003F57" fill-rule="nonzero"></path>
        <path d="M-1.796,91.5 L-1.796,90.534 L-4.666,90.534 L-4.666,89.4 C-4.666,88.924 -4.603,88.476 -4.477,88.056 C-4.351,87.636 -4.15266667,87.3186667 -3.882,87.104 L-3.882,87.104 L-3.196,86.614 C-2.73866667,86.2873333 -2.39333333,85.9373333 -2.16,85.564 C-1.92666667,85.1906667 -1.79133333,84.6726667 -1.754,84.01 C-1.74466667,83.7766667 -1.74233333,83.4756667 -1.747,83.107 C-1.75166667,82.7383333 -1.75866667,82.4186667 -1.768,82.148 C-1.796,81.448 -1.96166667,80.9486667 -2.265,80.65 C-2.56833333,80.3513333 -3.07933333,80.202 -3.798,80.202 C-4.47,80.202 -4.96,80.3536667 -5.268,80.657 C-5.576,80.9603333 -5.744,81.462 -5.772,82.162 C-5.78133333,82.442 -5.78133333,82.764 -5.772,83.128 L-5.772,83.128 L-5.744,84.22 L-4.68,84.22 C-4.69866667,83.8466667 -4.708,83.4733333 -4.708,83.1 C-4.708,82.7266667 -4.70333333,82.3533333 -4.694,81.98 C-4.68466667,81.6813333 -4.61,81.4596667 -4.47,81.315 C-4.33,81.1703333 -4.106,81.098 -3.798,81.098 C-3.47133333,81.098 -3.23566667,81.1703333 -3.091,81.315 C-2.94633333,81.4596667 -2.86466667,81.6813333 -2.846,81.98 C-2.80866667,82.6613333 -2.80866667,83.3426667 -2.846,84.024 C-2.86466667,84.304 -2.91366667,84.5746667 -2.993,84.836 C-3.07233333,85.0973333 -3.25666667,85.3493333 -3.546,85.592 L-3.546,85.592 L-4.204,86.068 C-4.50266667,86.2733333 -4.76633333,86.5136667 -4.995,86.789 C-5.22366667,87.0643333 -5.40566667,87.4096667 -5.541,87.825 C-5.67633333,88.2403333 -5.74866667,88.7653333 -5.758,89.4 L-5.758,89.4 L-5.758,90.59 C-5.758,90.7206667 -5.75566667,90.8536667 -5.751,90.989 C-5.74633333,91.1243333 -5.744,91.2946667 -5.744,91.5 L-5.744,91.5 L-1.796,91.5 Z M2.332,91.598 C2.95733333,91.598 3.44033333,91.43 3.781,91.094 C4.12166667,90.758 4.29666667,90.282 4.306,89.666 C4.32466667,88.4526667 4.334,87.1973333 4.334,85.9 C4.334,84.6026667 4.32466667,83.3473333 4.306,82.134 C4.29666667,81.5086667 4.12166667,81.0303333 3.781,80.699 C3.44033333,80.3676667 2.95733333,80.202 2.332,80.202 C1.69733333,80.202 1.20966667,80.3676667 0.869,80.699 C0.528333333,81.0303333 0.353333333,81.5086667 0.344,82.134 C0.325333333,83.3473333 0.316,84.6026667 0.316,85.9 C0.316,87.1973333 0.325333333,88.4526667 0.344,89.666 C0.353333333,90.282 0.528333333,90.758 0.869,91.094 C1.20966667,91.43 1.69733333,91.598 2.332,91.598 Z M2.332,90.702 C1.73466667,90.702 1.43133333,90.4126667 1.422,89.834 C1.394,88.686 1.38,87.433 1.38,86.075 C1.38,84.717 1.394,83.3473333 1.422,81.966 C1.43133333,81.3873333 1.73466667,81.098 2.332,81.098 C2.91066667,81.098 3.20933333,81.3873333 3.228,81.966 C3.256,83.086 3.27,84.3226667 3.27,85.676 C3.27,87.0293333 3.256,88.4153333 3.228,89.834 C3.20933333,90.4126667 2.91066667,90.702 2.332,90.702 Z M10.352,91.5 L10.352,90.534 L7.482,90.534 L7.482,89.4 C7.482,88.924 7.545,88.476 7.671,88.056 C7.797,87.636 7.99533333,87.3186667 8.266,87.104 L8.266,87.104 L8.952,86.614 C9.40933333,86.2873333 9.75466667,85.9373333 9.988,85.564 C10.2213333,85.1906667 10.3566667,84.6726667 10.394,84.01 C10.4033333,83.7766667 10.4056667,83.4756667 10.401,83.107 C10.3963333,82.7383333 10.3893333,82.4186667 10.38,82.148 C10.352,81.448 10.1863333,80.9486667 9.883,80.65 C9.57966667,80.3513333 9.06866667,80.202 8.35,80.202 C7.678,80.202 7.188,80.3536667 6.88,80.657 C6.572,80.9603333 6.404,81.462 6.376,82.162 C6.36666667,82.442 6.36666667,82.764 6.376,83.128 L6.376,83.128 L6.404,84.22 L7.468,84.22 C7.44933333,83.8466667 7.44,83.4733333 7.44,83.1 C7.44,82.7266667 7.44466667,82.3533333 7.454,81.98 C7.46333333,81.6813333 7.538,81.4596667 7.678,81.315 C7.818,81.1703333 8.042,81.098 8.35,81.098 C8.67666667,81.098 8.91233333,81.1703333 9.057,81.315 C9.20166667,81.4596667 9.28333333,81.6813333 9.302,81.98 C9.33933333,82.6613333 9.33933333,83.3426667 9.302,84.024 C9.28333333,84.304 9.23433333,84.5746667 9.155,84.836 C9.07566667,85.0973333 8.89133333,85.3493333 8.602,85.592 L8.602,85.592 L7.944,86.068 C7.64533333,86.2733333 7.38166667,86.5136667 7.153,86.789 C6.92433333,87.0643333 6.74233333,87.4096667 6.607,87.825 C6.47166667,88.2403333 6.39933333,88.7653333 6.39,89.4 L6.39,89.4 L6.39,90.59 C6.39,90.7206667 6.39233333,90.8536667 6.397,90.989 C6.40166667,91.1243333 6.404,91.2946667 6.404,91.5 L6.404,91.5 L10.352,91.5 Z M13.962,91.5 L13.962,80.3 L13.094,80.3 L12.324,81 L12.366,81.434 L12.884,81.434 L12.884,91.5 L13.962,91.5 Z M21.784,91.5 L21.784,88.602 L21.896,88.07 L23.38,80.3 L22.288,80.3 L21.77,83.408 L21.378,86.614 L21.112,86.614 L20.72,83.408 L20.216,80.3 L19.11,80.3 L20.594,88.084 L20.706,88.602 L20.706,91.5 L21.784,91.5 Z M28.166,91.5 L28.166,90.534 L25.87,90.534 L25.87,86.334 L28.026,86.334 L28.026,85.368 L25.87,85.368 L25.87,81.266 L28.166,81.266 L28.166,80.3 L24.792,80.3 L24.792,91.5 L28.166,91.5 Z M30.656,91.5 L30.95,88.364 L32.588,88.364 L32.868,91.5 L33.974,91.5 L32.728,80.3 L30.796,80.3 L29.564,91.5 L30.656,91.5 Z M32.49,87.398 L31.048,87.398 L31.272,84.948 L31.566,81.266 L31.958,81.266 L32.252,84.948 L32.49,87.398 Z M36.52,91.5 L36.52,87.286 L37.304,87.286 L38.326,91.5 L39.474,91.5 L38.326,87.104 C38.9233333,86.8613333 39.236,86.278 39.264,85.354 C39.292,84.8593333 39.306,84.3646667 39.306,83.87 C39.306,83.3753333 39.292,82.8293333 39.264,82.232 C39.236,81.5413333 39.068,81.0466667 38.76,80.748 C38.452,80.4493333 37.9573333,80.3 37.276,80.3 L37.276,80.3 L35.442,80.3 L35.442,91.5 L36.52,91.5 Z M37.262,86.32 L36.52,86.32 L36.52,81.266 L37.276,81.266 C37.584,81.266 37.8103333,81.3406667 37.955,81.49 C38.0996667,81.6393333 38.1766667,81.868 38.186,82.176 C38.2326667,83.2586667 38.2326667,84.3366667 38.186,85.41 C38.1766667,85.718 38.0996667,85.9466667 37.955,86.096 C37.8103333,86.2453333 37.5793333,86.32 37.262,86.32 L37.262,86.32 Z M45.756,91.5 L45.756,80.3 L44.678,80.3 L44.678,91.5 L45.756,91.5 Z M48.834,91.5 L48.75,87.258 L48.596,81.266 L48.904,81.266 L49.8,87.524 L50.486,91.5 L52.376,91.5 L52.376,80.3 L51.326,80.3 L51.41,84.332 L51.578,90.534 L51.27,90.534 L50.262,83.856 L49.632,80.3 L47.784,80.3 L47.784,91.5 L48.834,91.5 Z M59.008,91.5 L59.008,87.286 L59.792,87.286 L60.814,91.5 L61.962,91.5 L60.814,87.104 C61.4113333,86.8613333 61.724,86.278 61.752,85.354 C61.78,84.8593333 61.794,84.3646667 61.794,83.87 C61.794,83.3753333 61.78,82.8293333 61.752,82.232 C61.724,81.5413333 61.556,81.0466667 61.248,80.748 C60.94,80.4493333 60.4453333,80.3 59.764,80.3 L59.764,80.3 L57.93,80.3 L57.93,91.5 L59.008,91.5 Z M59.75,86.32 L59.008,86.32 L59.008,81.266 L59.764,81.266 C60.072,81.266 60.2983333,81.3406667 60.443,81.49 C60.5876667,81.6393333 60.6646667,81.868 60.674,82.176 C60.7206667,83.2586667 60.7206667,84.3366667 60.674,85.41 C60.6646667,85.718 60.5876667,85.9466667 60.443,86.096 C60.2983333,86.2453333 60.0673333,86.32 59.75,86.32 L59.75,86.32 Z M66.93,91.5 L66.93,90.534 L64.634,90.534 L64.634,86.334 L66.79,86.334 L66.79,85.368 L64.634,85.368 L64.634,81.266 L66.93,81.266 L66.93,80.3 L63.556,80.3 L63.556,91.5 L66.93,91.5 Z M71.408,91.5 L72.696,80.3 L71.576,80.3 L70.918,86.446 L70.61,90.534 L70.344,90.534 L70.05,86.446 L69.392,80.3 L68.272,80.3 L69.56,91.5 L71.408,91.5 Z M75.368,91.5 L75.368,80.3 L74.29,80.3 L74.29,91.5 L75.368,91.5 Z M80.77,91.5 L80.77,90.534 L78.474,90.534 L78.474,86.334 L80.63,86.334 L80.63,85.368 L78.474,85.368 L78.474,81.266 L80.77,81.266 L80.77,80.3 L77.396,80.3 L77.396,91.5 L80.77,91.5 Z M84.926,91.5 L85.29,87.902 L85.668,81.308 L85.92,81.308 L86.298,87.902 L86.662,91.5 L88.552,91.5 L89.364,80.3 L88.286,80.3 L88.02,84.626 L87.712,90.534 L87.446,90.534 L87.124,84.626 L86.592,80.37 L84.996,80.37 L84.464,84.626 L84.142,90.534 L83.876,90.534 L83.582,84.626 L83.33,80.3 L82.238,80.3 L83.036,91.5 L84.926,91.5 Z" id="2021YEARINREVIEW" fill="#003F57" fill-rule="nonzero" transform="translate(41.792500, 85.900000) rotate(-270.000000) translate(-41.792500, -85.900000) "></path>
        <path d="M239.204,91.5 L239.204,90.534 L236.334,90.534 L236.334,89.4 C236.334,88.924 236.397,88.476 236.523,88.056 C236.649,87.636 236.847333,87.3186667 237.118,87.104 L237.118,87.104 L237.804,86.614 C238.261333,86.2873333 238.606667,85.9373333 238.84,85.564 C239.073333,85.1906667 239.208667,84.6726667 239.246,84.01 C239.255333,83.7766667 239.257667,83.4756667 239.253,83.107 C239.248333,82.7383333 239.241333,82.4186667 239.232,82.148 C239.204,81.448 239.038333,80.9486667 238.735,80.65 C238.431667,80.3513333 237.920667,80.202 237.202,80.202 C236.53,80.202 236.04,80.3536667 235.732,80.657 C235.424,80.9603333 235.256,81.462 235.228,82.162 C235.218667,82.442 235.218667,82.764 235.228,83.128 L235.228,83.128 L235.256,84.22 L236.32,84.22 C236.301333,83.8466667 236.292,83.4733333 236.292,83.1 C236.292,82.7266667 236.296667,82.3533333 236.306,81.98 C236.315333,81.6813333 236.39,81.4596667 236.53,81.315 C236.67,81.1703333 236.894,81.098 237.202,81.098 C237.528667,81.098 237.764333,81.1703333 237.909,81.315 C238.053667,81.4596667 238.135333,81.6813333 238.154,81.98 C238.191333,82.6613333 238.191333,83.3426667 238.154,84.024 C238.135333,84.304 238.086333,84.5746667 238.007,84.836 C237.927667,85.0973333 237.743333,85.3493333 237.454,85.592 L237.454,85.592 L236.796,86.068 C236.497333,86.2733333 236.233667,86.5136667 236.005,86.789 C235.776333,87.0643333 235.594333,87.4096667 235.459,87.825 C235.323667,88.2403333 235.251333,88.7653333 235.242,89.4 L235.242,89.4 L235.242,90.59 C235.242,90.7206667 235.244333,90.8536667 235.249,90.989 C235.253667,91.1243333 235.256,91.2946667 235.256,91.5 L235.256,91.5 L239.204,91.5 Z M243.332,91.598 C243.957333,91.598 244.440333,91.43 244.781,91.094 C245.121667,90.758 245.296667,90.282 245.306,89.666 C245.324667,88.4526667 245.334,87.1973333 245.334,85.9 C245.334,84.6026667 245.324667,83.3473333 245.306,82.134 C245.296667,81.5086667 245.121667,81.0303333 244.781,80.699 C244.440333,80.3676667 243.957333,80.202 243.332,80.202 C242.697333,80.202 242.209667,80.3676667 241.869,80.699 C241.528333,81.0303333 241.353333,81.5086667 241.344,82.134 C241.325333,83.3473333 241.316,84.6026667 241.316,85.9 C241.316,87.1973333 241.325333,88.4526667 241.344,89.666 C241.353333,90.282 241.528333,90.758 241.869,91.094 C242.209667,91.43 242.697333,91.598 243.332,91.598 Z M243.332,90.702 C242.734667,90.702 242.431333,90.4126667 242.422,89.834 C242.394,88.686 242.38,87.433 242.38,86.075 C242.38,84.717 242.394,83.3473333 242.422,81.966 C242.431333,81.3873333 242.734667,81.098 243.332,81.098 C243.910667,81.098 244.209333,81.3873333 244.228,81.966 C244.256,83.086 244.27,84.3226667 244.27,85.676 C244.27,87.0293333 244.256,88.4153333 244.228,89.834 C244.209333,90.4126667 243.910667,90.702 243.332,90.702 Z M251.352,91.5 L251.352,90.534 L248.482,90.534 L248.482,89.4 C248.482,88.924 248.545,88.476 248.671,88.056 C248.797,87.636 248.995333,87.3186667 249.266,87.104 L249.266,87.104 L249.952,86.614 C250.409333,86.2873333 250.754667,85.9373333 250.988,85.564 C251.221333,85.1906667 251.356667,84.6726667 251.394,84.01 C251.403333,83.7766667 251.405667,83.4756667 251.401,83.107 C251.396333,82.7383333 251.389333,82.4186667 251.38,82.148 C251.352,81.448 251.186333,80.9486667 250.883,80.65 C250.579667,80.3513333 250.068667,80.202 249.35,80.202 C248.678,80.202 248.188,80.3536667 247.88,80.657 C247.572,80.9603333 247.404,81.462 247.376,82.162 C247.366667,82.442 247.366667,82.764 247.376,83.128 L247.376,83.128 L247.404,84.22 L248.468,84.22 C248.449333,83.8466667 248.44,83.4733333 248.44,83.1 C248.44,82.7266667 248.444667,82.3533333 248.454,81.98 C248.463333,81.6813333 248.538,81.4596667 248.678,81.315 C248.818,81.1703333 249.042,81.098 249.35,81.098 C249.676667,81.098 249.912333,81.1703333 250.057,81.315 C250.201667,81.4596667 250.283333,81.6813333 250.302,81.98 C250.339333,82.6613333 250.339333,83.3426667 250.302,84.024 C250.283333,84.304 250.234333,84.5746667 250.155,84.836 C250.075667,85.0973333 249.891333,85.3493333 249.602,85.592 L249.602,85.592 L248.944,86.068 C248.645333,86.2733333 248.381667,86.5136667 248.153,86.789 C247.924333,87.0643333 247.742333,87.4096667 247.607,87.825 C247.471667,88.2403333 247.399333,88.7653333 247.39,89.4 L247.39,89.4 L247.39,90.59 C247.39,90.7206667 247.392333,90.8536667 247.397,90.989 C247.401667,91.1243333 247.404,91.2946667 247.404,91.5 L247.404,91.5 L251.352,91.5 Z M254.962,91.5 L254.962,80.3 L254.094,80.3 L253.324,81 L253.366,81.434 L253.884,81.434 L253.884,91.5 L254.962,91.5 Z M262.784,91.5 L262.784,88.602 L262.896,88.07 L264.38,80.3 L263.288,80.3 L262.77,83.408 L262.378,86.614 L262.112,86.614 L261.72,83.408 L261.216,80.3 L260.11,80.3 L261.594,88.084 L261.706,88.602 L261.706,91.5 L262.784,91.5 Z M269.166,91.5 L269.166,90.534 L266.87,90.534 L266.87,86.334 L269.026,86.334 L269.026,85.368 L266.87,85.368 L266.87,81.266 L269.166,81.266 L269.166,80.3 L265.792,80.3 L265.792,91.5 L269.166,91.5 Z M271.656,91.5 L271.95,88.364 L273.588,88.364 L273.868,91.5 L274.974,91.5 L273.728,80.3 L271.796,80.3 L270.564,91.5 L271.656,91.5 Z M273.49,87.398 L272.048,87.398 L272.272,84.948 L272.566,81.266 L272.958,81.266 L273.252,84.948 L273.49,87.398 Z M277.52,91.5 L277.52,87.286 L278.304,87.286 L279.326,91.5 L280.474,91.5 L279.326,87.104 C279.923333,86.8613333 280.236,86.278 280.264,85.354 C280.292,84.8593333 280.306,84.3646667 280.306,83.87 C280.306,83.3753333 280.292,82.8293333 280.264,82.232 C280.236,81.5413333 280.068,81.0466667 279.76,80.748 C279.452,80.4493333 278.957333,80.3 278.276,80.3 L278.276,80.3 L276.442,80.3 L276.442,91.5 L277.52,91.5 Z M278.262,86.32 L277.52,86.32 L277.52,81.266 L278.276,81.266 C278.584,81.266 278.810333,81.3406667 278.955,81.49 C279.099667,81.6393333 279.176667,81.868 279.186,82.176 C279.232667,83.2586667 279.232667,84.3366667 279.186,85.41 C279.176667,85.718 279.099667,85.9466667 278.955,86.096 C278.810333,86.2453333 278.579333,86.32 278.262,86.32 L278.262,86.32 Z M286.756,91.5 L286.756,80.3 L285.678,80.3 L285.678,91.5 L286.756,91.5 Z M289.834,91.5 L289.75,87.258 L289.596,81.266 L289.904,81.266 L290.8,87.524 L291.486,91.5 L293.376,91.5 L293.376,80.3 L292.326,80.3 L292.41,84.332 L292.578,90.534 L292.27,90.534 L291.262,83.856 L290.632,80.3 L288.784,80.3 L288.784,91.5 L289.834,91.5 Z M300.008,91.5 L300.008,87.286 L300.792,87.286 L301.814,91.5 L302.962,91.5 L301.814,87.104 C302.411333,86.8613333 302.724,86.278 302.752,85.354 C302.78,84.8593333 302.794,84.3646667 302.794,83.87 C302.794,83.3753333 302.78,82.8293333 302.752,82.232 C302.724,81.5413333 302.556,81.0466667 302.248,80.748 C301.94,80.4493333 301.445333,80.3 300.764,80.3 L300.764,80.3 L298.93,80.3 L298.93,91.5 L300.008,91.5 Z M300.75,86.32 L300.008,86.32 L300.008,81.266 L300.764,81.266 C301.072,81.266 301.298333,81.3406667 301.443,81.49 C301.587667,81.6393333 301.664667,81.868 301.674,82.176 C301.720667,83.2586667 301.720667,84.3366667 301.674,85.41 C301.664667,85.718 301.587667,85.9466667 301.443,86.096 C301.298333,86.2453333 301.067333,86.32 300.75,86.32 L300.75,86.32 Z M307.93,91.5 L307.93,90.534 L305.634,90.534 L305.634,86.334 L307.79,86.334 L307.79,85.368 L305.634,85.368 L305.634,81.266 L307.93,81.266 L307.93,80.3 L304.556,80.3 L304.556,91.5 L307.93,91.5 Z M312.408,91.5 L313.696,80.3 L312.576,80.3 L311.918,86.446 L311.61,90.534 L311.344,90.534 L311.05,86.446 L310.392,80.3 L309.272,80.3 L310.56,91.5 L312.408,91.5 Z M316.368,91.5 L316.368,80.3 L315.29,80.3 L315.29,91.5 L316.368,91.5 Z M321.77,91.5 L321.77,90.534 L319.474,90.534 L319.474,86.334 L321.63,86.334 L321.63,85.368 L319.474,85.368 L319.474,81.266 L321.77,81.266 L321.77,80.3 L318.396,80.3 L318.396,91.5 L321.77,91.5 Z M325.926,91.5 L326.29,87.902 L326.668,81.308 L326.92,81.308 L327.298,87.902 L327.662,91.5 L329.552,91.5 L330.364,80.3 L329.286,80.3 L329.02,84.626 L328.712,90.534 L328.446,90.534 L328.124,84.626 L327.592,80.37 L325.996,80.37 L325.464,84.626 L325.142,90.534 L324.876,90.534 L324.582,84.626 L324.33,80.3 L323.238,80.3 L324.036,91.5 L325.926,91.5 Z" id="2021YEARINREVIEW" fill="#003F57" fill-rule="nonzero" transform="translate(282.792500, 85.900000) rotate(-270.000000) translate(-282.792500, -85.900000) "></path>
    </g>
</svg>