<?xml version="1.0" encoding="UTF-8"?>
<svg width="341px" height="301px" viewBox="0 0 341 301" version="1.1" xmlns="http://www.w3.org/2000/svg" xmlns:xlink="http://www.w3.org/1999/xlink">
    <title>peach-blob</title>
    <g id="peach-blob" stroke="none" stroke-width="1" fill="none" fill-rule="evenodd">
        <circle id="Oval" fill="#FB9D9D" fill-rule="nonzero" cx="150.5" cy="150.5" r="150.5"></circle>
        <path d="M330.438687,66.463797 C322.439457,50.9718032 310.910711,38.5966523 296.983704,28.6046136 C284.032091,19.3362268 269.295608,13.4477372 253.458037,11.2062308 C247.314065,10.2961228 241.029315,10.5727836 234.784787,10.3087212 C234.16134,10.2905795 233.517781,10.1892884 232.894334,10.1711468 C232.728417,10.2134774 232.482054,10.2769733 232.230664,10.3404692 C232.004413,10.1333516 231.712801,10.0305487 231.401077,9.84459637 C225.860442,9.57700647 220.234333,9.33058187 214.693697,9.06349591 C213.492053,9.19351134 212.204936,9.34469207 211.003292,9.4747075 C209.550257,9.31445593 208.03689,9.25851906 206.583855,9.09826748 C206.126325,9.03779518 205.693935,9.06047229 205.236405,9 C200.756635,9.43590445 196.256753,9.78815556 191.862456,10.2028947 C176.326553,11.6018204 160.90629,13.77076 145.782666,18.16508 C133.374055,21.7777956 120.835727,24.8911109 109.161677,30.3527669 C101.026697,34.1136396 92.8514933,38.0614725 85.1976729,42.6734928 C76.4895228,47.9975743 68.4088422,54.4010862 59.9933101,60.1817336 C52.0322911,65.6690903 44.8440451,72.1103974 40.924372,80.9932734 C36.0609807,92.0657504 32.0699129,103.446636 27.9752723,114.765538 C25.8459989,120.623287 24.4025174,126.748123 22.6679263,132.770659 C22.0092845,138.16378 21.5371741,143.597719 20.6090421,148.97169 C19.1172938,158.031448 20.7573622,166.9113 21.381815,175.961987 C21.800128,181.079959 21.9494537,186.178781 22.5336841,191.254422 C23.5794665,201.614334 25.1838376,211.742939 29.8974004,221.254727 C30.8189962,223.14499 31.2860788,225.32804 31.980418,227.364948 C32.2941528,227.904663 32.6290043,228.527528 32.942739,229.067243 C33.4450163,230.00154 33.8648376,230.957002 34.3671148,231.891803 C34.7441998,232.680967 35.1831268,233.365816 35.5602118,234.154979 C37.358656,237.061177 39.1777141,240.05002 40.9756555,242.956217 C41.5784888,243.244973 42.2029416,243.616877 42.8057748,243.905632 C43.1587264,243.904121 43.5111752,243.902609 43.7811681,243.922262 C43.5956423,244.235206 43.4106192,244.54815 43.2250934,244.861095 C44.2899815,246.271611 45.2719109,247.703796 46.3579157,249.197462 C46.6294169,249.570878 46.9838769,249.92313 47.2342613,250.213397 C48.4826641,250.957206 49.669225,251.80533 50.9382418,252.632288 C52.0453634,254.209607 53.0695263,255.807588 54.0936892,257.405568 C58.1350351,260.801591 62.196995,264.28026 66.2378381,267.676283 C66.2800716,267.842582 66.3434219,268.09203 66.3856554,268.258329 C66.5515728,268.215998 66.7788294,268.069353 67.0277055,268.005857 C67.8190812,268.689194 68.6109598,269.372531 69.4023356,270.055868 C70.3370036,270.259962 71.188713,270.485221 72.1233811,270.689315 C74.1631596,272.116965 76.1818215,273.460962 78.2216,274.888108 C79.5122364,275.798216 80.8028727,276.708324 82.1764677,277.597267 C83.2996783,278.195943 84.5053448,278.773453 85.6285554,279.372129 C98.5630744,285.809908 111.946073,290.538842 126.249662,292.995528 C142.987209,295.982356 159.684534,295.702168 176.135497,291.676729 C188.011161,288.732736 199.524824,284.374699 211.14407,280.432409 C224.960465,275.752358 238.143358,269.639113 250.325718,261.65677 C259.400897,255.7068 268.063797,249.155131 276.244028,242.105574 C284.117563,235.224331 291.382735,227.700569 298.316071,219.907203 C308.321394,208.583766 316.873682,196.038284 323.173516,182.295956 C327.361674,173.078466 331.238108,163.675529 334.239704,153.963678 C337.879832,142.230542 340.10212,130.149689 340.831151,117.742286 C341.781405,99.6106769 338.77478,82.5781514 330.438687,66.463797 Z M283.282949,30.9529544 C266.862153,25.0508585 250.1598,20.1072485 232.989862,17.1425943 C250.954193,17.3356017 267.923019,21.2375765 283.282949,30.9529544 Z M50.3379224,239.856004 C49.5460439,239.172668 48.8798604,238.634464 48.213174,238.096261 C47.3649841,238.578527 46.4338355,239.082463 45.5026869,239.585895 C45.4197282,239.60706 44.8767258,238.860227 44.9385677,238.755913 C45.2683914,238.316985 45.7022906,237.940545 46.7143868,237.062184 C43.9490966,231.392403 40.9525276,225.161741 37.8518832,218.868591 C38.0796426,218.721946 38.3898578,218.554135 38.6171144,218.40749 C41.7534562,223.451383 44.972254,228.474111 48.108093,233.518004 C48.3584775,233.808271 48.7129374,234.160522 48.9633218,234.450789 L50.3379224,239.856004 Z M149.77474,288.668736 C146.788226,288.723161 143.887186,288.756925 140.981117,288.790184 C140.981117,288.436421 140.976089,288.082659 140.976089,287.728896 C143.942491,287.590817 146.823421,287.474408 149.789823,287.336834 C149.814962,287.773746 149.754629,288.231824 149.77474,288.668736 Z M194.074688,277.529739 C201.405221,274.417936 208.775976,271.472431 216.000925,268.298644 C227.675477,263.190751 238.535526,256.608342 248.540849,248.739888 C251.497195,246.479232 254.096568,243.866325 256.826663,241.398552 C256.801524,241.315402 256.675829,241.170269 256.635607,241.00397 C256.675829,241.170269 256.781413,241.232253 256.826663,241.398552 C258.893089,239.808131 260.934376,238.134056 263.066164,236.43932 C266.057705,233.283674 269.260414,230.251996 272.146371,227.034366 C274.212797,224.735915 276.068055,222.314 278.003758,219.870415 C280.21599,217.800247 282.448334,215.813732 284.655538,213.743564 C284.756094,213.451785 284.967262,213.221991 285.067818,212.930212 C285.188485,212.721582 285.31418,212.512953 285.52032,212.283158 C287.2348,210.339982 288.883918,208.50112 290.618509,206.641597 C291.382735,205.826733 292.292767,205.239648 293.328494,204.7982 C270.944727,243.81442 237.38416,267.352756 194.074688,277.529739 Z M324.601411,120.913554 C322.519902,140.840183 315.134063,158.666911 303.992458,175.239847 C303.871791,175.448476 303.660623,175.678775 303.539956,175.887404 C302.634952,177.181511 301.644475,178.496784 300.734443,179.791395 C300.679138,180.249472 300.51322,180.645566 300.452887,181.103644 C300.186413,181.437753 299.834467,181.793028 299.542855,182.043988 C298.763546,183.483732 298.130043,185.151256 297.220011,186.445867 C295.570892,188.637987 293.796079,190.685479 292.046404,192.815615 L291.795014,192.879111 L291.548652,192.942607 C291.402846,193.422354 291.342512,193.880431 291.201734,194.359674 C291.1414,194.817752 290.975483,195.213845 290.834705,195.693088 C290.668787,195.735419 290.50287,195.77775 290.256508,195.841246 C289.778867,196.40515 289.220781,196.990723 288.728056,197.471478 C288.768279,197.637777 288.83364,197.887225 288.873862,198.053524 C288.295665,198.201681 287.797913,198.328673 287.219716,198.47683 C285.796849,200.522809 284.459454,202.547119 283.016475,204.509949 C281.779636,206.24248 280.311519,207.768398 278.974124,209.438945 C278.45626,209.83655 277.918286,210.15151 277.400422,210.549115 C276.827253,211.758561 276.228945,212.884858 275.655776,214.094807 C275.012217,214.701042 274.293242,215.328442 273.649683,215.934677 C271.336895,218.296624 269.049246,220.74172 266.630874,223.041179 C257.686417,231.259364 248.827433,239.456383 239.757282,247.528931 C237.444493,249.537115 234.714398,250.943096 232.15022,252.661013 C225.071077,256.416846 218.102546,260.58893 210.751902,263.971347 C203.778343,267.081639 196.588588,269.714199 189.298278,271.931013 C181.615799,274.337306 173.59143,275.765964 165.803367,278.110273 C153.912619,281.678643 142.087233,281.334455 130.166319,278.534587 C119.282137,276.000798 108.992241,271.633187 99.1347353,266.534869 C95.9732545,264.86281 93.0586387,262.773492 90.0208417,260.892804 C89.1887408,260.396931 88.1499973,260.130853 87.2560544,259.739295 C85.5692274,258.310133 83.9437395,256.77716 82.2564098,255.348502 C82.0904924,255.390833 81.9245749,255.433163 81.6762016,255.496659 C77.8626151,251.953991 73.9258475,248.620456 70.3400203,244.931142 C67.4414934,241.863685 64.955749,238.336134 62.2638647,235.038378 C61.8269489,234.707293 61.3276883,234.480521 60.8902697,234.149436 C60.724855,234.191766 60.5589376,234.234097 60.3719035,234.193278 C59.9118597,233.42528 59.4729328,232.740431 59.012889,231.972433 C58.9706555,231.806134 58.9902639,231.535521 58.9480304,231.369222 C58.9052941,231.202923 58.8841774,231.119774 58.8419438,230.953475 C56.9027213,228.880283 54.7151254,226.871091 52.8990839,224.589774 C47.8059222,218.097065 44.3885264,210.557178 42.192886,202.616158 C40.2506467,195.673435 38.0600341,188.793704 36.9473819,181.638823 C35.2776495,170.907007 33.5868002,160.092041 33.6569553,149.269013 C33.6868534,142.088432 36.2449982,134.792953 38.409969,127.686451 C41.9425015,115.89133 46.9290738,104.610224 53.3304692,94.030596 C60.4106175,82.3035064 68.6984435,71.5076902 79.1527486,62.6379166 C91.0324352,52.4301934 104.250019,44.3601658 118.576233,38.2207162 C123.503478,36.0769734 128.492061,34.1821749 133.464556,32.2042269 C133.630473,32.5156592 133.776279,32.7439421 133.861752,33.0765398 C132.102022,34.1458915 130.367431,35.2978887 128.482006,36.221603 C114.927056,42.9612401 103.146417,52.1696586 92.4925084,62.6842786 C82.4786385,72.5926639 73.922328,83.7225896 68.7587771,97.0859586 C68.0211988,99.0457648 67.7828811,101.231838 67.5234466,103.335266 C67.4228906,103.980808 67.8014839,105.123734 68.3007445,105.350505 C68.882461,105.556111 70.0639941,105.342946 70.4767765,104.883357 C72.9318514,102.042167 75.5739604,99.2417959 77.7168089,96.2146536 C82.3730547,89.5344809 86.4053506,82.4824036 91.3119809,76.0924979 C98.6103358,66.612458 107.930872,59.1834368 117.293642,51.9212183 C128.683118,43.2555386 141.368258,36.9155225 154.767345,31.9870306 C160.338148,29.9445789 165.994424,28.2342209 171.605449,26.357564 C184.2202,22.1612908 197.267341,21.3973241 210.379844,21.9440944 C224.115795,22.5090065 237.751189,23.7199641 251.064804,27.1381605 C263.71475,30.3719164 275.997666,34.5853235 287.682274,40.2787899 C293.710606,43.1663419 299.351798,46.9508997 305.033213,50.5474893 C312.046994,54.8672268 314.857534,62.1188627 318.065271,69.1810187 C319.116081,71.5701783 319.875279,74.2097939 320.69481,76.7455987 C325.410887,91.1274219 326.170085,105.900803 324.601411,120.913554 Z" id="Shape" fill="#93D1C6" fill-rule="nonzero"></path>
    </g>
</svg>