<svg viewBox="0 0 70 70" xmlns="http://www.w3.org/2000/svg"><path d="m.02757352 18.2013418-.02292822-10.78673286c-.00237385-1.11782436 1.03226233-1.94992244 2.12304067-1.70672629l3.87803235.86154201c1.15163146.25519406 2.09605713 1.07638254 2.51047039 2.18112071l1.85504419 5.11036753 13.9809851 4.1986574-4.5258255-15.83493768c-.3162635-1.11455281.5234693-2.22463262 1.6794623-2.22463262h4.3731477c1.2541444 0 2.4210436.67996278 3.0426643 1.77859384l11.8871079 21.14487456 11.7017112 3.4461714c1.7339903.512563 3.3480216 1.3632004 4.7657501 2.4973842l3.7515236 2.999041c2.6282544 2.0938739 1.9739182 6.2489095-1.1668942 7.4485258-4.49311 1.7012749-9.4006316 1.9630087-14.0464194.752486l-32.5423235-8.462749c-1.2105227-.3162618-2.3119893-.9487855-3.1953439-1.8430463l-9.03681908-9.1061789c-.64670315-.6543362-1.01043738-1.5376908-1.01238932-2.4537608zm66.27849588 30.6556521c1.9302931 0 3.4897931 1.5595 3.4897931 3.4897931 0 1.9302932-1.5595 3.4897932-3.4897931 3.4897932h-62.81627628c-1.92701994 0-3.48979312-1.5595-3.48979312-3.4897932 0-1.9302931 1.56277318-3.4897931 3.48979312-3.4897931zm-45.3673107-8.7244828c0 1.9302932-1.5595016 3.4897931-3.4897931 3.4897931s-3.4897931-1.5594999-3.4897931-3.4897931c0-1.9302931 1.5595016-3.4897931 3.4897931-3.4897931s3.4897931 1.5595 3.4897931 3.4897931zm3.4897932 1.7448966c0-1.9302932 1.5595016-3.4897932 3.4897931-3.4897932 1.9302932 0 3.4897931 1.5595 3.4897931 3.4897932 0 1.9302931-1.5594999 3.4897931-3.4897931 3.4897931-1.9302915 0-3.4897931-1.5595-3.4897931-3.4897931z" transform="translate(0 7.143)"/></svg>