<svg viewBox="0 0 70 70" xmlns="http://www.w3.org/2000/svg"><path d="m52.848557 2.64750907c1.9630086-1.00331685 4.144126-1.52678449 6.3470592-1.52678449h6.2598191c2.9445129 0 4.9838621 2.93906148 3.9478298 5.69272636-1.9848212 5.31102696-5.921748 9.67326836-10.9928537 12.21427426l-29.750485 14.8752442c-.4907522.2399213-1.0251261.3707899-1.5704063.3707899h-15.0170157c-1.0142214 0-1.9848211-.4471304-2.64788204-1.221429l-7.96981525-9.2915722c-.73918179-.8615436-.47123103-2.1920269.54419021-2.70459l3.50724249-1.7448965c.9335194-.4689413 2.02516971-.5016585 2.97832006-.0763389l6.24891113 2.7264009 10.8510755-5.3873675-16.02687565-10.30579533c-1.13745531-.73176839-1.04584697-2.42322524.16358406-3.02848823l5.00130979-2.50283401c1.6467468-.86808843 3.7624333-.97387292 5.5727641-.2922727l21.2550206 7.97199683 11.2982059-5.76906359zm-52.848557 45.58542273c0-1.9302932 1.56277318-3.4897932 3.48979312-3.4897932h62.81627628c1.9302931 0 3.4897931 1.5595 3.4897931 3.4897932 0 1.9302931-1.5595 3.4897931-3.4897931 3.4897931h-62.81627628c-1.92701994 0-3.48979312-1.5595-3.48979312-3.4897931z" transform="translate(0 11.2569)"/></svg>