<?xml version="1.0" encoding="UTF-8"?>
<svg width="209px" height="120px" viewBox="0 0 209 120" version="1.1" xmlns="http://www.w3.org/2000/svg" xmlns:xlink="http://www.w3.org/1999/xlink">
    <title>Artboard</title>
    <g id="Artboard" stroke="none" stroke-width="1" fill="none" fill-rule="evenodd">
        <g id="Group-70">
            <path d="M15.020577,29.1034926 C9.04928036,29.32507 3.72836961,32.9378818 1.32162758,38.4097438 C-1.08511446,43.8800343 -0.156665016,50.2460633 3.71423079,54.8001862 C4.51071787,55.7352114 5.30406299,56.6702367 6.10055008,57.6068334 C9.47501606,61.5763691 10.6453965,66.971229 9.21894625,71.98265 C8.88275643,73.1643962 8.54656662,74.3445709 8.21037681,75.5263171 C6.57498617,81.274758 8.36747485,87.4537819 12.8243464,91.4343179 C17.2812179,95.4148539 23.6216949,96.4991689 29.1468331,94.2221074 C30.282652,93.7553806 31.4184708,93.2886537 32.5527187,92.8203553 C37.3709157,90.8355875 42.8614924,91.3903167 47.1864015,94.2943951 C48.2043968,94.9811279 49.2223922,95.6647178 50.2435295,96.3498792 C55.2031147,99.6829691 61.6315667,99.8872604 66.7938084,96.8763219 C71.9560501,93.8653835 74.9456259,88.1688012 74.4884706,82.2097832 L74.2072651,78.535684 C73.809807,73.3388295 76.0327443,68.2881217 80.1314323,65.0713206 C81.0991563,64.3123001 82.0637383,63.5548511 83.0298912,62.7974021 C87.7302647,59.1091596 89.9123565,53.0558534 88.6445753,47.2146957 C87.3783651,41.3735381 82.885361,36.7691281 77.0774463,35.36109 C75.8850722,35.0735109 74.6911271,34.7827887 73.4987529,34.4952095 C68.4354829,33.2663192 64.3195142,29.5906486 62.5270255,24.6970879 C62.1060028,23.5436282 61.683409,22.39174 61.2623863,21.2367088 C59.2059729,15.6249859 54.1269931,11.6790222 48.1808321,11.0787203 C42.2346712,10.4799899 36.4707439,13.3322097 33.336638,18.4206328 C32.694107,19.4672325 32.050005,20.5122607 31.405903,21.5588603 C28.673968,25.9951229 23.9076134,28.7766266 18.7013842,28.9683461 C17.4744485,29.0123472 16.2475127,29.0594914 15.020577,29.1034926" id="Fill-5-Copy" fill="#F6F0C9"></path>
            <path d="M58.820467,51.4676535 C52.9004064,52.1329581 47.879318,56.1357958 45.8903029,61.7759434 C43.9044202,67.4160911 45.299863,73.6995239 49.4861916,77.957159 C50.3460099,78.8300765 51.2073944,79.7045668 52.0672127,80.579057 C55.7163505,84.2909222 57.280938,89.5866213 56.2347474,94.6951544 C55.9872951,95.8999378 55.7398428,97.1047211 55.4939567,98.3079317 C54.2942831,104.168275 56.5338827,110.201628 61.2621004,113.841144 C65.9871858,117.483805 72.3708278,118.090915 77.69575,115.407677 C78.7889252,114.857188 79.8836666,114.305127 80.9768418,113.754638 C85.618921,111.414276 91.1192524,111.558976 95.6344732,114.136835 C96.6978915,114.743945 97.7613098,115.351055 98.8262942,115.959738 C104.005564,118.916647 110.409566,118.641403 115.317892,115.251967 C120.227783,111.860958 122.775915,105.95343 121.881641,100.038038 C121.695269,98.8222452 121.512029,97.6080249 121.328789,96.3922318 C120.547278,91.236514 122.38281,86.028893 126.219887,82.512058 C127.123557,81.6847524 128.027228,80.8558741 128.932465,80.0269957 C133.33179,75.9942744 135.051427,69.7910557 133.358415,64.0565386 C131.665403,58.3188758 126.855745,54.0596678 120.977971,53.0876624 C119.772032,52.8879138 118.562962,52.6881651 117.357024,52.4884164 C112.232569,51.6406641 107.866133,48.2795388 105.722069,43.5280368 C105.217767,42.408186 104.711899,41.2883351 104.206032,40.1684843 C101.747171,34.7202212 96.4050208,31.1609199 90.4489387,31.0052103 C84.4944228,30.8510736 78.9737313,34.1272664 76.2360949,39.4402666 C75.6754119,40.5318067 75.1115966,41.6233467 74.5493475,42.7148867 C72.1640955,47.3484268 67.6300809,50.478347 62.4680387,51.0571464 L58.820467,51.4676535 Z" id="Fill-13-Copy" fill="#EFE8A5"></path>
            <path d="M116.892513,40.1483821 C111.585616,44.1939509 109.037617,50.9418148 110.332707,57.5227537 C111.629358,64.1036926 116.539449,69.3586802 122.978964,71.054701 C124.302174,71.4027239 125.625383,71.7507467 126.948593,72.0987696 C132.56325,73.577473 137.074972,77.7836677 138.973083,83.3110895 C139.419881,84.6134194 139.866679,85.9157492 140.315039,87.2196538 C142.492788,93.5580791 148.071514,98.0855257 154.67975,98.877632 C161.289549,99.6681635 167.764995,96.5832008 171.353439,90.9329474 C172.092374,89.7739211 172.829747,88.6117453 173.565558,87.4511442 C176.696268,82.5252823 182.059406,79.5001605 187.861531,79.3883523 L191.962387,79.3096141 C198.61749,79.1820582 204.611769,75.2309752 207.401913,69.139788 C210.190495,63.0486007 209.279715,55.8865738 205.060129,50.6993011 C204.191529,49.6347606 203.324491,48.5702201 202.457453,47.5041049 C198.776837,42.9813826 197.580169,36.9043682 199.267378,31.3092315 C199.664184,29.9895793 200.062553,28.6715018 200.45936,27.3518495 C202.394964,20.9331113 200.521849,13.9647804 195.635191,9.40741333 C190.750096,4.85319574 183.712246,3.51149678 177.514877,5.95553057 C176.241659,6.45630553 174.968441,6.96023002 173.693661,7.46100498 C168.289905,9.59323549 162.187831,8.86254497 157.429277,5.5161714 L154.065794,3.14930105 C148.60736,-0.689973664 141.453905,-1.04587034 135.645531,2.22963886 C129.837157,5.50514805 126.397125,11.8372742 126.787683,18.5347457 C126.867357,19.9110894 126.948593,21.2858584 127.026704,22.6622022 C127.367271,28.5014273 124.794277,34.1264844 120.165387,37.6555306 C119.073388,38.4854312 117.982951,39.3184814 116.892513,40.1483821" id="Fill-11-Copy" fill="#F4F8C7"></path>
        </g>
    </g>
</svg>