<svg viewBox="0 0 56 56" xmlns="http://www.w3.org/2000/svg" class="fa-redo"><path d="m54.0917934 5.37758594v15.70406906c0 1.9292015-1.5605916 3.4897931-3.4897931 3.4897931h-15.7040691c-1.9292015 0-3.4897931-1.5605916-3.4897931-3.4897931s1.5605916-3.4897931 3.4897931-3.4897931h6.9130637c-3.2684095-4.329526-8.4245787-6.9555938-13.9155507-6.9555938-9.6067474 0-17.4260648 7.8171358-17.4260648 17.4249732 0 9.6078373 7.8182274 17.427153 17.4271547 17.427153 3.8038734 0 7.4190836-1.2028879 10.4562915-3.48325 1.550777-1.1483599 3.7318977-.8451843 4.8868007.6952322 1.154903 1.5442339.8451843 3.7318977-.6952322 4.8868007-4.2564569 3.1931606-9.3090216 4.8922521-14.6353196 4.8922521-13.4591498-.0005424-24.41928138-10.960674-24.41928138-24.418188 0-13.4575141 10.96013158-24.41764566 24.41764558-24.41764566 7.5412242 0 14.6135087 3.5410496 19.2047685 9.39190526v-7.65791496c0-1.92920153 1.5605916-3.48979313 3.4897931-3.48979313s3.4897931 1.5605916 3.4897931 3.48979313z"/></svg>