<?xml version="1.0" encoding="UTF-8"?>
<svg width="485px" height="92px" viewBox="0 0 485 92" version="1.1" xmlns="http://www.w3.org/2000/svg" xmlns:xlink="http://www.w3.org/1999/xlink">
    <title>renderman-logo</title>
    <g id="renderman-logo" stroke="none" stroke-width="1" fill="none" fill-rule="evenodd">
        <path d="M308.389794,64.1659272 C309.711031,64.1075209 310.865715,64.4952395 311.996783,65.16132 C313.214856,65.8795935 314.257676,66.7258638 315.105356,67.8790779 C316.173034,69.3292943 316.760941,70.9833116 317.338905,72.6410569 C317.596192,73.3779706 317.70557,74.1894457 317.746586,74.9735816 C317.811219,76.2436083 317.763988,77.5186058 317.763988,78.8457962 L299.491643,78.8457962 C299.041702,80.4252522 299.588592,81.8754686 300.080793,83.2237847 C300.960789,85.6383268 302.555471,87.547095 304.961787,88.6655139 C305.734891,89.0258933 306.506752,89.3340798 307.391719,89.2644893 C307.946067,89.2209952 308.507872,89.2222379 309.06222,89.2620039 C311.479723,89.4322521 313.34785,88.2964356 315.050667,86.7716579 C315.250779,86.5927109 315.362643,86.3193196 315.588856,85.9788232 C316.19665,86.7331346 316.645349,87.2898587 317.152465,87.9186586 C315.928177,89.5962869 314.176886,90.5817382 312.282657,91.2266931 C310.670574,91.7772037 308.57872,92.2171151 307.233867,91.8853175 C306.086641,91.600742 304.872296,91.5858298 303.77603,90.9582725 C302.708351,90.3481129 301.705305,89.7056434 300.792993,88.8718 C299.741473,87.9112025 298.794358,86.8412484 298.253683,85.5674936 C297.755267,84.3943965 297.21832,83.222542 296.966005,81.9102639 C296.659001,80.3233518 296.75595,78.7625361 296.693803,77.1905363 C296.571996,74.1434662 297.637189,71.4157669 299.054131,68.8123363 C299.482943,68.0244723 300.090736,67.2962574 300.747005,66.6823697 C301.476606,66.0001342 302.298184,65.36015 303.189366,64.9289374 C303.81829,64.6232363 304.556591,64.4007952 305.230261,64.2404885 C306.233307,64.0043778 307.333302,64.2131494 308.389794,64.1659272 Z M272.657237,64.1694068 C273.324692,64.2029593 273.994632,64.1917751 274.662086,64.1718921 C277.002528,64.1010589 278.983761,64.9622415 280.743753,66.4460105 C281.230982,66.8573401 281.771658,67.2052926 282.326006,67.6116515 C281.784087,68.3112846 281.281943,68.9612103 280.79347,69.5912529 C279.846356,68.9599676 279.022292,68.3982728 278.185799,67.8552183 C276.572473,66.8113607 275.605472,66.5702793 273.893954,66.5031741 C271.280068,66.4025164 269.272733,67.60171 267.578617,69.4036071 C266.610373,70.4325524 266.084612,71.7734124 265.599869,73.0856905 C264.993318,74.7260382 264.566992,78.768501 264.942358,80.4846527 C265.533993,83.1937117 266.570599,85.7374933 268.778046,87.5704575 C270.049566,88.626742 271.490124,89.4195767 273.253844,89.2567846 C273.364465,89.2468431 273.478815,89.2443578 273.588193,89.2580273 C275.366829,89.474255 276.903093,88.9026187 278.429414,88.014097 C279.262178,87.5294488 279.758108,86.7440702 280.572228,86.2208988 L281.450826,87.0993236 C281.735613,87.3840544 282.017758,87.6661445 282.313576,87.9619041 C280.938893,88.964753 279.819012,90.3938438 278.066477,91.0102169 C277.37665,91.2537837 276.725354,91.5483006 275.972137,91.6166484 C275.237564,91.6849963 274.544008,92.0602879 273.769661,91.9335338 C272.723112,91.7632856 271.626846,91.7508587 270.637472,91.4178184 C269.369682,90.9903339 268.065846,90.5255687 267.067772,89.557515 C265.942918,88.4689207 264.814336,87.3890251 264.097164,85.9462648 C263.350162,84.4426128 262.573329,82.9762413 262.549713,81.2277799 C262.544742,80.8462748 262.205421,80.503293 262.221579,80.0285863 C262.273783,78.4714987 262.129602,76.8994988 262.279997,75.3548381 C262.379432,74.3358343 262.70508,73.3068889 263.012084,72.323923 C263.376263,71.1570393 263.888351,69.9404481 264.663941,69.0196166 C265.8845,67.5681574 267.170935,66.0756896 268.908554,65.2070509 C270.063238,64.6292012 271.288769,64.0998163 272.657237,64.1694068 Z M447.735281,64.5132584 C448.215053,64.5107731 448.640135,64.6151588 449.116178,64.8077754 C451.454134,65.752218 453.390622,67.0856218 454.223386,69.9910255 C454.587565,71.2622949 454.910728,72.5422632 454.907031,73.8905793 C454.889598,79.6268254 454.899541,85.3630715 454.899541,91.181335 L452.201136,91.181335 L452.201136,87.3041496 C451.767352,87.9540752 451.55854,88.380317 451.247807,88.710872 C449.840808,90.2132813 448.144205,91.1950045 446.102068,91.618761 C445.31032,91.7827958 444.545917,91.99281 443.728068,91.9344037 C441.286949,91.7591847 439.100632,91.1154725 437.29838,89.2626253 C435.259972,87.1662112 434.424721,84.6435553 434.899521,81.9282829 C435.448897,78.7805551 436.824823,76.5201063 440.96503,75.2152843 C442.824456,74.6287357 445.081621,74.2323184 446.694947,74.5864844 C448.33686,74.9468638 450.085665,74.7480337 451.641816,75.5358977 C451.764867,75.5980321 451.956278,75.5222281 452.223509,75.5035878 C452.223509,74.6697444 452.267011,73.8445998 452.211079,73.0269114 C452.160119,72.2887549 452.134017,71.5033763 451.859329,70.8372958 C451.390744,69.7052073 450.759335,68.5507505 449.712786,67.908281 C448.131776,66.9389847 446.314609,66.2778749 444.45394,66.5612076 C442.157002,66.9116456 439.783001,67.1738526 437.757022,68.636496 C437.397815,67.7715854 437.121884,67.1055048 436.812394,66.3586496 C438.562442,65.4987097 440.357236,64.8313865 442.31734,64.447396 C443.631119,64.1914023 444.913825,64.3032442 446.20026,64.1553644 C446.788167,64.0882593 447.195848,64.5157438 447.735281,64.5132584 Z M359.42272,64.1692825 C360.033,64.2053204 360.648251,64.1966216 361.259774,64.1717679 C363.736937,64.0723529 365.760431,65.1012982 367.585055,66.6596285 C367.987765,67.0026103 368.437706,67.2896711 368.897591,67.6251968 C368.360645,68.3173738 367.874658,68.9449311 367.388672,69.5724883 C366.503704,68.9722702 365.675911,68.4155461 364.851847,67.8526086 C364.745508,67.7799804 364.641132,67.6973494 364.537425,67.6117795 L364.227012,67.3533175 C363.967847,67.1423589 363.704759,66.9571831 363.417504,66.908166 C362.842026,66.8112364 362.291407,66.590038 361.727116,66.5390878 C360.788703,66.454585 359.776956,66.3079479 358.900689,66.5589708 C356.954257,67.1156949 355.109746,67.9980031 353.905345,69.7365231 C353.35224,70.5355712 353.081281,71.530964 352.52569,72.3287695 C351.92784,73.1862239 351.929083,74.2027424 351.604677,75.1235739 C351.323775,75.915166 351.583548,76.8869477 351.538802,77.7754693 C351.435639,79.7786818 351.760044,81.6799939 352.524447,83.5514815 C353.143427,85.065075 354.542969,86.982542 355.872906,87.9307127 C357.226459,88.8950383 358.68069,89.2305639 360.338761,89.2976691 C362.891744,89.3995694 364.887892,88.4240597 366.636698,86.7091507 C366.823138,86.525233 367.01082,86.3425579 367.118956,86.2369294 L367.953429,87.0718602 L368.783242,87.9021308 C367.803811,88.8577576 366.789579,90.085533 365.278173,90.7503709 C364.368347,91.1492736 363.469707,91.4835566 362.462932,91.648834 C361.612766,91.7867724 360.778759,92.0054854 359.919893,91.9209826 C358.66826,91.7979566 357.412899,91.5966412 356.254486,91.0983234 C355.087373,90.5975203 354.049525,89.8817322 353.103654,89.0031521 C352.022303,87.9990605 351.031686,86.9042527 350.441293,85.5845184 C349.920505,84.4213628 349.420846,83.2333534 349.15113,81.9335022 C348.788193,80.1825553 348.948532,78.4527341 348.87147,76.7142141 C348.78695,74.8402412 349.497908,72.4642224 350.525812,70.3839633 C350.732139,69.9664203 350.924794,69.5215381 351.221854,69.1723429 C352.520718,67.6450798 353.812125,66.0867495 355.665337,65.1882863 C356.844879,64.6154073 358.051766,64.0872651 359.42272,64.1692825 Z M382.554744,64.1638457 C382.859738,64.1646224 383.153401,64.1661758 383.439897,64.1692825 C385.726636,64.1940796 387.536601,65.0776871 389.154898,66.514234 C390.819184,67.990547 391.645734,69.9738764 392.36912,72.0317671 C393.145953,74.240023 393.015445,76.4992292 393.015445,78.8864321 L374.80649,78.8864321 C374.059488,81.5383275 376.12897,86.4581278 379.18534,88.2128028 C381.856401,89.7462793 386.610616,90.4782223 391.044155,86.2456282 C391.475452,86.7663144 391.90675,87.2870005 392.401437,87.8834905 C391.772513,88.9472311 390.753309,89.6418935 389.689359,90.2470824 C388.416596,90.9703266 387.056829,91.4201795 385.57774,91.6513194 C384.670399,91.7929858 383.768031,92.0116988 382.866905,91.9135265 C380.359911,91.6401352 378.066701,90.8634555 376.202303,89.0242778 C375.154511,87.9903617 374.139036,86.9278637 373.529999,85.6068868 C372.993052,84.4449739 372.512038,83.2519937 372.233621,81.9558705 C371.987396,80.808497 371.957379,79.6708662 371.957693,78.5327483 L371.961053,77.5568607 C371.961406,77.3941134 371.961295,77.2312964 371.960176,77.0683801 C371.945261,74.7718933 372.480964,72.6108596 373.426836,70.4908345 C374.0222,69.1549453 374.856208,68.0253422 375.75609,66.9603589 C376.458347,66.1290009 377.420376,65.3771749 378.420937,64.9782721 C379.409068,64.5830975 380.429223,64.1630691 381.6016,64.1630691 L382.554744,64.1638457 Z M168.909573,56.5527257 L168.909573,64.4487629 L176.523775,64.4487629 C176.702757,65.244083 176.564792,65.9983944 176.634396,66.803656 L168.922002,66.803656 L168.922002,68.1345744 L168.926974,76.3243519 C168.926974,79.0540707 168.922002,81.783634 168.902116,84.5131974 C168.895901,85.4476985 169.156917,86.3138518 169.386859,87.1675782 C169.741095,88.4860698 170.966626,89.0328523 172.146168,89.2006152 C173.118141,89.3385535 174.193277,89.527442 175.193838,88.9520776 C175.523215,88.7607037 176.05519,88.9210104 176.614509,88.9210104 C176.614509,89.4466673 176.597108,89.9350435 176.619481,90.4221771 C176.640611,90.8894276 176.358465,91.1329944 175.988071,91.2535351 C175.120505,91.5356252 172.148654,91.8202007 171.287302,91.5778766 C169.252622,91.007483 167.507546,90.0655257 166.896023,87.7851939 C166.713312,87.1054438 166.569132,86.4530328 166.571618,85.7447009 C166.57801,83.0706146 166.580521,80.3965283 166.581304,77.7083559 L166.581203,72.3090557 L166.580806,70.4966133 L166.580318,66.8471501 L163.287791,66.8471501 L163.287791,64.5469353 L166.580318,64.5469353 L166.580318,56.5527257 L168.909573,56.5527257 Z M205.540397,54.514718 C206.972255,54.7346737 208.380497,55.1708571 209.461848,56.3476823 C210.482295,57.4574023 211.451782,58.5000173 211.84952,60.0533768 C212.173925,61.3196755 212.156524,62.5511789 211.929068,63.7516152 C211.793588,64.472374 211.750086,65.2950332 211.172122,65.9412308 C210.655062,66.5215659 210.370431,67.3144006 209.838456,67.8760954 C208.811794,68.959719 207.571348,69.7923197 206.272484,70.5342043 C205.607515,70.9144667 204.97362,71.3494073 204.278821,71.7893188 C206.96604,74.9991809 209.593598,78.1382099 212.32432,81.3990222 L212.469634,81.2441925 L212.746451,80.9671883 C212.875871,80.8345314 212.987424,80.7056025 213.061379,80.5577227 C214.216063,78.2537798 215.183064,75.8690623 216.086676,73.4582483 C216.121478,73.3650467 216.202268,73.288 216.286788,73.1699447 C216.831192,73.2991842 217.405426,73.3911431 217.946102,73.5800316 C218.398529,73.7366103 218.520337,74.2374134 218.304066,74.823962 C218.021921,75.5981564 217.798193,76.407146 217.404184,77.1216914 C216.603735,78.5706652 216.293002,80.2308958 215.260126,81.5903961 C214.025894,83.2158315 214.19369,83.755158 215.578316,85.2637807 C217.037519,86.8531782 218.398529,88.5320492 219.890048,90.2730546 C219.324514,90.7291209 218.834798,91.2013422 218.265535,91.5430813 C218.071638,91.659894 217.568251,91.5517801 217.397969,91.3678624 C217.263445,91.2221811 217.11522,91.0875518 216.963665,90.9554066 L216.659188,90.6918901 C216.255494,90.3381817 215.877289,89.9615223 215.721254,89.3994452 C215.707581,89.3534657 215.642949,89.3223985 215.606904,89.2801472 C214.620016,88.1853394 213.635614,87.0905316 212.554263,85.8900953 C212.277089,86.249232 212.003644,86.5996699 211.736413,86.9550786 C211.640708,87.0805901 211.583533,87.2458675 211.466697,87.3415545 C210.261053,88.3195496 209.085239,89.3435242 207.819934,90.2407447 C206.849204,90.9291936 205.588871,91.0199098 204.534865,91.580362 C204.317352,91.6959319 203.986732,91.5965169 203.708315,91.5965169 C202.593405,91.5965169 201.479738,91.5865754 200.366071,91.5990023 C198.589921,91.620128 197.176707,90.7229075 195.748578,89.8343858 C194.542934,89.0850452 193.74,88.0026643 193.047687,86.802228 C192.795372,86.3635593 192.004867,84.1963121 192.002381,83.7265761 C191.996166,82.7796482 191.997409,81.8327202 192.001138,80.8857922 C192.011081,78.8390857 192.846332,77.1067791 194.145196,75.5981564 C194.941915,74.6723541 195.793324,73.7627067 196.751624,73.0146088 C197.762128,72.2255021 198.929241,71.6364682 200.041665,70.9505046 C199.391612,69.9973632 198.7254,69.0529206 198.092748,68.0861096 C197.039985,66.4817999 196.389931,64.7581922 196.324056,62.7959884 C196.278067,61.4240612 196.526654,60.1353942 197.036256,58.902648 C197.492412,57.7978987 198.265516,56.862155 199.230031,56.1625218 C201.080757,54.8191765 203.303119,54.1704936 205.540397,54.514718 Z M247.041029,54.4933438 C247.722155,54.5181975 248.39831,54.6934165 249.074465,54.8139572 C249.746892,54.9332552 250.450391,54.9829627 251.078072,55.2228014 C251.711967,55.4638828 252.408009,55.5719967 252.985973,55.8540868 C254.059866,56.3785009 255.04924,57.0967744 256.018727,57.8088344 C256.750814,58.3469181 256.720984,58.578058 256.138048,59.4106587 C255.874547,59.7871931 255.629689,60.177397 255.353758,60.5949401 C254.237605,59.9064911 253.208458,59.2950888 252.202925,58.6464059 C251.014682,57.8796676 248.871868,57.1576661 247.640122,57.1526953 C246.803629,57.1502099 245.968378,57.1502099 245.133128,57.1526953 C242.736755,57.1626368 240.304337,58.7744027 239.138467,60.8832436 C238.221183,62.5422316 238.297002,64.7256337 238.86005,66.1485111 C239.29259,67.2420762 240.08931,68.1691212 241.084898,68.8513567 C242.555287,69.8579337 245.773238,71.1913375 247.679896,71.8922133 C249.968134,72.7322701 252.206654,73.6642859 254.168001,75.2375284 C255.069127,75.9595299 255.632175,76.9039725 256.428895,77.6731962 C256.89748,78.1255345 257.123694,78.9693194 257.192055,79.6627391 C257.337478,81.119169 257.701657,82.5134645 257.306405,84.0817363 C256.83409,85.9619226 256.038614,87.5749312 254.716134,88.848686 C253.566422,89.9571634 252.11592,90.7487554 250.557283,91.2681988 C249.782937,91.5254352 249.004861,91.6310636 248.187012,91.6074526 C246.906792,91.5689292 245.625329,91.5850842 244.343866,91.5999964 C242.888393,91.6173941 241.584557,91.0917372 240.238461,90.6182732 C238.722972,90.0839175 237.428801,89.2122609 236.161626,88.2985775 L235.403006,87.7476865 C235.150177,87.5639499 234.896872,87.3808944 234.641538,87.2008822 C234.487415,87.0927684 234.457584,86.5236175 234.59555,86.3409424 C234.995774,85.8128001 235.510348,85.3728887 236.054752,84.8223781 C236.646388,85.2436492 237.284012,85.6226689 237.830902,86.1048317 C238.903552,87.0492743 240.866142,88.0546086 242.312915,88.6113327 C244.24816,89.3569453 246.245552,89.3693721 248.2243,89.2065801 C249.321809,89.1171065 250.440448,88.6510987 251.438522,88.1391114 C252.742358,87.4693027 253.818737,86.4714246 254.110826,85.4598768 C254.157473,85.2981813 254.207543,85.1376209 254.258909,84.9775198 L254.41477,84.4979188 C254.751676,83.4588402 255.053481,82.4106138 254.736021,81.1676338 C254.206532,79.0973162 253.166198,77.5787519 251.37389,76.5734176 C249.299436,75.4127474 247.042272,74.6708628 244.82861,73.8134084 C242.818788,73.0342432 240.702075,72.2799318 239.119823,70.6544964 C237.691797,70.0260072 237.071365,68.8232732 236.523481,67.5692044 L236.331925,67.1253117 C236.172811,66.755044 236.012492,66.3856573 235.832267,66.0304558 C235.860855,64.541716 235.675658,63.0107248 235.972719,61.577906 C236.326954,59.8704532 237.235538,58.2872691 238.653723,57.2024028 C240.226032,55.9994812 241.928849,55.0475825 243.995845,54.7518228 C245.016292,54.6064284 246.021824,54.4560632 247.041029,54.4933438 Z M485,64.2394943 L485,66.6962878 C484.441457,66.9098747 483.862523,67.0118139 483.276245,67.093426 L482.570022,67.1874479 C482.452009,67.2034403 482.333911,67.2200806 482.215832,67.2380996 C481.00273,67.42326 479.82816,67.9936537 478.877317,68.8163129 C477.326137,70.1609009 475.994957,71.6707664 475.545016,73.7833353 C475.32626,74.8135234 474.962081,75.8076735 474.963324,76.883841 C474.973267,81.6197235 474.968295,86.3556061 474.968295,91.2182428 C474.116887,91.312687 473.254292,91.2381258 472.34198,91.2704357 L472.34198,64.5874469 L474.998126,64.5874469 L474.998126,70.1807839 C475.888065,68.0769137 477.430544,66.6055716 479.286241,65.5468017 C480.979115,64.5824761 482.832326,63.8840857 485,64.2394943 Z M412.704732,55.1360618 C418.99894,55.163401 425.294391,55.1460033 431.589842,55.1460033 L432.442493,55.1460033 L432.442493,57.4574023 L413.799755,57.4574023 L413.799755,72.2006484 L428.605562,72.2006484 C428.939911,72.2006484 429.275502,72.1844934 429.608608,72.2043764 C430.185329,72.2404144 430.453802,72.5175337 430.477418,73.125208 C430.49979,73.6732332 430.482389,74.2225011 430.482389,74.8264473 L413.758738,74.8264473 L413.758738,89.352223 C413.758738,89.686506 413.774897,90.0220317 413.75501,90.355072 C413.720208,90.9490766 413.451734,91.2324094 412.867556,91.2572632 C412.316937,91.2808742 411.423269,91.2622339 410.742142,91.2622339 L410.742142,89.2764191 C410.742142,85.6187359 410.786888,82.6081573 410.764515,78.7173023 C410.742142,74.8264473 410.742142,71.5390357 410.748357,67.8549697 C410.754572,64.1709037 410.764515,60.7256708 410.742142,57.1604 C410.729713,55.2106231 410.631521,55.127363 412.704732,55.1360618 Z M160.528482,64.2178716 L160.528482,66.7430128 C158.444085,67.0984215 156.392004,67.40288 154.680487,68.8332134 C153.59665,69.73789 151.857788,71.615591 151.550784,72.8719482 C151.251237,74.0959955 150.992707,75.3312271 150.79881,76.5900696 C150.580303,78.0059879 150.543909,79.4165378 150.540628,80.8262824 L150.542865,82.2359276 C150.543611,82.7058325 150.542517,83.175817 150.534065,83.64605 C150.493049,85.9847881 150.527851,88.3235262 150.521636,90.663507 C150.521636,90.8673078 150.474405,91.0698659 150.449546,91.2624825 L148.35272,91.2624825 C148.225866,90.5182473 148.141713,84.7532949 148.120655,78.6579932 L148.118128,77.805814 L148.116432,76.9521785 C148.11622,76.8099419 148.116042,76.6677626 148.1159,76.5256996 L148.115911,74.8303015 C148.120415,70.4844516 148.15993,66.4771376 148.242099,64.5658241 L150.480619,64.5658241 L150.480619,70.7879611 C151.722309,68.6816055 152.855863,66.9381148 154.71156,65.8408216 C156.496411,64.7857798 158.342165,63.9618779 160.528482,64.2178716 Z M290.280522,64.5013286 L290.280522,91.2315395 L287.717596,91.2315395 L287.717596,64.5485508 C288.505615,64.4565919 289.365724,64.5361239 290.280522,64.5013286 Z M464.542084,64.5424616 L464.542084,91.2304211 L462.315993,91.2304211 L462.315993,64.5424616 L464.542084,64.5424616 Z M336.755368,64.303617 C338.959087,64.8914083 339.397842,65.2082936 341.028569,66.8759804 C342.006756,67.8751013 342.684154,69.0432276 342.849464,70.4623769 C343.21472,70.8381657 343.243755,71.2811148 343.237695,71.7371189 L343.231274,72.0807244 C343.228282,72.3676932 343.240988,72.6544779 343.342908,72.9278692 C343.616353,73.6598122 343.510704,74.5458485 343.51319,75.3622942 C343.524376,80.2062906 343.518161,85.050287 343.518161,89.8930407 L343.518161,91.2264445 L340.843372,91.2264445 L340.843372,89.7662866 C340.843372,85.0341321 340.788683,80.3007349 340.876931,75.5698231 C340.901789,74.1904398 340.690491,72.8383957 340.43569,71.5472432 C340.080211,69.7428608 339.109481,68.118668 337.340789,67.1953511 C335.051308,66.0011283 331.768725,66.2285402 329.7067,67.5520025 C328.054844,68.612015 327.016995,70.2560908 326.45519,72.1673443 C326.227733,72.9440241 326.110898,73.7182185 326.114627,74.535907 C326.136999,79.6570227 326.125813,84.7793811 326.125813,89.9004968 L326.125813,91.2289299 L323.509441,91.2289299 L323.509441,64.5446984 L326.122084,64.5446984 L326.122084,68.5734917 C327.68445,66.7156737 329.076534,64.8876802 331.47415,64.3508392 C332.344202,64.1557372 333.224198,63.9941878 334.104194,63.8450653 C335.033907,63.687244 335.900231,64.0762052 336.755368,64.303617 Z M128.725579,54.8711208 C129.391791,56.6630764 130.075404,58.5494762 130.796304,60.4234492 C131.425228,62.055098 132.112569,63.6656212 132.743979,65.2972701 C133.448721,67.1227782 134.101261,68.9681693 134.810975,70.7911921 C135.314362,72.0860726 135.914698,73.3436725 136.399442,74.6435237 C137.173789,76.7188121 138.030169,78.7617905 138.785872,80.8395642 C139.279316,82.1953364 139.790161,83.5486233 140.335808,84.878299 C141.038064,86.5919653 141.511622,88.3988331 142.411504,90.0366954 C142.575571,90.332455 142.482352,90.7698811 142.512222,91.2048218 L139.848578,91.2048218 C138.61559,87.9850181 137.345313,84.6682848 136.050178,81.2881745 L118.470147,81.2881745 C117.197384,84.6036651 115.942023,87.8706908 114.664289,91.2010937 L112.173453,91.2010937 C111.593004,90.6033609 112.679326,90.0988298 112.394695,89.4725152 C113.658757,87.2679873 114.182031,84.759001 115.284512,82.4799119 C116.020328,80.9563769 116.5088,79.3110585 117.071848,77.7079914 C117.619981,76.1533892 118.52235,74.7255411 118.749807,73.0553689 C120.046185,70.8657533 120.691267,68.3952903 121.623466,66.0590376 C122.631483,63.5314109 123.707863,61.0124831 124.492153,58.3841988 C124.745711,57.5366858 125.107404,56.6382226 125.577232,55.8304757 C125.72887,55.5670259 125.773616,55.2414417 125.889208,54.8711208 L128.725579,54.8711208 Z M99.9947601,2.51052531 C100.039357,3.07905272 99.7915964,3.70991867 99.5438359,4.24977036 C99.3629708,4.64374988 99.003718,4.98785858 98.6543757,5.26464166 C95.8051298,7.52129653 95.4347279,10.6220151 95.8509655,13.8947881 C96.293218,17.3807588 96.8432464,20.8592489 97.5010505,24.3128036 C98.4982866,29.5467467 97.4837073,34.377983 94.7187,38.8314477 C93.3622112,41.0170366 92.2212741,43.2375352 91.5659475,45.7422974 C91.1385606,47.3793072 90.4485476,48.951485 89.8291463,50.533637 C89.5120129,51.3477782 89.3336253,52.1033212 89.6098783,52.9972558 C90.1747722,54.8300086 89.8489672,55.7725672 88.2087926,56.7113855 C85.4103376,58.3134858 82.553659,59.8133509 79.7143235,61.3443852 C78.2351933,62.1410717 78.1943128,62.3305808 79.4281601,63.4489341 C80.0153525,63.9813051 80.6260822,64.4887408 81.2442447,64.9862023 C82.5189725,66.0135413 82.496674,65.9786317 83.726805,64.8079141 C84.9941,63.5997933 86.2626338,62.3816984 87.6377046,61.3044886 C88.8492535,60.3556961 90.2726376,60.1412516 91.8236184,60.5053086 C92.4219601,60.6461937 93.1429432,60.4404765 93.764822,60.2509674 C94.9305352,59.8956377 95.9872338,59.9180796 96.9497834,60.7546627 C98.238138,61.8767563 98.4066152,63.2656588 97.2780661,64.6445871 C95.0172514,67.4111712 92.6957354,70.1266376 90.4101447,72.8720266 C86.6367522,77.4040379 82.879464,81.9497637 79.0949222,86.4718008 C78.3689839,87.3395532 77.5773891,88.1586815 76.7573018,88.9391599 C76.4042431,89.2745412 75.9149161,89.4752713 75.4652308,89.6934561 C74.7764566,90.0263439 74.0926375,90.395388 73.3654604,90.6123261 C72.6234177,90.8330045 71.8305841,91.0112927 71.0637653,90.9994414 C66.1952713,90.9190317 61.3280161,90.7818869 56.4607609,90.6646905 C56.4607609,90.6734179 56.4595221,90.6821452 56.4595221,90.6896259 C51.4237897,90.5574682 46.3868185,90.4489991 41.352325,90.2806851 C39.0543462,90.2046321 37.9059763,88.8581198 38.2677066,86.7884805 C38.334602,86.4082155 38.4361838,85.9194814 38.7012875,85.7075304 C39.4438933,85.1172412 39.9998802,84.388107 40.5320608,83.6386854 L40.986183,82.9941209 C41.1381452,82.7794535 41.2919615,82.565895 41.4514292,82.3562109 C41.8837713,81.7864367 42.732351,81.3949507 43.4620057,81.2216496 C45.2198665,80.8077217 47.017369,80.5621079 48.8012447,80.262883 C50.311345,80.0097885 51.083119,78.4837413 50.3831956,77.1035662 C50.0895993,76.5238178 49.6721229,76.6983657 49.238542,76.9065764 C47.6565911,77.664613 46.0758791,78.4238963 44.4877342,79.1707119 C43.4136924,79.6769008 42.3520386,80.2254799 41.2433103,80.643148 C39.7617025,81.2017013 38.8821527,80.9573342 37.9815432,79.70807 C37.4488581,78.9699818 36.8022032,78.5822361 35.9585787,78.2917386 C34.2515087,77.7032628 32.6150506,76.9065764 30.9042643,76.3318151 C29.8029688,75.9615243 28.6261064,75.6710267 27.4715424,75.6286365 C23.3934044,75.479024 19.317744,75.3044761 15.346143,74.2983322 C11.3708257,73.2909415 7.56894064,71.8870778 4.51900876,68.9359717 C2.72646147,67.2017137 1.44058442,65.1694776 0.561034612,62.8592116 C-0.760767708,59.3844618 0.399990281,56.3797445 2.51090983,53.6767458 C3.32975831,52.6282117 4.44468061,51.7367706 5.58314015,51.0323452 C8.37168469,49.3068147 11.2667662,47.7545852 14.0924749,46.0888996 C15.5480679,45.2298747 16.959064,44.2910564 18.3712989,43.3584719 C19.0860879,42.8846991 19.3635797,42.1890011 19.330132,41.3112745 C19.2607591,39.5109377 20.0721748,38.1332561 21.5401558,37.1520477 C23.1394499,36.0823184 24.7969677,35.0973696 26.3764409,34.0014582 C29.5812231,31.7759726 32.7872441,29.5455 35.9201758,27.2202727 C37.1639335,26.2964157 36.9942176,25.7665381 35.5398634,25.1194642 C34.8176415,24.7977973 34.0644496,24.5135336 33.402929,24.0896316 C31.7379784,23.0248895 31.3812032,21.1609674 32.5035584,19.5164769 C32.8182142,19.0564185 33.2109146,18.6100746 33.6593611,18.2846675 C36.5309054,16.2025605 39.6972848,14.7164099 43.108947,13.7788384 C43.7456915,13.6030437 44.4691522,13.590576 45.1281951,13.6790967 C46.7175788,13.8910477 47.8263071,15.4781868 47.6194271,17.1912496 C47.5389049,17.8620122 47.3283085,18.5190604 47.1685029,19.1798488 C46.7683697,20.8393005 47.0892196,21.2943718 48.6996629,20.8430409 C52.1819369,19.8680662 55.6419124,18.8020773 59.0622462,17.6288661 C61.090166,16.9331681 63.0697725,16.052948 64.9862,15.0867008 C66.5594792,14.2925079 67.9679977,14.4807703 69.2885613,15.4233289 C71.5456595,17.0354033 73.7767429,18.689868 75.9359757,20.429113 C77.8759405,21.9925634 79.7081295,23.690665 81.5824378,25.3364023 C82.7221361,26.3375591 83.1383738,26.3063898 84.0327892,25.1381657 C84.8528765,24.0671897 85.3496363,22.8989656 85.2146068,21.5113099 C85.0325029,19.6473878 84.7649215,17.7834657 84.7289962,15.9158033 C84.6769665,13.2040771 84.6385637,10.4736494 84.893757,7.78062482 C85.1316071,5.2546675 86.6540954,3.59646254 89.1354169,2.78606162 C91.5535595,1.9968558 93.8961351,0.978244187 96.3105613,0.177817434 C98.1935411,-0.445567888 99.8461037,0.626654866 99.9947601,2.51052531 Z M444.698798,76.919009 C443.764113,76.9127956 442.814513,77.1414501 441.8935,77.3589205 C439.924696,77.8236856 438.726509,79.1980981 437.952163,80.9639573 C436.706745,83.8059839 437.918603,87.09165 440.692828,88.6027581 C442.267623,89.4602126 443.823774,89.820592 445.659584,89.2999059 C447.719123,88.7146 449.167139,88.1504198 450.852554,86.1571489 C451.812098,85.0238178 452.24091,83.8159254 452.227237,82.3806212 C452.212322,80.9366181 452.223509,79.4926151 452.223509,78.0026326 C450.607697,77.5689347 449.141037,77.0358217 447.56127,77.2160114 C447.506581,77.2222248 447.430762,77.2408651 447.397203,77.213526 C446.568168,76.5176209 445.591223,76.9239798 444.698798,76.919009 Z M96.4616952,1.8908803 C93.9778961,2.83842599 91.4953358,3.78846522 89.0003874,4.70608841 C87.4444514,5.27835614 86.5574688,6.39795618 86.4918123,8.01252416 C86.3914693,10.4985848 86.3728872,12.9921261 86.4459766,15.4781868 C86.5004839,17.347096 86.7544384,19.2097713 86.9191991,21.0749402 C87.1384672,23.5622476 86.2056489,25.625653 84.5865339,27.4309769 C83.2188959,28.9570242 82.9983891,28.9096469 81.4486471,27.5955507 C77.2986585,24.082151 73.0904463,20.6385705 68.9367413,17.1289111 C67.7735057,16.1452091 66.6895535,16.2337298 65.3442139,16.7823089 C61.2128074,18.4654492 57.0652965,20.1323816 52.8434574,21.5661678 C50.7833288,22.2656062 48.5572006,22.543636 46.3806245,22.8017175 C45.1814636,22.9450962 44.8568974,22.4526218 45.0451954,21.2382672 C45.2186277,20.1211607 45.5803581,19.0352234 45.7884769,17.923104 C46.1960429,15.7449957 45.2396874,14.7438389 43.1807975,15.4781868 C40.9038784,16.2898345 38.7384516,17.4243958 36.5544427,18.4804105 C35.8483252,18.8220256 35.2078643,19.3219807 34.588463,19.8132083 C33.1167656,20.9826792 33.1762281,22.0586422 34.770567,22.9974605 C35.4011175,23.3689982 36.0898917,23.6445345 36.7675167,23.9287982 C39.6712699,25.1468931 40.1407761,25.5583274 37.5541563,28.0855315 C35.6637437,29.9332456 33.4500035,31.4742541 31.2672334,32.9878337 C28.4799277,34.921575 25.6009505,36.7281456 22.7157794,38.5135212 C21.3952159,39.3314027 20.943053,40.4248206 20.9690678,41.9271792 C20.980217,42.5954483 20.7646654,43.4881361 20.3100249,43.9020639 C19.1071476,45.0017156 17.7803901,45.9966386 16.387976,46.8431959 C14.7478014,47.8418592 12.9527765,48.5787006 11.2890647,49.5424543 L10.8137536,49.8163868 L9.86151256,50.3626972 C7.64115125,51.6407089 5.45044253,52.96836 3.68653344,54.9048148 C1.61773319,57.176431 1.06274964,60.1861353 2.39570119,62.9514726 C3.00519204,64.2169448 3.7608616,65.4512477 4.64908303,66.5359382 C7.79811911,70.3859659 12.1141072,72.2087446 16.8500493,72.9518199 C20.4153231,73.5103732 24.0462533,73.6811807 27.656124,73.9068462 C29.1575527,74.000354 30.5152803,74.3107999 31.8767243,74.9753287 C33.4425707,75.7395991 35.1112377,76.3118668 36.7749495,76.8442379 C37.7189171,77.1459564 38.5947505,77.4140121 39.124958,78.3416094 C39.601897,79.175699 40.2894324,79.3203244 41.1491613,78.887695 C41.9568606,78.4824945 42.8054404,78.1570874 43.616856,77.7581208 C45.3429209,76.9078232 47.0656823,76.0514303 48.7869755,75.1918974 L51.3680436,73.9006124 C51.9998329,73.5839326 52.3974885,73.4293331 52.3330708,74.4629059 C52.2017577,76.5587274 52.1583996,78.6607827 52.1323848,80.7615912 C52.1224743,81.5320955 51.9217883,81.8612429 51.070731,81.8687236 C49.7737047,81.8786977 48.4630516,81.9684652 47.1883238,82.1966242 C45.8640438,82.4322639 44.5459579,82.7913338 43.2885733,83.2651067 C42.7781867,83.4571094 42.1315318,84.0592996 42.0795021,84.5343192 C41.9680098,85.5491905 41.4662948,85.9394297 40.6325807,86.3234351 C40.2646563,86.4929959 39.9376125,87.2111358 39.9722989,87.6512458 C39.9995526,87.9903674 40.580551,88.3519309 40.9868782,88.5701158 C41.2569372,88.7159879 41.6521152,88.6312075 41.9915471,88.6399349 C46.7460713,88.7621185 51.4993566,88.8818084 56.252642,89.0027452 C56.2538808,88.9815501 56.2538808,88.9591082 56.2551196,88.9379131 C59.3100067,89.0413951 62.3648938,89.1573448 65.4197809,89.2421252 C67.3448801,89.2969831 69.271218,89.3580748 71.1938396,89.2994766 C71.6571517,89.2845154 72.5044927,88.7745862 72.4846718,88.5514142 C72.4351197,87.9616917 72.0238373,87.3944111 71.7153755,86.8408449 C71.6521965,86.7286355 71.41063,86.6625567 71.2533021,86.6650502 C70.4592297,86.6775179 70.2461556,86.1688355 70.0467084,85.5142809 C69.5561426,83.8997129 68.4498919,82.9247383 66.7651205,82.7102938 C64.9713344,82.4833815 63.1738319,82.2115855 61.372613,82.1430131 C59.3422156,82.0632198 59.6804087,81.8550091 59.7311996,80.4511453 C59.8488858,77.273127 60.0148854,74.0976021 60.0631987,70.918337 C60.0780643,69.8573352 60.4720035,69.3124964 61.397389,68.8399703 C67.8490727,65.5472491 74.2796967,62.2121376 80.7004103,58.8583246 C82.9054789,57.7050617 85.0609953,56.4545508 87.2437654,55.2564042 C88.0564199,54.8088135 88.419389,54.2278184 87.9486441,53.3064549 C87.4952423,52.4175074 87.7591073,51.5859114 88.0973004,50.701951 C88.908716,48.5861812 89.7374749,46.4654244 90.3444882,44.287316 C90.8858449,42.3448474 91.6712457,40.5706928 92.7713024,38.8937862 C94.4672231,36.3117242 95.9513085,33.5763094 96.0082935,30.4157459 C96.0528903,27.9346723 95.7927418,25.4348971 95.4929516,22.9650445 C95.1782957,20.3779954 94.5811929,17.8271027 94.2405222,15.2413004 C93.6669566,10.9062788 94.0584182,6.8218582 97.7091694,3.74482825 C98.2604365,3.2797828 98.3781227,2.69878768 97.9680791,2.07914267 C97.5506026,1.44578318 97.0092459,1.68142283 96.4616952,1.8908803 Z M201.485953,72.8294483 C199.610368,73.5862451 198.192183,74.7779825 196.88959,76.1548804 C196.112757,76.9775396 195.529822,77.8809735 195.115926,78.9347726 C194.49446,80.5129859 194.574007,82.1533336 194.736831,83.7539153 C194.87604,85.1283278 196.284282,87.0644351 197.663936,88.0287607 C198.886982,88.8849725 200.245506,89.5088017 201.830245,89.2602642 C202.047758,89.2267116 202.278943,89.229197 202.497699,89.2602642 C203.351498,89.3845329 204.124396,89.1227597 204.877493,88.8256346 L205.327464,88.6459228 C205.402226,88.616199 205.476912,88.5868231 205.551583,88.5581456 C207.339212,87.870647 208.656548,86.5552471 209.947586,85.2146355 L210.463651,84.6784749 C210.898677,84.2273793 210.802971,83.8607864 210.420148,83.4084481 C209.48422,82.3049415 208.615411,81.1455139 207.686941,80.0345512 C206.884007,79.0751963 205.94435,78.2189846 205.23215,77.1999807 C204.13837,75.6366797 202.91781,74.2001328 201.485953,72.8294483 Z M94.6493271,61.7657937 C93.5319272,62.5836752 92.4529301,62.5899091 91.2277544,62.0562913 C90.8722181,61.9016917 90.2862645,62.0001866 89.9220565,62.1971763 C88.8851788,62.7582231 87.8037042,63.3117893 86.932826,64.0860339 C85.6692474,65.2118678 84.5468923,66.5035222 83.4220595,67.776475 C82.8906133,68.3786652 82.5487037,68.4173151 81.9305413,67.852528 C80.4253962,66.4785867 78.8632662,65.1632437 77.2664497,63.8990183 C76.8824209,63.596053 76.1502886,63.3117893 75.7885582,63.4776098 C73.8399218,64.3752847 71.9532255,65.4113511 70.0529024,66.4150014 C69.4669488,66.7242006 69.4186355,67.1792718 69.8522164,67.6605253 C70.1544842,67.9959066 70.4840057,68.3100928 70.8283928,68.6043307 C72.6345669,70.1503263 74.4481739,71.6888413 76.2642584,73.2248627 C77.6839261,74.4255028 77.6269412,74.3818658 76.6458096,75.886718 C75.4751412,77.6858081 74.3862338,79.5422495 73.3282964,81.4111587 C72.8166709,82.3138207 72.9095811,83.2937824 73.5203108,84.1378461 C74.0071602,84.8098555 74.334204,85.3472137 73.8213398,86.2411482 C73.424923,86.9343527 74.1942194,87.9629385 75.2236643,87.9853803 C75.582917,87.6624667 76.1775422,87.242305 76.6297052,86.7024534 C82.860882,79.2829213 89.072238,71.8484279 95.2848328,64.4151813 C95.5387873,64.1122161 95.89804,63.8129911 95.9698906,63.4626485 C96.0603232,63.0225385 96.0466963,62.432816 95.810085,62.0949412 C95.6217871,61.8256387 94.8648787,61.6087006 94.6493271,61.7657937 Z M66.2559726,68.2514946 C65.1645876,68.8462042 64.0509041,69.4010171 62.9396982,69.9595704 C62.1059841,70.3784853 61.679836,70.978182 61.7046121,71.9755985 C61.7603582,74.1250311 61.7219553,76.2769572 61.7219553,78.4276366 C61.4060606,80.1207511 61.6203735,80.322728 63.3026673,80.5621079 C65.6861234,80.9012295 68.1773554,80.7989944 70.2634989,82.3686786 C71.0228848,82.9396995 71.2842722,82.2876385 71.5890176,81.6729806 C72.5144031,79.8040714 73.4682811,77.9476299 74.4791439,76.1236044 C75.1728734,74.8718467 75.2261419,74.6125184 74.1434285,73.6612324 C72.1452399,71.9070261 70.0875889,70.2201454 68.0894004,68.4659391 C67.4836259,67.9335681 66.9410304,67.8774634 66.2559726,68.2514946 Z M127.25892,58.5594177 C126.982989,59.0689197 126.637454,59.5423836 126.457228,60.0705259 C125.977457,61.4847044 125.408194,62.8640877 124.90232,64.2633539 C124.340515,65.8129854 123.659388,67.3166374 123.133628,68.8675116 C122.372954,71.1130482 121.389794,73.2666258 120.634092,75.5084343 C120.273641,76.575903 119.664605,77.5886934 119.767768,78.8351091 L134.818432,78.8351091 C134.793574,78.4076245 134.865664,77.9962949 134.731427,77.6682254 C134.223068,76.4305085 133.73211,75.1903063 133.318213,73.9153088 C133.003752,72.9410417 132.418331,72.0475493 132.159801,71.0645833 C131.882627,70.0070562 131.297206,69.0812539 131.074721,68.0013583 C130.888281,67.1053806 130.295403,66.3386423 130.094048,65.4053839 C129.888964,64.4596986 129.471339,63.5140133 129.036312,62.6863833 C128.330327,61.3393099 128.234621,59.739971 127.25892,58.5594177 Z M380.607254,66.7118214 C380.13494,66.9131368 379.514717,66.9031953 379.157996,67.2138672 C378.152463,68.0862339 376.991565,68.9312615 376.361398,70.050923 C375.207957,72.1001149 374.315532,74.3195551 374.685926,76.8397256 L390.293424,76.8397256 C390.559411,74.3282539 390.029922,73.1352737 389.345067,71.1867395 C388.762132,69.5327223 387.580103,68.2664236 386.231522,67.3431067 C384.572208,66.2048048 382.605889,65.8630657 380.607254,66.7118214 Z M306.109014,66.4450163 C305.097267,66.7855128 304.135237,67.1508629 303.323603,67.7746921 C300.883727,69.6523931 298.965883,73.6041398 299.435711,76.8313996 L315.130214,76.8313996 C315.060688,76.4857771 315.065203,76.1396691 315.083222,75.796451 L315.107452,75.3861924 C315.141896,74.7735331 315.141634,74.1746111 314.753606,73.6091105 C314.51372,71.0578728 313.124122,69.1652596 311.263453,67.552251 C310.990008,67.3148977 310.675546,67.0464772 310.341197,66.975644 C310.033502,66.9099196 309.732253,66.8206302 309.432292,66.7273996 L308.982672,66.5870509 C308.08279,66.3102538 307.171306,66.0862939 306.109014,66.4450163 Z M199.699859,59.5650006 C199.432629,60.0024266 199.099523,60.4746479 199.049806,60.9568107 C198.786304,63.4993496 199.358053,65.8095059 201.101887,67.7779231 C201.654991,68.402995 202.072616,69.1461222 202.584704,69.8805506 C202.79476,69.8432699 203.094307,69.8643956 203.308091,69.7388842 C204.340968,69.1324526 205.365144,68.5073807 206.366947,67.849999 C208.753376,66.2817272 210.385346,62.7003014 208.774506,59.4481879 C208.018803,57.9221675 206.642878,57.5617881 205.431019,56.8186609 C203.044589,56.6335004 201.14166,57.2014087 199.699859,59.5650006 Z M57.4973908,23.7498866 C58.0474192,24.0478648 58.5355074,24.329635 57.596495,24.8308368 C57.1653917,25.0614893 56.8668403,25.5302751 56.4691847,25.8432145 C56.1446184,26.0975557 55.7655449,26.4578725 55.4075309,26.4628595 C53.8899978,26.4828079 52.7205682,27.2184025 52.0020627,28.4003411 C50.9515582,30.1283652 50.1438589,32.0060018 49.2432494,33.8237934 C48.9694741,34.3761128 49.2754583,34.598038 49.7573525,34.8349244 C51.3318705,35.6079222 52.8568365,36.484402 54.4449813,37.2224902 C54.8859951,37.4282073 55.5314112,37.4381815 56.0021562,37.2860755 C57.3982866,36.832251 58.7337158,36.1914109 60.1310851,35.745067 C61.1159331,35.4308808 61.3475892,34.9072371 61.0453213,33.978393 C60.8000384,33.2253435 60.5621883,32.4573328 60.4494573,31.6781011 C60.4110544,31.412539 60.7628744,31.0908722 60.9363067,30.7941408 C61.1555748,30.9799096 61.5111111,31.1295221 61.568096,31.3551875 C61.7774536,32.1780562 61.9657516,33.0208731 62.0103485,33.8649368 C62.0648558,34.8760678 62.5194964,34.9396531 63.3371061,34.70152 C65.740383,34.0045752 68.1894956,33.554491 70.7042648,33.722805 C71.5416953,33.7789097 72.4039019,33.8998464 73.1942579,34.1691489 C75.4166697,34.9271854 76.5415024,36.9731361 75.7164599,39.1686992 C75.1726256,40.6186934 74.3091802,42.0200636 73.3119442,43.2094828 C72.1561414,44.5884112 70.7228469,45.7379337 69.360164,46.9310932 C68.8188073,47.4061128 68.7593448,47.6330251 69.2647762,48.2514233 C70.7996526,50.1303067 72.2763052,52.0665415 73.6290776,54.0788293 C74.1431807,54.8443465 74.3897024,55.8604645 74.5284483,56.7955425 C74.799746,58.6158277 73.5943912,60.4236451 71.9480226,60.9211066 C71.5082477,61.0545111 71.1242189,61.1043819 71.2530543,60.4435934 C71.4946208,59.1993163 71.0622787,57.9388312 71.7485754,56.6509171 C72.371693,55.4801995 71.9170525,54.0389326 71.2567707,52.8943972 C70.4106686,51.4294417 69.3824625,50.0704617 68.4261069,48.6703382 C68.0730482,48.1529284 67.6716762,48.0407191 67.1823492,48.5244661 C66.982902,48.7214558 66.7326638,48.8698215 66.4960526,49.0256679 C66.1518112,49.25126 65.7820565,49.459941 65.4064116,49.6646712 L64.8409796,49.9704236 C63.8052491,50.5314778 62.7991743,51.1116618 62.2308554,51.9805143 C61.348828,53.3270266 61.5916333,55.3804579 61.179112,57.0835466 C60.9375455,58.0809631 61.2844102,58.4275653 62.1404228,58.6133341 C62.7486748,58.744245 63.3804641,58.8489738 63.9317313,59.1145359 C64.1745366,59.2317324 64.2414319,59.7154794 64.3888494,60.0334059 C64.1039248,60.0770429 63.8190002,60.1256669 63.5340757,60.1618233 C63.4845236,60.1680571 63.4300162,60.1194331 63.3755089,60.103225 C62.528168,59.8551177 61.4157233,59.1669003 60.9016202,59.4773462 C60.3144278,59.831429 60.3218606,61.1018883 59.9588915,61.9235102 C59.1809235,63.68021 58.5255969,65.5354047 57.471376,67.1150632 C54.9603232,70.8803105 51.3083333,70.7045158 49.2791747,66.6437838 C48.2348642,64.5517027 47.7331491,62.1678772 47.1335687,59.8775596 C46.7606891,58.4487604 46.887047,58.4300588 45.4264988,58.755466 C42.7172376,59.3613965 40.0054988,59.9797948 37.2095215,59.3239934 C35.1047959,58.831519 33.8399785,57.5498388 33.655397,55.7133456 C33.6343373,55.5026414 33.7111431,55.281963 33.7433519,55.0662716 C33.9427992,55.1286102 34.1422464,55.1872084 34.3404548,55.254534 C34.3912457,55.2719888 34.4308874,55.3280935 34.4829171,55.3455483 C35.9992114,55.8455033 37.3978195,56.5312272 38.8088156,57.3304071 C40.9483229,58.5434191 43.3622726,58.1533643 45.6930776,57.6772602 L46.2738397,57.5573194 C46.4757645,57.5149292 46.7037042,56.9501421 46.6950326,56.6359559 C46.6479581,54.8780093 46.5624807,53.1200627 46.4150632,51.3683499 C46.3816156,50.9793575 46.1301386,50.5180523 45.832826,50.2599708 C44.5940235,49.1815142 43.2722212,48.1990589 42.0358962,47.1181088 C41.5279872,46.6730117 41.1897941,46.7029342 40.7661236,47.1629925 C40.2656474,47.7028442 39.7119026,48.1953186 39.226292,48.747638 C38.7964275,49.2363721 38.341787,49.8410559 37.7508782,49.1204224 C37.168641,48.4122567 38.1212802,48.2264879 38.4260256,47.8798857 C38.8682781,47.3749435 39.4306944,46.9635092 39.9819616,46.5682829 C40.5728704,46.1418874 40.6075569,45.850143 40.0723942,45.2654076 C38.7357262,43.806686 37.4411776,42.2968467 36.2643151,40.7084609 C35.6362422,39.8594101 35.1729301,38.843292 34.8310206,37.8346546 C33.7185759,34.5581413 35.3760937,32.1793029 38.8199648,31.9985212 C39.1581579,31.9810664 39.4988286,31.9960277 39.8382605,31.9960277 C42.3678953,32.0371711 44.7501126,32.7366094 47.0580017,33.7028567 C47.8855218,34.0482121 48.2261926,34.0619266 48.5470424,33.0071586 C49.1875033,30.9038566 50.0187398,28.8429447 50.9515582,26.8493584 C51.6006907,25.4592092 52.627658,24.2934786 54.0820122,23.6015209 C55.256397,23.0417209 56.3861849,23.1489432 57.4973908,23.7498866 Z M21.5303692,52.3989305 C22.2278151,57.4146888 23.3241553,62.3269652 24.9147778,67.1370063 C25.591164,69.1817102 25.396672,69.3462839 22.5722022,69.2465422 C17.5364698,68.5333894 12.3112007,66.7841702 8.37304737,62.3045233 C6.77499208,60.4854849 6.76012645,58.5106002 8.58736021,56.8985258 C10.144535,55.5270781 11.9160227,54.3663346 13.7060923,53.3028392 C15.3512221,52.3241243 17.0991725,51.4750735 18.8867646,50.7955835 C20.716476,50.1011322 21.2603103,50.4539683 21.5303692,52.3989305 Z M18.124901,52.8751969 C16.8055763,53.5185306 15.4602368,54.1282014 14.216479,54.8987057 C12.7385876,55.8138353 11.2557409,56.7713552 9.95747583,57.9183842 C8.60346464,59.115284 8.6802704,60.0378943 9.85465522,61.4330306 C11.3771436,63.2408481 13.2663174,64.611049 15.3982966,65.529919 C17.4547089,66.4151261 19.6399566,67.0011083 21.7682193,67.7192482 C22.8373059,67.4698941 23.156917,67.0871355 22.8819028,66.0747577 C22.497874,64.6571795 21.9490845,63.2807447 21.6294735,61.849452 C21.3931099,60.7911931 21.1777565,59.7281466 20.9696971,58.6634244 L20.3536852,55.4673428 C20.2500916,54.934862 20.1448925,54.4027403 20.0363734,53.8713667 C19.7316279,52.3764887 19.4467034,52.2306165 18.124901,52.8751969 Z M53.6199389,55.9701804 C51.8645556,56.5786044 50.1240381,57.2356526 48.4045801,57.9425715 C48.154342,58.0448067 47.853313,58.543515 47.9065815,58.7841417 C48.3909533,60.9398082 48.9793845,63.0730327 50.3631269,64.8609018 C51.1906471,65.930631 52.2225696,66.6824337 53.6744462,66.6063807 C55.0420842,66.6674725 56.0232158,65.9181633 56.8618851,64.9593967 C58.261732,63.3548029 59.0545656,61.4260487 59.7371458,59.4337092 C59.9390707,58.8464802 59.7086534,58.6282954 59.2515352,58.4001364 C57.7389573,57.6420998 56.2462003,56.8441666 54.7224731,56.1073251 C54.4016233,55.9527256 53.9383111,55.8592178 53.6199389,55.9701804 Z M67.8324727,56.9178507 C69.3277074,56.8904218 70.5702264,58.0810877 70.591286,59.5622513 C70.6123457,61.0197262 69.405752,62.2677436 67.9154725,62.3288353 C66.4920884,62.3874335 65.1417936,61.0957792 65.1393123,59.6757074 C65.1368384,58.231947 66.394223,56.9440329 67.8324727,56.9178507 Z M289.659429,54.4805441 C290.376601,54.4979417 290.64756,54.7415085 290.666204,55.4212587 C290.688577,56.2973534 290.671176,57.1759336 290.671176,58.1551714 L287.744071,58.1551714 L287.744071,54.4768161 C288.358079,54.4768161 289.009376,54.4643892 289.659429,54.4805441 Z M464.146832,54.488373 C464.614174,54.5169549 464.937336,54.7804046 464.934865,55.3135176 C464.931122,56.2405626 464.933608,57.1688503 464.933608,58.1244771 L461.985373,58.1244771 L461.985373,54.4771889 C462.72616,54.4771889 463.43836,54.444879 464.146832,54.488373 Z M61.1716792,52.2834796 C61.1109779,52.3433246 61.0490377,52.4044163 60.9883364,52.4655081 C59.1685355,53.3382475 57.3499733,54.210987 55.5301724,55.0849732 C55.1758749,55.254534 54.9219203,55.4540173 55.4558442,55.7145924 C56.8197658,56.3778744 58.1935979,57.0224548 59.5575195,57.6882303 C60.0381749,57.9226232 60.282219,57.7966994 60.3664575,57.2668218 C60.6129792,55.7145924 60.8756054,54.1661032 61.1307987,52.6151206 C61.1444255,52.5054047 61.1580524,52.3944422 61.1716792,52.2834796 Z M47.1595836,52.9068649 C47.2227625,54.0888035 47.3961948,55.2645082 47.4779558,56.4464468 C47.5262691,57.1508722 47.8136713,57.3179394 48.461565,57.0835466 C49.7833674,56.6060334 51.1212741,56.1696637 52.4443152,55.6971376 C52.6747325,55.6148507 52.8704633,55.434069 53.0822985,55.2994178 L52.6963427,54.9195683 C52.6305485,54.8581995 52.5628273,54.7994627 52.4913897,54.7458516 C51.4930976,53.993554 50.4862646,53.253536 49.4817887,52.5099549 L49.4814712,52.5172491 C49.1432614,52.2899204 48.8050517,52.0637771 48.466842,51.8365076 L48.4665202,51.8383825 C47.1137479,51.4518836 47.081539,51.4543771 47.1595836,52.9068649 Z M38.9937688,52.2697651 C39.0247389,53.7858382 37.9172494,54.9353607 36.3687462,54.998946 C34.8227206,55.0612846 33.6124105,53.9666199 33.5628584,52.460521 C33.5145451,51.0242412 34.7236164,49.7724835 36.2213287,49.7076514 C37.7425782,49.6428193 38.9640375,50.7699 38.9937688,52.2697651 Z M54.101833,38.8146163 C52.2163756,39.8344747 50.2974704,40.7919945 48.3847593,41.7607353 C47.7802236,42.0674409 47.4531798,42.4776285 47.4271649,43.2069893 C47.3751352,44.7330366 47.2165685,46.2553435 47.1335687,47.7813908 L47.09799,48.4295582 C47.0404478,49.6699541 47.1152161,50.8715811 48.5482812,51.5566123 C48.5564023,51.5606989 48.5401226,51.6153892 48.5188313,51.6800294 L48.475,51.809 L48.5563921,51.785429 C49.1195058,51.6390711 49.4633185,51.8229787 49.4809991,52.4944466 L49.4588011,52.492937 C49.7561137,52.5502885 50.0955456,52.5378208 50.3445449,52.6799526 C51.2240947,53.183648 52.132137,53.667395 52.9175378,54.2970142 C53.813192,55.0151541 54.6134585,54.9303736 55.5475156,54.4304186 C57.0848696,53.60755 58.638328,52.8021362 60.2289505,52.0889834 C61.1877836,51.6600942 61.5544692,50.9743704 61.6089765,49.998149 C61.7204687,48.0245111 61.8146177,46.0496264 61.9855725,44.0809755 C62.0648558,43.1658459 61.7279015,42.5873443 60.9759484,42.1310262 C60.206652,41.6622405 59.4646093,41.1448306 58.744865,40.6024854 C58.5704003,40.4715745 58.4776622,40.2307053 58.3670015,40.0140789 L58.306,39.904 L57.9549162,39.7599744 C57.3368627,39.5130157 56.7066219,39.287558 56.140902,38.9530078 C55.4484114,38.5440671 54.8575026,38.4069223 54.101833,38.8146163 Z M54.5122483,40.841242 C57.751717,40.8163066 60.3668292,43.3759267 60.3977992,46.6000756 C60.4287693,49.8641211 57.6625232,52.5459248 54.2719206,52.5409447 C51.0881981,52.5359506 48.6093542,50.0237078 48.6081149,46.7983121 C48.6068766,43.4956167 51.2120783,40.8661774 54.5122483,40.841242 Z M62.5616157,44.410123 C62.5145412,45.3701364 62.4488846,46.328903 62.3906609,47.2889164 C62.4092429,47.2901631 62.4290638,47.2914099 62.4476458,47.2939035 C62.3559744,48.2489298 62.2791687,49.2076964 62.1689152,50.1614759 C62.0896319,50.8322385 62.3683625,50.8447062 62.8180478,50.5429878 C64.1274621,49.6615209 65.4306824,48.7675864 66.7363802,47.8786389 C67.1736775,47.5819075 67.1687223,47.2839293 66.7685891,46.9423141 C65.6115475,45.9511315 64.4743268,44.9375069 63.3098524,43.9550517 C62.6793019,43.4226806 62.5888693,43.8652842 62.5616157,44.410123 Z M45.8538857,43.3167051 C44.8033811,44.067261 43.7466825,44.8103363 42.6887452,45.5496713 C42.2006569,45.8912865 42.1808361,46.2341484 42.632999,46.6256344 C43.6946528,47.5457511 44.7451574,48.4783356 45.80805,49.3959588 C46.3258694,49.8435494 46.4435557,49.546818 46.4658541,49.0319017 C46.5290331,47.5145819 46.6095552,45.997262 46.6826446,44.4799421 C46.692555,44.4799421 46.7024654,44.4811889 46.711137,44.4811889 C46.7272415,44.2567702 46.7321967,44.0311047 46.7594503,43.806686 C46.8697038,42.871608 46.5054958,42.8491661 45.8538857,43.3167051 Z M63.4485983,35.5854803 C62.540556,35.7213783 62.2184673,36.1639819 62.3671237,37.0778648 C62.4761383,37.7448871 62.4439294,38.4343513 62.4748995,39.1138413 C62.4823323,39.1138413 62.4897651,39.1138413 62.4971979,39.1125945 C62.5318844,39.8481892 62.6371826,40.5887709 62.5851529,41.316885 C62.5207352,42.2070792 62.8378686,42.7893211 63.5501801,43.3204454 C64.8174751,44.2654976 66.029024,45.290343 67.2232296,46.3301497 C67.6865418,46.7341034 68.0346453,46.8375854 68.5214947,46.3987221 C70.2558183,44.8327782 71.882366,43.1783136 72.7594382,40.9565683 C73.8074652,38.2997 72.742095,36.2362946 69.9969086,35.4595565 C67.798034,34.837418 65.6288908,35.2600732 63.4485983,35.5854803 Z M428.060412,7.10542736e-14 C433.331687,15.3248239 438.600476,30.6397062 443.897852,46.0390913 L428.899391,46.0390913 C428.558828,44.9803215 428.235665,43.7910694 427.78821,42.6502821 C427.49985,41.9170964 427.49985,41.1304752 427.165501,40.3985322 C426.752847,39.4938556 426.842339,39.4342066 425.987201,39.4317212 C422.085638,39.4242651 418.184074,39.4292358 414.220363,39.4292358 C413.541722,40.8632973 413.208617,42.4352972 412.749975,43.9662883 C412.676642,44.2098551 412.488959,44.4223547 412.430541,44.6671642 C412.405993,44.7687539 412.403197,44.873295 412.406149,44.9787875 L412.414976,45.1904486 C412.423153,45.4374838 412.404543,45.68244 412.155853,45.8999103 C411.704669,46.2938423 411.203767,46.1024684 410.736425,46.1049538 C406.667065,46.1260794 402.597706,46.1173806 398.528346,46.1173806 L397.347561,46.1173806 C398.701114,42.3495517 399.775007,38.628945 401.109916,35.0139667 C402.2733,31.8649962 403.203014,28.6402218 404.407415,25.5136197 C405.560856,22.5237133 406.461981,19.4542748 407.513502,16.4333012 C408.835982,12.6319198 410.169648,8.83550905 411.464783,5.02542878 C411.958227,3.57272694 412.400711,2.07528834 413.091781,0.687206259 C413.208617,0.453580985 413.356526,0.234867962 413.495734,7.10542736e-14 L428.060412,7.10542736e-14 Z M484.608849,0.335152854 L484.608849,46.1170078 C480.609094,46.1170078 476.660299,46.0946395 472.711504,46.1382781 C472.022919,46.1468323 471.662469,45.7615992 471.374109,45.3390854 C470.195809,43.6080215 469.130616,41.8011537 467.93243,40.0862448 C466.301703,37.7537201 464.832557,35.3180523 463.114825,33.0402059 C461.574832,30.9984701 460.305799,28.7529336 458.908743,26.603084 C458.774506,26.3967978 458.578123,26.2302777 458.29722,25.9196058 L458.29722,46.0349904 L444.578979,46.0349904 L444.578979,0.381132296 L457.890782,0.381132296 C462.151553,6.69771352 466.434697,13.04909 470.939082,19.7272933 L470.939082,0.335152854 L484.608849,0.335152854 Z M331.038999,0.31850084 C332.608822,0.327199653 334.220905,0.339626529 335.736039,0.68509369 C337.538291,1.09518061 339.371616,1.48414184 341.06076,2.33786824 C342.481432,3.05614169 343.863572,3.88252896 344.951138,4.98852095 C346.190341,6.24860621 347.463104,7.57828197 347.883215,9.43609998 C347.995078,9.92696159 348.418918,10.3482327 348.515867,10.8378516 C348.848973,12.5105092 349.228067,14.162041 349.249197,15.9030464 C349.272813,17.8702209 349.082644,19.7939014 348.488522,21.6268656 C348.1144,22.7800798 347.635871,23.9270804 346.898812,24.9846076 C344.99464,27.7110643 344.288655,28.0788998 341.431154,29.9367178 C341.79409,30.5891288 342.108552,31.2962181 342.54855,31.9150765 C343.156344,32.7700456 343.509337,33.7542542 344.143232,34.614194 C344.990912,35.7649228 345.474412,37.1766159 346.205256,38.4217889 C347.520278,40.6611121 348.663776,42.9973648 350.083204,45.1757962 C350.217441,45.379597 350.191339,45.6877835 350.255972,46.0357361 L334.592542,46.0357361 C333.707574,44.3879323 332.756731,42.6208304 331.813346,40.8512433 C330.961937,39.2543897 330.131659,37.6463519 329.269064,36.0569544 C328.673699,34.9609039 328.038561,33.8872218 327.409638,32.7837152 L325.478121,32.7837152 L325.478121,46.1165108 L313.528572,46.1165108 C312.971739,46.1165108 312.411176,46.1525487 311.859314,46.1053266 C311.389486,46.0655606 311.061352,45.8070815 311.07344,45.2702405 C311.078753,45.0465567 311.07344,44.8241156 311.07344,44.6016745 L311.07344,0.3023459 L312.82383,0.3023459 C318.895553,0.3023459 324.967276,0.279977523 331.038999,0.31850084 Z M185.980002,0.342733248 C185.980002,0.812469172 185.962683,1.29686519 185.967573,1.78052284 C185.980002,3.01002381 185.967573,3.95700646 185.967573,5.15441975 C185.967573,6.35183305 185.980002,7.49315787 185.980002,8.66376962 L185.980002,12.3495811 L166.29693,12.3495811 L166.29693,17.6571 L184.264756,17.6571 L184.264756,28.7070784 L166.280772,28.7070784 L166.280772,34.0170826 L186.314351,34.0170826 C186.313712,34.1711049 186.313182,34.2987233 186.312749,34.4065867 L186.31201,34.5979431 L186.311244,34.8558968 L186.311865,35.3368169 C186.316837,38.3453637 186.314351,41.3551531 186.314351,44.3636999 C186.314351,44.6979828 186.329266,45.0335085 186.310622,45.3665488 C186.287006,45.8064602 186.029719,46.0549977 185.599665,46.113404 C185.435598,46.1357724 185.266559,46.1171321 185.098763,46.1171321 L152.269199,46.1171321 L152.269199,0.342733248 L185.980002,0.342733248 Z M241.407688,0.294454834 C243.85906,0.293212146 246.310433,0.297250881 248.762117,0.318376571 C250.33194,0.332046135 251.944023,0.341987636 253.457914,0.693668235 C253.775172,0.767297477 254.095538,0.827490159 254.416953,0.883469353 L255.382284,1.04798955 C256.02519,1.16154013 256.664057,1.29512905 257.282416,1.52254088 C258.444557,1.94878274 259.685004,2.20104833 260.787484,2.74037476 C262.045332,3.35674783 263.178886,4.22538648 264.387016,4.94987337 C266.394351,6.15279499 267.663385,8.030496 268.917503,9.90322626 C269.990153,11.5062933 270.78563,14.0413761 271.306418,15.9339893 C271.784947,17.6712666 271.981331,19.3986024 271.946529,21.1818592 C271.917941,22.6295903 271.878167,24.0810494 271.957715,25.5250525 C272.021353,26.6643485 271.827257,27.7678551 271.611524,28.8591138 L271.449356,29.6756291 C271.185854,31.0338867 270.708568,32.3697759 270.162921,33.6460161 C269.635918,34.8787622 268.973435,36.0667716 268.24632,37.195132 C266.82192,39.4033879 264.844415,41.0685893 262.624538,42.4256042 C260.49291,43.7304262 258.186028,44.6015503 255.726265,45.1508182 C254.259605,45.4788877 252.786731,45.6205541 251.328771,45.867849 C250.013749,46.09029 248.733529,46.0915327 247.44088,46.1014742 C242.490281,46.1399975 237.53844,46.1163865 232.524452,46.1163865 L232.524452,0.302221632 L234.053259,0.302221632 L241.407688,0.294454834 Z M383.348292,0.3023459 L396.626536,0.3023459 L396.626536,46.1165108 L386.444436,46.1165108 C385.552011,46.1165108 384.659586,46.1301803 383.768403,46.1140254 C382.846148,46.0966278 382.657222,45.9027685 382.655979,44.9322294 C382.647279,41.1979531 382.65225,37.4636768 382.65225,33.7294005 L382.65225,24.1855595 C379.702773,29.2184444 376.940978,34.0537419 373.985285,39.0878695 C372.277496,36.5291757 371.013435,34.0400724 369.607678,31.6367145 C368.200679,29.2296285 366.796166,26.8212999 365.279789,24.2253255 L365.279789,46.0817155 L351.270702,46.0817155 L351.270702,0.337141154 L365.726002,0.337141154 C366.732777,2.12164059 367.704749,3.83406414 368.665536,5.55145845 C368.917851,6.00255406 369.132878,6.47353267 369.378979,6.92711366 C370.834452,9.61380431 372.292412,12.2980096 373.759072,14.9784868 C373.836133,15.1189105 373.990257,15.2183255 374.108335,15.3363808 C375.244375,13.2474229 376.433861,11.1845615 377.579845,9.10554507 C378.499614,7.43413021 379.425599,5.75277385 380.310566,4.05774792 C380.884801,2.95796937 381.431691,1.84203587 382.050671,0.768353762 C382.184908,0.537213862 382.564002,0.430342726 382.849877,0.312287401 C382.994057,0.253881083 383.180497,0.3023459 383.348292,0.3023459 Z M136.235002,0.697520567 C137.852057,0.882681024 139.501428,1.32259244 141.019048,2.01476945 C143.057456,2.94305711 144.961628,4.07017479 146.487949,5.77514222 C147.546927,6.95942353 148.628278,9.36278141 149.232343,10.995673 C150.11646,13.3895472 150.007533,15.8361478 149.84037,18.2375619 L149.780476,19.0830841 C149.572906,22.0444087 148.285228,24.7298566 146.152357,26.9120161 C145.685015,27.3892082 145.258689,27.9272919 144.722985,28.3137678 C143.925023,28.8916175 143.04627,29.3601108 142.151359,29.9056506 C142.494408,30.5704885 142.760395,31.3136157 143.210337,31.9188046 C143.710824,32.5926174 144.123416,33.3155241 144.51664,34.0485768 L145.100514,35.150897 C145.393754,35.7009934 145.695372,36.2458429 146.034278,36.7690144 C147.392803,38.8641857 148.370991,41.1755847 149.790419,43.2396889 C150.365897,44.0760177 150.737533,45.0515275 151.278209,46.1165413 L136.678729,46.1165413 C135.975229,46.1165413 135.439526,46.1351511 135.003256,45.2516002 C134.600546,44.4351544 134.102131,43.6174659 133.659647,42.7948067 C132.363269,40.3802647 131.080563,37.9595091 129.786671,35.5437244 C129.299441,34.6328344 128.797297,33.7294005 128.272779,32.7700456 L126.162281,32.7700456 L126.162281,46.0344934 L112.112177,46.0344934 L112.112177,0.3023459 L117.162209,0.3023459 C121.173151,0.3023459 125.186579,0.379392533 129.193792,0.273764085 C131.56282,0.210387016 133.909476,0.432828101 136.235002,0.697520567 Z M202.204616,0.361746369 C206.500189,6.74046197 210.732373,13.0247333 215.031675,19.407177 L215.031675,0.380386684 L229.084265,0.380386684 L229.084265,46.0479144 L216.202517,46.0479144 C211.823667,39.5523862 207.387643,32.9735978 202.959076,26.4059937 C202.869585,26.4383036 202.82111,26.4432743 202.792523,26.4693708 C202.755235,26.504166 202.708003,26.5551162 202.708003,26.5986103 C202.706139,29.8289768 202.705207,33.0593433 202.704741,36.2982533 L202.704275,46.0491571 L188.834396,46.0491571 C188.701405,45.4197548 188.605047,36.9785146 188.56814,27.4273523 L188.564995,26.5692355 C188.563502,26.1388719 188.56213,25.7066841 188.56088,25.2732737 L188.558545,24.4050012 C188.557822,24.1151525 188.557154,23.8249387 188.556541,23.5345381 L188.553367,21.6598132 C188.552837,21.2434199 188.552423,20.8274308 188.552128,20.4123717 L188.551804,17.9373808 C188.55539,10.1618778 188.603235,3.10157435 188.707617,0.361746369 L202.204616,0.361746369 Z M307.364375,0.303961394 C308.162337,0.335028585 308.391037,0.553741608 308.393523,1.40125457 C308.404709,5.0149902 308.398494,8.62748314 308.398494,12.2971397 L288.664462,12.2971397 C288.664462,13.8902653 288.630903,15.4324406 288.698021,16.9696452 C288.707965,17.2206681 289.121861,17.5611645 289.417679,17.6630649 C289.7657,17.7848483 290.188297,17.6916467 290.577334,17.6916467 L306.66709,17.6916467 L306.66709,28.734169 L288.715422,28.734169 L288.715422,34.0416879 L308.689341,34.0416879 L308.689341,46.0472931 L274.654132,46.0472931 L274.654132,0.302718707 L306.529125,0.302718707 C306.807541,0.302718707 307.085958,0.294019893 307.364375,0.303961394 Z M40.1442447,34.027017 C38.2216232,34.5020366 37.0844024,35.8684973 37.1897006,37.8097192 C37.3544614,40.8443589 39.2349636,42.996285 41.177406,45.0709114 C41.3074803,45.2093029 41.8872399,45.0734049 42.1597765,44.9050909 C43.5026384,44.0747417 44.8331124,43.2182102 46.1239446,42.3068209 C46.498063,42.0437523 46.9031514,41.6036422 46.9861512,41.1834805 C47.3354935,39.4105727 47.6030749,37.6189633 47.8136713,35.8236135 C47.8508354,35.5031935 47.5411347,34.9072371 47.2723146,34.8224567 C44.954515,34.0968362 42.6131782,33.4173462 40.1442447,34.027017 Z M60.4965318,36.364712 C59.5054898,36.7574447 58.4772836,37.0566697 57.4738536,37.4219735 C57.006825,37.5927811 56.5620949,37.8234336 56.1074544,38.0266573 C56.4914832,38.3283758 56.8841836,38.6188733 57.2558243,38.9355531 C57.5002814,39.1433482 57.7353786,39.3627798 57.9702922,39.5827656 L58.3,39.89 L59.2547928,40.4417905 C59.8933726,40.8100035 60.5312183,41.1793246 61.1580524,41.5674859 C61.6287973,41.860477 62.0016769,42.0686877 61.9434532,41.2345981 C61.8455878,39.8269941 61.7192299,38.4206368 61.6176481,37.0142795 C61.5606632,36.2250737 61.2063657,36.0841886 60.4965318,36.364712 Z M48.5879229,36.2038786 C48.2844163,37.5815601 48.0205513,38.9667223 47.7566864,40.2671041 C47.8768502,40.6760449 47.4135381,41.4976667 48.3513116,41.0376084 C50.1735902,40.1449206 51.9661374,39.1936346 53.7797444,38.2822452 C54.2864146,38.0291508 54.1464299,37.8122127 53.7685952,37.6301842 C52.3476886,36.9457071 50.9131553,36.288659 49.4897712,35.6054287 C48.8344446,35.2912425 48.6857883,35.761275 48.5879229,36.2038786 Z M246.570827,13.0099453 L246.570827,33.7354896 C248.384265,33.8001094 250.092054,33.4024493 251.812272,33.0805932 C252.914753,32.8743071 253.907855,32.3834455 254.729434,31.6862977 C256.605018,30.0956576 257.400495,27.9333811 257.543432,25.5337513 C257.622979,24.2053182 257.545918,22.8669436 257.562076,21.5335398 C257.575748,20.3529865 257.334619,19.2681202 256.939367,18.1248476 C255.725022,14.6030709 253.4604,13.5766109 250.589227,13.0497113 C249.306521,12.8148434 247.94551,13.0099453 246.570827,13.0099453 Z M59.3035649,25.1212096 C60.8149041,25.0962742 62.0376022,26.2557709 62.0549454,27.7269603 C62.069811,29.1682272 60.8619786,30.3638802 59.3444454,30.4112575 C57.8231959,30.4586348 56.6104082,29.3066187 56.6066832,27.8117407 C56.6029754,26.348032 57.8083303,25.1461451 59.3035649,25.1212096 Z M420.147906,17.5964568 C420.152381,18.8550509 419.793522,19.993303 419.411753,21.1196552 L419.157582,21.8699837 C418.990853,22.3706142 418.834542,22.8736541 418.718535,23.3886239 C418.293452,25.2688103 417.76272,27.1440259 417.046791,29.0329111 L423.92642,29.0329111 C423.652975,28.1245064 423.435462,27.3776512 423.204276,26.6357667 C422.725748,25.1085036 422.245976,23.575027 421.838294,22.0365797 C421.466657,20.6348281 420.911067,19.2703571 420.719655,17.8164126 C420.710955,17.7443367 420.447453,17.707056 420.147906,17.5964568 Z M325.509194,12.3415037 L325.509194,22.3737209 C327.166023,22.3737209 328.770648,22.4122442 330.371545,22.3550806 C331.042728,22.3327122 331.793459,22.2631217 332.35775,21.9487217 C333.859212,21.1111503 334.930619,19.9181701 334.827456,18.0218288 C334.793897,17.4129119 334.834914,16.8002669 334.819999,16.1901072 C334.776496,14.3621137 332.862381,12.3899685 331.03527,12.3502025 C329.210646,12.3104365 327.386022,12.3415037 325.509194,12.3415037 Z M126.134936,12.3415037 L126.134936,22.3737209 L130.920225,22.3737209 C131.030845,22.3737209 131.143952,22.3861478 131.25333,22.3724782 C133.162474,22.1189699 134.865291,21.1881969 135.499186,19.1377623 C135.877038,17.9124723 135.787547,16.7990242 135.532745,15.5662781 C135.342577,14.6454465 134.821788,14.039015 134.319644,13.4002735 C133.747895,12.6720586 132.76225,12.4508602 131.938186,12.3874831 C130.021585,12.2420886 128.086339,12.3415037 126.134936,12.3415037 Z" id="Renderman-Logo-Copy" fill="#1F2937"></path>
    </g>
</svg>