<?xml version="1.0" encoding="UTF-8"?>
<svg width="57px" height="70px" viewBox="0 0 57 70" version="1.1" xmlns="http://www.w3.org/2000/svg" xmlns:xlink="http://www.w3.org/1999/xlink">
    <title>Rocket Icon</title>
    <g id="Page-1" stroke="none" stroke-width="1" fill="none" fill-rule="evenodd">
        <path d="M38.0149857,51.2635762 C38.2913303,51.3091156 38.6006515,51.2896459 38.8390729,51.4102591 C41.3756388,52.6917958 42.9321379,55.9171698 42.042592,58.6699904 C41.400701,60.656562 40.3185714,62.5027207 39.3975329,64.3944187 C39.2852473,64.6252504 38.8957928,64.933136 38.7396482,64.8823167 C38.4850683,64.7996529 38.216803,64.4810424 38.1338667,64.2073113 C37.9936687,63.7445637 37.9437191,63.2544196 37.7431248,62.7110069 L37.6285186,62.4348526 L37.5525405,62.5981237 C37.4161568,62.8697167 37.2481132,63.1387316 37.2250295,63.4197776 C37.0858679,65.1146334 36.9889165,66.8134491 36.9003741,68.5120998 C36.7912213,70.6077349 35.8200582,72.3354252 34.6121226,73.963787 C34.5074216,74.1048599 34.3219278,74.1858738 34.099665,74.3493864 C33.7140178,72.2278168 32.5932687,70.5618042 31.4036466,68.9455205 L30.7316119,68.0389306 C30.5081068,67.7366989 30.286572,67.4335402 30.0713992,67.1267796 C29.390266,66.1554385 28.9914131,65.1053935 28.980201,63.9068506 C28.9750896,63.3715983 28.8979242,62.8371709 28.6646142,62.269909 C28.4885188,62.7092977 28.3124233,63.1486864 28.0370681,63.8357366 C26.3016705,62.0034378 24.9153311,60.1534842 24.6304126,57.7243889 C24.3273569,55.1423408 25.6390042,53.239093 27.5656665,51.4421037 C27.9612217,52.2639569 28.2951106,52.9402823 28.6125111,53.6243625 C28.7854737,53.9972572 28.9248002,54.3854966 29.0886943,54.7625162 C29.3737776,55.4183819 29.6976086,56.0026385 30.3747846,55.4964258 C31.1784262,57.157787 31.9281509,58.8236032 32.7829064,60.4336502 C33.3522487,61.5059699 33.8587704,61.4850152 34.4081618,60.376726 C34.8803878,59.4236997 35.2127927,58.4003843 35.592684,57.4028085 C35.7376165,57.022159 35.8423175,56.6261646 35.9986269,56.1324917 C36.2446329,56.9922944 36.4578271,57.7369288 36.6708564,58.4815631 L36.9303829,58.5426122 C37.2128281,58.2046971 37.570625,57.9048964 37.7645279,57.5221018 C38.5960348,55.8813653 38.7523442,54.1769396 38.0949542,52.4299446 C38.0563715,52.327316 37.9736,52.2283174 37.9726107,52.1271739 C37.9698077,51.839418 37.9986623,51.5514971 38.0149857,51.2635762 Z M16.8185514,36.4834174 C17.7557485,40.5317995 19.0535456,44.4561035 20.7676732,48.2432944 C21.1173908,49.0161433 20.8141703,49.6144248 19.9882695,49.9209904 C19.0893253,50.2544506 18.1638349,50.5318117 17.2985269,50.9375409 C14.237467,52.3723604 12.6625009,54.9303188 11.9899416,58.141503 C11.9393225,58.3833895 11.8710607,58.6229661 11.841052,58.8671626 C11.7637217,59.4961336 11.4278542,59.9046678 10.7973402,59.9467422 C10.1782031,59.9881566 9.72559821,59.6573363 9.58989919,59.0445351 C9.23474039,57.440098 8.87941671,55.8340109 8.59895008,54.2157141 C8.45896409,53.4083806 8.48237753,52.5726675 8.43851855,51.8555878 C8.55459645,46.8942736 9.65288464,42.3327488 12.5284508,38.331886 C13.1807294,37.4243989 13.9711803,36.6018857 14.7791089,35.8247468 C15.5725277,35.0619627 16.5685882,35.4040028 16.8185514,36.4834174 Z M52.1205444,35.811844 C54.3822497,37.8028705 55.8507011,40.3222195 56.8998541,43.1126597 C58.0355708,46.1337665 58.4716873,49.2692167 58.4365671,53.4812765 C58.2040816,54.642365 57.7816504,56.7617597 57.3541078,58.8799994 C57.2169248,59.5594597 56.8040568,59.9815237 56.1018185,59.9470392 C55.421015,59.9135447 55.1608291,59.4345565 55.0343635,58.7928807 C54.8651932,57.9340679 54.6506799,57.0762452 54.363453,56.249937 C53.2198219,52.958894 50.7561345,51.1100954 47.5437116,50.1060848 C47.3080933,50.0324958 47.0637361,49.9836565 46.8335589,49.8967028 C46.0746007,49.6101018 45.7898471,48.9987856 46.1298366,48.2460663 C47.8517138,44.4319808 49.1505001,40.4792973 50.1003933,36.4058355 C50.3381551,35.38615 51.3154189,35.1031791 52.1205444,35.811844 Z M34.3468417,-4.33884748 C37.6639655,-1.49346313 40.5525574,1.72630088 42.8686743,5.44584274 C46.2883555,10.9379543 48.1792381,16.9148289 48.6207958,23.3690417 C49.2363055,32.3650432 47.1749335,40.8087976 43.4498882,48.9215667 C43.1606827,49.5513627 42.7130243,49.8006741 42.0223279,49.7953942 C39.164734,49.7737795 36.3069753,49.7863193 33.4493815,49.7861543 C30.5916228,49.7859893 27.7340289,49.7779045 24.8764351,49.7922592 C24.2358632,49.7955592 23.7718813,49.602347 23.4861384,48.9925157 C20.1952311,41.968236 18.2189389,34.616931 18.1605702,26.8280523 C18.0713683,14.9256173 22.4920565,4.95497476 31.1946013,-3.13304471 C31.637478,-3.54454883 32.0915669,-3.94433812 32.5535701,-4.33422755 C33.2887851,-4.95478368 33.6230037,-4.95989861 34.3468417,-4.33884748 Z M33.4284413,29.4030055 C31.3649258,29.4171953 29.7888056,31.0038126 29.785343,33.0704081 C29.7818805,35.106809 31.3911423,36.7369857 33.4282764,36.7607454 C35.4396887,36.7841751 37.113255,35.1284237 37.1155634,33.1126475 C37.1180367,30.9960578 35.5203167,29.3886507 33.4284413,29.4030055 Z M33.5280308,10.3215231 C29.7594563,10.3147582 26.7757267,13.3089704 26.7991402,17.0742166 C26.822059,20.7431042 29.8006772,23.6917771 33.4955488,23.7036569 C37.1117711,23.7152068 40.1156165,20.6579654 40.0997877,16.9819829 C40.0841238,13.3258002 37.1261159,10.327958 33.5280308,10.3215231 Z" id="Rocket-Icon" fill="#FFFFFF" transform="translate(33.438519, 34.773620) rotate(-330.000000) translate(-33.438519, -34.773620) "></path>
    </g>
</svg>