<svg viewBox="0 0 63 63" xmlns="http://www.w3.org/2000/svg"><path d="m20.9387588 7.63268938c0-1.92702161 1.5595016-3.48979313 3.4897931-3.48979313h13.9591725c1.9302931 0 3.4897931 1.56277152 3.4897931 3.48979313v3.48979312h5.2346897c2.8899849 0 5.2346897 2.3436131 5.2346897 5.2346897v13.9591725l4.8420906 1.6140296c2.5300947.8397312 3.217153 4.0895997 1.2541444 5.8781213l-11.0146629 10.1094925c-1.7667057 1.0142231-3.7842424 1.6467468-5.5509515 1.6467468-2.137499 0-4.4494849-.8397328-6.4561186-2.2247425-2.3992328-1.6903685-5.6163858-1.6903685-8.0265232 0-1.8757635 1.2868599-4.1441293 2.2247425-6.4561169 2.2247425-1.7667075 0-3.7842441-.6325237-5.5509516-1.6576531l-11.01575115-10.0985862c-1.96191867-1.7885216-1.26941218-5.0383901 1.2541444-5.8781213l4.84317895-1.7121794v-13.9591725c0-2.7929268 2.3447047-5.2346897 5.2346897-5.2346897h5.2346897zm-3.4897932 20.36076142 11.7562393-3.9260156c1.4286347-.4689429 2.9772317-.4689429 4.4058665 0l11.7562392 3.9260156v-9.891382h-27.918345zm24.4285519 25.0065492c2.9336067 0 6.0417037-1.1778038 8.4409365-2.8463632h.0109062c1.2977662-.9269763 3.053569-.8506357 4.2749979.1853966 1.5595 1.2977662 3.5443212 2.2901767 5.5182328 2.7482101 1.8757651.4362241 3.042666 2.3228955 2.6064419 4.1986574-.4362242 1.8757651-2.4101424 3.042666-4.1986574 2.6064419-2.6718729-.632527-4.8857124-1.8103309-6.3470626-2.7264009-3.162625 1.6903685-6.7069461 2.8136443-10.3057953 2.8136443-3.4788869 0-6.6087964-1.079654-8.7681046-2.0611583-.6434299-.2835464-1.2105226-.577999-1.7012748-.8397329-.4907521.2617339-1.0578448.5561865-1.7012748.8397329-2.1593082.9815043-5.2892177 2.0611583-8.7681045 2.0611583-3.696999 0-7.1431704-1.1232758-10.3057954-2.8136443-1.45917026.91607-3.67627965 2.0938739-6.3503341 2.7264009-1.87685509.4362241-3.75338237-.7306768-4.19078467-2.6064419-.43744556-1.8757619.72956351-3.7624333 2.60620061-4.1986574 1.97391491-.4580334 3.95000973-1.4504439 5.5149645-2.7482101 1.21597579-1.0360323 2.97614016-1.1123729 4.27390796-.1853966h.0109063c2.410139 1.6685594 5.5073314 2.8463632 8.4409381 2.8463632 2.9990409 0 5.9980819-1.1559946 8.4518427-2.8463632 1.2105227-.861542 2.8245506-.861542 4.0350733 0 2.355611 1.6903686 5.4528018 2.8463632 8.4518427 2.8463632z"/></svg>