<svg viewBox="0 0 63 63" xmlns="http://www.w3.org/2000/svg"><path d="m45.3673106 35.5510344h-10.3712296c-1.9270216 0-3.4897931 1.5627715-3.4897931 3.4897931s1.5627715 3.4897931 3.4897931 3.4897931h10.3712296c1.9270216 0 3.4897932-1.5627715 3.4897932-3.4897931s-1.5595-3.4897931-3.4897932-3.4897931zm-6.9795862 13.9591725h-3.4897932c-1.9270216 0-3.4897931 1.5627715-3.4897931 3.4897931s1.5627715 3.4897931 3.4897931 3.4897931h3.4897932c1.9270216 0 3.3916433-1.5627715 3.3916433-3.4897931s-1.4613502-3.4897931-3.3916433-3.4897931zm13.9591725-27.918345h-17.3508159c-1.9270216 0-3.4897931 1.5627748-3.4897931 3.4897931 0 1.9270199 1.5627715 3.4897931 3.4897931 3.4897931h17.3508159c1.9270216 0 3.4897931-1.5627732 3.4897931-3.4897931 0-1.9270183-1.5595-3.4897931-3.4897931-3.4897931zm6.9795862-13.95917252h-24.3304021c-1.9270216 0-3.4897931 1.56277484-3.4897931 3.48979312 0 1.9270183 1.5627715 3.4897931 3.4897931 3.4897931h24.3304021c1.9270183 0 3.4897932-1.5627748 3.4897932-3.4897931 0-1.92701828-1.5595-3.48979312-3.4897932-3.48979312zm-42.7935875 1.08510888c-1.3217586-1.4460841-3.8235043-1.4460841-5.1463546 0l-9.4987813 10.47919064c-1.39973494 1.4242749-1.30431091 3.6381111.11668909 4.9358773.66971382.6138795 1.51478993.9175976 2.35670265.9175976.94573362 0 1.88666975-.3821288 2.57481306-1.1330905l3.5334165-3.8632022v32.9349226c0 1.9411995 1.5595017 3.5006994 3.4897932 3.5006994s3.4897931-1.5627715 3.4897931-3.4930646v-32.9425574l3.5334149 3.860583c1.3086724 1.4177301 3.5116056 1.5267861 4.9293341.2181121 1.421-1.3032177 1.5158782-3.5137823.2147307-4.9369656l-9.5935497-10.47810234z"/></svg>