<?xml version="1.0" encoding="utf-8"?>
<!-- Generator: Adobe Illustrator 25.0.1, SVG Export Plug-In . SVG Version: 6.00 Build 0)  -->
<svg version="1.1" id="Layer_1" xmlns="http://www.w3.org/2000/svg" xmlns:xlink="http://www.w3.org/1999/xlink" x="0px" y="0px"
	 viewBox="0 0 399 688" style="enable-background:new 0 0 399 688;" xml:space="preserve">
<style type="text/css">
	.st0{opacity:0.1;}
	.st1{fill-rule:evenodd;clip-rule:evenodd;fill:#FFFFFF;}
</style>
<g id="Page-1" class="st0">
	<g id="_x32_020-copy-2" transform="translate(-830.000000, -6099.000000)">
		<g id="Group-18" transform="translate(-18.000000, 4738.000000)">
			<g id="Group-15" transform="translate(136.000000, 624.000000)">
				<g id="Group-13" transform="translate(630.000000, 737.000000)">
					<path id="Combined-Shape" class="st1" d="M314.8,602.4c11.7,11.7,11.7,30.7,0,42.4L153.6,806.1c-11.7,11.7-30.7,11.7-42.4,0
						c-11.7-11.7-11.7-30.7,0-42.4l161.2-161.2C284.1,590.7,303.1,590.7,314.8,602.4z M311.8,497c11.7,11.7,11.7,30.7,0,42.4
						L132.2,719.1c-11.7,11.7-30.7,11.7-42.4,0c-11.7-11.7-11.7-30.7,0-42.4L269.4,497C281.1,485.3,300.1,485.3,311.8,497z
						 M472.1,444.7c11.7,11.7,11.7,30.7,0,42.4L363.2,596c-11.7,11.7-30.7,11.7-42.4,0c-11.7-11.7-11.7-30.7,0-42.4l108.9-108.9
						C441.4,433,460.4,433,472.1,444.7z M433.2-59.2c11.7,11.7,11.7,30.7,0,42.4L219.6,196.8c-11.7,11.7-30.7,11.7-42.4,0
						c-11.7-11.7-11.7-30.7,0-42.4L390.8-59.2C402.5-70.9,421.5-70.9,433.2-59.2z M433,41.9c11.7,11.7,11.7,30.7,0,42.4l-86.3,86.3
						c-11.7,11.7-30.7,11.7-42.4,0s-11.7-30.7,0-42.4l86.3-86.3C402.2,30.2,421.2,30.2,433,41.9z"/>
				</g>
			</g>
		</g>
	</g>
</g>
</svg>
