<?xml version="1.0" encoding="UTF-8"?>
<svg width="399px" height="688px" viewBox="0 0 399 688" version="1.1" xmlns="http://www.w3.org/2000/svg" xmlns:xlink="http://www.w3.org/1999/xlink">
    <title>Combined Shape</title>
    <g id="Page-1" stroke="none" stroke-width="1" fill="none" fill-rule="evenodd" opacity="0.4">
        <g id="2020-copy-2" transform="translate(-830.000000, -6099.000000)" fill="#FFFFFF">
            <g id="Group-18" transform="translate(-18.000000, 4738.000000)">
                <g id="Group-15" transform="translate(136.000000, 624.000000)">
                    <g id="Group-13" transform="translate(630.000000, 737.000000)">
                        <path d="M314.823376,602.430718 C326.539105,614.146447 326.539105,633.141396 314.823376,644.857125 L153.60303,806.077471 C141.887302,817.7932 122.892352,817.7932 111.176624,806.077471 C99.4608948,794.361742 99.4608948,775.366793 111.176624,763.651064 L272.39697,602.430718 C284.112698,590.714989 303.107648,590.714989 314.823376,602.430718 Z M311.818326,497.045942 C323.534055,508.76167 323.534055,527.75662 311.818326,539.472348 L132.213203,719.077471 C120.497475,730.7932 101.502525,730.7932 89.7867966,719.077471 C78.0710678,707.361742 78.0710678,688.366793 89.7867966,676.651064 L269.391919,497.045942 C281.107648,485.330213 300.102597,485.330213 311.818326,497.045942 Z M472.079996,444.674098 C483.795725,456.389827 483.795725,475.384776 472.079996,487.100505 L363.185552,595.994949 C351.469823,607.710678 332.474874,607.710678 320.759145,595.994949 C309.043416,584.279221 309.043416,565.284271 320.759145,553.568542 L429.653589,444.674098 C441.369318,432.958369 460.364267,432.958369 472.079996,444.674098 Z M433.185858,-59.2132034 C444.901587,-47.4974747 444.901587,-28.5025253 433.185858,-16.7867966 L219.63961,196.759451 C207.923882,208.47518 188.928932,208.47518 177.213203,196.759451 C165.497475,185.043723 165.497475,166.048773 177.213203,154.333044 L390.759451,-59.2132034 C402.47518,-70.9289322 421.470129,-70.9289322 433.185858,-59.2132034 Z M432.955104,41.9073773 C444.670833,53.623106 444.670833,72.6180554 432.955104,84.3337841 L346.688077,170.600811 C334.972348,182.31654 315.977399,182.31654 304.26167,170.600811 C292.545942,158.885083 292.545942,139.890133 304.26167,128.174405 L390.528698,41.9073773 C402.244426,30.1916485 421.239376,30.1916485 432.955104,41.9073773 Z" id="Combined-Shape"></path>
                    </g>
                </g>
            </g>
        </g>
    </g>
</svg>