<?xml version="1.0" encoding="UTF-8"?>
<svg width="293px" height="130px" viewBox="0 0 293 130" version="1.1" xmlns="http://www.w3.org/2000/svg" xmlns:xlink="http://www.w3.org/1999/xlink">
    <title>uxhealthcare-logo</title>
    <g id="uxhealthcare-logo" stroke="none" stroke-width="1" fill="none" fill-rule="evenodd">
        <path d="M93.6869538,41.9949301 C99.8150375,42.7383514 105.814565,43.4656114 112.133646,44.2318055 C112.199026,45.308738 112.33199,46.4826384 112.333459,47.6558043 C112.346682,63.1111809 112.271752,78.565823 112.408107,94.0189958 C112.432631,96.7311613 111.424017,98.1364627 109.171715,99.4249617 C92.5615374,108.927826 76.0160054,118.543819 59.4528428,128.128958 C58.505201,128.676975 57.576659,129.258048 56.347663,130 C39.6867979,120.34948 22.868727,110.609339 6.04992157,100.867728 C6.1020786,100.673057 6.15423563,100.479856 6.20639265,100.285185 C9.83387732,99.9759162 13.4745849,99.7680227 17.088112,99.3338705 C22.4536746,98.6903556 27.5239256,96.9640314 32.4935355,94.8880347 C38.2837003,92.468977 42.6024493,88.4051364 45.1552053,82.8059691 C47.2627901,78.1823586 48.7312675,73.2641711 50.3907426,68.4444208 C51.1760365,66.1664075 51.74756,63.8149335 52.4968581,61.2158973 C54.6911264,61.348861 56.614325,61.4377484 58.533116,61.5861388 C64.9712034,62.0856709 71.1639324,61.2364663 77.0481269,58.4420249 C81.7892743,56.1904574 85.5746993,52.8222886 88.7386475,48.7151062 C90.4429335,46.5032074 92.05319,44.2193172 93.6869538,41.9949301 Z M227.439983,99.2000253 C228.202504,99.7069035 229.004694,99.9845846 229.012774,100.285038 C229.111211,103.65688 229.110477,107.03313 229.051708,110.406441 C229.046566,110.680449 228.421416,110.942703 227.522993,111.655271 C227.251189,109.54989 227.049172,107.988852 226.830994,106.288974 L221.186281,106.288974 C220.897581,108.157811 220.674996,109.610128 220.387765,111.468681 C218.643075,109.14806 218.472647,102.54836 219.802284,99.3873499 C221.936314,100.436367 220.143875,102.541748 221.349364,104.088829 L226.848625,104.088829 C227.027134,102.615209 227.207847,101.116612 227.439983,99.2000253 Z M255.94424,99.4536113 C257.857889,100.830998 259.552625,104.039757 261.935687,110.856166 C259.59817,111.778097 259.798718,109.070339 258.09737,108.354833 C257.494259,108.354833 256.403369,108.411397 255.322029,108.340875 C253.954927,108.251988 253.034465,108.728013 252.356424,109.962151 C252.050828,110.517513 251.300795,110.830455 250.300996,111.602526 C251.285368,107.061192 254.04308,101.32098 255.94424,99.4536113 Z M146.382009,98.8984695 C146.631775,100.995035 146.797796,102.396664 146.998343,104.076708 L152.742228,104.076708 C152.928083,102.5715 153.112469,101.077311 153.322567,99.373025 C155.738686,99.9886249 155.061379,101.693646 155.15394,102.955699 C155.261192,104.40728 155.286903,105.883838 155.148063,107.330278 C155.023914,108.621715 155.849611,110.274579 153.952859,111.208998 C152.198619,109.944741 153.600248,107.897394 152.522581,106.331214 L147.143061,106.331214 C146.869787,107.909147 146.597983,109.473858 146.251249,111.468314 C144.169375,110.005713 144.865047,108.299958 144.845947,106.907879 C144.833742,105.958203 144.824457,105.154614 144.823205,104.467954 L144.823852,103.974428 C144.840043,100.666838 145.112864,100.381215 146.382009,98.8984695 Z M245.679884,102.136172 C244.627928,101.872449 243.899198,101.73067 243.196915,101.507349 C241.170137,100.862365 239.452628,101.24436 238.266974,102.64452 C237.184165,103.924203 237.069566,106.29845 238.020881,107.750766 C238.990561,109.230997 240.732312,109.806929 242.868546,109.316946 C243.632536,109.14211 244.3811,108.895282 245.136275,108.681512 C243.971924,111.241614 241.769576,111.900556 239.262365,111.053555 C236.694182,110.185251 235.000181,107.589888 235.201463,104.830707 C235.398337,102.117072 237.460376,99.8779932 240.226903,99.3703805 C242.800228,98.899498 244.35245,99.5841508 245.679884,102.136172 Z M170.727441,100.114757 C169.415671,101.551931 168.0085,101.42964 166.56416,101.305784 L166.15053,101.2717 C165.59781,101.229786 165.0405,101.209178 164.48182,101.296003 C164.359141,102.073216 164.221035,102.945928 164.041057,104.090445 C165.223772,104.196963 166.155987,104.260139 167.082326,104.372533 C167.939611,104.476847 168.791019,104.633319 169.644631,104.767017 C169.654181,105.061594 169.664466,105.356171 169.673281,105.652217 C168.837299,105.80575 168.005725,106.018786 167.162398,106.096654 C166.333762,106.173787 165.492638,106.11355 164.410563,106.11355 C164.310657,107.223539 164.23132,108.113882 164.132882,109.201099 C166.400611,109.410462 168.457508,109.600725 170.51367,109.789518 C170.49604,110.07528 170.479879,110.361777 170.462983,110.646804 C167.844847,111.823643 165.106235,111.164701 162.152384,110.987661 L162.152384,99.5799636 C162.517851,99.5562725 162.879415,99.5264865 163.238157,99.4950463 L163.952197,99.4312757 C166.203437,99.2306839 168.370365,99.0824822 170.727441,100.114757 Z M181.676744,99.1711553 C184.376421,102.66788 185.371812,106.906557 187.799685,111.296563 C186.460499,110.981417 185.594398,110.995374 185.490084,110.719897 C184.543911,108.232521 182.536968,108.197994 180.405141,108.355935 C179.921036,108.39193 179.436196,108.42058 179.16733,108.438211 C177.648899,109.010469 177.931722,111.464788 175.84691,111.048266 C176.147364,107.763842 179.316455,101.113454 181.676744,99.1711553 Z M192.827256,98.8282412 C193.924757,99.7442949 194.713724,100.078541 194.772493,100.511224 C194.965694,101.939298 194.906191,103.402633 194.920883,104.852745 C194.93631,106.274208 194.924556,107.695671 194.924556,108.906302 C196.964557,110.123544 199.144133,108.702816 201.083493,110.421794 C198.337536,111.839584 195.79286,111.099835 192.915408,111.068247 C192.586305,106.973553 192.655358,103.299054 192.827256,98.8282412 Z M291.704348,100.423952 C290.633476,101.482782 289.394171,101.428926 288.09741,101.352585 L287.637525,101.326483 C286.94466,101.291254 286.239351,101.285672 285.538065,101.471501 C285.496192,102.263406 285.449178,103.138322 285.394082,104.189543 C287.371642,104.336464 289.091354,104.464286 290.811067,104.591373 C289.4829,106.792252 287.45906,105.605864 285.618872,106.543955 C285.528515,107.168371 285.399224,108.059448 285.236142,109.181191 C287.529582,109.408184 289.590887,109.61167 291.651457,109.815156 C289.147185,111.89556 286.499664,111.064721 283.64572,111.065456 L283.64572,99.8590404 C287.731599,98.9606172 289.653328,99.0928463 291.704348,100.423952 Z M272.793605,99.4212152 C276.857446,99.911932 278.25687,103.126568 275.938454,106.466087 C275.671792,106.851755 275.324323,107.181593 275.037092,107.509228 C275.678403,108.64346 276.255803,109.666766 276.856711,110.729741 C275.336077,111.620818 274.669054,110.608531 274.163645,109.688069 C273.193965,107.921342 271.838617,107.394629 269.966841,108.028594 C269.136736,108.875595 270.400259,110.923677 267.788734,111.091167 C267.081308,107.329249 267.516195,103.588635 267.506645,99.3910963 C269.667122,99.3910963 271.251667,99.2346253 272.793605,99.4212152 Z M214.007344,100.71706 C212.422799,101.057917 211.246694,101.310622 209.904569,101.598588 C209.328638,104.669241 210.142581,107.945584 209.424137,110.911188 C207.725727,111.216785 207.518569,110.388883 207.508284,109.486787 C207.4789,106.84294 207.498734,104.199093 207.498734,101.733755 C206.20142,100.832393 204.458934,101.979848 203.817623,100.268951 C206.342464,98.8996449 211.445038,98.9694325 214.007344,100.71706 Z M255.961136,101.839612 C255.211103,103.783379 254.751974,104.971972 254.187062,106.436776 L258.065782,106.436776 C257.375253,104.927896 256.820625,103.71653 255.961136,101.839612 Z M181.249938,101.770926 C180.479336,103.809458 180.030492,104.997316 179.489087,106.430532 L183.254678,106.430532 C183.128619,106.137424 183.007262,105.855248 182.886875,105.575339 L182.646288,105.01598 C182.243778,104.080201 181.8244,103.10546 181.249938,101.770926 Z M269.739848,101.337068 L269.739848,105.796861 C271.151026,105.796861 272.22502,105.920275 273.257142,105.765273 C274.514052,105.575745 275.232497,104.525258 274.998892,103.42188 C274.843156,102.687274 273.938121,101.826315 273.182212,101.570672 C272.144948,101.221 270.931379,101.391429 269.739848,101.337068 Z M33.663616,58.2736532 C38.8469963,58.8084464 43.9877694,59.7435999 48.9507678,60.4782059 C49.0140775,60.6318722 49.075748,60.7623163 49.1308766,60.8741729 L49.2309585,61.0744759 C49.3194126,61.2527418 49.3686251,61.3690159 49.3393744,61.4603742 C47.3250846,67.8088397 45.5723146,74.26015 43.1686836,80.4609596 C40.8752436,86.3782114 36.3677008,90.4023833 30.3762539,92.7369613 C22.8156885,95.6834662 15.0846944,97.6713101 6.88355251,97.1445976 C5.73352674,97.0707697 4.58625575,96.9521308 3.43971936,96.8214628 L1.14702749,96.5538009 C0.764875898,96.5097551 0.38265629,96.4668011 0.000293842427,96.4261529 L0.000293842427,67.9366611 C6.65729385,62.812784 13.886552,58.8378306 22.3925554,58.0194795 C26.1111312,57.6617263 29.9332865,57.887985 33.663616,58.2736532 Z M166.092958,18.5387386 C166.187722,19.9859125 166.342724,21.2707385 166.344928,22.5562991 C166.364028,33.8773129 166.317748,45.1983267 166.386066,56.5186059 C166.400758,58.8105767 166.62114,61.1429509 167.095695,63.3827648 C168.025707,67.7668937 170.903893,70.2998153 175.289491,71.187954 C177.992842,71.7352355 180.654319,71.5185268 183.237929,70.6575685 C185.69739,69.8384827 187.553005,68.1474196 188.19505,65.662982 C188.918637,62.8641329 189.562887,59.955093 189.602556,57.0857217 C189.759761,45.6449672 189.667935,34.2012741 189.667935,22.7583157 L189.667935,18.5762035 L211.400521,18.5762035 C211.545238,19.3144826 211.833938,20.1041841 211.835408,20.8938856 L211.845969,25.7327313 L211.845969,25.7327313 L211.877801,35.4106638 C211.901224,43.4755837 211.901798,51.5401807 211.766355,59.6024821 C211.628249,67.7984817 209.149688,75.1849455 202.460365,80.5989921 C197.850712,84.3300562 192.37202,86.0475652 186.652378,86.8225746 C179.861679,87.7415667 173.037924,87.6629639 166.260448,86.3098195 C152.762062,83.6152846 144.674784,74.6530908 144.317031,60.9879491 C143.963686,47.4851553 144.192148,33.9669348 144.183333,20.4553258 C144.183333,19.8815985 144.376534,19.3078711 144.51464,18.5387386 L166.092958,18.5387386 Z M245.015653,20.6987008 C247.849028,25.2437084 250.863117,29.6755867 253.82211,34.142726 C254.342211,34.9280199 254.938711,35.662626 255.708578,36.7013589 C256.901579,35.0073574 257.956473,33.5616527 258.955537,32.078483 C261.539147,28.2416357 264.146263,24.4187458 266.643924,20.5253337 C267.580547,19.0649369 268.625157,18.2576049 270.468283,18.2825815 C276.691866,18.3677958 282.918386,18.3112311 289.144173,18.3354731 C289.706146,18.3376769 290.267385,18.5272053 291.469201,18.7468525 C283.470076,29.6667714 275.419528,39.9703558 267.490925,50.5721903 C275.897022,62.1481124 284.239208,73.6351472 292.874502,85.5262153 C291.55515,85.6290601 290.766917,85.7414548 289.978685,85.742924 C283.875578,85.7576162 277.767329,85.6151026 271.670099,85.8075694 C268.8044,85.8986605 266.983312,85.0913285 265.431089,82.556203 C262.005621,76.9592395 258.223869,71.5797194 254.389226,65.8152658 C253.649478,66.8444489 253.009636,67.6672076 252.44252,68.5362466 C249.182338,73.5330369 245.930972,78.5357041 242.697236,83.5486558 C241.880354,84.814382 241.071553,85.8134462 239.273972,85.7847966 C232.440666,85.6731365 225.604423,85.711336 218.769648,85.6782787 C218.548531,85.6775441 218.327415,85.5129924 217.676554,85.2529418 C219.932529,81.2309737 222.902542,77.7746522 225.497905,74.0817876 C228.157179,70.2978319 230.920032,66.5851329 233.628524,62.8349691 C236.332609,59.0928858 239.02494,55.3419874 241.782652,51.5117514 C233.931917,40.67117 226.161989,29.9415141 217.96452,18.6212349 C219.493235,18.4721098 220.315994,18.3251886 221.138752,18.3222502 C227.609162,18.3024158 234.079573,18.3824879 240.547779,18.2693586 C242.632591,18.2340975 243.914478,18.9319732 245.015653,20.6987008 Z M57.1567581,-7.10542736e-14 C57.9817207,0.667022291 58.7346919,1.45598919 59.6419304,1.98343633 C73.0183719,9.76438359 86.4153824,17.5086005 99.8050469,25.2675096 C101.036247,25.9808121 102.244674,26.7330487 103.373028,27.4118247 C99.6397605,31.1245236 96.1430357,34.5999448 92.297373,38.4235693 C91.0485428,38.2406524 89.2678577,37.9534215 87.4798266,37.7227552 C81.2613864,36.9183615 75.1281605,36.9580303 69.0132998,38.7644265 C60.8209731,41.1834842 55.2379672,46.2721003 52.0754881,54.1191621 C51.5774252,55.3547695 51.0059017,56.5609926 50.4542126,57.7738272 C50.41234,57.8663876 50.2588074,57.9089947 49.944396,58.111746 C45.6976384,57.4594158 41.2532718,56.8313277 36.828005,56.0864371 C24.5277613,54.0141135 13.0385227,55.8829513 2.56965195,62.9175388 C2.16965896,63.1867719 1.74211824,63.4156017 1.30713964,63.6335042 L0.433223714,64.0634732 C0.287904354,64.1356176 0.143248179,64.2087313 5.30064881e-12,64.283906 L5.30064881e-12,32.8721514 C0.919726772,32.2763859 1.81521154,31.6387479 2.76211874,31.0892625 C18.0573513,22.2174253 33.3680105,13.3690955 48.6536931,4.47815847 C51.0551203,3.08020316 53.3478258,1.49712713 55.6912191,-7.10542736e-14 L57.1567581,-7.10542736e-14 Z M90.4713628,41.4380252 C84.0780864,54.9422882 66.9140161,62.8841142 53.6595191,58.2634422 C57.4214367,46.2629178 64.2518037,41.8523431 76.1171606,40.2016833 C80.6526184,39.5713913 86.9533344,39.8248304 90.4713628,41.4380252 Z M108.968596,30.5800336 C111.476541,31.5717518 112.874497,33.2326961 112.38231,36.1637742 C112.148706,37.5485066 112.341907,39.005965 112.341907,40.7455121 C106.418779,41.4250227 101.37277,40.1894153 95.8132711,39.227816 C98.4321416,34.828995 101.697465,31.7539341 105.980219,29.8718734 C106.730986,29.5420353 108.006997,30.2002423 108.968596,30.5800336 Z" id="Combined-Shape-Copy-6" fill="#1F2937"></path>
    </g>
</svg>