<?xml version="1.0" encoding="UTF-8"?>
<svg width="212px" height="208px" viewBox="0 0 212 208" version="1.1" xmlns="http://www.w3.org/2000/svg" xmlns:xlink="http://www.w3.org/1999/xlink">
    <title>Combined Shape</title>
    <g id="Page-1" stroke="none" stroke-width="1" fill="none" fill-rule="evenodd">
        <g id="2020-copy-2" transform="translate(-703.000000, -19423.000000)" fill="#00A6EF">
            <g id="Group-33" transform="translate(90.000000, 19423.000000)">
                <path d="M721.151205,0.0142892933 C778.454836,0.0142892933 824.916349,46.5007201 824.916349,103.84737 C824.916349,161.192186 778.454836,207.678617 721.151205,207.678617 C702.367604,207.678617 684.747557,202.685813 669.551733,193.947031 C649.55877,202.517125 629.587796,205.76804 616.964615,207.000197 C616.845511,207.011198 616.72824,207.018532 616.610968,207.018532 C613.314539,207.018532 611.986073,202.381441 614.683318,200.236167 C623.522659,193.23194 634.86135,181.663964 637.465144,167.011928 C637.551265,166.538868 637.631889,166.060307 637.712514,165.578079 C624.940911,148.322377 617.387892,126.970487 617.387892,103.84737 C617.387892,46.5007201 663.842076,0.0142892933 721.151205,0.0142892933 Z M726.021638,62.9863233 L675.107472,62.9863233 C664.388121,62.9863233 655.697202,71.6810993 655.697202,82.4074678 L655.697202,125.61548 C655.697202,136.341849 664.388121,145.038458 675.107472,145.038458 L726.021638,145.038458 C736.74282,145.038458 745.431908,136.341849 745.431908,125.61548 L745.431908,82.4074678 C745.431908,71.6810993 736.74282,62.9863233 726.021638,62.9863233 Z M777.174011,68.5842042 C775.343476,68.5842042 773.470797,69.1892814 771.843654,70.5332862 L753.137013,85.9975925 L753.137013,85.9975925 C751.196536,87.6001303 750.071462,89.9874348 750.071462,92.5049227 L750.071462,114.515064 C750.071462,116.940874 751.114079,119.249335 752.93362,120.853706 C759.171,126.347074 765.404714,131.840441 771.640261,137.331975 C773.305883,138.798829 775.257355,139.455246 777.168514,139.455246 C781.520387,139.455246 785.656041,136.046644 785.656041,130.997 L785.656041,77.0442835 C785.656041,72.012975 781.535046,68.5842042 777.174011,68.5842042 Z" id="Combined-Shape"></path>
            </g>
        </g>
    </g>
</svg>