<svg viewBox="0 0 63 63" xmlns="http://www.w3.org/2000/svg"><path d="m51.1122072 11.1224825h-24.4285519c-.9596934 0-1.7448966.7808416-1.7448966 1.7448966v1.7448965h-6.9795862v-1.7448965c0-4.81809487 3.9042064-8.72448285 8.7244828-8.72448285h24.4285519c4.8202781 0 8.7244828 3.90638798 8.7244828 8.72448285v24.4285518c0 4.8202781-3.9042047 8.7244829-8.7244828 8.7244829h-1.7448966v-6.9795863h1.7448966c.9596918 0 1.7448966-.7852048 1.7448966-1.7448966v-24.4285518c0-.964055-.7852048-1.7448966-1.7448966-1.7448966zm-47.1122072 13.9591725c0-3.8496767 3.12445474-6.9795863 6.9795863-6.9795863h27.9183449c3.8496768 0 6.9795863 3.1299096 6.9795863 6.9795863v27.918345c0 3.8496767-3.1299095 6.9795862-6.9795863 6.9795862h-27.9183449c-3.85513156 0-6.9795863-3.1299095-6.9795863-6.9795862zm10.4693794 6.9795863h20.9387587c1.9302932 0 3.4897931-1.5595017 3.4897931-3.4897932s-1.5594999-3.4897931-3.4897931-3.4897931h-20.9387587c-1.92702 0-3.4897932 1.5595016-3.4897932 3.4897931s1.5627732 3.4897932 3.4897932 3.4897932z"/></svg>